<svg width="57" height="47" viewBox="0 0 57 47" fill="none" xmlns="http://www.w3.org/2000/svg">
<path d="M50.7687 40.1319C38.2372 31.7324 26.3695 24.7074 19.4173 17.7552C16.7104 15.0483 13.7138 10.9099 10.3126 9.12829C9.25538 8.5745 8.66275 7.6204 7.71129 7.00475C7.33304 6.76 8.79876 16.3005 8.93233 16.9323C10.5597 24.6292 12.0183 32.667 14.5066 40.1319C15.2618 42.3975 19.9355 35.4323 20.0809 35.2478C25.7077 28.1094 31.8322 21.1888 36.9099 13.6408C37.9143 12.1478 42.2223 7.48255 38.2372 7.48255C31.3656 7.48255 24.5547 7.0689 17.6919 7.00476C14.2753 6.97283 9.41597 6.43653 6.27791 7.48255" stroke="black" stroke-width="12" stroke-linecap="round"/>
</svg>
