<svg width="107" height="99" viewBox="0 0 107 99" fill="none" xmlns="http://www.w3.org/2000/svg">
<path d="M83.8232 96C66.9396 96 78.7261 92.0794 90.8315 88.619C102.937 85.1587 95.2606 59.9728 90.8319 39.1667C86.4032 18.3605 88.1242 -7.33333 25.6545 34.5927C-36.8152 76.5188 47.026 83.1405 72.3551 83.1405C90.0058 83.1405 103.893 72.9766 103.893 55.3989C103.893 37.3213 96.797 25.6792 83.8232 13.7865C69.8122 0.942979 46.6628 7.30761 29.3494 8.2383C14.1246 9.05672 8.02402 31.0476 8.02402 49.5C8.02402 67.9524 18.263 71.6371 35.2428 78.8251C53.4355 86.5266 68.4953 84.4946 78.7263 66.4955C86.6116 52.6231 93.843 21.226 77.7706 10.8583C44.5303 -10.5839 27.143 15.4402 16.2884 45.8435C8.2791 68.2771 6.66471 81.6822 29.3494 92.0794C54.8618 103.773 77.8695 87.4375 90.8316 67.7285C96.8624 58.5585 98.7558 35.8644 98.1585 24.8832C97.3553 10.1173 71.9991 1.07016 60.8869 8.2383" stroke="white" stroke-width="6" stroke-linecap="round"/>
<circle cx="54.6671" cy="48.7618" r="38.381" fill="white"/>
<path d="M49.2734 37C48.7741 37.4045 49.0761 38.3598 48.6901 38.86C48.4107 39.2221 48.5127 39.6555 48.2734 40" stroke="#287EFF" stroke-width="7" stroke-linecap="round"/>
<path d="M61.2734 37C61.194 38.0292 60.8848 39.1196 60.2734 40" stroke="#287EFF" stroke-width="7" stroke-linecap="round"/>
<path d="M50.2734 46C50.2734 50 54.7734 50.5 55.7734 46" stroke="#287EFF" stroke-width="4" stroke-linecap="round"/>
<path d="M69.3077 40.8843C69.1248 40.3962 67.4975 41.0115 67.2912 41.1741C66.6917 41.6465 66.8793 42.9327 67.2663 43.7051C67.441 44.0537 69.0225 44.5741 68.7412 44.6877C67.4757 45.1989 68.0468 46.3724 68.4961 47.9041C68.7138 48.6463 69.2506 48.7876 69.7339 49.2296C69.9648 49.4409 70.175 49.6788 70.4338 49.8322C70.4658 49.8511 70.8178 49.9492 70.7224 50.0439C70.2263 50.5364 69.9058 50.8008 70.352 51.704C70.5682 52.1418 71.2125 53.627 71.6289 53.7899C71.913 53.901 71.7226 54.6474 72.0316 55.0694" stroke="#287EFF" stroke-width="4" stroke-linecap="round"/>
<path d="M72.7573 40.5478C73.6939 41.148 74.4924 41.6774 74.9369 42.741C75.1999 43.3703 75.304 44.0523 75.5587 44.6772C75.6922 45.0047 75.9891 45.1852 76.1136 45.56C76.6932 47.3046 77.225 49.0436 77.703 50.8274C78.4811 53.7317 78.2295 56.0838 76.904 58.54" stroke="#287EFF" stroke-width="4" stroke-linecap="round"/>
<path d="M41.6632 55C42.1552 55.0546 41.991 56.931 41.8927 57.1925C41.6071 57.9527 40.3828 58.1171 39.5802 57.9286C39.218 57.8435 38.3531 56.3337 38.318 56.6601C38.1604 58.1284 36.9452 57.8596 35.4318 57.819C34.6984 57.7992 34.4373 57.2769 33.9137 56.895C33.6635 56.7125 33.3939 56.5591 33.1899 56.3312C33.1647 56.303 32.9884 55.9621 32.9251 56.0884C32.5957 56.746 32.4322 57.1557 31.4952 56.9419C31.0411 56.8384 29.5224 56.5805 29.271 56.1902C29.0995 55.924 28.4625 56.3327 28 56.1276" stroke="#287EFF" stroke-width="4" stroke-linecap="round"/>
<path d="M41 53.0588C40.2426 51.9758 39.581 51.0593 38.5286 50.8366C37.9058 50.7048 37.2742 50.8146 36.6573 50.6928C36.334 50.629 36.1026 50.282 35.7394 50.2484C34.0487 50.0919 32.3743 50 30.6729 50C27.9029 50 25.8697 51.231 24 54" stroke="#287EFF" stroke-width="4" stroke-linecap="round"/>
</svg>
