<svg width="740" height="739" viewBox="0 0 740 739" fill="none" xmlns="http://www.w3.org/2000/svg">
<path d="M273.132 337.016C272.381 336.258 270.494 336.625 267.469 338.118C268.985 336.618 270.498 335.871 272.006 335.879C273.139 335.508 273.897 334.757 274.28 333.628C279.931 334.789 284.834 334.814 288.988 333.704C288.234 333.7 287.288 334.261 286.151 335.386C281.629 334.609 277.29 335.152 273.132 337.016C276.145 337.786 279.16 338.179 282.177 338.194C284.818 337.831 288.025 337.659 291.796 337.678C289.15 338.796 285.942 339.345 282.171 339.326C278.024 338.927 274.435 340.229 271.402 343.23C273.282 344.371 275.545 344.383 278.191 343.265C280.461 341.768 283.288 341.971 286.673 343.875C288.185 343.128 290.073 342.761 292.335 342.772C294.223 342.405 296.11 342.038 297.998 341.67L297.429 342.233C298.18 342.991 299.309 343.374 300.818 343.382C301.572 343.386 302.326 343.39 303.08 343.394C303.452 344.527 303.45 344.904 303.074 344.525C302.324 343.767 301.947 343.765 301.943 344.519C303.073 344.902 304.208 344.154 305.349 342.274C312.887 343.067 320.242 342.917 327.413 341.822C334.205 341.103 341.371 341.14 348.909 341.933C352.692 339.69 357.039 337.638 361.952 335.778C357.805 335.38 353.655 335.735 349.501 336.845C345.722 338.334 341.945 339.446 338.17 340.181C338.557 338.297 338.184 337.541 337.05 337.912C335.163 338.28 333.463 338.836 331.95 339.583C332.716 337.324 332.341 336.945 330.825 338.446C330.454 337.312 331.022 336.75 332.531 336.757C333.66 337.14 334.416 336.767 334.799 335.638C332.165 334.493 329.527 334.102 326.886 334.466C323.865 335.204 320.658 335.376 317.266 334.982C318.009 337.248 319.324 338.198 321.211 337.83C322.724 337.084 323.857 336.713 324.611 336.717C322.72 337.838 321.209 338.207 320.08 337.825C318.95 337.442 317.628 338 316.111 339.501L317.8 341.207C317.421 341.582 316.856 341.391 316.106 340.632C315.355 339.874 314.601 339.87 313.843 340.621C313.472 339.487 313.663 338.923 314.417 338.927C314.792 339.306 315.17 339.308 315.549 338.932C314.04 338.925 313.096 339.108 312.717 339.484C312.338 339.859 311.772 340.044 311.017 340.04C311.017 340.04 311.965 339.103 313.86 337.227C312.731 336.844 311.975 337.217 311.592 338.346C310.834 339.097 309.704 338.714 308.204 337.197C309.72 335.697 311.422 334.763 313.309 334.395C314.443 334.024 316.332 333.28 318.978 332.162C319.357 331.787 319.357 331.787 318.978 332.162C317.844 332.533 317.09 332.529 316.715 332.15C317.098 331.021 318.421 330.462 320.684 330.474C322.571 330.106 324.269 329.926 325.778 329.934C325.019 330.685 324.263 331.058 323.509 331.054C322.38 330.671 321.059 330.853 319.546 331.599C323.689 332.752 327.648 332.961 331.423 332.226C335.198 331.491 338.594 331.132 341.611 331.147L340.474 332.273C344.62 332.671 348.014 332.689 350.656 332.326C353.673 332.341 356.879 332.169 360.275 331.81L359.707 332.372C363.849 333.525 367.438 332.224 370.475 328.468C373.511 324.713 376.921 321.713 380.704 319.47C389.778 314.991 399.044 309.948 408.501 304.34C418.712 298.736 428.17 293.128 436.873 287.516L435.747 286.378C444.825 281.145 454.278 276.292 464.107 271.817C474.311 267.721 483.578 262.301 491.91 255.555C496.451 252.562 501.369 249.57 506.664 246.581C512.714 243.595 518.941 242.684 525.346 243.849L525.909 244.417C528.16 246.692 529.657 248.962 530.399 251.229C531.521 253.12 533.588 254.451 536.601 255.221C537.336 258.996 539.202 262.777 542.2 266.563C545.572 270.729 547.249 274.698 547.229 278.469C543.052 284.104 537.561 288.413 530.758 291.395C524.708 294.381 518.655 298.121 512.597 302.615C505.415 305.972 498.417 309.896 491.606 314.386C485.174 318.501 478.747 321.485 472.326 323.337C487.384 328.695 502.07 332.919 516.385 336.01C517.135 336.768 517.133 337.146 516.379 337.142C516.379 337.142 516.754 337.521 517.504 338.279C523.159 338.685 529.185 340.225 535.583 342.898C542.734 345.575 549.702 347.308 556.486 348.097L558.738 350.371C559.867 350.754 560.055 350.944 559.3 350.94C558.925 350.561 559.117 349.996 559.875 349.246C561.747 351.896 564.379 353.418 567.771 353.812C571.917 354.211 575.876 354.42 579.647 354.439C579.639 355.948 578.883 356.321 577.379 355.559C576.249 355.176 575.307 354.983 574.553 354.979C574.924 356.112 575.864 356.683 577.373 356.69C579.635 356.702 581.335 356.145 582.473 355.02C583.598 356.157 585.48 356.921 588.118 357.312C590.756 357.702 592.643 357.335 593.78 356.209C596.786 358.488 599.232 359.443 601.12 359.076L601.114 360.207L600.545 360.77C605.438 362.681 609.766 364.4 613.529 365.928C617.668 367.835 621.25 368.042 624.274 366.549C624.267 368.058 624.827 369.004 625.957 369.387C627.465 369.394 628.597 369.4 629.351 369.404C630.101 370.162 631.231 370.545 632.739 370.553C634.623 370.94 635.561 371.888 635.553 373.396C641.212 373.048 647.044 375.53 653.051 380.84C659.437 385.776 665.642 389.014 671.669 390.553C670.144 393.563 667.874 395.059 664.857 395.044C662.594 395.032 659.951 395.773 656.926 397.266C658.051 398.403 659.368 398.975 660.877 398.983L659.74 400.109C657.86 398.967 656.73 398.585 656.351 398.96C656.347 399.714 655.966 400.466 655.208 401.217C654.833 400.838 655.214 400.085 656.351 398.96C654.1 396.685 652.967 397.057 652.951 400.074C652.936 403.09 653.682 404.603 655.191 404.611C653.295 406.486 650.843 406.662 647.834 405.138C645.204 403.239 642.939 403.605 641.04 406.235C638.406 405.09 635.585 403.755 632.575 402.231C629.941 401.086 626.739 400.504 622.968 400.484C621.475 397.46 618.276 396.123 613.372 396.475C609.221 396.831 605.266 395.867 601.507 393.585C601.132 393.206 600.755 393.204 600.376 393.579C599.621 393.575 598.865 393.949 598.107 394.699C596.227 393.558 594.344 393.171 592.456 393.538C592.081 393.159 592.083 392.782 592.462 392.407C593.595 392.036 593.787 391.471 593.036 390.713C592.286 389.955 591.155 389.949 589.642 390.695C588.884 391.446 587.94 391.629 586.811 391.246C586.819 389.738 585.316 388.599 582.303 387.829C579.669 386.684 577.219 386.483 574.952 387.225C574.577 386.846 574.389 386.657 574.389 386.657C575.144 386.661 575.333 386.473 574.958 386.094C573.45 386.086 571.564 386.076 569.301 386.065C567.039 386.053 564.217 384.718 560.837 382.061L559.711 380.924C558.21 379.408 556.7 379.777 555.18 382.032C552.925 380.512 549.912 379.742 546.141 379.722C543.124 379.707 540.109 379.314 537.096 378.544C536.345 377.786 536.535 377.599 537.664 377.982C538.794 378.364 539.173 377.989 538.801 376.856C536.543 376.09 534.847 375.893 533.713 376.264C533.721 374.756 532.402 374.56 529.756 375.678C527.486 377.175 525.979 376.79 525.237 374.523C520.708 375.254 516.561 374.855 512.798 373.328C509.413 371.424 505.267 371.026 500.359 372.132C500.742 371.002 498.299 369.293 493.031 367.003C490.768 366.991 489.069 367.548 487.931 368.673C484.93 365.641 481.913 365.625 478.88 368.627C478.888 367.118 477.386 365.979 474.373 365.209C471.36 364.439 468.53 364.613 465.885 365.731C465.134 364.973 464.947 364.783 465.322 365.163C466.076 365.166 466.643 364.981 467.022 364.606C464.388 363.461 462.127 363.072 460.239 363.439C459.106 363.81 457.602 363.048 455.726 361.153C451.572 362.263 447.423 362.242 443.281 361.089C439.138 359.936 435.365 360.294 431.961 362.162C431.586 361.783 430.646 361.212 429.142 360.45C423.104 361.173 416.5 362.082 409.328 363.176C402.532 364.65 396.493 365.75 391.209 366.477C387.805 368.345 385.728 368.9 384.978 368.142C383.083 370.017 380.623 371.702 377.598 373.195C374.948 375.067 372.115 375.995 369.098 375.979C368.332 378.238 366.818 379.362 364.555 379.35C362.292 379.338 360.401 380.46 358.881 382.715C358.506 382.336 357.941 382.144 357.187 382.14C356.432 382.136 355.868 381.945 355.493 381.566C355.481 383.829 354.344 384.954 352.081 384.942C349.818 384.931 348.304 386.054 347.538 388.313L345.85 386.607L344.144 388.296L345.269 389.433C343.003 390.175 340.928 390.353 339.044 389.966C337.157 390.334 335.64 391.834 334.495 394.468C332.991 393.706 332.805 393.14 333.938 392.768C335.072 392.397 335.64 391.834 335.644 391.08C333.002 391.444 330.738 391.809 328.85 392.176C326.963 392.544 324.882 393.853 322.607 396.104C324.495 395.737 326.384 394.992 328.276 393.87C329.788 393.124 331.297 393.132 332.801 393.894C329.78 394.632 327.512 395.752 325.995 397.253C324.479 398.754 322.404 398.931 319.77 397.786L318.07 398.343C316.19 397.202 314.117 397.003 311.851 397.745C309.959 398.867 308.068 399.989 306.176 401.11C304.281 402.986 302.2 404.295 299.933 405.038C298.042 406.159 296.156 406.15 294.277 405.009C292.373 408.393 289.911 410.454 286.891 411.193C283.491 412.307 280.282 412.856 277.265 412.84L277.828 413.409C274.807 414.148 272.164 414.888 269.897 415.631C267.251 416.749 264.611 416.735 261.977 415.59C260.844 415.961 260.463 416.713 260.834 417.847C261.206 418.98 261.012 419.922 260.254 420.672C259.504 419.914 258.564 419.344 257.434 418.961C255.551 418.574 254.605 419.135 254.597 420.643C253.847 419.885 252.716 419.879 251.203 420.626C249.691 421.372 249.122 421.935 249.497 422.314C250.635 421.188 251.199 421.38 251.192 422.888C250.809 424.018 251.94 424.023 254.586 422.906C254.957 424.039 254.388 424.602 252.88 424.594C251.371 424.586 250.426 425.147 250.043 426.276C248.917 425.139 247.79 424.379 246.66 423.996C245.152 423.988 243.833 423.793 242.703 423.41C243.45 424.922 244.2 425.681 244.954 425.684C244.954 425.684 245.709 425.688 247.217 425.696C244.572 426.814 242.119 426.99 239.86 426.224C237.226 425.079 234.395 425.63 231.367 427.877L230.229 429.003C230.604 429.382 231.169 429.573 231.923 429.577C232.302 429.202 232.68 429.204 233.055 429.583C233.055 429.583 234.567 428.836 237.592 427.343C237.205 429.227 237.578 429.983 238.712 429.612C239.091 429.237 239.655 429.428 240.406 430.186C238.893 430.933 238.137 431.306 238.137 431.306C237.383 431.302 236.441 431.109 235.312 430.726C234.182 430.343 234.182 430.343 235.312 430.726C235.687 431.105 235.497 431.293 234.743 431.289C231.351 430.894 227.953 431.631 224.549 433.499C221.145 435.367 217.368 436.479 213.218 436.834C211.334 436.447 209.828 436.063 208.698 435.68C207.569 435.297 206.811 436.047 206.424 437.931C206.799 438.31 207.366 438.124 208.124 437.374C208.503 436.999 209.07 436.813 209.824 436.817C209.058 439.076 207.731 440.389 205.844 440.756C203.956 441.123 202.069 441.491 200.181 441.858C199.431 441.1 198.11 441.282 196.218 442.403C193.948 443.9 192.254 443.326 191.136 440.68C189.229 444.819 187.336 446.317 185.456 445.176C182.822 444.031 181.122 444.588 180.356 446.847C179.981 446.468 179.604 446.466 179.225 446.841C178.846 447.216 178.281 447.025 177.531 446.267C176.397 446.638 176.208 446.826 176.962 446.829C177.716 446.833 178.469 447.214 179.219 447.973C176.956 447.961 175.26 447.764 174.131 447.381C172.622 447.373 171.489 447.744 170.731 448.494C170.348 449.624 170.725 449.626 171.862 448.5C172.62 447.75 173.371 448.508 174.113 450.775C172.976 451.9 172.032 452.084 171.282 451.326C170.156 450.188 169.217 449.618 168.462 449.614C162.042 451.467 156.379 452.569 151.474 452.92C151.095 453.296 151.281 453.862 152.031 454.62C149.765 455.363 147.692 455.164 145.812 454.023C143.932 452.881 142.799 453.253 142.412 455.136C142.783 456.27 143.346 456.838 144.1 456.842C144.854 456.846 144.665 457.034 143.532 457.405C139.389 456.252 134.111 455.848 127.698 456.192L128.261 456.76C124.482 458.249 120.895 459.174 117.499 459.533C113.724 460.268 110.326 461.005 107.305 461.743L105.054 459.469C99.012 460.946 92.7867 461.48 86.3776 461.069C79.5934 460.28 72.6215 459.301 65.4621 458.133L63.7739 456.427C61.8863 456.795 60.3778 456.787 59.2484 456.404C57.3648 456.017 55.2916 455.818 53.0289 455.806L38.3622 447.81C36.4941 444.407 34.4366 441.19 32.1894 438.162C29.5632 435.508 27.1266 432.667 24.8795 429.639C23.7656 426.239 22.0871 422.647 19.8439 418.864C17.2216 415.457 15.5431 411.865 14.8083 408.09C11.7953 407.32 10.2946 405.804 10.3063 403.541C10.318 401.279 11.4591 399.399 13.7296 397.902L13.6945 404.69C14.8278 404.319 15.584 403.946 15.963 403.571C16.7212 402.82 16.9127 402.256 16.5375 401.877C15.7833 401.873 15.4081 401.494 15.412 400.739C18.0577 399.622 20.3282 398.125 22.2235 396.249C23.7437 393.994 25.2599 392.493 26.7723 391.747C27.5304 390.997 27.72 390.809 27.3409 391.184C26.9618 391.559 26.5847 391.557 26.2096 391.178C37.9373 384.074 49.282 378.098 60.2438 373.252C70.8265 368.781 82.1595 365.068 94.2429 362.114C94.9932 362.872 94.9913 363.249 94.237 363.245C92.7286 363.237 91.5953 363.609 90.8371 364.359C94.9874 364.003 98.7683 362.137 102.18 358.761C107.084 358.409 111.426 357.489 115.205 356C118.605 354.886 122.57 353.963 127.099 353.233C123.316 355.476 119.158 357.34 114.625 358.825C109.337 360.306 104.613 362.356 100.451 364.974C102.327 366.87 104.212 366.879 106.108 365.004C105.342 367.262 103.829 368.009 101.57 367.243C98.9325 366.852 96.6679 367.218 94.7764 368.339C97.4143 368.73 100.054 368.744 102.696 368.38C104.583 368.013 105.91 366.7 106.676 364.441C113.101 361.834 119.334 359.792 125.376 358.315C131.417 356.838 137.84 354.608 144.644 351.626C145.765 353.518 147.651 353.527 150.301 351.655C152.575 349.404 154.843 348.285 157.106 348.296L156.538 348.859C158.421 349.246 159.934 348.499 161.075 346.62C162.216 344.74 163.353 343.614 164.486 343.243C165.612 344.38 165.797 344.947 165.043 344.943C163.535 344.935 163.156 345.311 163.906 346.069C165.414 346.076 166.548 345.705 167.306 344.955C168.064 344.205 168.818 344.208 169.569 344.967L167.863 346.655C173.889 348.194 179.362 347.28 184.282 343.911C184.649 345.799 186.346 345.996 189.37 344.503C192.016 343.385 194.093 342.83 195.602 342.838C192.569 345.84 188.602 347.139 183.702 346.737C178.801 346.334 175.022 347.823 172.365 351.204C164.443 351.54 156.706 352.82 149.152 355.044C141.598 357.267 133.666 359.489 125.358 361.709C132.529 360.615 139.136 359.329 145.177 357.851C151.219 356.374 157.638 354.899 164.434 353.425C167.064 355.325 170.464 354.211 174.633 350.084C174.626 351.592 175.001 351.971 175.759 351.221C175.763 350.467 175.95 350.656 176.322 351.79C180.859 349.55 185.39 348.442 189.916 348.466C194.066 348.11 198.222 346.623 202.384 344.005L197.29 344.544C197.282 346.053 197.847 346.244 198.984 345.119L198.415 345.681C197.661 345.677 197.094 345.863 196.715 346.238C195.969 344.726 196.727 343.975 198.99 343.987C200.498 343.995 201.633 343.247 202.396 341.742C203.529 341.371 203.529 341.371 202.396 341.742C201.262 342.113 199.941 342.295 198.433 342.287C198.816 341.158 200.139 340.599 202.401 340.611C204.285 340.998 205.792 341.382 206.921 341.765C210.325 339.897 213.346 339.159 215.983 339.549C217.867 339.936 220.509 339.573 223.909 338.459C226.183 336.208 228.264 334.899 230.152 334.531C231.66 334.539 233.358 334.359 235.246 333.992C236.363 336.638 238.245 337.402 240.891 336.284C243.161 334.787 245.426 334.422 247.685 335.188C244.652 338.189 241.252 339.303 237.485 338.529C232.964 337.752 228.811 338.484 225.028 340.728C227.287 341.493 230.304 341.509 234.079 340.774C237.475 340.415 241.247 340.434 245.393 340.833C240.86 342.318 236.33 343.049 231.805 343.025C226.904 342.623 221.621 343.35 215.954 345.206C215.95 345.96 216.515 346.152 217.648 345.781C218.406 345.03 218.217 345.218 217.08 346.343C216.697 347.473 216.318 347.848 215.943 347.469C215.192 346.711 214.248 346.894 213.111 348.02C214.62 348.028 216.128 348.036 217.637 348.043C218.391 348.047 219.149 347.297 219.911 345.792C220.286 346.171 220.284 346.549 219.905 346.924C221.039 346.552 222.172 346.181 223.305 345.81C224.059 345.814 225.191 345.82 226.699 345.827C228.219 343.573 230.109 342.828 232.368 343.594C234.251 343.981 235.945 344.555 237.45 345.317C237.454 344.563 238.587 344.192 240.85 344.203C240.467 345.333 240.653 345.9 241.407 345.903C242.161 345.907 243.105 345.724 244.238 345.352C244.617 344.977 244.619 344.6 244.244 344.221C245.756 343.475 247.458 342.541 249.35 341.419C250.862 340.672 252.371 340.68 253.875 341.442C255.384 341.45 256.892 341.458 258.401 341.466C259.534 341.094 260.663 341.477 261.789 342.615C260.655 342.986 259.714 342.792 258.963 342.034C257.834 341.651 256.701 342.023 255.563 343.148C257.822 343.914 260.272 344.115 262.914 343.752C264.802 343.384 267.252 343.586 270.265 344.355C269.519 342.843 270.279 341.716 272.545 340.973C271.795 340.215 271.609 339.648 271.989 339.273L261.8 340.352C262.187 338.468 263.887 337.911 266.9 338.681L267.469 338.118C270.486 338.134 272.373 337.767 273.132 337.016ZM267.258 378.847C273.304 376.616 279.539 374.197 285.964 371.59C292.013 368.604 298.248 366.185 304.669 364.332C302.414 362.812 300.341 362.613 298.45 363.735C296.558 364.856 294.483 365.034 292.224 364.268L293.93 362.58C292.046 362.193 290.538 362.185 289.405 362.557C287.896 362.549 286.392 361.787 284.891 360.27C279.224 362.127 274.128 363.043 269.603 363.02C264.699 363.372 259.605 363.911 254.321 364.638C253.195 363.501 252.066 363.118 250.933 363.489C249.42 364.236 247.533 364.603 245.27 364.591C244.137 364.963 243.381 365.336 243.002 365.711C242.243 366.461 241.3 366.645 240.17 366.262C240.924 366.266 241.868 366.082 243.002 365.711C243.381 365.336 243.195 364.769 242.445 364.011C239.799 365.129 236.403 365.488 232.257 365.09C228.11 364.691 224.335 365.426 220.931 367.294L219.806 366.157C219.431 365.778 219.433 365.401 219.812 365.025C214.903 366.131 210.184 367.05 205.655 367.781C201.126 368.512 196.595 369.62 192.061 371.105C192.065 370.35 191.311 370.347 189.799 371.093L186.399 372.207C185.648 371.449 185.65 371.072 186.405 371.075C187.159 371.079 186.971 370.89 185.842 370.507C182.063 371.996 178.286 373.108 174.511 373.842C170.357 374.952 166.2 376.439 162.042 378.304L160.917 377.166C157.505 380.543 153.349 382.03 148.449 381.627L149.586 380.502C145.056 381.233 141.092 382.155 137.692 383.269C133.917 384.004 129.573 385.301 124.661 387.161L126.367 385.473C119.192 387.322 112.579 389.739 106.53 392.725C100.48 395.711 93.6787 398.315 86.1247 400.539C85.3743 399.781 85.1887 399.214 85.5677 398.839C85.5677 398.839 85.3802 398.65 85.005 398.27C83.1096 400.146 81.0287 401.456 78.7621 402.198C76.4955 402.941 74.4145 404.25 72.5191 406.126C73.6564 405 73.6603 404.246 72.5308 403.863C69.1231 406.485 65.3383 409.106 61.1764 411.724C56.6393 413.963 53.9819 417.344 53.2043 421.865C53.9507 423.378 56.2115 423.766 59.9866 423.032C61.495 423.039 63.3787 423.426 65.6375 424.192C67.8963 424.958 69.78 425.345 71.2884 425.353C72.7969 425.361 74.3054 425.368 75.8138 425.376C76.9471 425.005 78.0785 425.011 79.2079 425.394C81.8419 426.539 84.4798 426.93 87.1216 426.566C89.3843 426.578 91.266 427.342 92.7666 428.858L95.6097 426.044C98.2475 426.435 100.317 427.388 101.817 428.905C111.263 425.559 120.513 423.533 129.568 422.826C138.623 422.118 147.873 420.092 157.318 416.746C159.202 417.133 161.277 416.955 163.544 416.213C165.435 415.091 167.135 414.534 168.643 414.542C169.398 414.546 170.154 414.173 170.912 413.422C177.329 412.324 183.371 410.847 189.037 408.99C194.704 407.134 200.935 405.469 207.731 403.996C215.297 399.509 222.665 396.719 229.836 395.625C236.632 394.151 243.625 390.982 250.816 386.116C253.075 386.882 255.529 386.329 258.178 384.457C260.449 382.96 263.476 381.09 267.258 378.847ZM630.592 238.735C629.462 238.353 628.518 238.536 627.76 239.287C627.756 240.041 627 240.414 625.492 240.406C623.229 240.395 621.152 240.949 619.261 242.071C617.748 242.818 616.236 243.564 614.723 244.31C613.211 245.057 611.701 245.426 610.192 245.418C609.059 245.79 607.742 245.217 606.241 243.701C605.491 242.943 603.986 242.181 601.727 241.415C599.844 241.028 597.579 241.393 594.933 242.511C593.058 240.616 592.124 238.914 592.131 237.405C592.514 236.276 592.71 234.957 592.718 233.449C590.467 231.174 588.018 230.596 585.372 231.714C583.141 225.668 581.093 220.566 579.229 216.408C578.119 212.254 576.823 207.533 575.342 202.246C580.266 198.123 585.184 195.131 590.097 193.271C595.388 191.035 600.656 193.325 605.901 200.141C607.409 200.149 608.54 200.154 609.295 200.158C610.049 200.162 611.18 200.168 612.689 200.176C615.311 203.584 616.991 206.798 617.73 209.819C618.848 212.464 619.778 214.921 620.52 217.187C621.638 219.833 622.756 222.478 623.874 225.124C624.991 227.77 626.861 230.797 629.484 234.204C627.971 234.951 628.341 236.461 630.592 238.735ZM571.634 372.5C569 371.355 566.175 370.775 563.158 370.759C560.52 370.368 558.263 369.225 556.387 367.33C556.008 367.705 555.254 367.701 554.124 367.318C553.374 366.56 553.183 367.125 553.55 369.013C554.308 368.262 555.062 368.266 555.813 369.024C556.942 369.407 557.128 369.974 556.37 370.724C559.379 372.248 561.827 372.827 563.715 372.459C565.602 372.092 567.863 372.481 570.497 373.626L571.634 372.5ZM292.37 335.984C290.87 334.468 289.742 333.708 288.988 333.704C292.384 333.344 295.593 332.795 298.613 332.057C300.88 331.314 303.336 330.384 305.982 329.266C304.083 331.896 302.191 333.018 300.307 332.631C297.67 332.24 295.024 333.358 292.37 335.984ZM208.603 344.603C207.095 344.595 205.584 344.964 204.072 345.711C202.56 346.457 201.8 347.584 201.792 349.093C203.3 349.101 204.998 348.921 206.886 348.554C208.019 348.182 209.53 347.813 211.417 347.446C210.667 346.687 210.102 346.496 209.723 346.871C208.59 347.242 207.458 347.237 206.329 346.854C208.596 346.111 209.354 345.361 208.603 344.603ZM572.748 375.9C574.635 375.533 576.144 375.54 577.273 375.923C578.782 375.931 580.105 375.372 581.242 374.247C580.116 373.11 578.987 372.727 577.854 373.098C576.72 373.469 575.779 373.276 575.028 372.518C574.649 372.893 573.893 373.266 572.76 373.637C572.001 374.388 571.998 375.142 572.748 375.9ZM73.8083 375.585C75.3207 374.838 77.0207 374.282 78.9082 373.914C80.7957 373.547 82.3101 372.423 83.4512 370.543C81.5636 370.911 79.4866 371.466 77.2199 372.208C74.9533 372.951 73.8161 374.076 73.8083 375.585ZM218.234 341.824L204.084 343.448C205.213 343.831 206.345 343.837 207.478 343.465C208.232 343.469 209.174 343.663 210.303 344.046L209.735 344.608C210.86 345.746 211.804 345.562 212.566 344.057L218.234 341.824ZM616.244 388.004C617.373 388.387 618.69 388.96 620.195 389.722C622.454 390.488 623.399 389.927 623.032 388.039C622.274 388.79 620.767 388.405 618.512 386.885C616.636 384.989 615.88 385.363 616.244 388.004ZM512.282 363.708C513.032 364.466 514.16 365.226 515.664 365.988C517.923 366.754 519.621 366.574 520.758 365.449C518.878 364.308 517.184 363.733 515.676 363.726C514.922 363.722 513.79 363.716 512.282 363.708ZM549.593 368.426C549.972 368.051 550.728 367.678 551.862 367.307C552.999 366.181 553.38 365.429 553.005 365.05C552.254 364.292 551.311 364.475 550.173 365.601C549.036 366.726 548.843 367.668 549.593 368.426ZM330.209 348.059C330.96 348.817 332.279 349.013 334.166 348.645C335.675 348.653 336.433 347.903 336.441 346.394C335.683 347.145 334.926 347.518 334.172 347.514C333.043 347.131 331.722 347.313 330.209 348.059ZM322.29 348.018C321.157 348.39 319.459 348.569 317.196 348.558C314.558 348.167 313.235 348.726 313.227 350.234C314.736 350.242 316.434 350.062 318.321 349.695C320.209 349.328 321.532 348.769 322.29 348.018ZM220.024 433.475C221.536 432.729 221.919 431.599 221.173 430.087C220.414 430.837 220.035 431.213 220.035 431.213C219.66 430.834 219.094 431.019 218.335 431.77L220.024 433.475ZM226.688 348.09C225.187 346.574 224.247 346.003 223.868 346.378C223.114 346.375 222.735 346.75 222.731 347.504C224.607 349.399 225.925 349.595 226.688 348.09ZM506.631 362.547C507.381 363.306 508.133 363.687 508.888 363.691C510.396 363.698 510.965 363.136 510.594 362.002C510.214 362.377 509.46 362.374 508.331 361.991C507.58 361.232 507.014 361.418 506.631 362.547ZM603.816 384.546C605.317 386.062 606.64 385.503 607.785 382.869C606.276 382.862 605.145 382.856 604.391 382.852C604.016 382.473 603.824 383.037 603.816 384.546ZM665.953 401.838C664.82 402.209 663.878 402.016 663.128 401.257C662.377 400.499 661.627 399.741 660.877 398.983C662.385 398.991 664.077 399.942 665.953 401.838ZM16.5433 400.745C17.6728 401.128 18.9936 400.946 20.506 400.2C21.2641 399.45 21.268 398.695 20.5177 397.937C19.3805 399.063 18.0557 399.999 16.5433 400.745ZM245.944 343.664C247.456 342.918 248.775 343.113 249.901 344.25C249.526 343.871 249.148 343.869 248.769 344.244C247.636 344.616 246.694 344.422 245.944 343.664ZM83.4512 370.543C84.2015 371.302 84.9557 371.306 85.7139 370.555C86.472 369.805 86.4759 369.051 85.7256 368.292C85.3426 369.422 85.1511 369.987 85.1511 369.987C84.3969 369.983 83.8302 370.168 83.4512 370.543ZM545.079 366.14L548.473 366.158C546.586 366.525 545.455 366.519 545.079 366.14ZM120.252 364.511C121.761 364.519 123.273 363.772 124.789 362.272C124.031 363.022 122.519 363.768 120.252 364.511ZM212.566 344.057C212.566 344.057 212.189 344.055 211.435 344.051C211.814 343.676 212.191 343.678 212.566 344.057Z" fill="#F3AA01"/>
</svg>
