<svg width="855" height="206" viewBox="0 0 855 206" fill="none" xmlns="http://www.w3.org/2000/svg">
<path d="M623.8 133.2C623.8 133.467 623.667 133.667 623.4 133.8C623.267 133.933 623.333 134 623.6 134C622.933 134.933 621.867 136.2 620.4 137.8C619.067 139.267 618.2 140.4 617.8 141.2C617.533 141.2 617 141.333 616.2 141.6C616.467 141.2 616.867 140.8 617.4 140.4C618.067 140 618.6 139.667 619 139.4C619 139.133 619.133 138.733 619.4 138.2C619.667 137.533 619.933 136.933 620.2 136.4C619.933 136.533 619.6 137 619.2 137.8C618.8 138.6 618.467 139.133 618.2 139.4C617.4 140.2 616.6 140.8 615.8 141.2C615 141.467 614.267 142.133 613.6 143.2C612.267 143.733 611.133 144.733 610.2 146.2C609.4 147.667 608.267 148.533 606.8 148.8C606.667 149.2 606.533 149.467 606.4 149.6C606.267 149.6 606.067 149.733 605.8 150C605.667 149.733 605.6 149.533 605.6 149.4C605.733 149.133 605.733 149 605.6 149L603.8 150.6C603.133 150.867 602.533 151.267 602 151.8C601.6 152.2 601.067 152.4 600.4 152.4C600.4 152.4 600.467 152.333 600.6 152.2C600.067 152.467 599.733 152.733 599.6 153C599.467 153.133 599.333 153.267 599.2 153.4C599.2 153.533 599.133 153.733 599 154C598.867 154.133 598.533 154.267 598 154.4C597.733 154.4 597.6 154.333 597.6 154.2C597.067 154.333 596.533 154.6 596 155C595.6 155.533 595.067 155.8 594.4 155.8C594.4 155.533 594.533 155.4 594.8 155.4C594 155.267 593.467 155.467 593.2 156C593.2 156 593.067 156 592.8 156L587.6 158.8C586.533 159.2 585.333 159.6 584 160C582.667 160.4 581.467 160.667 580.4 160.8C578.4 161.733 576.267 161.933 574 161.4C571.733 161 569.467 160.267 567.2 159.2C565.6 158.267 564.2 157.533 563 157C561.8 156.467 560.867 155.8 560.2 155C559.533 154.333 559.067 153.533 558.8 152.6C558.533 151.533 558.4 150.067 558.4 148.2C558.4 147.933 558.467 147.8 558.6 147.8C558.733 147.667 558.8 147.467 558.8 147.2C558.667 144.933 558.933 142.267 559.6 139.2C560.267 136.133 560.933 133.267 561.6 130.6C561.867 129.933 562 129.333 562 128.8C562 128.267 562.2 127.733 562.6 127.2C563.267 124.4 564.133 121.533 565.2 118.6C566.267 115.533 567.4 112.6 568.6 109.8C568.867 109.133 569 108.8 569 108.8C569 108.667 568.933 108.6 568.8 108.6L569.6 107.2C570.667 105.067 571.933 102.467 573.4 99.4C575 96.3333 576.133 93.6 576.8 91.2C576.267 91.6 576.067 91.7333 576.2 91.6C576.333 91.3333 576.067 91.2 575.4 91.2C574.467 91.4667 573.533 91.8 572.6 92.2C571.8 92.4667 570.933 92.6 570 92.6C568.933 92.8667 568 93.1333 567.2 93.4C566.4 93.6667 565.533 93.8667 564.6 94C563 94.2667 562 94.4 561.6 94.4C561.2 94.4 560.933 94.4 560.8 94.4C560.8 94.4 560.6 94.4667 560.2 94.6C559.933 94.7333 559 95 557.4 95.4C556.6 95.1333 555.667 95.2667 554.6 95.8C553.4 96.3333 552.267 96.5333 551.2 96.4C550.933 96.2667 550.8 96.2 550.8 96.2C550.667 96.0667 550.467 96 550.2 96C549.133 96.4 548.333 96.4667 547.8 96.2C547.133 95.8 546.6 95.2667 546.2 94.6C546.467 93.8 546.333 93.0667 545.8 92.4C545.267 91.7333 545 91.0667 545 90.4L545.8 91C548.6 90.4667 551 89.8667 553 89.2C555 88.4 557.2 87.6 559.6 86.8C562 86 564.867 85.2 568.2 84.4C571.533 83.6 575.933 82.8667 581.4 82.2C584.067 76.7333 586.8 71.7333 589.6 67.2C592.4 62.6667 595.333 58 598.4 53.2V52.2C598.667 51.9333 598.933 51.9333 599.2 52.2C599.6 52.3333 599.933 52.2667 600.2 52C600.067 52.4 600.133 52.6667 600.4 52.8C600.8 52.8 601 52.9333 601 53.2C601.667 53.3333 602.467 53.6 603.4 54C604.333 54.4 605.2 54.9333 606 55.6C606.8 56.2667 607.4 57 607.8 57.8C608.2 58.4667 608.2 59.2 607.8 60L606 61.4C605.867 61.6667 605.8 61.9333 605.8 62.2C605.4 63.4 604.733 64.5333 603.8 65.6C603 66.5333 602.333 67.5333 601.8 68.6C601.133 69.6667 600.6 70.6 600.2 71.4C599.933 72.2 599.467 73.2 598.8 74.4C598.133 75.7333 597.4 76.7333 596.6 77.4C595.8 77.9333 595.267 78.9333 595 80.4C597.267 80.1333 599.4 79.9333 601.4 79.8C603.4 79.6667 605.533 79.6 607.8 79.6C609.933 79.0667 611.8 78.8 613.4 78.8C615 78.8 616 78.8 616.4 78.8C617.067 78.8 617.467 78.8 617.6 78.8C617.867 78.8 618 78.8 618 78.8C618.133 78.8 618.267 78.8 618.4 78.8C618.533 78.8 618.867 78.7333 619.4 78.6C620.6 78.8667 621.733 78.8 622.8 78.4C624 78 625.267 78 626.6 78.4C627 78.4 627.4 78.4667 627.8 78.6C628.333 78.7333 628.867 78.7333 629.4 78.6C629.267 78.7333 629.333 78.7333 629.6 78.6C629.867 78.4667 630.133 78.4 630.4 78.4L630.2 78.6C631 78.8667 631.6 78.8667 632 78.6C631.6 78.3333 631.333 78.2 631.2 78.2C631.2 78.0667 631.733 78.2 632.8 78.6C633.867 78.6 635.2 78.7333 636.8 79C638.4 79.1333 639.733 79.8 640.8 81C640.933 81.1333 640.933 81.4 640.8 81.8C640.8 82.0667 640.867 82.3333 641 82.6C640.867 82.7333 640.733 82.8 640.6 82.8C640.467 82.8 640.4 82.9333 640.4 83.2C640.533 83.3333 640.6 83.4667 640.6 83.6C640.733 83.6 641 83.6667 641.4 83.8C641.133 84.0667 640.733 84.2 640.2 84.2C640.333 84.7333 640.733 85.2 641.4 85.6C641.133 85.8667 640.8 86 640.4 86C640.133 86 639.933 86.1333 639.8 86.4C639.533 86.4 639.267 86.3333 639 86.2C638.067 86.3333 637.2 86.3333 636.4 86.2C635.733 86.0667 634.867 86.2667 633.8 86.8C633.133 86.4 632.733 86.2667 632.6 86.4C632.467 86.5333 632.2 86.5333 631.8 86.4C631.8 86.1333 631.867 86.0667 632 86.2C632.133 86.2 632.2 86.0667 632.2 85.8C631.667 85.8 631.333 85.9333 631.2 86.2C631.067 86.3333 630.933 86.4667 630.8 86.6C630.8 86.7333 630.733 86.8 630.6 86.8C630.467 86.6667 630.2 86.4 629.8 86C629.267 86.2667 629 86.4 629 86.4L628.8 86.6H628.6C628.333 86.6 628.2 86.6 628.2 86.6C628.333 86.4667 628.333 86.3333 628.2 86.2C627.8 86.4667 627.6 86.6667 627.6 86.8C627.333 86.2667 626.8 86.2 626 86.6C625.333 86.8667 625.2 86.6667 625.6 86C625.333 86 625.133 86.2667 625 86.8C625 87.2 624.667 87.2 624 86.8C624.267 86.2667 624.4 86.0667 624.4 86.2C624.533 86.2 624.6 86.0667 624.6 85.8C624.467 85.8 624.267 85.8667 624 86C623.733 86.1333 623.533 86.4 623.4 86.8C623.4 86.8 623.4 86.6 623.4 86.2C622.867 86.2 622.6 86.4667 622.6 87C622.6 87 622.6 86.8 622.6 86.4C622.2 86.1333 621.933 86.0667 621.8 86.2C621.667 86.3333 621.4 86.4 621 86.4C620.733 86.1333 620.733 86.0667 621 86.2C621.267 86.2 621.533 86.0667 621.8 85.8C621.533 85.8 621.2 85.8 620.8 85.8C620.4 85.8 620.133 85.9333 620 86.2C619.2 85.6667 618.533 85.6667 618 86.2C618.133 86.4667 618.333 86.4667 618.6 86.2C619 85.9333 619.267 85.9333 619.4 86.2C619.267 86.3333 619 86.4667 618.6 86.6C618.2 86.7333 617.8 86.8667 617.4 87C617.133 87 616.933 87 616.8 87C616.667 86.8667 616.733 86.6667 617 86.4H616.2V86.2C616.067 86.2 616 86.2667 616 86.4V86.2C615.867 86.2 615.733 86.1333 615.6 86C615.6 85.8667 615.533 85.9333 615.4 86.2C615.533 86.2 615.6 86.2667 615.6 86.4C615.6 86.4 615.667 86.4 615.8 86.4C615.267 86.6667 615 86.9333 615 87.2C615 87.3333 614.867 87.2 614.6 86.8C614.6 86.2667 614.2 86.0667 613.4 86.2C612.6 86.2 611.867 86.3333 611.2 86.6V86.2C610.8 86.4667 610.267 86.7333 609.6 87C609.067 87.2667 608.533 87.1333 608 86.6C608.267 86.4667 608.467 86.4 608.6 86.4C608.733 86.4 608.867 86.3333 609 86.2C609 85.9333 608.933 85.8 608.8 85.8C608.667 85.8 608.6 85.7333 608.6 85.6C608.333 85.6 608.133 85.6667 608 85.8C607.867 85.9333 607.667 86.0667 607.4 86.2C607.267 86.2 607.2 86.0667 607.2 85.8C607.2 85.6667 607.267 85.6 607.4 85.6C606.733 85.6 606.467 85.5333 606.6 85.4C606.333 85.4 606.2 85.6667 606.2 86.2C606.2 86.7333 606.067 87.1333 605.8 87.4C605.133 87.4 604.533 87.4667 604 87.6C603.6 87.6 602.933 87.6 602 87.6C602 87.3333 602.067 87.2667 602.2 87.4C602.467 87.4 602.6 87.2667 602.6 87C602.467 87 602.4 87 602.4 87C602.4 86.8667 602.333 86.8 602.2 86.8H602C601.733 86.8 601.467 86.8667 601.2 87C600.933 87 600.667 87 600.4 87C600.133 87.6667 599.733 87.9333 599.2 87.8C598.8 87.5333 598.467 87.5333 598.2 87.8V87.6C597.8 87.6 597.533 87.7333 597.4 88C597.8 88.1333 598.067 88.0667 598.2 87.8C598.333 88.0667 598.4 88.1333 598.4 88C598.533 87.8667 598.6 87.9333 598.6 88.2C598.6 88.4667 598.467 88.6 598.2 88.6C598.067 88.6 597.867 88.7333 597.6 89C597.2 89 596.867 88.9333 596.6 88.8C596.333 88.5333 596 88.5333 595.6 88.8C594.933 88.8 594.133 88.8667 593.2 89C592.4 89.1333 591.667 89.2667 591 89.4C590.467 89.6667 590.133 90 590 90.4C589.867 90.6667 589.667 91.0667 589.4 91.6C588.467 94 587.133 96.8667 585.4 100.2C583.667 103.533 582.267 106.667 581.2 109.6C580.8 110.8 580.467 111.667 580.2 112.2C580.067 112.733 579.867 113.2 579.6 113.6C579.467 113.867 579.267 114.267 579 114.8C578.867 115.333 578.6 116.267 578.2 117.6C576.733 120 575.6 123 574.8 126.6C574 130.067 573.267 133.6 572.6 137.2C572.333 138.4 572 139.6 571.6 140.8C571.2 142 570.933 143.267 570.8 144.6C570.667 146.6 570.267 148.467 569.6 150.2C569.067 151.8 569.333 153.533 570.4 155.4C570.667 155.533 570.733 155.533 570.6 155.4C570.467 155.4 570.667 155.4 571.2 155.4C572.267 155.4 573.6 155.267 575.2 155C576.8 154.6 578.2 154.133 579.4 153.6C580.867 153.2 582.333 152.733 583.8 152.2C585.4 151.533 586.867 151 588.2 150.6C588.467 150.333 588.6 150.267 588.6 150.4C588.733 150.4 588.8 150.267 588.8 150C589.2 149.867 589.6 149.8 590 149.8C590.4 149.667 590.667 149.333 590.8 148.8C591.6 148.533 592.2 148.333 592.6 148.2C593.133 147.933 593.533 147.667 593.8 147.4C594.2 147.133 594.6 146.933 595 146.8C595.4 146.533 596 146.267 596.8 146V145.2C597.333 145.6 598.133 145.2 599.2 144C599.333 144 599.467 144.067 599.6 144.2C600.8 143.4 602.133 142.533 603.6 141.6C605.2 140.667 606.667 139.733 608 138.8C608.667 138.667 609.733 138 611.2 136.8C612.667 135.6 614.133 134.267 615.6 132.8C617.2 131.333 618.6 130 619.8 128.8C621 127.467 621.733 126.667 622 126.4C622.133 126.533 622.267 126.6 622.4 126.6C622.533 125.8 622.6 125.333 622.6 125.2C622.733 125.067 622.8 125 622.8 125C622.933 125 623 125 623 125C623.133 124.867 623.4 124.533 623.8 124C623.8 123.6 623.867 123.4 624 123.4C624.4 123.133 624.667 122.933 624.8 122.8C624.933 122.667 625.133 122.4 625.4 122C626.2 122.133 626.733 121.667 627 120.6C627.933 120.867 628.533 121.2 628.8 121.6C629.2 121.867 629.533 121.867 629.8 121.6C629.8 121.867 629.933 122.067 630.2 122.2C630.467 122.2 630.733 122.2 631 122.2C631 122.467 630.933 122.6 630.8 122.6C630.8 122.6 630.8 122.667 630.8 122.8C631.067 122.933 630.867 123.133 630.2 123.4C629.667 123.667 629.733 123.867 630.4 124C630.4 124.267 630.267 124.667 630 125.2C630.133 125.2 630.333 125.4 630.6 125.8C630.333 125.8 629.2 127.333 627.2 130.4H627.4C627.267 130.533 627.133 130.6 627 130.6C626.467 131.133 626.2 131.333 626.2 131.2L625 132.2V131.8C624.733 132.067 624.6 132.333 624.6 132.6C624.6 132.733 624.467 132.867 624.2 133C624.067 133.133 624 133.333 624 133.6V133.4C624 133.267 623.933 133.2 623.8 133.2ZM627.6 129C627.467 129 627.6 128.8 628 128.4V128.2L627.6 128.4C627.333 128.8 627 129.2 626.6 129.6C626.333 129.867 626.067 130.133 625.8 130.4V129.8C625.267 130.6 625.067 131.267 625.2 131.8L625.6 131.4H625.4L625.6 130.6C625.867 130.6 626.067 130.667 626.2 130.8C626.2 130.4 626.467 130.067 627 129.8L627.6 128.8V129ZM610.2 145.4C610.6 145 610.933 144.667 611.2 144.4C611.6 144.133 611.933 143.733 612.2 143.2C611.8 143.467 611.267 143.8 610.6 144.2C610.067 144.6 609.933 145 610.2 145.4ZM615 143.6C615.4 142.933 615.8 142.533 616.2 142.4C616.733 142.133 617.267 141.8 617.8 141.4V141.6C617.267 141.867 616.733 142.2 616.2 142.6C615.8 143 615.4 143.333 615 143.6ZM629 83.6C628.733 83.8667 628.4 83.9333 628 83.8C627.733 83.5333 627.467 83.5333 627.2 83.8C627.467 83.9333 627.867 84.0667 628.4 84.2C628.933 84.2 629.133 84 629 83.6ZM619.2 139.4C619.067 138.733 619.333 138.133 620 137.6C620.667 137.067 621 136.667 621 136.4C621.267 136.667 621.067 137.2 620.4 138C619.867 138.667 619.467 139.133 619.2 139.4ZM613 142C613.533 142.133 613.867 142.067 614 141.8C614.133 141.533 614.333 141.267 614.6 141C614.6 140.467 614.667 140.133 614.8 140C614.533 140 614.4 140.2 614.4 140.6C614.4 140.6 614.467 140.733 614.6 141C614.333 141.133 614.067 141.333 613.8 141.6C613.533 141.733 613.267 141.867 613 142ZM595.6 87.8C595.867 88.0667 596.067 88.1333 596.2 88C596.333 87.8667 596.467 87.8 596.6 87.8C596.6 87.6667 596.667 87.6 596.8 87.6C596.933 87.4667 596.867 87.2667 596.6 87C596.6 87.2667 596.467 87.4667 596.2 87.6C595.933 87.6 595.733 87.6667 595.6 87.8ZM613 142.8C613.133 143.067 613.333 143.133 613.6 143C614 142.733 614.067 142.467 613.8 142.2C613.667 142.467 613.467 142.6 613.2 142.6C613.067 142.467 613 142.533 613 142.8ZM612.8 139.8C613.067 139.933 613.333 139.867 613.6 139.6C613.867 139.333 613.933 139.067 613.8 138.8C613.533 139.067 613.333 139.267 613.2 139.4C613.2 139.533 613.067 139.667 612.8 139.8ZM616 86.6C615.867 86.6 615.8 86.5333 615.8 86.4H616C616.133 86.4 616.2 86.4 616.2 86.4C616.467 86.8 616.467 87 616.2 87C616.067 86.8667 616 86.7333 616 86.6ZM595 88C595 87.8667 595.067 87.8 595.2 87.8C595.333 87.8 595.4 87.7333 595.4 87.6C594.867 87.3333 594.733 87.4667 595 88ZM611.4 87C610.867 87.1333 610.6 87.2 610.6 87.2C610.733 87.0667 610.933 86.8667 611.2 86.6C611.2 86.8667 611.267 87 611.4 87ZM626 131C625.733 130.867 625.6 130.933 625.6 131.2C625.733 131.333 625.733 131.4 625.6 131.4L626 131ZM602 86.8C602 87.0667 601.867 87.2 601.6 87.2C601.867 86.9333 602 86.8 602 86.8ZM627.6 129.4C627.867 129.133 628 128.933 628 128.8L627.6 129.2V129.4ZM615.4 139.8C615.533 139.933 615.6 139.8 615.6 139.4C615.6 139.533 615.533 139.667 615.4 139.8ZM601.6 87.4C601.333 87.2667 601.333 87.2 601.6 87.2V87.4ZM618 141.2C617.867 141.333 617.8 141.4 617.8 141.4V141.2H618ZM627.6 129.4C627.6 129.533 627.533 129.6 627.4 129.6C627.533 129.6 627.6 129.533 627.6 129.4ZM623.6 134L623.8 133.8L623.6 134ZM708.356 134.8C707.69 134.667 707.09 135 706.556 135.8C706.023 136.467 705.49 137.133 704.956 137.8C704.956 137.667 705.023 137.467 705.156 137.2C704.09 138 703.09 138.867 702.156 139.8C701.223 140.6 700.223 141.533 699.156 142.6H698.756V142.4C698.49 142.667 698.156 143 697.756 143.4C697.49 143.8 697.156 143.867 696.756 143.6C696.09 144 695.556 144.467 695.156 145C694.89 145.533 694.49 145.867 693.956 146C693.29 146.667 692.756 147.2 692.356 147.6C691.956 147.867 691.356 148.333 690.556 149C690.556 148.867 690.423 148.8 690.156 148.8C689.756 149.333 688.89 149.733 687.556 150C686.09 150.8 684.756 151.667 683.556 152.6C682.49 153.4 681.356 153.8 680.156 153.8C678.956 153.933 678.09 154.067 677.556 154.2C677.023 154.333 676.423 154.333 675.756 154.2C674.69 154.2 673.356 154.467 671.756 155C670.156 155.667 668.823 155.8 667.756 155.4C667.49 154.733 667.023 154.267 666.356 154C665.69 153.6 665.023 153.267 664.356 153C663.823 152.733 663.423 152.133 663.156 151.2C661.69 150.267 660.623 148.933 659.956 147.2C659.29 145.333 658.89 143.267 658.756 141C658.756 138.6 658.956 136.133 659.356 133.6C659.756 131.067 660.29 128.6 660.956 126.2C659.09 127.667 657.29 129.467 655.556 131.6C653.823 133.6 652.09 135.533 650.356 137.4C649.69 138.6 648.956 139.6 648.156 140.4C647.356 141.2 646.556 141.933 645.756 142.6C643.49 145.267 641.356 147.6 639.356 149.6C639.356 149.733 639.29 149.867 639.156 150C639.156 150 639.09 150.133 638.956 150.4C637.89 151.2 636.69 152.133 635.356 153.2C634.023 154.267 632.623 155.133 631.156 155.8C629.823 156.6 628.356 157.067 626.756 157.2C625.29 157.333 623.756 156.8 622.156 155.6C621.223 155.467 620.556 155.2 620.156 154.8C619.89 154.267 619.423 153.8 618.756 153.4C617.29 152.733 616.423 151.933 616.156 151C615.756 150.067 615.49 148.667 615.356 146.8C615.223 145.867 615.356 144.667 615.756 143.2C616.023 141.733 616.423 140.467 616.956 139.4C617.623 136.867 618.623 134.533 619.956 132.4C621.29 130.133 622.556 128.067 623.756 126.2C626.023 123.133 628.29 120.333 630.556 117.8C632.956 115.133 635.423 112.533 637.956 110C638.756 109.6 639.556 109.067 640.356 108.4C641.29 107.733 642.29 107.2 643.356 106.8C644.023 107.067 644.756 106.933 645.556 106.4C646.356 105.733 647.023 105.867 647.556 106.8C650.356 107.067 652.823 107.733 654.956 108.8C657.09 109.867 658.556 111.6 659.356 114C660.29 113.333 661.156 112.733 661.956 112.2C662.756 111.667 663.623 111.267 664.556 111C664.956 110.867 665.29 110.6 665.556 110.2C665.823 109.8 666.09 109.6 666.356 109.6C667.69 109.333 668.89 109.6 669.956 110.4C671.156 111.2 672.29 111.867 673.356 112.4C673.49 112.267 673.623 112.267 673.756 112.4C674.023 112.4 674.356 112.333 674.756 112.2C675.023 112.6 675.223 112.933 675.356 113.2C675.49 113.333 675.623 113.6 675.756 114C676.023 116.4 675.69 119 674.756 121.8C673.956 124.6 673.023 126.933 671.956 128.8C671.423 131.867 670.69 135.2 669.756 138.8C668.823 142.4 668.756 145.533 669.556 148.2C674.223 147.667 678.09 146.533 681.156 144.8C684.356 142.933 687.556 141.133 690.756 139.4C691.956 138.467 693.023 137.667 693.956 137C695.023 136.333 696.023 135.467 696.956 134.4C697.09 134.4 697.223 134.467 697.356 134.6V134.8C698.023 134.8 699.356 134 701.356 132.4C703.356 130.667 705.356 128.933 707.356 127.2C709.49 125.333 711.423 123.733 713.156 122.4C715.023 121.067 716.09 120.6 716.356 121C716.623 121.267 716.956 121.333 717.356 121.2C717.756 120.933 718.09 120.867 718.356 121C718.49 121.267 718.49 121.467 718.356 121.6C718.356 121.733 718.423 121.867 718.556 122V121.6C718.69 121.6 718.69 121.8 718.556 122.2C718.423 122.467 718.29 122.8 718.156 123.2C718.023 123.467 717.89 123.667 717.756 123.8C717.623 123.933 717.623 123.8 717.756 123.4C717.49 123.667 717.156 124 716.756 124.4C716.49 124.667 716.223 124.933 715.956 125.2C715.69 125.867 715.49 126.333 715.356 126.6C715.356 126.867 715.223 127.333 714.956 128C714.556 128 714.29 127.933 714.156 127.8C713.89 128.467 713.49 128.933 712.956 129.2C712.556 129.467 712.223 130 711.956 130.8C711.69 130.8 711.423 131.133 711.156 131.8L708.356 134.8ZM653.756 117.6C653.49 115.867 652.956 114.4 652.156 113.2C651.49 112 650.223 111.867 648.356 112.8L645.156 116.4C644.89 116.8 644.556 117.133 644.156 117.4C643.756 117.533 643.423 117.733 643.156 118C642.89 118.267 642.623 118.667 642.356 119.2C642.09 119.6 641.756 120.067 641.356 120.6L638.556 123.8C637.09 125.667 635.623 127.8 634.156 130.2C632.823 132.467 631.623 134.667 630.556 136.8C630.29 137.467 629.956 138.067 629.556 138.6C629.156 139.133 628.823 139.933 628.556 141C628.29 140.867 628.156 140.933 628.156 141.2C628.156 141.333 628.09 141.333 627.956 141.2C627.69 142.667 627.223 143.933 626.556 145C625.89 145.933 625.556 147.2 625.556 148.8C626.623 148.133 627.756 147.467 628.956 146.8C630.156 146.133 631.156 145.4 631.956 144.6C635.823 140.867 639.49 137 642.956 133C646.556 128.867 650.09 124.667 653.556 120.4C653.956 120.133 654.29 119.8 654.556 119.4C654.823 118.867 655.156 118.533 655.556 118.4V118C655.29 117.733 654.69 117.6 653.756 117.6ZM760.484 143.6C759.418 143.733 758.484 144.2 757.684 145C756.884 145.8 755.951 146.4 754.884 146.8C754.751 146.933 754.751 147.133 754.884 147.4C753.951 147.4 753.484 147.4 753.484 147.4C753.351 147.267 753.218 147.2 753.084 147.2C752.684 147.2 752.551 147.333 752.684 147.6C752.818 147.733 752.751 147.933 752.484 148.2C751.418 148.467 750.618 148.867 750.084 149.4C749.684 149.8 748.751 150 747.284 150C747.284 150.267 747.218 150.467 747.084 150.6C746.418 150.6 745.818 151 745.284 151.8C744.218 151.8 743.218 152.267 742.284 153.2C740.151 153.467 738.351 154.2 736.884 155.4C735.551 156.6 733.684 157.333 731.284 157.6C730.751 157.6 730.484 157.667 730.484 157.8C727.818 158.2 725.084 158.333 722.284 158.2C719.618 158.2 716.884 157.733 714.084 156.8C713.018 156.533 711.951 156.133 710.884 155.6C709.951 155.067 709.018 154.533 708.084 154C706.618 153.467 705.418 152.333 704.484 150.6C703.418 148.867 702.684 147.2 702.284 145.6C701.751 143.733 701.618 141.4 701.884 138.6C702.018 135.8 702.484 133.267 703.284 131C703.684 129.4 704.284 127.933 705.084 126.6C705.884 125.267 706.618 123.867 707.284 122.4C708.084 122 708.818 120.933 709.484 119.2C709.484 119.2 709.618 119.133 709.884 119C711.751 116.333 713.618 114 715.484 112C717.351 109.867 719.618 107.867 722.284 106C722.284 105.733 722.351 105.6 722.484 105.6C722.751 105.6 722.884 105.533 722.884 105.4C723.684 104.733 724.551 104.267 725.484 104C726.418 103.6 727.418 103.067 728.484 102.4C729.151 102 729.751 101.533 730.284 101C730.818 100.467 731.618 100.267 732.684 100.4C733.351 100.533 733.951 100.867 734.484 101.4C735.151 101.8 735.818 102.067 736.484 102.2C736.884 102.467 737.218 102.533 737.484 102.4C737.884 102.267 738.218 102.2 738.484 102.2C738.751 102.467 739.018 102.8 739.284 103.2C739.551 103.467 740.018 103.6 740.684 103.6C741.351 104.667 742.151 105.933 743.084 107.4C744.018 108.733 744.484 110.333 744.484 112.2C743.818 113.267 743.618 114.667 743.884 116.4C743.218 117.333 742.684 118.533 742.284 120C741.884 121.333 741.418 122.467 740.884 123.4C740.618 123.533 740.418 123.6 740.284 123.6C740.151 123.467 739.951 123.467 739.684 123.6C739.418 123.6 739.218 123.533 739.084 123.4C739.084 123.133 739.018 123 738.884 123C738.884 123.4 738.884 123.6 738.884 123.6C738.618 123.467 738.351 123.133 738.084 122.6C737.418 122.867 736.418 122.4 735.084 121.2C733.884 119.867 733.284 118.733 733.284 117.8L734.084 115.6C734.751 114.133 735.418 112.733 736.084 111.4C736.884 109.933 737.284 108.533 737.284 107.2C734.084 108 731.618 109.467 729.884 111.6C728.284 113.733 726.284 115.8 723.884 117.8C723.884 118.067 723.818 118.2 723.684 118.2C723.684 118.2 723.684 118.333 723.684 118.6C720.884 121 718.684 123.867 717.084 127.2C715.484 130.533 713.951 133.933 712.484 137.4C712.351 138.467 712.218 139.667 712.084 141C711.951 142.2 711.884 143.4 711.884 144.6C712.018 145.533 712.351 146.8 712.884 148.4C713.418 150 714.418 150.933 715.884 151.2C719.084 152.267 721.884 152.333 724.284 151.4C726.818 150.333 729.418 149.467 732.084 148.8C736.218 146.933 740.084 145.267 743.684 143.8C747.284 142.2 750.818 140.267 754.284 138H754.884C756.751 136.667 758.551 135.4 760.284 134.2C762.151 133 764.018 131.667 765.884 130.2C767.618 129.533 769.084 128.533 770.284 127.2C771.484 125.867 773.018 124.867 774.884 124.2C775.018 123.533 775.351 123.067 775.884 122.8C776.018 122.533 776.018 122.4 775.884 122.4C775.884 122.4 775.951 122.333 776.084 122.2L776.684 122.4V122.2V121.8C777.351 121.8 777.751 121.533 777.884 121C778.151 120.333 778.484 119.867 778.884 119.6L779.084 119.8C779.351 119.4 779.684 119 780.084 118.6C780.484 118.2 781.084 117.867 781.884 117.6C781.351 118.133 781.351 118.533 781.884 118.8C782.551 118.933 782.618 119.133 782.084 119.4C782.351 119.267 782.551 119.333 782.684 119.6C782.818 119.733 783.084 119.8 783.484 119.8L783.284 120C783.284 120 783.418 120 783.684 120C783.818 120.133 783.818 120.333 783.684 120.6C783.684 120.733 783.884 120.8 784.284 120.8C784.018 121.2 783.884 121.667 783.884 122.2C784.018 122.6 784.084 122.867 784.084 123C784.084 123.133 784.018 123.2 783.884 123.2C783.751 123.2 783.618 123.267 783.484 123.4V125.4C783.218 125.8 783.018 126 782.884 126C782.884 125.867 782.818 125.933 782.684 126.2V126.4C782.151 126.267 782.151 126.2 782.684 126.2C782.018 125.933 781.884 126.067 782.284 126.6C781.618 126.467 781.151 126.667 780.884 127.2C780.618 127.6 780.218 127.933 779.684 128.2C779.684 127.533 779.884 127.067 780.284 126.8C780.684 126.533 780.884 126.267 780.884 126C780.218 126.267 779.751 126.733 779.484 127.4C779.351 127.933 778.951 128.4 778.284 128.8C778.284 128.8 778.418 128.667 778.684 128.4C777.884 128.4 777.284 128.6 776.884 129C776.618 129.267 776.351 129.533 776.084 129.8C776.084 130.067 776.084 130.2 776.084 130.2C776.218 130.067 776.284 130.133 776.284 130.4H776.084C775.684 130.267 775.484 129.933 775.484 129.4C775.218 129.8 774.884 130.4 774.484 131.2C774.218 131.867 773.884 132.333 773.484 132.6C773.218 132.467 773.018 132.467 772.884 132.6C772.751 132.6 772.618 132.6 772.484 132.6C772.484 132.867 772.418 133.067 772.284 133.2C772.151 133.333 772.018 133.533 771.884 133.8L771.684 133.6C771.684 133.6 771.684 133.733 771.684 134V134.2C771.551 134.067 771.018 134.4 770.084 135.2C769.284 135.867 768.751 136.333 768.484 136.6C768.351 137 768.284 137.333 768.284 137.6C768.418 137.867 768.418 138.067 768.284 138.2C768.018 138.067 767.751 138.2 767.484 138.6C767.218 138.867 766.951 139.133 766.684 139.4C766.418 139.133 766.418 138.933 766.684 138.8C767.084 138.667 767.284 138.467 767.284 138.2C767.284 138.067 767.084 138 766.684 138C765.751 138.533 765.018 139.133 764.484 139.8C763.951 140.467 763.351 141.333 762.684 142.4C762.018 142.533 761.484 142.8 761.084 143.2C760.818 143.467 760.551 143.733 760.284 144C760.151 143.867 760.151 143.8 760.284 143.8C760.418 143.8 760.484 143.733 760.484 143.6ZM781.884 120.8C782.151 120.933 782.351 120.933 782.484 120.8C782.751 120.667 782.818 120.467 782.684 120.2C782.151 120.467 781.884 120.667 781.884 120.8ZM780.684 125.8C781.084 125.533 781.418 125.2 781.684 124.8C781.418 125.067 781.218 125.267 781.084 125.4C780.951 125.4 780.818 125.533 780.684 125.8ZM783.084 121.6H783.284C783.684 121.2 783.618 121 783.084 121V121.6ZM836.691 133.2C836.691 133.467 836.557 133.667 836.291 133.8C836.157 133.933 836.224 134 836.491 134C835.824 134.933 834.757 136.2 833.291 137.8C831.957 139.267 831.091 140.4 830.691 141.2C830.424 141.2 829.891 141.333 829.091 141.6C829.357 141.2 829.757 140.8 830.291 140.4C830.957 140 831.491 139.667 831.891 139.4C831.891 139.133 832.024 138.733 832.291 138.2C832.557 137.533 832.824 136.933 833.091 136.4C832.824 136.533 832.491 137 832.091 137.8C831.691 138.6 831.357 139.133 831.091 139.4C830.291 140.2 829.491 140.8 828.691 141.2C827.891 141.467 827.157 142.133 826.491 143.2C825.157 143.733 824.024 144.733 823.091 146.2C822.291 147.667 821.157 148.533 819.691 148.8C819.557 149.2 819.424 149.467 819.291 149.6C819.157 149.6 818.957 149.733 818.691 150C818.557 149.733 818.491 149.533 818.491 149.4C818.624 149.133 818.624 149 818.491 149L816.691 150.6C816.024 150.867 815.424 151.267 814.891 151.8C814.491 152.2 813.957 152.4 813.291 152.4C813.291 152.4 813.357 152.333 813.491 152.2C812.957 152.467 812.624 152.733 812.491 153C812.357 153.133 812.224 153.267 812.091 153.4C812.091 153.533 812.024 153.733 811.891 154C811.757 154.133 811.424 154.267 810.891 154.4C810.624 154.4 810.491 154.333 810.491 154.2C809.957 154.333 809.424 154.6 808.891 155C808.491 155.533 807.957 155.8 807.291 155.8C807.291 155.533 807.424 155.4 807.691 155.4C806.891 155.267 806.357 155.467 806.091 156C806.091 156 805.957 156 805.691 156L800.491 158.8C799.424 159.2 798.224 159.6 796.891 160C795.557 160.4 794.357 160.667 793.291 160.8C791.291 161.733 789.157 161.933 786.891 161.4C784.624 161 782.357 160.267 780.091 159.2C778.491 158.267 777.091 157.533 775.891 157C774.691 156.467 773.757 155.8 773.091 155C772.424 154.333 771.957 153.533 771.691 152.6C771.424 151.533 771.291 150.067 771.291 148.2C771.291 147.933 771.357 147.8 771.491 147.8C771.624 147.667 771.691 147.467 771.691 147.2C771.557 144.933 771.824 142.267 772.491 139.2C773.157 136.133 773.824 133.267 774.491 130.6C774.757 129.933 774.891 129.333 774.891 128.8C774.891 128.267 775.091 127.733 775.491 127.2C776.157 124.4 777.024 121.533 778.091 118.6C779.157 115.533 780.291 112.6 781.491 109.8C781.757 109.133 781.891 108.8 781.891 108.8C781.891 108.667 781.824 108.6 781.691 108.6L782.491 107.2C783.557 105.067 784.824 102.467 786.291 99.4C787.891 96.3333 789.024 93.6 789.691 91.2C789.157 91.6 788.957 91.7333 789.091 91.6C789.224 91.3333 788.957 91.2 788.291 91.2C787.357 91.4667 786.424 91.8 785.491 92.2C784.691 92.4667 783.824 92.6 782.891 92.6C781.824 92.8667 780.891 93.1333 780.091 93.4C779.291 93.6667 778.424 93.8667 777.491 94C775.891 94.2667 774.891 94.4 774.491 94.4C774.091 94.4 773.824 94.4 773.691 94.4C773.691 94.4 773.491 94.4667 773.091 94.6C772.824 94.7333 771.891 95 770.291 95.4C769.491 95.1333 768.557 95.2667 767.491 95.8C766.291 96.3333 765.157 96.5333 764.091 96.4C763.824 96.2667 763.691 96.2 763.691 96.2C763.557 96.0667 763.357 96 763.091 96C762.024 96.4 761.224 96.4667 760.691 96.2C760.024 95.8 759.491 95.2667 759.091 94.6C759.357 93.8 759.224 93.0667 758.691 92.4C758.157 91.7333 757.891 91.0667 757.891 90.4L758.691 91C761.491 90.4667 763.891 89.8667 765.891 89.2C767.891 88.4 770.091 87.6 772.491 86.8C774.891 86 777.757 85.2 781.091 84.4C784.424 83.6 788.824 82.8667 794.291 82.2C796.957 76.7333 799.691 71.7333 802.491 67.2C805.291 62.6667 808.224 58 811.291 53.2V52.2C811.557 51.9333 811.824 51.9333 812.091 52.2C812.491 52.3333 812.824 52.2667 813.091 52C812.957 52.4 813.024 52.6667 813.291 52.8C813.691 52.8 813.891 52.9333 813.891 53.2C814.557 53.3333 815.357 53.6 816.291 54C817.224 54.4 818.091 54.9333 818.891 55.6C819.691 56.2667 820.291 57 820.691 57.8C821.091 58.4667 821.091 59.2 820.691 60L818.891 61.4C818.757 61.6667 818.691 61.9333 818.691 62.2C818.291 63.4 817.624 64.5333 816.691 65.6C815.891 66.5333 815.224 67.5333 814.691 68.6C814.024 69.6667 813.491 70.6 813.091 71.4C812.824 72.2 812.357 73.2 811.691 74.4C811.024 75.7333 810.291 76.7333 809.491 77.4C808.691 77.9333 808.157 78.9333 807.891 80.4C810.157 80.1333 812.291 79.9333 814.291 79.8C816.291 79.6667 818.424 79.6 820.691 79.6C822.824 79.0667 824.691 78.8 826.291 78.8C827.891 78.8 828.891 78.8 829.291 78.8C829.957 78.8 830.357 78.8 830.491 78.8C830.757 78.8 830.891 78.8 830.891 78.8C831.024 78.8 831.157 78.8 831.291 78.8C831.424 78.8 831.757 78.7333 832.291 78.6C833.491 78.8667 834.624 78.8 835.691 78.4C836.891 78 838.157 78 839.491 78.4C839.891 78.4 840.291 78.4667 840.691 78.6C841.224 78.7333 841.757 78.7333 842.291 78.6C842.157 78.7333 842.224 78.7333 842.491 78.6C842.757 78.4667 843.024 78.4 843.291 78.4L843.091 78.6C843.891 78.8667 844.491 78.8667 844.891 78.6C844.491 78.3333 844.224 78.2 844.091 78.2C844.091 78.0667 844.624 78.2 845.691 78.6C846.757 78.6 848.091 78.7333 849.691 79C851.291 79.1333 852.624 79.8 853.691 81C853.824 81.1333 853.824 81.4 853.691 81.8C853.691 82.0667 853.757 82.3333 853.891 82.6C853.757 82.7333 853.624 82.8 853.491 82.8C853.357 82.8 853.291 82.9333 853.291 83.2C853.424 83.3333 853.491 83.4667 853.491 83.6C853.624 83.6 853.891 83.6667 854.291 83.8C854.024 84.0667 853.624 84.2 853.091 84.2C853.224 84.7333 853.624 85.2 854.291 85.6C854.024 85.8667 853.691 86 853.291 86C853.024 86 852.824 86.1333 852.691 86.4C852.424 86.4 852.157 86.3333 851.891 86.2C850.957 86.3333 850.091 86.3333 849.291 86.2C848.624 86.0667 847.757 86.2667 846.691 86.8C846.024 86.4 845.624 86.2667 845.491 86.4C845.357 86.5333 845.091 86.5333 844.691 86.4C844.691 86.1333 844.757 86.0667 844.891 86.2C845.024 86.2 845.091 86.0667 845.091 85.8C844.557 85.8 844.224 85.9333 844.091 86.2C843.957 86.3333 843.824 86.4667 843.691 86.6C843.691 86.7333 843.624 86.8 843.491 86.8C843.357 86.6667 843.091 86.4 842.691 86C842.157 86.2667 841.891 86.4 841.891 86.4L841.691 86.6H841.491C841.224 86.6 841.091 86.6 841.091 86.6C841.224 86.4667 841.224 86.3333 841.091 86.2C840.691 86.4667 840.491 86.6667 840.491 86.8C840.224 86.2667 839.691 86.2 838.891 86.6C838.224 86.8667 838.091 86.6667 838.491 86C838.224 86 838.024 86.2667 837.891 86.8C837.891 87.2 837.557 87.2 836.891 86.8C837.157 86.2667 837.291 86.0667 837.291 86.2C837.424 86.2 837.491 86.0667 837.491 85.8C837.357 85.8 837.157 85.8667 836.891 86C836.624 86.1333 836.424 86.4 836.291 86.8C836.291 86.8 836.291 86.6 836.291 86.2C835.757 86.2 835.491 86.4667 835.491 87C835.491 87 835.491 86.8 835.491 86.4C835.091 86.1333 834.824 86.0667 834.691 86.2C834.557 86.3333 834.291 86.4 833.891 86.4C833.624 86.1333 833.624 86.0667 833.891 86.2C834.157 86.2 834.424 86.0667 834.691 85.8C834.424 85.8 834.091 85.8 833.691 85.8C833.291 85.8 833.024 85.9333 832.891 86.2C832.091 85.6667 831.424 85.6667 830.891 86.2C831.024 86.4667 831.224 86.4667 831.491 86.2C831.891 85.9333 832.157 85.9333 832.291 86.2C832.157 86.3333 831.891 86.4667 831.491 86.6C831.091 86.7333 830.691 86.8667 830.291 87C830.024 87 829.824 87 829.691 87C829.557 86.8667 829.624 86.6667 829.891 86.4H829.091V86.2C828.957 86.2 828.891 86.2667 828.891 86.4V86.2C828.757 86.2 828.624 86.1333 828.491 86C828.491 85.8667 828.424 85.9333 828.291 86.2C828.424 86.2 828.491 86.2667 828.491 86.4C828.491 86.4 828.557 86.4 828.691 86.4C828.157 86.6667 827.891 86.9333 827.891 87.2C827.891 87.3333 827.757 87.2 827.491 86.8C827.491 86.2667 827.091 86.0667 826.291 86.2C825.491 86.2 824.757 86.3333 824.091 86.6V86.2C823.691 86.4667 823.157 86.7333 822.491 87C821.957 87.2667 821.424 87.1333 820.891 86.6C821.157 86.4667 821.357 86.4 821.491 86.4C821.624 86.4 821.757 86.3333 821.891 86.2C821.891 85.9333 821.824 85.8 821.691 85.8C821.557 85.8 821.491 85.7333 821.491 85.6C821.224 85.6 821.024 85.6667 820.891 85.8C820.757 85.9333 820.557 86.0667 820.291 86.2C820.157 86.2 820.091 86.0667 820.091 85.8C820.091 85.6667 820.157 85.6 820.291 85.6C819.624 85.6 819.357 85.5333 819.491 85.4C819.224 85.4 819.091 85.6667 819.091 86.2C819.091 86.7333 818.957 87.1333 818.691 87.4C818.024 87.4 817.424 87.4667 816.891 87.6C816.491 87.6 815.824 87.6 814.891 87.6C814.891 87.3333 814.957 87.2667 815.091 87.4C815.357 87.4 815.491 87.2667 815.491 87C815.357 87 815.291 87 815.291 87C815.291 86.8667 815.224 86.8 815.091 86.8H814.891C814.624 86.8 814.357 86.8667 814.091 87C813.824 87 813.557 87 813.291 87C813.024 87.6667 812.624 87.9333 812.091 87.8C811.691 87.5333 811.357 87.5333 811.091 87.8V87.6C810.691 87.6 810.424 87.7333 810.291 88C810.691 88.1333 810.957 88.0667 811.091 87.8C811.224 88.0667 811.291 88.1333 811.291 88C811.424 87.8667 811.491 87.9333 811.491 88.2C811.491 88.4667 811.357 88.6 811.091 88.6C810.957 88.6 810.757 88.7333 810.491 89C810.091 89 809.757 88.9333 809.491 88.8C809.224 88.5333 808.891 88.5333 808.491 88.8C807.824 88.8 807.024 88.8667 806.091 89C805.291 89.1333 804.557 89.2667 803.891 89.4C803.357 89.6667 803.024 90 802.891 90.4C802.757 90.6667 802.557 91.0667 802.291 91.6C801.357 94 800.024 96.8667 798.291 100.2C796.557 103.533 795.157 106.667 794.091 109.6C793.691 110.8 793.357 111.667 793.091 112.2C792.957 112.733 792.757 113.2 792.491 113.6C792.357 113.867 792.157 114.267 791.891 114.8C791.757 115.333 791.491 116.267 791.091 117.6C789.624 120 788.491 123 787.691 126.6C786.891 130.067 786.157 133.6 785.491 137.2C785.224 138.4 784.891 139.6 784.491 140.8C784.091 142 783.824 143.267 783.691 144.6C783.557 146.6 783.157 148.467 782.491 150.2C781.957 151.8 782.224 153.533 783.291 155.4C783.557 155.533 783.624 155.533 783.491 155.4C783.357 155.4 783.557 155.4 784.091 155.4C785.157 155.4 786.491 155.267 788.091 155C789.691 154.6 791.091 154.133 792.291 153.6C793.757 153.2 795.224 152.733 796.691 152.2C798.291 151.533 799.757 151 801.091 150.6C801.357 150.333 801.491 150.267 801.491 150.4C801.624 150.4 801.691 150.267 801.691 150C802.091 149.867 802.491 149.8 802.891 149.8C803.291 149.667 803.557 149.333 803.691 148.8C804.491 148.533 805.091 148.333 805.491 148.2C806.024 147.933 806.424 147.667 806.691 147.4C807.091 147.133 807.491 146.933 807.891 146.8C808.291 146.533 808.891 146.267 809.691 146V145.2C810.224 145.6 811.024 145.2 812.091 144C812.224 144 812.357 144.067 812.491 144.2C813.691 143.4 815.024 142.533 816.491 141.6C818.091 140.667 819.557 139.733 820.891 138.8C821.557 138.667 822.624 138 824.091 136.8C825.557 135.6 827.024 134.267 828.491 132.8C830.091 131.333 831.491 130 832.691 128.8C833.891 127.467 834.624 126.667 834.891 126.4C835.024 126.533 835.157 126.6 835.291 126.6C835.424 125.8 835.491 125.333 835.491 125.2C835.624 125.067 835.691 125 835.691 125C835.824 125 835.891 125 835.891 125C836.024 124.867 836.291 124.533 836.691 124C836.691 123.6 836.757 123.4 836.891 123.4C837.291 123.133 837.557 122.933 837.691 122.8C837.824 122.667 838.024 122.4 838.291 122C839.091 122.133 839.624 121.667 839.891 120.6C840.824 120.867 841.424 121.2 841.691 121.6C842.091 121.867 842.424 121.867 842.691 121.6C842.691 121.867 842.824 122.067 843.091 122.2C843.357 122.2 843.624 122.2 843.891 122.2C843.891 122.467 843.824 122.6 843.691 122.6C843.691 122.6 843.691 122.667 843.691 122.8C843.957 122.933 843.757 123.133 843.091 123.4C842.557 123.667 842.624 123.867 843.291 124C843.291 124.267 843.157 124.667 842.891 125.2C843.024 125.2 843.224 125.4 843.491 125.8C843.224 125.8 842.091 127.333 840.091 130.4H840.291C840.157 130.533 840.024 130.6 839.891 130.6C839.357 131.133 839.091 131.333 839.091 131.2L837.891 132.2V131.8C837.624 132.067 837.491 132.333 837.491 132.6C837.491 132.733 837.357 132.867 837.091 133C836.957 133.133 836.891 133.333 836.891 133.6V133.4C836.891 133.267 836.824 133.2 836.691 133.2ZM840.491 129C840.357 129 840.491 128.8 840.891 128.4V128.2L840.491 128.4C840.224 128.8 839.891 129.2 839.491 129.6C839.224 129.867 838.957 130.133 838.691 130.4V129.8C838.157 130.6 837.957 131.267 838.091 131.8L838.491 131.4H838.291L838.491 130.6C838.757 130.6 838.957 130.667 839.091 130.8C839.091 130.4 839.357 130.067 839.891 129.8L840.491 128.8V129ZM823.091 145.4C823.491 145 823.824 144.667 824.091 144.4C824.491 144.133 824.824 143.733 825.091 143.2C824.691 143.467 824.157 143.8 823.491 144.2C822.957 144.6 822.824 145 823.091 145.4ZM827.891 143.6C828.291 142.933 828.691 142.533 829.091 142.4C829.624 142.133 830.157 141.8 830.691 141.4V141.6C830.157 141.867 829.624 142.2 829.091 142.6C828.691 143 828.291 143.333 827.891 143.6ZM841.891 83.6C841.624 83.8667 841.291 83.9333 840.891 83.8C840.624 83.5333 840.357 83.5333 840.091 83.8C840.357 83.9333 840.757 84.0667 841.291 84.2C841.824 84.2 842.024 84 841.891 83.6ZM832.091 139.4C831.957 138.733 832.224 138.133 832.891 137.6C833.557 137.067 833.891 136.667 833.891 136.4C834.157 136.667 833.957 137.2 833.291 138C832.757 138.667 832.357 139.133 832.091 139.4ZM825.891 142C826.424 142.133 826.757 142.067 826.891 141.8C827.024 141.533 827.224 141.267 827.491 141C827.491 140.467 827.557 140.133 827.691 140C827.424 140 827.291 140.2 827.291 140.6C827.291 140.6 827.357 140.733 827.491 141C827.224 141.133 826.957 141.333 826.691 141.6C826.424 141.733 826.157 141.867 825.891 142ZM808.491 87.8C808.757 88.0667 808.957 88.1333 809.091 88C809.224 87.8667 809.357 87.8 809.491 87.8C809.491 87.6667 809.557 87.6 809.691 87.6C809.824 87.4667 809.757 87.2667 809.491 87C809.491 87.2667 809.357 87.4667 809.091 87.6C808.824 87.6 808.624 87.6667 808.491 87.8ZM825.891 142.8C826.024 143.067 826.224 143.133 826.491 143C826.891 142.733 826.957 142.467 826.691 142.2C826.557 142.467 826.357 142.6 826.091 142.6C825.957 142.467 825.891 142.533 825.891 142.8ZM825.691 139.8C825.957 139.933 826.224 139.867 826.491 139.6C826.757 139.333 826.824 139.067 826.691 138.8C826.424 139.067 826.224 139.267 826.091 139.4C826.091 139.533 825.957 139.667 825.691 139.8ZM828.891 86.6C828.757 86.6 828.691 86.5333 828.691 86.4H828.891C829.024 86.4 829.091 86.4 829.091 86.4C829.357 86.8 829.357 87 829.091 87C828.957 86.8667 828.891 86.7333 828.891 86.6ZM807.891 88C807.891 87.8667 807.957 87.8 808.091 87.8C808.224 87.8 808.291 87.7333 808.291 87.6C807.757 87.3333 807.624 87.4667 807.891 88ZM824.291 87C823.757 87.1333 823.491 87.2 823.491 87.2C823.624 87.0667 823.824 86.8667 824.091 86.6C824.091 86.8667 824.157 87 824.291 87ZM838.891 131C838.624 130.867 838.491 130.933 838.491 131.2C838.624 131.333 838.624 131.4 838.491 131.4L838.891 131ZM814.891 86.8C814.891 87.0667 814.757 87.2 814.491 87.2C814.757 86.9333 814.891 86.8 814.891 86.8ZM840.491 129.4C840.757 129.133 840.891 128.933 840.891 128.8L840.491 129.2V129.4ZM828.291 139.8C828.424 139.933 828.491 139.8 828.491 139.4C828.491 139.533 828.424 139.667 828.291 139.8ZM814.491 87.4C814.224 87.2667 814.224 87.2 814.491 87.2V87.4ZM830.891 141.2C830.757 141.333 830.691 141.4 830.691 141.4V141.2H830.891ZM840.491 129.4C840.491 129.533 840.424 129.6 840.291 129.6C840.424 129.6 840.491 129.533 840.491 129.4ZM836.491 134L836.691 133.8L836.491 134Z" fill="black"/>
<path d="M97.2 19C97.7333 19.2667 98.2667 19.6 98.8 20C99.4667 20.2667 100.2 20.4 101 20.4C101.4 21.0667 101.867 21.8 102.4 22.6C103.067 23.4 103.733 24.1333 104.4 24.8C106.533 25.0667 108.267 25.8667 109.6 27.2C110.933 28.5333 111.733 30.2667 112 32.4C112 34.9333 111.6 37.4667 110.8 40C109.733 45.0667 108.133 49.6667 106 53.8C103.867 57.9333 101.733 62.2 99.6 66.6C99.3333 67.1333 99.0667 67.6667 98.8 68.2C98.6667 68.6 98.4667 69.0667 98.2 69.6L97.2 71C96.1333 72.2 95.1333 73.4667 94.2 74.8C93.2667 76 92.1333 77.1333 90.8 78.2L89.8 79.4C88.7333 79.9333 87.9333 79.9333 87.4 79.4C85.1333 79.2667 83.6 78.4 82.8 76.8C82.1333 75.2 81.4667 73.8 80.8 72.6C80.9333 72.3333 81.0667 72 81.2 71.6C81.3333 71.0667 81.2667 70.6667 81 70.4C81.1333 69.6 81.4 69 81.8 68.6C82.3333 68.2 82.7333 67.8 83 67.4C84.8667 65.2667 86.4667 63 87.8 60.6C89.1333 58.0667 90.6 55.6667 92.2 53.4C93.6667 51.2667 95 48.9333 96.2 46.4C97.4 43.8667 98.4667 41.1333 99.4 38.2C99.5333 37.6667 99.6667 37.2 99.8 36.8C99.9333 36.2667 100 35.8667 100 35.6C100 35.3333 99.9333 35.1333 99.8 35C99.8 34.8667 99.8 34.7333 99.8 34.6C99.9333 34.3333 100.067 34.1333 100.2 34C100.467 33.7333 100.533 33.4 100.4 33C98.1333 33.1333 96 33.6 94 34.4C92 35.2 90.1333 36.1333 88.4 37.2C86.8 38.2667 85.1333 39.3333 83.4 40.4C81.8 41.4667 80.4667 42.8 79.4 44.4C77.9333 45.2 76.6 46.2 75.4 47.4C74.2 48.6 72.9333 49.7333 71.6 50.8C70.6667 51.3333 69.8667 51.9333 69.2 52.6C68.6667 53.1333 68.1333 53.7333 67.6 54.4C64.5333 57.0667 61.5333 59.9333 58.6 63C55.6667 65.9333 52.9333 69.1333 50.4 72.6C48.4 73.8 46.8 75.4 45.6 77.4C44.5333 79.4 43.0667 81.0667 41.2 82.4C40.4 83.8667 39.4 85.3333 38.2 86.8C37.1333 88.1333 36 89.6 34.8 91.2L33 94.8C32.7333 95.2 32.4667 95.5333 32.2 95.8C31.9333 95.9333 31.6667 96.1333 31.4 96.4C30.8667 96.6667 30.5333 97 30.4 97.4C30.2667 97.6667 30.1333 97.9333 30 98.2C27.8667 102.333 25.5333 106.133 23 109.6L22 111.8C22 112.333 21.9333 112.8 21.8 113.2L19.8 117.2C19.2667 118.267 18.8667 119.4 18.6 120.6C18.3333 121.667 18.0667 122.667 17.8 123.6C16.3333 127.6 15.1333 131.8 14.2 136.2C13.4 139.667 12.8 143.267 12.4 147C12 150.733 12.1333 154.133 12.8 157.2C13.0667 158.267 13.2667 159.333 13.4 160.4C13.5333 161.467 13.8 162.333 14.2 163C14.6 163.667 15.0667 164.2 15.6 164.6C16.2667 165 16.9333 165.4 17.6 165.8C19.7333 167 22 168 24.4 168.8C26.9333 169.733 29.8667 170.067 33.2 169.8C37.2 169.533 41.1333 169.067 45 168.4C48.8667 167.867 52.4667 167.067 55.8 166C57.4 165.6 58.6 165.267 59.4 165C60.2 164.867 60.8667 164.667 61.4 164.4C62.0667 164.267 62.7333 164.067 63.4 163.8C64.2 163.533 65.3333 163 66.8 162.2C68.2667 161.267 69.7333 160.467 71.2 159.8C72.8 159.133 74.4667 158.333 76.2 157.4L82.4 154.2C83.0667 153.933 83.5333 153.733 83.8 153.6C84.0667 153.333 84.5333 153.067 85.2 152.8C85.4667 152.533 85.7333 152.333 86 152.2C86.4 151.933 86.8 151.667 87.2 151.4C87.4667 151.133 87.7333 151 88 151C88.4 150.867 88.7333 150.533 89 150C88.7333 149.467 88.9333 149.2 89.6 149.2C90.2667 149.067 90.6 148.667 90.6 148L91 148.6C91.6667 148.333 92.2667 148 92.8 147.6C93.4667 147.067 94.0667 146.733 94.6 146.6C94.8667 146.6 95 146.667 95 146.8C95.1333 146.8 95.2667 146.8 95.4 146.8C95.9333 146.667 96.4667 146.4 97 146C97.6667 145.6 98 145.6 98 146L101.2 144.4C101.067 144.667 101.2 144.6 101.6 144.2C102.133 143.667 102.8 143.067 103.6 142.4C104.4 141.6 105.267 140.733 106.2 139.8C107.133 138.867 108 137.933 108.8 137C108.4 136.6 108.267 136.267 108.4 136C109.2 135.733 109.8 135.333 110.2 134.8C110.6 134.267 111.067 133.733 111.6 133.2C112.4 131.867 113.4 130.733 114.6 129.8C115.8 128.867 116.733 127.667 117.4 126.2C117.4 126.067 117.4 125.933 117.4 125.8C117.533 125.667 117.6 125.533 117.6 125.4C117.733 125.8 117.867 125.867 118 125.6C118.267 125.6 118.4 125.533 118.4 125.4C118.4 125.267 118.533 125.133 118.8 125C119.2 124.867 119.6 124.6 120 124.2C120.267 124.467 120.333 124.733 120.2 125C120.067 125.267 120.133 125.467 120.4 125.6C121.067 125.867 121.4 125.733 121.4 125.2C121.667 125.6 121.733 125.867 121.6 126C121.467 126 121.467 126.333 121.6 127L121.4 128.4C121.4 129.067 121.267 129.733 121 130.4C120.867 131.067 120.8 131.733 120.8 132.4L120.6 133.8L119.8 135C119.267 135.667 118.8 136.4 118.4 137.2C118.133 137.867 117.733 138.467 117.2 139C116.933 139.267 116.667 139.533 116.4 139.8C116.133 139.933 115.867 140.2 115.6 140.6C114.933 141.267 114.2 142 113.4 142.8C112.733 143.6 112.067 144.333 111.4 145C108.6 147.267 105.667 149.533 102.6 151.8C99.5333 154.067 96.4667 156.2 93.4 158.2C92.6 159 92 159.467 91.6 159.6C91.0667 159.867 90.6 160 90.2 160C89.9333 160 89.6667 160.133 89.4 160.4H89.6H89.8C89.5333 161.2 89 161.8 88.2 162.2C87.9333 162.333 87.5333 162.4 87 162.4C86.6 162.533 86.2667 162.733 86 163C85.2 163.533 84.4 164 83.6 164.4C82.9333 164.933 82.2 165.333 81.4 165.6C80.2 166.533 78.8667 167.333 77.4 168C75.9333 168.8 74.4667 169.533 73 170.2L68 172.6C67.2 173 66.8 173.133 66.8 173C66.8 172.867 66.8667 172.733 67 172.6C67.2667 172.467 67.4 172.333 67.4 172.2C67.4 172.067 67.0667 172.2 66.4 172.6C65.0667 173.667 63.4667 174.6 61.6 175.4H59.8L58 176.2C57.0667 176.467 56.4667 176.733 56.2 177C55.5333 177.267 54.8 177.4 54 177.4C53.2 177.533 52.4 177.667 51.6 177.8L49.4 178.8C49.1333 179.067 48.8 179.2 48.4 179.2C48.1333 179.2 47.7333 179.267 47.2 179.4C46.5333 179.667 45.8667 179.867 45.2 180C44.5333 180.267 43.6667 180.533 42.6 180.8L32.6 181.2C26.8667 181.733 22.2 181.133 18.6 179.4C15 177.667 11.8667 175.333 9.2 172.4C8.53333 171.733 7.8 170.867 7 169.8C6.2 168.733 5.4 167.6 4.6 166.4C3.93333 165.333 3.33333 164.2 2.8 163C2.26667 161.8 2.06667 160.4 2.2 158.8C2.06667 158.533 1.93333 158.333 1.8 158.2C1.66667 158.2 1.53333 157.933 1.4 157.4C1.26667 155.267 1.06667 152.933 0.8 150.4C0.533333 147.733 0.466667 145.133 0.6 142.6L0.8 139.4C0.933333 138.467 1.13333 137.467 1.4 136.4C1.53333 135.333 1.73333 134.4 2 133.6C2 133.467 2.13333 133 2.4 132.2L3 127.8C3.4 125.133 4.06667 122.533 5 120C6.06667 117.467 7.13333 115 8.2 112.6C8.73333 111.8 9.06667 111 9.2 110.2C9.46667 109.267 9.93333 108.467 10.6 107.8C11.2667 106.333 11.9333 104.867 12.6 103.4C13.2667 101.8 13.9333 100.133 14.6 98.4C17.8 92.4 21.2667 86.8 25 81.6C28.7333 76.4 32.5333 71.3333 36.4 66.4C37.4667 65.3333 38.5333 64.1333 39.6 62.8C40.6667 61.4667 41.7333 60.2667 42.8 59.2C44 57.8667 45.0667 56.7333 46 55.8C47.0667 54.8667 48.1333 53.8667 49.2 52.8C51.8667 50.6667 54.3333 48.5333 56.6 46.4C58.8667 44.1333 61.2 42.0667 63.6 40.2C66 38.0667 68.4667 36 71 34C73.6667 32 76.4 30.2 79.2 28.6C79.8667 28.3333 80.4667 27.9333 81 27.4C81.6667 26.7333 82.3333 26.2667 83 26C83.6667 25.6 84.3333 25.2667 85 25C85.8 24.7333 86.6 24.4 87.4 24C88.0667 23.6 88.7333 23.1333 89.4 22.6C90.0667 22.0667 90.8 21.6667 91.6 21.4C92.2667 21 93 20.6 93.8 20.2C94.7333 19.6667 95.5333 19.2667 96.2 19H97.2ZM103.6 141.4C102.933 141.667 102.533 142.067 102.4 142.6C102.267 143.133 102 142.933 101.6 142C101.867 141.733 102.2 141.533 102.6 141.4C103 141.133 103.333 141.133 103.6 141.4ZM105.2 139.4C105.2 139.933 105.067 140.2 104.8 140.2C105.067 140.067 105.467 139.733 106 139.2C105.2 140 104.6 140.533 104.2 140.8C103.933 141.067 104.133 140.867 104.8 140.2C104.667 140.333 104.533 140.4 104.4 140.4C104.267 140.267 104.133 140.333 104 140.6C103.733 140.067 103.8 139.667 104.2 139.4C104.6 139.133 104.933 139.133 105.2 139.4ZM107 138.2C106.867 138.067 106.8 137.933 106.8 137.8C106.933 137.667 106.933 137.6 106.8 137.6C107.067 137.467 107.267 137.333 107.4 137.2C107.667 136.933 107.933 136.8 108.2 136.8L107 138.2ZM100.4 143C100.133 142.733 100 142.6 100 142.6C100.267 141.933 100.533 141.8 100.8 142.2C101.2 142.6 101.067 142.867 100.4 143ZM101 143.4C101.133 143.4 101.2 143.533 101.2 143.8C100.667 143.8 100.333 143.933 100.2 144.2C100.2 143.933 100.267 143.8 100.4 143.8C100.667 143.667 100.867 143.533 101 143.4ZM107.2 138.4C106.933 138.667 106.533 138.933 106 139.2C106.267 139.067 106.4 138.933 106.4 138.8C106.533 138.667 106.733 138.467 107 138.2C107 138.333 107.067 138.4 107.2 138.4ZM117.8 125.2C117.8 125.333 117.733 125.4 117.6 125.4C117.6 125 117.667 124.933 117.8 125.2ZM177.897 110.2C178.03 109.533 178.23 109.933 178.497 111.4C178.764 112.733 178.897 114.667 178.897 117.2C178.897 119.6 178.697 122.333 178.297 125.4C177.897 128.333 177.097 131 175.897 133.4C176.564 133.533 178.497 133.2 181.697 132.4L184.297 131.4C185.497 131.133 186.697 130.8 187.897 130.4C189.097 129.867 190.297 129.333 191.497 128.8L195.697 127.2L198.697 126C200.03 125.467 201.297 124.933 202.497 124.4C203.83 123.867 204.964 123.267 205.897 122.6L210.497 119.4L210.897 119.2C211.164 119.067 211.43 118.933 211.697 118.8C211.964 118.667 212.297 118.4 212.697 118C213.23 117.6 213.897 117.133 214.697 116.6C215.63 116.067 216.497 115.6 217.297 115.2C218.23 114.667 219.03 114.2 219.697 113.8C220.364 113.4 220.697 113.133 220.697 113L221.497 114.8C221.897 114.4 222.097 114.333 222.097 114.6C222.097 114.867 221.897 115.333 221.497 116C221.23 116.533 220.764 117.267 220.097 118.2C219.564 119 218.897 119.733 218.097 120.4L215.697 121.8C215.03 122.333 214.43 122.933 213.897 123.6C213.497 124.133 213.03 124.6 212.497 125C212.23 125.133 211.897 125.4 211.497 125.8C211.23 126.2 211.03 126.333 210.897 126.2C210.497 126.467 210.297 126.8 210.297 127.2C210.297 127.467 210.03 127.533 209.497 127.4C208.697 127.933 208.097 128.533 207.697 129.2C207.43 129.733 206.83 130.267 205.897 130.8C205.63 130.933 205.364 131.133 205.097 131.4C204.83 131.667 204.63 131.667 204.497 131.4C204.364 131.533 204.164 131.667 203.897 131.8C203.63 131.933 203.364 132.067 203.097 132.2C202.964 132.333 202.764 132.467 202.497 132.6L194.897 136.2C194.364 136.6 193.697 137 192.897 137.4C192.097 137.667 191.297 138 190.497 138.4C189.83 138.667 189.23 138.933 188.697 139.2C188.164 139.333 187.897 139.4 187.897 139.4C187.63 139.667 187.297 139.8 186.897 139.8C186.497 139.667 185.83 139.667 184.897 139.8C184.497 139.933 183.964 140.267 183.297 140.8C182.63 141.2 182.03 141.467 181.497 141.6C179.364 141.867 177.297 142.2 175.297 142.6C173.43 142.867 172.164 143.267 171.497 143.8C171.097 144.467 170.764 144.933 170.497 145.2C170.364 145.467 170.164 145.667 169.897 145.8C169.764 145.933 169.63 146.133 169.497 146.4C169.364 146.667 169.097 147.133 168.697 147.8C168.43 147.4 168.297 147.333 168.297 147.6C168.43 147.733 168.497 148 168.497 148.4C167.964 149.733 167.297 150.8 166.497 151.6C165.83 152.4 165.164 153.333 164.497 154.4C164.23 154.4 163.83 154.6 163.297 155C162.897 155.533 162.697 155.733 162.697 155.6C161.764 156.933 160.964 157.6 160.297 157.6C159.63 157.6 158.83 158.067 157.897 159C157.63 158.733 157.43 158.733 157.297 159C157.297 159.267 157.164 159.267 156.897 159C156.764 159.4 156.364 159.667 155.697 159.8C151.964 160.867 147.697 161.2 142.897 160.8L143.097 160.6C142.697 160.333 142.364 160.267 142.097 160.4C141.83 160.533 141.497 160.6 141.097 160.6C140.564 160.2 140.097 159.867 139.697 159.6C139.43 159.333 138.964 159.133 138.297 159C136.164 157.8 134.697 156 133.897 153.6C133.897 153.333 133.63 152.933 133.097 152.4C132.697 151.867 132.697 151.4 133.097 151C132.564 150.333 132.164 149.333 131.897 148C131.764 146.533 132.03 145.133 132.697 143.8C132.964 141 133.564 138.333 134.497 135.8C134.497 135.8 134.764 135.2 135.297 134C135.83 132.8 136.43 131.533 137.097 130.2C137.764 128.733 138.364 127.4 138.897 126.2C139.564 125 139.964 124.4 140.097 124.4C140.097 124.667 140.164 124.533 140.297 124C140.564 123.333 140.83 122.867 141.097 122.6C142.03 120.867 143.164 119.067 144.497 117.2C145.83 115.333 147.164 113.667 148.497 112.2C149.964 110.733 151.364 109.467 152.697 108.4C154.03 107.333 155.164 106.667 156.097 106.4L159.697 104.2C160.497 104.467 161.097 104.533 161.497 104.4C161.897 104.267 162.23 104.133 162.497 104C162.764 103.867 162.964 103.8 163.097 103.8C163.364 103.8 163.63 104.067 163.897 104.6H164.497C164.497 104.467 164.63 104.533 164.897 104.8C165.164 105.067 165.297 105 165.297 104.6C165.964 104.6 166.364 104.8 166.497 105.2C166.63 105.467 166.83 105.6 167.097 105.6C166.964 105.867 166.964 105.933 167.097 105.8C167.364 105.533 167.497 105.467 167.497 105.6C168.43 105.2 169.097 105.133 169.497 105.4C169.897 105.533 170.297 105.733 170.697 106C170.964 106.133 170.964 106.333 170.697 106.6C170.43 106.733 170.43 106.867 170.697 107C171.364 107 171.63 106.8 171.497 106.4C172.564 106.667 173.364 107.133 173.897 107.8C174.564 108.467 175.43 109.133 176.497 109.8C176.364 109.933 176.364 110.133 176.497 110.4C176.63 110.667 176.964 110.867 177.497 111H177.897L177.697 110.4L176.497 109.8C176.497 109.4 176.964 109.533 177.897 110.2ZM159.697 141.2C156.897 140.533 154.83 139.067 153.497 136.8C152.297 134.533 151.23 132.467 150.297 130.6C149.764 130.867 149.23 131.333 148.697 132C148.164 132.533 147.564 133.067 146.897 133.6L146.697 133.8C146.564 133.933 146.497 134.067 146.497 134.2C146.364 134.333 146.297 134.467 146.297 134.6V135H146.497C145.697 135.8 145.097 136.867 144.697 138.2C144.43 139 144.164 139.8 143.897 140.6C143.63 141.267 143.497 141.867 143.497 142.4C143.23 143.467 143.03 144.733 142.897 146.2C142.897 147.533 142.897 148.867 142.897 150.2C143.03 151.4 143.23 152.467 143.497 153.4C143.897 154.333 144.43 154.867 145.097 155C145.23 155 145.564 155 146.097 155C146.764 154.867 147.43 154.8 148.097 154.8C148.764 154.667 149.364 154.533 149.897 154.4C150.564 154.267 151.03 154.133 151.297 154C153.697 152.8 155.43 151.8 156.497 151C157.564 150.2 158.364 149.467 158.897 148.8C159.43 148 159.897 147.267 160.297 146.6C160.83 145.933 161.63 145.2 162.697 144.4L163.497 141.8C162.83 141.667 162.097 141.6 161.297 141.6C160.63 141.6 160.097 141.467 159.697 141.2ZM168.497 111.2C167.964 111.467 167.23 112 166.297 112.8C165.497 113.6 164.63 114.533 163.697 115.6C162.764 116.533 161.83 117.533 160.897 118.6C160.097 119.533 159.43 120.4 158.897 121.2C159.03 121.2 159.097 121.267 159.097 121.4C159.097 121.4 159.164 121.4 159.297 121.4C159.164 121.667 158.897 121.8 158.497 121.8C158.23 121.8 157.964 121.933 157.697 122.2C157.43 122.6 157.297 122.867 157.297 123C157.43 123.133 157.497 123.2 157.497 123.2C157.63 123.2 157.697 123.267 157.697 123.4C157.83 123.4 157.83 123.667 157.697 124.2C157.83 124.867 158.097 125.8 158.497 127C158.897 128.2 159.43 129.4 160.097 130.6C160.897 131.8 161.764 132.867 162.697 133.8C163.764 134.6 164.964 134.867 166.297 134.6C166.697 133.4 167.164 131.6 167.697 129.2C168.364 126.667 168.897 124.133 169.297 121.6C169.697 119.067 169.83 116.8 169.697 114.8C169.697 112.667 169.297 111.467 168.497 111.2ZM146.697 133.8C146.564 133.933 146.497 134.067 146.497 134.2V134.4C146.497 134.533 146.43 134.6 146.297 134.6C146.297 134.733 146.364 134.867 146.497 135V134.8C146.497 134.4 146.564 134.067 146.697 133.8ZM293.423 138.8C293.423 138.267 293.157 138.2 292.623 138.6C292.223 139 291.69 139.6 291.023 140.4C290.49 141.067 289.89 141.8 289.223 142.6C288.557 143.4 287.957 143.933 287.423 144.2C286.89 143.933 286.89 143.533 287.423 143C287.957 142.333 288.223 141.867 288.223 141.6C287.29 141.6 286.823 142.067 286.823 143C286.823 143.933 286.557 144.4 286.023 144.4C285.757 145.067 285.157 145.533 284.223 145.8C283.29 146.067 282.49 146.467 281.823 147C281.69 147 281.757 147 282.023 147C282.423 147 282.557 147.133 282.423 147.4C282.157 147.133 282.023 147.133 282.023 147.4C282.023 147.667 281.89 147.733 281.623 147.6V147.2C281.357 147.467 281.09 147.4 280.823 147C280.69 146.6 280.957 146.533 281.623 146.8C281.757 146.4 281.823 146 281.823 145.6C281.423 145.333 281.09 145.4 280.823 145.8C280.69 146.067 280.49 146.467 280.223 147C280.09 147.533 279.89 148.067 279.623 148.6C279.357 149 278.823 149.133 278.023 149C279.223 148.2 280.157 147.067 280.823 145.6C279.89 145.867 278.823 146.8 277.623 148.4C277.49 148 277.29 148 277.023 148.4C276.757 148.667 276.557 148.933 276.423 149.2C275.89 149.2 275.623 149.067 275.623 148.8H275.423C275.29 148.933 275.223 149.067 275.223 149.2C274.69 149.467 274.357 149.667 274.223 149.8C274.09 149.933 273.823 150.2 273.423 150.6C273.69 150.6 273.823 150.533 273.823 150.4C273.957 150.267 274.157 150.333 274.423 150.6C274.157 150.867 273.823 151.2 273.423 151.6C273.157 152 272.823 152.133 272.423 152C272.157 152 272.09 151.933 272.223 151.8C272.49 151.667 272.557 151.4 272.423 151C271.623 151.267 271.157 151.733 271.023 152.4C270.89 152.933 270.49 153.133 269.823 153C269.957 152.6 269.957 152.333 269.823 152.2C269.557 152.333 269.357 152.4 269.223 152.4C269.09 152.267 268.757 152.2 268.223 152.2C268.223 152.333 268.29 152.467 268.423 152.6C268.557 152.6 268.623 152.733 268.623 153C267.557 153.667 266.223 154 264.623 154C263.023 154 261.423 153.467 259.823 152.4C257.823 152.267 255.89 151.867 254.023 151.2C252.29 150.533 250.69 149.8 249.223 149C249.223 148.867 249.423 148.8 249.823 148.8C249.823 148.533 249.757 148.333 249.623 148.2C249.49 148.067 249.29 147.867 249.023 147.6C248.757 147.6 248.623 147.733 248.623 148C248.623 148.133 248.69 148.267 248.823 148.4C248.023 147.867 247.423 147.067 247.023 146C246.623 144.933 246.023 144.2 245.223 143.8C245.09 143.267 244.957 142.8 244.823 142.4C244.823 142 244.623 141.8 244.223 141.8C243.423 137.667 243.09 133.933 243.223 130.6C243.357 127.267 243.623 123.2 244.023 118.4C242.957 118.8 242.023 119.533 241.223 120.6C240.423 121.533 239.49 122.2 238.423 122.6C233.89 127.4 229.157 132.133 224.223 136.8C219.423 141.333 215.023 146.4 211.023 152C210.357 152.133 209.823 152.467 209.423 153C209.023 153.4 208.49 153.8 207.823 154.2C207.023 154.333 206.023 154.4 204.823 154.4C203.757 154.4 202.49 154.2 201.023 153.8C200.89 153.667 200.89 153.533 201.023 153.4C201.157 153.133 201.157 153 201.023 153C199.557 152.467 198.423 152.133 197.623 152C196.823 151.733 196.423 150.667 196.423 148.8C196.423 148.133 196.557 147.533 196.823 147C196.957 146.333 196.957 145.667 196.823 145C196.823 144.6 196.957 144.4 197.223 144.4C197.49 144.267 197.623 144.067 197.623 143.8C199.357 136.6 201.557 130 204.223 124C206.89 117.867 209.29 111.733 211.423 105.6C212.09 106.133 213.023 106.067 214.223 105.4C215.29 105.8 216.157 106.067 216.823 106.2C217.49 106.333 218.623 106.733 220.223 107.4C220.357 107.667 220.557 107.933 220.823 108.2C221.223 108.467 221.557 108.733 221.823 109C221.69 111.8 221.09 114.4 220.023 116.8C218.957 119.067 217.89 121.467 216.823 124C216.157 125.733 215.357 127.733 214.423 130C213.623 132.267 212.89 134.333 212.223 136.2C212.223 136.867 212.09 137.333 211.823 137.6C211.69 137.733 211.557 138 211.423 138.4C213.157 136.533 214.89 134.467 216.623 132.2C218.49 129.8 220.223 127.6 221.823 125.6C223.69 124.4 225.423 123 227.023 121.4C228.757 119.8 230.557 118.333 232.423 117C234.29 115.533 236.157 114.2 238.023 113C240.023 111.8 241.823 110.533 243.423 109.2C244.357 109.2 245.157 108.933 245.823 108.4C246.623 107.733 247.49 107.333 248.423 107.2C249.49 107.2 250.49 107.533 251.423 108.2C252.357 108.733 253.557 109 255.023 109V109.4C255.69 109.267 256.09 109.533 256.223 110.2C256.357 110.867 256.623 111.533 257.023 112.2C256.89 113.4 256.757 115 256.623 117C256.49 119 256.09 120.6 255.423 121.8C255.823 121.533 255.757 121.933 255.223 123C254.69 123.933 254.623 124.6 255.023 125C254.357 130.733 254.357 135.2 255.023 138.4C255.69 141.6 256.557 143.6 257.623 144.4C259.357 144.667 260.823 144.867 262.023 145C263.223 145 264.29 144.933 265.223 144.8C266.29 144.533 267.357 144.2 268.423 143.8C269.49 143.267 270.757 142.533 272.223 141.6C272.49 141.333 272.69 141.133 272.823 141C273.09 140.733 273.49 140.733 274.023 141C275.357 140.733 276.423 140.2 277.223 139.4C278.023 138.6 278.957 138.467 280.023 139C280.29 138.733 280.423 138.533 280.423 138.4C280.423 138.133 280.49 137.867 280.623 137.6C280.89 137.733 280.957 137.867 280.823 138C280.69 138 280.757 138.067 281.023 138.2C281.157 138.067 281.223 137.733 281.223 137.2C281.623 137.467 282.023 137.533 282.423 137.4C282.957 137.133 283.223 136.733 283.223 136.2C283.757 136.067 284.157 135.8 284.423 135.4C284.69 135 284.957 134.667 285.223 134.4C284.957 134.667 284.757 134.867 284.623 135C284.623 135.133 284.557 135.467 284.423 136C285.49 135.467 286.023 135 286.023 134.6C286.023 134.2 286.357 133.667 287.023 133C287.823 132.6 288.623 132.133 289.423 131.6C290.357 131.067 291.223 130.467 292.023 129.8C292.69 129.4 293.29 129 293.823 128.6C294.357 128.067 294.957 127.667 295.623 127.4C295.89 127.133 296.157 126.8 296.423 126.4C296.823 125.867 297.357 125.667 298.023 125.8C298.423 125.533 298.757 125.4 299.023 125.4C299.29 125.4 299.423 125.2 299.423 124.8C299.557 124.4 299.623 124.133 299.623 124C300.157 124 301.023 123.733 302.223 123.2C303.557 122.667 304.423 122.067 304.823 121.4C304.957 121.4 305.023 121.133 305.023 120.6C305.29 120.6 305.423 120.667 305.423 120.8C305.423 120.933 305.557 121 305.823 121C306.09 120.733 306.09 120.6 305.823 120.6C305.557 120.6 305.49 120.4 305.623 120C305.89 120.267 306.023 120.333 306.023 120.2C306.023 119.933 306.023 119.667 306.023 119.4C306.29 119.267 306.423 119.333 306.423 119.6C306.423 119.867 306.49 119.933 306.623 119.8C306.623 119.933 306.557 120 306.423 120C306.29 120 306.223 120.133 306.223 120.4C306.757 120.133 307.29 120.6 307.823 121.8C308.357 122.867 308.09 124.067 307.023 125.4C306.89 125.4 306.89 125.467 307.023 125.6C307.157 125.6 307.09 125.667 306.823 125.8C306.823 126.333 306.423 127.067 305.623 128C304.823 128.8 304.357 129.333 304.223 129.6L293.423 138.8ZM299.023 131.4C299.023 131.8 298.89 131.933 298.623 131.8C298.357 131.667 298.09 131.933 297.823 132.6C298.89 132.333 299.29 131.933 299.023 131.4ZM291.023 136C291.29 136.133 291.623 136 292.023 135.6L292.423 135.2C291.757 135.2 291.29 135.467 291.023 136ZM273.223 150.6C272.957 150.6 272.757 150.8 272.623 151.2C272.623 151.467 272.823 151.6 273.223 151.6V150.6ZM275.623 149.8C275.223 150.067 275.157 149.933 275.423 149.4C275.423 149.4 275.49 149.533 275.623 149.8ZM275.423 149V149.2H275.223C275.357 149.2 275.357 149.2 275.223 149.2C275.223 149.067 275.29 149 275.423 149ZM281.823 147C281.69 147.133 281.623 147.2 281.623 147.2C281.757 147.2 281.823 147.133 281.823 147Z" fill="black"/>
<path d="M398.065 110.999C393.695 118.101 409.747 119.879 412.341 112.097" stroke="black" stroke-width="8" stroke-linecap="round"/>
<path d="M370 99.001C372.5 75.001 456.5 57.001 482 101.001" stroke="black" stroke-width="8" stroke-linecap="round"/>
<path d="M414 132.744C419.793 144.662 453.28 137.778 459.922 125.283" stroke="black" stroke-width="8" stroke-linecap="round"/>
<path d="M371.5 94.2253C382.5 34.2255 479 48.2266 479 101.36" stroke="#00c897" stroke-width="8" stroke-linecap="round"/>
<path d="M434.468 111.352C434.826 112.604 438.08 117.607 444.492 117.039C448.516 116.682 452.424 111.548 452.424 111.548" stroke="black" stroke-width="8" stroke-linecap="round"/>
<path d="M452.5 27.5028C437 22.5028 444.088 31.5688 450.5 31.0005C453.684 30.7184 457.623 8.50181 459.5 5.00154C461.377 1.50126 459.5 8.00132 466.5 12.5013" stroke="#00c897" stroke-width="8" stroke-linecap="round"/>
<path d="M484.836 66.0113C473.913 53.9311 475.518 65.3263 481.355 68.0404C484.254 69.3878 498.774 52.1174 502.149 50.0246C505.525 47.9317 500.649 52.6225 504.461 60.0196" stroke="#00c897" stroke-width="8" stroke-linecap="round"/>
<path d="M488.709 104.048C488.224 102.855 483.029 104.688 482.355 105.133C480.398 106.426 480.756 109.621 481.828 111.492C482.312 112.336 487.163 113.362 486.264 113.697C482.218 115.205 483.794 118.049 484.927 121.815C485.475 123.64 487.128 123.899 488.56 124.923C489.244 125.413 489.859 125.973 490.64 126.312C490.737 126.354 491.82 126.537 491.505 126.792C489.867 128.117 488.818 128.837 490.053 131.026C490.651 132.086 492.401 135.701 493.673 136.036C494.541 136.264 493.814 138.172 494.705 139.176" stroke="black" stroke-width="8" stroke-linecap="round"/>
<path d="M495.912 103.826C498.255 105.235 500.252 106.478 501.337 109.017C501.978 110.52 502.217 112.154 502.838 113.646C503.163 114.428 503.907 114.851 504.208 115.747C505.609 119.917 506.89 124.075 508.034 128.343C509.896 135.292 509.177 140.951 505.744 146.897" stroke="black" stroke-width="8" stroke-linecap="round"/>
<path d="M358.472 99.163C358.685 97.4626 365.995 98.0302 367.014 98.3699C369.975 99.357 370.615 103.588 369.881 106.362C369.55 107.614 363.668 110.603 364.939 110.724C370.659 111.269 369.612 115.469 369.454 120.699C369.377 123.234 367.342 124.136 365.854 125.946C365.143 126.81 364.546 127.742 363.658 128.447C363.548 128.534 362.22 129.143 362.713 129.362C365.274 130.501 366.87 131.066 366.037 134.304C365.634 135.873 364.629 141.122 363.109 141.991C362.072 142.584 363.664 144.785 362.865 146.384" stroke="black" stroke-width="8" stroke-linecap="round"/>
<path d="M349.138 101.359C346.611 103.977 344.472 106.263 343.952 109.901C343.645 112.053 343.901 114.236 343.617 116.367C343.468 117.485 342.658 118.285 342.58 119.54C342.214 125.383 342 131.169 342 137.049C342 146.622 344.873 153.649 351.334 160.111" stroke="black" stroke-width="8" stroke-linecap="round"/>
</svg>
