<svg width="593" height="163" viewBox="0 0 593 163" fill="none" xmlns="http://www.w3.org/2000/svg">
<path d="M97.2 -1.43051e-06C97.7333 0.266662 98.2667 0.599995 98.8 0.999998C99.4667 1.26666 100.2 1.39999 101 1.39999C101.4 2.06666 101.867 2.79999 102.4 3.59999C103.067 4.39999 103.733 5.13333 104.4 5.8C106.533 6.06666 108.267 6.86666 109.6 8.19999C110.933 9.53333 111.733 11.2667 112 13.4C112 15.9333 111.6 18.4667 110.8 21C109.733 26.0667 108.133 30.6667 106 34.8C103.867 38.9333 101.733 43.2 99.6 47.6C99.3333 48.1333 99.0667 48.6667 98.8 49.2C98.6667 49.6 98.4667 50.0667 98.2 50.6L97.2 52C96.1333 53.2 95.1333 54.4667 94.2 55.8C93.2667 57 92.1333 58.1333 90.8 59.2L89.8 60.4C88.7333 60.9333 87.9333 60.9333 87.4 60.4C85.1333 60.2667 83.6 59.4 82.8 57.8C82.1333 56.2 81.4667 54.8 80.8 53.6C80.9333 53.3333 81.0667 53 81.2 52.6C81.3333 52.0667 81.2667 51.6667 81 51.4C81.1333 50.6 81.4 50 81.8 49.6C82.3333 49.2 82.7333 48.8 83 48.4C84.8667 46.2667 86.4667 44 87.8 41.6C89.1333 39.0667 90.6 36.6667 92.2 34.4C93.6667 32.2667 95 29.9333 96.2 27.4C97.4 24.8667 98.4667 22.1333 99.4 19.2C99.5333 18.6667 99.6667 18.2 99.8 17.8C99.9333 17.2667 100 16.8667 100 16.6C100 16.3333 99.9333 16.1333 99.8 16C99.8 15.8667 99.8 15.7333 99.8 15.6C99.9333 15.3333 100.067 15.1333 100.2 15C100.467 14.7333 100.533 14.4 100.4 14C98.1333 14.1333 96 14.6 94 15.4C92 16.2 90.1333 17.1333 88.4 18.2C86.8 19.2667 85.1333 20.3333 83.4 21.4C81.8 22.4667 80.4667 23.8 79.4 25.4C77.9333 26.2 76.6 27.2 75.4 28.4C74.2 29.6 72.9333 30.7333 71.6 31.8C70.6667 32.3333 69.8667 32.9333 69.2 33.6C68.6667 34.1333 68.1333 34.7333 67.6 35.4C64.5333 38.0667 61.5333 40.9333 58.6 44C55.6667 46.9333 52.9333 50.1333 50.4 53.6C48.4 54.8 46.8 56.4 45.6 58.4C44.5333 60.4 43.0667 62.0667 41.2 63.4C40.4 64.8667 39.4 66.3333 38.2 67.8C37.1333 69.1333 36 70.6 34.8 72.2L33 75.8C32.7333 76.2 32.4667 76.5333 32.2 76.8C31.9333 76.9333 31.6667 77.1333 31.4 77.4C30.8667 77.6667 30.5333 78 30.4 78.4C30.2667 78.6667 30.1333 78.9333 30 79.2C27.8667 83.3333 25.5333 87.1333 23 90.6L22 92.8C22 93.3333 21.9333 93.8 21.8 94.2L19.8 98.2C19.2667 99.2667 18.8667 100.4 18.6 101.6C18.3333 102.667 18.0667 103.667 17.8 104.6C16.3333 108.6 15.1333 112.8 14.2 117.2C13.4 120.667 12.8 124.267 12.4 128C12 131.733 12.1333 135.133 12.8 138.2C13.0667 139.267 13.2667 140.333 13.4 141.4C13.5333 142.467 13.8 143.333 14.2 144C14.6 144.667 15.0667 145.2 15.6 145.6C16.2667 146 16.9333 146.4 17.6 146.8C19.7333 148 22 149 24.4 149.8C26.9333 150.733 29.8667 151.067 33.2 150.8C37.2 150.533 41.1333 150.067 45 149.4C48.8667 148.867 52.4667 148.067 55.8 147C57.4 146.6 58.6 146.267 59.4 146C60.2 145.867 60.8667 145.667 61.4 145.4C62.0667 145.267 62.7333 145.067 63.4 144.8C64.2 144.533 65.3333 144 66.8 143.2C68.2667 142.267 69.7333 141.467 71.2 140.8C72.8 140.133 74.4667 139.333 76.2 138.4L82.4 135.2C83.0667 134.933 83.5333 134.733 83.8 134.6C84.0667 134.333 84.5333 134.067 85.2 133.8C85.4667 133.533 85.7333 133.333 86 133.2C86.4 132.933 86.8 132.667 87.2 132.4C87.4667 132.133 87.7333 132 88 132C88.4 131.867 88.7333 131.533 89 131C88.7333 130.467 88.9333 130.2 89.6 130.2C90.2667 130.067 90.6 129.667 90.6 129L91 129.6C91.6667 129.333 92.2667 129 92.8 128.6C93.4667 128.067 94.0667 127.733 94.6 127.6C94.8667 127.6 95 127.667 95 127.8C95.1333 127.8 95.2667 127.8 95.4 127.8C95.9333 127.667 96.4667 127.4 97 127C97.6667 126.6 98 126.6 98 127L101.2 125.4C101.067 125.667 101.2 125.6 101.6 125.2C102.133 124.667 102.8 124.067 103.6 123.4C104.4 122.6 105.267 121.733 106.2 120.8C107.133 119.867 108 118.933 108.8 118C108.4 117.6 108.267 117.267 108.4 117C109.2 116.733 109.8 116.333 110.2 115.8C110.6 115.267 111.067 114.733 111.6 114.2C112.4 112.867 113.4 111.733 114.6 110.8C115.8 109.867 116.733 108.667 117.4 107.2C117.4 107.067 117.4 106.933 117.4 106.8C117.533 106.667 117.6 106.533 117.6 106.4C117.733 106.8 117.867 106.867 118 106.6C118.267 106.6 118.4 106.533 118.4 106.4C118.4 106.267 118.533 106.133 118.8 106C119.2 105.867 119.6 105.6 120 105.2C120.267 105.467 120.333 105.733 120.2 106C120.067 106.267 120.133 106.467 120.4 106.6C121.067 106.867 121.4 106.733 121.4 106.2C121.667 106.6 121.733 106.867 121.6 107C121.467 107 121.467 107.333 121.6 108L121.4 109.4C121.4 110.067 121.267 110.733 121 111.4C120.867 112.067 120.8 112.733 120.8 113.4L120.6 114.8L119.8 116C119.267 116.667 118.8 117.4 118.4 118.2C118.133 118.867 117.733 119.467 117.2 120C116.933 120.267 116.667 120.533 116.4 120.8C116.133 120.933 115.867 121.2 115.6 121.6C114.933 122.267 114.2 123 113.4 123.8C112.733 124.6 112.067 125.333 111.4 126C108.6 128.267 105.667 130.533 102.6 132.8C99.5333 135.067 96.4667 137.2 93.4 139.2C92.6 140 92 140.467 91.6 140.6C91.0667 140.867 90.6 141 90.2 141C89.9333 141 89.6667 141.133 89.4 141.4H89.6H89.8C89.5333 142.2 89 142.8 88.2 143.2C87.9333 143.333 87.5333 143.4 87 143.4C86.6 143.533 86.2667 143.733 86 144C85.2 144.533 84.4 145 83.6 145.4C82.9333 145.933 82.2 146.333 81.4 146.6C80.2 147.533 78.8667 148.333 77.4 149C75.9333 149.8 74.4667 150.533 73 151.2L68 153.6C67.2 154 66.8 154.133 66.8 154C66.8 153.867 66.8667 153.733 67 153.6C67.2667 153.467 67.4 153.333 67.4 153.2C67.4 153.067 67.0667 153.2 66.4 153.6C65.0667 154.667 63.4667 155.6 61.6 156.4H59.8L58 157.2C57.0667 157.467 56.4667 157.733 56.2 158C55.5333 158.267 54.8 158.4 54 158.4C53.2 158.533 52.4 158.667 51.6 158.8L49.4 159.8C49.1333 160.067 48.8 160.2 48.4 160.2C48.1333 160.2 47.7333 160.267 47.2 160.4C46.5333 160.667 45.8667 160.867 45.2 161C44.5333 161.267 43.6667 161.533 42.6 161.8L32.6 162.2C26.8667 162.733 22.2 162.133 18.6 160.4C15 158.667 11.8667 156.333 9.2 153.4C8.53333 152.733 7.8 151.867 7 150.8C6.2 149.733 5.4 148.6 4.6 147.4C3.93333 146.333 3.33333 145.2 2.8 144C2.26667 142.8 2.06667 141.4 2.2 139.8C2.06667 139.533 1.93333 139.333 1.8 139.2C1.66667 139.2 1.53333 138.933 1.4 138.4C1.26667 136.267 1.06667 133.933 0.8 131.4C0.533333 128.733 0.466667 126.133 0.6 123.6L0.8 120.4C0.933333 119.467 1.13333 118.467 1.4 117.4C1.53333 116.333 1.73333 115.4 2 114.6C2 114.467 2.13333 114 2.4 113.2L3 108.8C3.4 106.133 4.06667 103.533 5 101C6.06667 98.4667 7.13333 96 8.2 93.6C8.73333 92.8 9.06667 92 9.2 91.2C9.46667 90.2667 9.93333 89.4667 10.6 88.8C11.2667 87.3333 11.9333 85.8667 12.6 84.4C13.2667 82.8 13.9333 81.1333 14.6 79.4C17.8 73.4 21.2667 67.8 25 62.6C28.7333 57.4 32.5333 52.3333 36.4 47.4C37.4667 46.3333 38.5333 45.1333 39.6 43.8C40.6667 42.4667 41.7333 41.2667 42.8 40.2C44 38.8667 45.0667 37.7333 46 36.8C47.0667 35.8667 48.1333 34.8667 49.2 33.8C51.8667 31.6667 54.3333 29.5333 56.6 27.4C58.8667 25.1333 61.2 23.0667 63.6 21.2C66 19.0667 68.4667 17 71 15C73.6667 13 76.4 11.2 79.2 9.59999C79.8667 9.33333 80.4667 8.93333 81 8.4C81.6667 7.73333 82.3333 7.26666 83 6.99999C83.6667 6.6 84.3333 6.26666 85 5.99999C85.8 5.73333 86.6 5.4 87.4 4.99999C88.0667 4.59999 88.7333 4.13332 89.4 3.59999C90.0667 3.06666 90.8 2.66666 91.6 2.39999C92.2667 2 93 1.6 93.8 1.2C94.7333 0.666661 95.5333 0.266662 96.2 -1.43051e-06H97.2ZM103.6 122.4C102.933 122.667 102.533 123.067 102.4 123.6C102.267 124.133 102 123.933 101.6 123C101.867 122.733 102.2 122.533 102.6 122.4C103 122.133 103.333 122.133 103.6 122.4ZM105.2 120.4C105.2 120.933 105.067 121.2 104.8 121.2C105.067 121.067 105.467 120.733 106 120.2C105.2 121 104.6 121.533 104.2 121.8C103.933 122.067 104.133 121.867 104.8 121.2C104.667 121.333 104.533 121.4 104.4 121.4C104.267 121.267 104.133 121.333 104 121.6C103.733 121.067 103.8 120.667 104.2 120.4C104.6 120.133 104.933 120.133 105.2 120.4ZM107 119.2C106.867 119.067 106.8 118.933 106.8 118.8C106.933 118.667 106.933 118.6 106.8 118.6C107.067 118.467 107.267 118.333 107.4 118.2C107.667 117.933 107.933 117.8 108.2 117.8L107 119.2ZM100.4 124C100.133 123.733 100 123.6 100 123.6C100.267 122.933 100.533 122.8 100.8 123.2C101.2 123.6 101.067 123.867 100.4 124ZM101 124.4C101.133 124.4 101.2 124.533 101.2 124.8C100.667 124.8 100.333 124.933 100.2 125.2C100.2 124.933 100.267 124.8 100.4 124.8C100.667 124.667 100.867 124.533 101 124.4ZM107.2 119.4C106.933 119.667 106.533 119.933 106 120.2C106.267 120.067 106.4 119.933 106.4 119.8C106.533 119.667 106.733 119.467 107 119.2C107 119.333 107.067 119.4 107.2 119.4ZM117.8 106.2C117.8 106.333 117.733 106.4 117.6 106.4C117.6 106 117.667 105.933 117.8 106.2ZM177.897 91.2C178.03 90.5333 178.23 90.9333 178.497 92.4C178.764 93.7333 178.897 95.6667 178.897 98.2C178.897 100.6 178.697 103.333 178.297 106.4C177.897 109.333 177.097 112 175.897 114.4C176.564 114.533 178.497 114.2 181.697 113.4L184.297 112.4C185.497 112.133 186.697 111.8 187.897 111.4C189.097 110.867 190.297 110.333 191.497 109.8L195.697 108.2L198.697 107C200.03 106.467 201.297 105.933 202.497 105.4C203.83 104.867 204.964 104.267 205.897 103.6L210.497 100.4L210.897 100.2C211.164 100.067 211.43 99.9333 211.697 99.8C211.964 99.6667 212.297 99.4 212.697 99C213.23 98.6 213.897 98.1333 214.697 97.6C215.63 97.0667 216.497 96.6 217.297 96.2C218.23 95.6667 219.03 95.2 219.697 94.8C220.364 94.4 220.697 94.1333 220.697 94L221.497 95.8C221.897 95.4 222.097 95.3333 222.097 95.6C222.097 95.8667 221.897 96.3333 221.497 97C221.23 97.5333 220.764 98.2667 220.097 99.2C219.564 100 218.897 100.733 218.097 101.4L215.697 102.8C215.03 103.333 214.43 103.933 213.897 104.6C213.497 105.133 213.03 105.6 212.497 106C212.23 106.133 211.897 106.4 211.497 106.8C211.23 107.2 211.03 107.333 210.897 107.2C210.497 107.467 210.297 107.8 210.297 108.2C210.297 108.467 210.03 108.533 209.497 108.4C208.697 108.933 208.097 109.533 207.697 110.2C207.43 110.733 206.83 111.267 205.897 111.8C205.63 111.933 205.364 112.133 205.097 112.4C204.83 112.667 204.63 112.667 204.497 112.4C204.364 112.533 204.164 112.667 203.897 112.8C203.63 112.933 203.364 113.067 203.097 113.2C202.964 113.333 202.764 113.467 202.497 113.6L194.897 117.2C194.364 117.6 193.697 118 192.897 118.4C192.097 118.667 191.297 119 190.497 119.4C189.83 119.667 189.23 119.933 188.697 120.2C188.164 120.333 187.897 120.4 187.897 120.4C187.63 120.667 187.297 120.8 186.897 120.8C186.497 120.667 185.83 120.667 184.897 120.8C184.497 120.933 183.964 121.267 183.297 121.8C182.63 122.2 182.03 122.467 181.497 122.6C179.364 122.867 177.297 123.2 175.297 123.6C173.43 123.867 172.164 124.267 171.497 124.8C171.097 125.467 170.764 125.933 170.497 126.2C170.364 126.467 170.164 126.667 169.897 126.8C169.764 126.933 169.63 127.133 169.497 127.4C169.364 127.667 169.097 128.133 168.697 128.8C168.43 128.4 168.297 128.333 168.297 128.6C168.43 128.733 168.497 129 168.497 129.4C167.964 130.733 167.297 131.8 166.497 132.6C165.83 133.4 165.164 134.333 164.497 135.4C164.23 135.4 163.83 135.6 163.297 136C162.897 136.533 162.697 136.733 162.697 136.6C161.764 137.933 160.964 138.6 160.297 138.6C159.63 138.6 158.83 139.067 157.897 140C157.63 139.733 157.43 139.733 157.297 140C157.297 140.267 157.164 140.267 156.897 140C156.764 140.4 156.364 140.667 155.697 140.8C151.964 141.867 147.697 142.2 142.897 141.8L143.097 141.6C142.697 141.333 142.364 141.267 142.097 141.4C141.83 141.533 141.497 141.6 141.097 141.6C140.564 141.2 140.097 140.867 139.697 140.6C139.43 140.333 138.964 140.133 138.297 140C136.164 138.8 134.697 137 133.897 134.6C133.897 134.333 133.63 133.933 133.097 133.4C132.697 132.867 132.697 132.4 133.097 132C132.564 131.333 132.164 130.333 131.897 129C131.764 127.533 132.03 126.133 132.697 124.8C132.964 122 133.564 119.333 134.497 116.8C134.497 116.8 134.764 116.2 135.297 115C135.83 113.8 136.43 112.533 137.097 111.2C137.764 109.733 138.364 108.4 138.897 107.2C139.564 106 139.964 105.4 140.097 105.4C140.097 105.667 140.164 105.533 140.297 105C140.564 104.333 140.83 103.867 141.097 103.6C142.03 101.867 143.164 100.067 144.497 98.2C145.83 96.3333 147.164 94.6667 148.497 93.2C149.964 91.7333 151.364 90.4667 152.697 89.4C154.03 88.3333 155.164 87.6667 156.097 87.4L159.697 85.2C160.497 85.4667 161.097 85.5333 161.497 85.4C161.897 85.2667 162.23 85.1333 162.497 85C162.764 84.8667 162.964 84.8 163.097 84.8C163.364 84.8 163.63 85.0667 163.897 85.6H164.497C164.497 85.4667 164.63 85.5333 164.897 85.8C165.164 86.0667 165.297 86 165.297 85.6C165.964 85.6 166.364 85.8 166.497 86.2C166.63 86.4667 166.83 86.6 167.097 86.6C166.964 86.8667 166.964 86.9333 167.097 86.8C167.364 86.5333 167.497 86.4667 167.497 86.6C168.43 86.2 169.097 86.1333 169.497 86.4C169.897 86.5333 170.297 86.7333 170.697 87C170.964 87.1333 170.964 87.3333 170.697 87.6C170.43 87.7333 170.43 87.8667 170.697 88C171.364 88 171.63 87.8 171.497 87.4C172.564 87.6667 173.364 88.1333 173.897 88.8C174.564 89.4667 175.43 90.1333 176.497 90.8C176.364 90.9333 176.364 91.1333 176.497 91.4C176.63 91.6667 176.964 91.8667 177.497 92H177.897L177.697 91.4L176.497 90.8C176.497 90.4 176.964 90.5333 177.897 91.2ZM159.697 122.2C156.897 121.533 154.83 120.067 153.497 117.8C152.297 115.533 151.23 113.467 150.297 111.6C149.764 111.867 149.23 112.333 148.697 113C148.164 113.533 147.564 114.067 146.897 114.6L146.697 114.8C146.564 114.933 146.497 115.067 146.497 115.2C146.364 115.333 146.297 115.467 146.297 115.6V116H146.497C145.697 116.8 145.097 117.867 144.697 119.2C144.43 120 144.164 120.8 143.897 121.6C143.63 122.267 143.497 122.867 143.497 123.4C143.23 124.467 143.03 125.733 142.897 127.2C142.897 128.533 142.897 129.867 142.897 131.2C143.03 132.4 143.23 133.467 143.497 134.4C143.897 135.333 144.43 135.867 145.097 136C145.23 136 145.564 136 146.097 136C146.764 135.867 147.43 135.8 148.097 135.8C148.764 135.667 149.364 135.533 149.897 135.4C150.564 135.267 151.03 135.133 151.297 135C153.697 133.8 155.43 132.8 156.497 132C157.564 131.2 158.364 130.467 158.897 129.8C159.43 129 159.897 128.267 160.297 127.6C160.83 126.933 161.63 126.2 162.697 125.4L163.497 122.8C162.83 122.667 162.097 122.6 161.297 122.6C160.63 122.6 160.097 122.467 159.697 122.2ZM168.497 92.2C167.964 92.4667 167.23 93 166.297 93.8C165.497 94.6 164.63 95.5333 163.697 96.6C162.764 97.5333 161.83 98.5333 160.897 99.6C160.097 100.533 159.43 101.4 158.897 102.2C159.03 102.2 159.097 102.267 159.097 102.4C159.097 102.4 159.164 102.4 159.297 102.4C159.164 102.667 158.897 102.8 158.497 102.8C158.23 102.8 157.964 102.933 157.697 103.2C157.43 103.6 157.297 103.867 157.297 104C157.43 104.133 157.497 104.2 157.497 104.2C157.63 104.2 157.697 104.267 157.697 104.4C157.83 104.4 157.83 104.667 157.697 105.2C157.83 105.867 158.097 106.8 158.497 108C158.897 109.2 159.43 110.4 160.097 111.6C160.897 112.8 161.764 113.867 162.697 114.8C163.764 115.6 164.964 115.867 166.297 115.6C166.697 114.4 167.164 112.6 167.697 110.2C168.364 107.667 168.897 105.133 169.297 102.6C169.697 100.067 169.83 97.8 169.697 95.8C169.697 93.6667 169.297 92.4667 168.497 92.2ZM146.697 114.8C146.564 114.933 146.497 115.067 146.497 115.2V115.4C146.497 115.533 146.43 115.6 146.297 115.6C146.297 115.733 146.364 115.867 146.497 116V115.8C146.497 115.4 146.564 115.067 146.697 114.8ZM293.423 119.8C293.423 119.267 293.157 119.2 292.623 119.6C292.223 120 291.69 120.6 291.023 121.4C290.49 122.067 289.89 122.8 289.223 123.6C288.557 124.4 287.957 124.933 287.423 125.2C286.89 124.933 286.89 124.533 287.423 124C287.957 123.333 288.223 122.867 288.223 122.6C287.29 122.6 286.823 123.067 286.823 124C286.823 124.933 286.557 125.4 286.023 125.4C285.757 126.067 285.157 126.533 284.223 126.8C283.29 127.067 282.49 127.467 281.823 128C281.69 128 281.757 128 282.023 128C282.423 128 282.557 128.133 282.423 128.4C282.157 128.133 282.023 128.133 282.023 128.4C282.023 128.667 281.89 128.733 281.623 128.6V128.2C281.357 128.467 281.09 128.4 280.823 128C280.69 127.6 280.957 127.533 281.623 127.8C281.757 127.4 281.823 127 281.823 126.6C281.423 126.333 281.09 126.4 280.823 126.8C280.69 127.067 280.49 127.467 280.223 128C280.09 128.533 279.89 129.067 279.623 129.6C279.357 130 278.823 130.133 278.023 130C279.223 129.2 280.157 128.067 280.823 126.6C279.89 126.867 278.823 127.8 277.623 129.4C277.49 129 277.29 129 277.023 129.4C276.757 129.667 276.557 129.933 276.423 130.2C275.89 130.2 275.623 130.067 275.623 129.8H275.423C275.29 129.933 275.223 130.067 275.223 130.2C274.69 130.467 274.357 130.667 274.223 130.8C274.09 130.933 273.823 131.2 273.423 131.6C273.69 131.6 273.823 131.533 273.823 131.4C273.957 131.267 274.157 131.333 274.423 131.6C274.157 131.867 273.823 132.2 273.423 132.6C273.157 133 272.823 133.133 272.423 133C272.157 133 272.09 132.933 272.223 132.8C272.49 132.667 272.557 132.4 272.423 132C271.623 132.267 271.157 132.733 271.023 133.4C270.89 133.933 270.49 134.133 269.823 134C269.957 133.6 269.957 133.333 269.823 133.2C269.557 133.333 269.357 133.4 269.223 133.4C269.09 133.267 268.757 133.2 268.223 133.2C268.223 133.333 268.29 133.467 268.423 133.6C268.557 133.6 268.623 133.733 268.623 134C267.557 134.667 266.223 135 264.623 135C263.023 135 261.423 134.467 259.823 133.4C257.823 133.267 255.89 132.867 254.023 132.2C252.29 131.533 250.69 130.8 249.223 130C249.223 129.867 249.423 129.8 249.823 129.8C249.823 129.533 249.757 129.333 249.623 129.2C249.49 129.067 249.29 128.867 249.023 128.6C248.757 128.6 248.623 128.733 248.623 129C248.623 129.133 248.69 129.267 248.823 129.4C248.023 128.867 247.423 128.067 247.023 127C246.623 125.933 246.023 125.2 245.223 124.8C245.09 124.267 244.957 123.8 244.823 123.4C244.823 123 244.623 122.8 244.223 122.8C243.423 118.667 243.09 114.933 243.223 111.6C243.357 108.267 243.623 104.2 244.023 99.4C242.957 99.8 242.023 100.533 241.223 101.6C240.423 102.533 239.49 103.2 238.423 103.6C233.89 108.4 229.157 113.133 224.223 117.8C219.423 122.333 215.023 127.4 211.023 133C210.357 133.133 209.823 133.467 209.423 134C209.023 134.4 208.49 134.8 207.823 135.2C207.023 135.333 206.023 135.4 204.823 135.4C203.757 135.4 202.49 135.2 201.023 134.8C200.89 134.667 200.89 134.533 201.023 134.4C201.157 134.133 201.157 134 201.023 134C199.557 133.467 198.423 133.133 197.623 133C196.823 132.733 196.423 131.667 196.423 129.8C196.423 129.133 196.557 128.533 196.823 128C196.957 127.333 196.957 126.667 196.823 126C196.823 125.6 196.957 125.4 197.223 125.4C197.49 125.267 197.623 125.067 197.623 124.8C199.357 117.6 201.557 111 204.223 105C206.89 98.8667 209.29 92.7333 211.423 86.6C212.09 87.1333 213.023 87.0667 214.223 86.4C215.29 86.8 216.157 87.0667 216.823 87.2C217.49 87.3333 218.623 87.7333 220.223 88.4C220.357 88.6667 220.557 88.9333 220.823 89.2C221.223 89.4667 221.557 89.7333 221.823 90C221.69 92.8 221.09 95.4 220.023 97.8C218.957 100.067 217.89 102.467 216.823 105C216.157 106.733 215.357 108.733 214.423 111C213.623 113.267 212.89 115.333 212.223 117.2C212.223 117.867 212.09 118.333 211.823 118.6C211.69 118.733 211.557 119 211.423 119.4C213.157 117.533 214.89 115.467 216.623 113.2C218.49 110.8 220.223 108.6 221.823 106.6C223.69 105.4 225.423 104 227.023 102.4C228.757 100.8 230.557 99.3333 232.423 98C234.29 96.5333 236.157 95.2 238.023 94C240.023 92.8 241.823 91.5333 243.423 90.2C244.357 90.2 245.157 89.9333 245.823 89.4C246.623 88.7333 247.49 88.3333 248.423 88.2C249.49 88.2 250.49 88.5333 251.423 89.2C252.357 89.7333 253.557 90 255.023 90V90.4C255.69 90.2667 256.09 90.5333 256.223 91.2C256.357 91.8667 256.623 92.5333 257.023 93.2C256.89 94.4 256.757 96 256.623 98C256.49 100 256.09 101.6 255.423 102.8C255.823 102.533 255.757 102.933 255.223 104C254.69 104.933 254.623 105.6 255.023 106C254.357 111.733 254.357 116.2 255.023 119.4C255.69 122.6 256.557 124.6 257.623 125.4C259.357 125.667 260.823 125.867 262.023 126C263.223 126 264.29 125.933 265.223 125.8C266.29 125.533 267.357 125.2 268.423 124.8C269.49 124.267 270.757 123.533 272.223 122.6C272.49 122.333 272.69 122.133 272.823 122C273.09 121.733 273.49 121.733 274.023 122C275.357 121.733 276.423 121.2 277.223 120.4C278.023 119.6 278.957 119.467 280.023 120C280.29 119.733 280.423 119.533 280.423 119.4C280.423 119.133 280.49 118.867 280.623 118.6C280.89 118.733 280.957 118.867 280.823 119C280.69 119 280.757 119.067 281.023 119.2C281.157 119.067 281.223 118.733 281.223 118.2C281.623 118.467 282.023 118.533 282.423 118.4C282.957 118.133 283.223 117.733 283.223 117.2C283.757 117.067 284.157 116.8 284.423 116.4C284.69 116 284.957 115.667 285.223 115.4C284.957 115.667 284.757 115.867 284.623 116C284.623 116.133 284.557 116.467 284.423 117C285.49 116.467 286.023 116 286.023 115.6C286.023 115.2 286.357 114.667 287.023 114C287.823 113.6 288.623 113.133 289.423 112.6C290.357 112.067 291.223 111.467 292.023 110.8C292.69 110.4 293.29 110 293.823 109.6C294.357 109.067 294.957 108.667 295.623 108.4C295.89 108.133 296.157 107.8 296.423 107.4C296.823 106.867 297.357 106.667 298.023 106.8C298.423 106.533 298.757 106.4 299.023 106.4C299.29 106.4 299.423 106.2 299.423 105.8C299.557 105.4 299.623 105.133 299.623 105C300.157 105 301.023 104.733 302.223 104.2C303.557 103.667 304.423 103.067 304.823 102.4C304.957 102.4 305.023 102.133 305.023 101.6C305.29 101.6 305.423 101.667 305.423 101.8C305.423 101.933 305.557 102 305.823 102C306.09 101.733 306.09 101.6 305.823 101.6C305.557 101.6 305.49 101.4 305.623 101C305.89 101.267 306.023 101.333 306.023 101.2C306.023 100.933 306.023 100.667 306.023 100.4C306.29 100.267 306.423 100.333 306.423 100.6C306.423 100.867 306.49 100.933 306.623 100.8C306.623 100.933 306.557 101 306.423 101C306.29 101 306.223 101.133 306.223 101.4C306.757 101.133 307.29 101.6 307.823 102.8C308.357 103.867 308.09 105.067 307.023 106.4C306.89 106.4 306.89 106.467 307.023 106.6C307.157 106.6 307.09 106.667 306.823 106.8C306.823 107.333 306.423 108.067 305.623 109C304.823 109.8 304.357 110.333 304.223 110.6L293.423 119.8ZM299.023 112.4C299.023 112.8 298.89 112.933 298.623 112.8C298.357 112.667 298.09 112.933 297.823 113.6C298.89 113.333 299.29 112.933 299.023 112.4ZM291.023 117C291.29 117.133 291.623 117 292.023 116.6L292.423 116.2C291.757 116.2 291.29 116.467 291.023 117ZM273.223 131.6C272.957 131.6 272.757 131.8 272.623 132.2C272.623 132.467 272.823 132.6 273.223 132.6V131.6ZM275.623 130.8C275.223 131.067 275.157 130.933 275.423 130.4C275.423 130.4 275.49 130.533 275.623 130.8ZM275.423 130V130.2H275.223C275.357 130.2 275.357 130.2 275.223 130.2C275.223 130.067 275.29 130 275.423 130ZM281.823 128C281.69 128.133 281.623 128.2 281.623 128.2C281.757 128.2 281.823 128.133 281.823 128ZM362.331 114.2C362.331 114.467 362.198 114.667 361.931 114.8C361.798 114.933 361.865 115 362.131 115C361.465 115.933 360.398 117.2 358.931 118.8C357.598 120.267 356.731 121.4 356.331 122.2C356.065 122.2 355.531 122.333 354.731 122.6C354.998 122.2 355.398 121.8 355.931 121.4C356.598 121 357.131 120.667 357.531 120.4C357.531 120.133 357.665 119.733 357.931 119.2C358.198 118.533 358.465 117.933 358.731 117.4C358.465 117.533 358.131 118 357.731 118.8C357.331 119.6 356.998 120.133 356.731 120.4C355.931 121.2 355.131 121.8 354.331 122.2C353.531 122.467 352.798 123.133 352.131 124.2C350.798 124.733 349.665 125.733 348.731 127.2C347.931 128.667 346.798 129.533 345.331 129.8C345.198 130.2 345.065 130.467 344.931 130.6C344.798 130.6 344.598 130.733 344.331 131C344.198 130.733 344.131 130.533 344.131 130.4C344.265 130.133 344.265 130 344.131 130L342.331 131.6C341.665 131.867 341.065 132.267 340.531 132.8C340.131 133.2 339.598 133.4 338.931 133.4C338.931 133.4 338.998 133.333 339.131 133.2C338.598 133.467 338.265 133.733 338.131 134C337.998 134.133 337.865 134.267 337.731 134.4C337.731 134.533 337.665 134.733 337.531 135C337.398 135.133 337.065 135.267 336.531 135.4C336.265 135.4 336.131 135.333 336.131 135.2C335.598 135.333 335.065 135.6 334.531 136C334.131 136.533 333.598 136.8 332.931 136.8C332.931 136.533 333.065 136.4 333.331 136.4C332.531 136.267 331.998 136.467 331.731 137C331.731 137 331.598 137 331.331 137L326.131 139.8C325.065 140.2 323.865 140.6 322.531 141C321.198 141.4 319.998 141.667 318.931 141.8C316.931 142.733 314.798 142.933 312.531 142.4C310.265 142 307.998 141.267 305.731 140.2C304.131 139.267 302.731 138.533 301.531 138C300.331 137.467 299.398 136.8 298.731 136C298.065 135.333 297.598 134.533 297.331 133.6C297.065 132.533 296.931 131.067 296.931 129.2C296.931 128.933 296.998 128.8 297.131 128.8C297.265 128.667 297.331 128.467 297.331 128.2C297.198 125.933 297.465 123.267 298.131 120.2C298.798 117.133 299.465 114.267 300.131 111.6C300.398 110.933 300.531 110.333 300.531 109.8C300.531 109.267 300.731 108.733 301.131 108.2C301.798 105.4 302.665 102.533 303.731 99.6C304.798 96.5333 305.931 93.6 307.131 90.8C307.398 90.1333 307.531 89.8 307.531 89.8C307.531 89.6667 307.465 89.6 307.331 89.6L308.131 88.2C309.198 86.0667 310.465 83.4667 311.931 80.4C313.531 77.3333 314.665 74.6 315.331 72.2C314.798 72.6 314.598 72.7333 314.731 72.6C314.865 72.3333 314.598 72.2 313.931 72.2C312.998 72.4667 312.065 72.8 311.131 73.2C310.331 73.4667 309.465 73.6 308.531 73.6C307.465 73.8667 306.531 74.1333 305.731 74.4C304.931 74.6667 304.065 74.8667 303.131 75C301.531 75.2667 300.531 75.4 300.131 75.4C299.731 75.4 299.465 75.4 299.331 75.4C299.331 75.4 299.131 75.4667 298.731 75.6C298.465 75.7333 297.531 76 295.931 76.4C295.131 76.1333 294.198 76.2667 293.131 76.8C291.931 77.3333 290.798 77.5333 289.731 77.4C289.465 77.2667 289.331 77.2 289.331 77.2C289.198 77.0667 288.998 77 288.731 77C287.665 77.4 286.865 77.4667 286.331 77.2C285.665 76.8 285.131 76.2667 284.731 75.6C284.998 74.8 284.865 74.0667 284.331 73.4C283.798 72.7333 283.531 72.0667 283.531 71.4L284.331 72C287.131 71.4667 289.531 70.8667 291.531 70.2C293.531 69.4 295.731 68.6 298.131 67.8C300.531 67 303.398 66.2 306.731 65.4C310.065 64.6 314.465 63.8667 319.931 63.2C322.598 57.7333 325.331 52.7333 328.131 48.2C330.931 43.6667 333.865 39 336.931 34.2V33.2C337.198 32.9333 337.465 32.9333 337.731 33.2C338.131 33.3333 338.465 33.2667 338.731 33C338.598 33.4 338.665 33.6667 338.931 33.8C339.331 33.8 339.531 33.9333 339.531 34.2C340.198 34.3333 340.998 34.6 341.931 35C342.865 35.4 343.731 35.9333 344.531 36.6C345.331 37.2667 345.931 38 346.331 38.8C346.731 39.4667 346.731 40.2 346.331 41L344.531 42.4C344.398 42.6667 344.331 42.9333 344.331 43.2C343.931 44.4 343.265 45.5333 342.331 46.6C341.531 47.5333 340.865 48.5333 340.331 49.6C339.665 50.6667 339.131 51.6 338.731 52.4C338.465 53.2 337.998 54.2 337.331 55.4C336.665 56.7333 335.931 57.7333 335.131 58.4C334.331 58.9333 333.798 59.9333 333.531 61.4C335.798 61.1333 337.931 60.9333 339.931 60.8C341.931 60.6667 344.065 60.6 346.331 60.6C348.465 60.0667 350.331 59.8 351.931 59.8C353.531 59.8 354.531 59.8 354.931 59.8C355.598 59.8 355.998 59.8 356.131 59.8C356.398 59.8 356.531 59.8 356.531 59.8C356.665 59.8 356.798 59.8 356.931 59.8C357.065 59.8 357.398 59.7333 357.931 59.6C359.131 59.8667 360.265 59.8 361.331 59.4C362.531 59 363.798 59 365.131 59.4C365.531 59.4 365.931 59.4667 366.331 59.6C366.865 59.7333 367.398 59.7333 367.931 59.6C367.798 59.7333 367.865 59.7333 368.131 59.6C368.398 59.4667 368.665 59.4 368.931 59.4L368.731 59.6C369.531 59.8667 370.131 59.8667 370.531 59.6C370.131 59.3333 369.865 59.2 369.731 59.2C369.731 59.0667 370.265 59.2 371.331 59.6C372.398 59.6 373.731 59.7333 375.331 60C376.931 60.1333 378.265 60.8 379.331 62C379.465 62.1333 379.465 62.4 379.331 62.8C379.331 63.0667 379.398 63.3333 379.531 63.6C379.398 63.7333 379.265 63.8 379.131 63.8C378.998 63.8 378.931 63.9333 378.931 64.2C379.065 64.3333 379.131 64.4667 379.131 64.6C379.265 64.6 379.531 64.6667 379.931 64.8C379.665 65.0667 379.265 65.2 378.731 65.2C378.865 65.7333 379.265 66.2 379.931 66.6C379.665 66.8667 379.331 67 378.931 67C378.665 67 378.465 67.1333 378.331 67.4C378.065 67.4 377.798 67.3333 377.531 67.2C376.598 67.3333 375.731 67.3333 374.931 67.2C374.265 67.0667 373.398 67.2667 372.331 67.8C371.665 67.4 371.265 67.2667 371.131 67.4C370.998 67.5333 370.731 67.5333 370.331 67.4C370.331 67.1333 370.398 67.0667 370.531 67.2C370.665 67.2 370.731 67.0667 370.731 66.8C370.198 66.8 369.865 66.9333 369.731 67.2C369.598 67.3333 369.465 67.4667 369.331 67.6C369.331 67.7333 369.265 67.8 369.131 67.8C368.998 67.6667 368.731 67.4 368.331 67C367.798 67.2667 367.531 67.4 367.531 67.4L367.331 67.6H367.131C366.865 67.6 366.731 67.6 366.731 67.6C366.865 67.4667 366.865 67.3333 366.731 67.2C366.331 67.4667 366.131 67.6667 366.131 67.8C365.865 67.2667 365.331 67.2 364.531 67.6C363.865 67.8667 363.731 67.6667 364.131 67C363.865 67 363.665 67.2667 363.531 67.8C363.531 68.2 363.198 68.2 362.531 67.8C362.798 67.2667 362.931 67.0667 362.931 67.2C363.065 67.2 363.131 67.0667 363.131 66.8C362.998 66.8 362.798 66.8667 362.531 67C362.265 67.1333 362.065 67.4 361.931 67.8C361.931 67.8 361.931 67.6 361.931 67.2C361.398 67.2 361.131 67.4667 361.131 68C361.131 68 361.131 67.8 361.131 67.4C360.731 67.1333 360.465 67.0667 360.331 67.2C360.198 67.3333 359.931 67.4 359.531 67.4C359.265 67.1333 359.265 67.0667 359.531 67.2C359.798 67.2 360.065 67.0667 360.331 66.8C360.065 66.8 359.731 66.8 359.331 66.8C358.931 66.8 358.665 66.9333 358.531 67.2C357.731 66.6667 357.065 66.6667 356.531 67.2C356.665 67.4667 356.865 67.4667 357.131 67.2C357.531 66.9333 357.798 66.9333 357.931 67.2C357.798 67.3333 357.531 67.4667 357.131 67.6C356.731 67.7333 356.331 67.8667 355.931 68C355.665 68 355.465 68 355.331 68C355.198 67.8667 355.265 67.6667 355.531 67.4H354.731V67.2C354.598 67.2 354.531 67.2667 354.531 67.4V67.2C354.398 67.2 354.265 67.1333 354.131 67C354.131 66.8667 354.065 66.9333 353.931 67.2C354.065 67.2 354.131 67.2667 354.131 67.4C354.131 67.4 354.198 67.4 354.331 67.4C353.798 67.6667 353.531 67.9333 353.531 68.2C353.531 68.3333 353.398 68.2 353.131 67.8C353.131 67.2667 352.731 67.0667 351.931 67.2C351.131 67.2 350.398 67.3333 349.731 67.6V67.2C349.331 67.4667 348.798 67.7333 348.131 68C347.598 68.2667 347.065 68.1333 346.531 67.6C346.798 67.4667 346.998 67.4 347.131 67.4C347.265 67.4 347.398 67.3333 347.531 67.2C347.531 66.9333 347.465 66.8 347.331 66.8C347.198 66.8 347.131 66.7333 347.131 66.6C346.865 66.6 346.665 66.6667 346.531 66.8C346.398 66.9333 346.198 67.0667 345.931 67.2C345.798 67.2 345.731 67.0667 345.731 66.8C345.731 66.6667 345.798 66.6 345.931 66.6C345.265 66.6 344.998 66.5333 345.131 66.4C344.865 66.4 344.731 66.6667 344.731 67.2C344.731 67.7333 344.598 68.1333 344.331 68.4C343.665 68.4 343.065 68.4667 342.531 68.6C342.131 68.6 341.465 68.6 340.531 68.6C340.531 68.3333 340.598 68.2667 340.731 68.4C340.998 68.4 341.131 68.2667 341.131 68C340.998 68 340.931 68 340.931 68C340.931 67.8667 340.865 67.8 340.731 67.8H340.531C340.265 67.8 339.998 67.8667 339.731 68C339.465 68 339.198 68 338.931 68C338.665 68.6667 338.265 68.9333 337.731 68.8C337.331 68.5333 336.998 68.5333 336.731 68.8V68.6C336.331 68.6 336.065 68.7333 335.931 69C336.331 69.1333 336.598 69.0667 336.731 68.8C336.865 69.0667 336.931 69.1333 336.931 69C337.065 68.8667 337.131 68.9333 337.131 69.2C337.131 69.4667 336.998 69.6 336.731 69.6C336.598 69.6 336.398 69.7333 336.131 70C335.731 70 335.398 69.9333 335.131 69.8C334.865 69.5333 334.531 69.5333 334.131 69.8C333.465 69.8 332.665 69.8667 331.731 70C330.931 70.1333 330.198 70.2667 329.531 70.4C328.998 70.6667 328.665 71 328.531 71.4C328.398 71.6667 328.198 72.0667 327.931 72.6C326.998 75 325.665 77.8667 323.931 81.2C322.198 84.5333 320.798 87.6667 319.731 90.6C319.331 91.8 318.998 92.6667 318.731 93.2C318.598 93.7333 318.398 94.2 318.131 94.6C317.998 94.8667 317.798 95.2667 317.531 95.8C317.398 96.3333 317.131 97.2667 316.731 98.6C315.265 101 314.131 104 313.331 107.6C312.531 111.067 311.798 114.6 311.131 118.2C310.865 119.4 310.531 120.6 310.131 121.8C309.731 123 309.465 124.267 309.331 125.6C309.198 127.6 308.798 129.467 308.131 131.2C307.598 132.8 307.865 134.533 308.931 136.4C309.198 136.533 309.265 136.533 309.131 136.4C308.998 136.4 309.198 136.4 309.731 136.4C310.798 136.4 312.131 136.267 313.731 136C315.331 135.6 316.731 135.133 317.931 134.6C319.398 134.2 320.865 133.733 322.331 133.2C323.931 132.533 325.398 132 326.731 131.6C326.998 131.333 327.131 131.267 327.131 131.4C327.265 131.4 327.331 131.267 327.331 131C327.731 130.867 328.131 130.8 328.531 130.8C328.931 130.667 329.198 130.333 329.331 129.8C330.131 129.533 330.731 129.333 331.131 129.2C331.665 128.933 332.065 128.667 332.331 128.4C332.731 128.133 333.131 127.933 333.531 127.8C333.931 127.533 334.531 127.267 335.331 127V126.2C335.865 126.6 336.665 126.2 337.731 125C337.865 125 337.998 125.067 338.131 125.2C339.331 124.4 340.665 123.533 342.131 122.6C343.731 121.667 345.198 120.733 346.531 119.8C347.198 119.667 348.265 119 349.731 117.8C351.198 116.6 352.665 115.267 354.131 113.8C355.731 112.333 357.131 111 358.331 109.8C359.531 108.467 360.265 107.667 360.531 107.4C360.665 107.533 360.798 107.6 360.931 107.6C361.065 106.8 361.131 106.333 361.131 106.2C361.265 106.067 361.331 106 361.331 106C361.465 106 361.531 106 361.531 106C361.665 105.867 361.931 105.533 362.331 105C362.331 104.6 362.398 104.4 362.531 104.4C362.931 104.133 363.198 103.933 363.331 103.8C363.465 103.667 363.665 103.4 363.931 103C364.731 103.133 365.265 102.667 365.531 101.6C366.465 101.867 367.065 102.2 367.331 102.6C367.731 102.867 368.065 102.867 368.331 102.6C368.331 102.867 368.465 103.067 368.731 103.2C368.998 103.2 369.265 103.2 369.531 103.2C369.531 103.467 369.465 103.6 369.331 103.6C369.331 103.6 369.331 103.667 369.331 103.8C369.598 103.933 369.398 104.133 368.731 104.4C368.198 104.667 368.265 104.867 368.931 105C368.931 105.267 368.798 105.667 368.531 106.2C368.665 106.2 368.865 106.4 369.131 106.8C368.865 106.8 367.731 108.333 365.731 111.4H365.931C365.798 111.533 365.665 111.6 365.531 111.6C364.998 112.133 364.731 112.333 364.731 112.2L363.531 113.2V112.8C363.265 113.067 363.131 113.333 363.131 113.6C363.131 113.733 362.998 113.867 362.731 114C362.598 114.133 362.531 114.333 362.531 114.6V114.4C362.531 114.267 362.465 114.2 362.331 114.2ZM366.131 110C365.998 110 366.131 109.8 366.531 109.4V109.2L366.131 109.4C365.865 109.8 365.531 110.2 365.131 110.6C364.865 110.867 364.598 111.133 364.331 111.4V110.8C363.798 111.6 363.598 112.267 363.731 112.8L364.131 112.4H363.931L364.131 111.6C364.398 111.6 364.598 111.667 364.731 111.8C364.731 111.4 364.998 111.067 365.531 110.8L366.131 109.8V110ZM348.731 126.4C349.131 126 349.465 125.667 349.731 125.4C350.131 125.133 350.465 124.733 350.731 124.2C350.331 124.467 349.798 124.8 349.131 125.2C348.598 125.6 348.465 126 348.731 126.4ZM353.531 124.6C353.931 123.933 354.331 123.533 354.731 123.4C355.265 123.133 355.798 122.8 356.331 122.4V122.6C355.798 122.867 355.265 123.2 354.731 123.6C354.331 124 353.931 124.333 353.531 124.6ZM367.531 64.6C367.265 64.8667 366.931 64.9333 366.531 64.8C366.265 64.5333 365.998 64.5333 365.731 64.8C365.998 64.9333 366.398 65.0667 366.931 65.2C367.465 65.2 367.665 65 367.531 64.6ZM357.731 120.4C357.598 119.733 357.865 119.133 358.531 118.6C359.198 118.067 359.531 117.667 359.531 117.4C359.798 117.667 359.598 118.2 358.931 119C358.398 119.667 357.998 120.133 357.731 120.4ZM351.531 123C352.065 123.133 352.398 123.067 352.531 122.8C352.665 122.533 352.865 122.267 353.131 122C353.131 121.467 353.198 121.133 353.331 121C353.065 121 352.931 121.2 352.931 121.6C352.931 121.6 352.998 121.733 353.131 122C352.865 122.133 352.598 122.333 352.331 122.6C352.065 122.733 351.798 122.867 351.531 123ZM334.131 68.8C334.398 69.0667 334.598 69.1333 334.731 69C334.865 68.8667 334.998 68.8 335.131 68.8C335.131 68.6667 335.198 68.6 335.331 68.6C335.465 68.4667 335.398 68.2667 335.131 68C335.131 68.2667 334.998 68.4667 334.731 68.6C334.465 68.6 334.265 68.6667 334.131 68.8ZM351.531 123.8C351.665 124.067 351.865 124.133 352.131 124C352.531 123.733 352.598 123.467 352.331 123.2C352.198 123.467 351.998 123.6 351.731 123.6C351.598 123.467 351.531 123.533 351.531 123.8ZM351.331 120.8C351.598 120.933 351.865 120.867 352.131 120.6C352.398 120.333 352.465 120.067 352.331 119.8C352.065 120.067 351.865 120.267 351.731 120.4C351.731 120.533 351.598 120.667 351.331 120.8ZM354.531 67.6C354.398 67.6 354.331 67.5333 354.331 67.4H354.531C354.665 67.4 354.731 67.4 354.731 67.4C354.998 67.8 354.998 68 354.731 68C354.598 67.8667 354.531 67.7333 354.531 67.6ZM333.531 69C333.531 68.8667 333.598 68.8 333.731 68.8C333.865 68.8 333.931 68.7333 333.931 68.6C333.398 68.3333 333.265 68.4667 333.531 69ZM349.931 68C349.398 68.1333 349.131 68.2 349.131 68.2C349.265 68.0667 349.465 67.8667 349.731 67.6C349.731 67.8667 349.798 68 349.931 68ZM364.531 112C364.265 111.867 364.131 111.933 364.131 112.2C364.265 112.333 364.265 112.4 364.131 112.4L364.531 112ZM340.531 67.8C340.531 68.0667 340.398 68.2 340.131 68.2C340.398 67.9333 340.531 67.8 340.531 67.8ZM366.131 110.4C366.398 110.133 366.531 109.933 366.531 109.8L366.131 110.2V110.4ZM353.931 120.8C354.065 120.933 354.131 120.8 354.131 120.4C354.131 120.533 354.065 120.667 353.931 120.8ZM340.131 68.4C339.865 68.2667 339.865 68.2 340.131 68.2V68.4ZM356.531 122.2C356.398 122.333 356.331 122.4 356.331 122.4V122.2H356.531ZM366.131 110.4C366.131 110.533 366.065 110.6 365.931 110.6C366.065 110.6 366.131 110.533 366.131 110.4ZM362.131 115L362.331 114.8L362.131 115ZM446.888 115.8C446.221 115.667 445.621 116 445.088 116.8C444.554 117.467 444.021 118.133 443.488 118.8C443.488 118.667 443.554 118.467 443.688 118.2C442.621 119 441.621 119.867 440.688 120.8C439.754 121.6 438.754 122.533 437.688 123.6H437.288V123.4C437.021 123.667 436.688 124 436.288 124.4C436.021 124.8 435.688 124.867 435.288 124.6C434.621 125 434.088 125.467 433.688 126C433.421 126.533 433.021 126.867 432.488 127C431.821 127.667 431.288 128.2 430.888 128.6C430.488 128.867 429.888 129.333 429.088 130C429.088 129.867 428.954 129.8 428.688 129.8C428.288 130.333 427.421 130.733 426.088 131C424.621 131.8 423.288 132.667 422.088 133.6C421.021 134.4 419.888 134.8 418.688 134.8C417.488 134.933 416.621 135.067 416.088 135.2C415.554 135.333 414.954 135.333 414.288 135.2C413.221 135.2 411.888 135.467 410.288 136C408.688 136.667 407.354 136.8 406.288 136.4C406.021 135.733 405.554 135.267 404.888 135C404.221 134.6 403.554 134.267 402.888 134C402.354 133.733 401.954 133.133 401.688 132.2C400.221 131.267 399.154 129.933 398.488 128.2C397.821 126.333 397.421 124.267 397.288 122C397.288 119.6 397.488 117.133 397.888 114.6C398.288 112.067 398.821 109.6 399.488 107.2C397.621 108.667 395.821 110.467 394.088 112.6C392.354 114.6 390.621 116.533 388.888 118.4C388.221 119.6 387.488 120.6 386.688 121.4C385.888 122.2 385.088 122.933 384.288 123.6C382.021 126.267 379.888 128.6 377.888 130.6C377.888 130.733 377.821 130.867 377.688 131C377.688 131 377.621 131.133 377.488 131.4C376.421 132.2 375.221 133.133 373.888 134.2C372.554 135.267 371.154 136.133 369.688 136.8C368.354 137.6 366.888 138.067 365.288 138.2C363.821 138.333 362.288 137.8 360.688 136.6C359.754 136.467 359.088 136.2 358.688 135.8C358.421 135.267 357.954 134.8 357.288 134.4C355.821 133.733 354.954 132.933 354.687 132C354.287 131.067 354.021 129.667 353.887 127.8C353.754 126.867 353.887 125.667 354.287 124.2C354.554 122.733 354.954 121.467 355.487 120.4C356.154 117.867 357.154 115.533 358.488 113.4C359.821 111.133 361.088 109.067 362.288 107.2C364.554 104.133 366.821 101.333 369.088 98.8C371.488 96.1333 373.954 93.5333 376.488 91C377.288 90.6 378.088 90.0667 378.888 89.4C379.821 88.7333 380.821 88.2 381.888 87.8C382.554 88.0667 383.288 87.9333 384.088 87.4C384.888 86.7333 385.554 86.8667 386.087 87.8C388.888 88.0667 391.354 88.7333 393.488 89.8C395.621 90.8667 397.088 92.6 397.888 95C398.821 94.3333 399.688 93.7333 400.488 93.2C401.288 92.6667 402.154 92.2667 403.088 92C403.488 91.8667 403.821 91.6 404.088 91.2C404.354 90.8 404.621 90.6 404.888 90.6C406.221 90.3333 407.421 90.6 408.488 91.4C409.688 92.2 410.821 92.8667 411.888 93.4C412.021 93.2667 412.154 93.2667 412.288 93.4C412.554 93.4 412.888 93.3333 413.288 93.2C413.554 93.6 413.754 93.9333 413.888 94.2C414.021 94.3333 414.154 94.6 414.288 95C414.554 97.4 414.221 100 413.288 102.8C412.488 105.6 411.554 107.933 410.488 109.8C409.954 112.867 409.221 116.2 408.288 119.8C407.354 123.4 407.288 126.533 408.087 129.2C412.754 128.667 416.621 127.533 419.688 125.8C422.888 123.933 426.088 122.133 429.288 120.4C430.488 119.467 431.554 118.667 432.488 118C433.554 117.333 434.554 116.467 435.488 115.4C435.621 115.4 435.754 115.467 435.888 115.6V115.8C436.554 115.8 437.888 115 439.888 113.4C441.888 111.667 443.888 109.933 445.888 108.2C448.021 106.333 449.954 104.733 451.688 103.4C453.554 102.067 454.621 101.6 454.888 102C455.154 102.267 455.488 102.333 455.888 102.2C456.288 101.933 456.621 101.867 456.888 102C457.021 102.267 457.021 102.467 456.888 102.6C456.888 102.733 456.954 102.867 457.088 103V102.6C457.221 102.6 457.221 102.8 457.088 103.2C456.954 103.467 456.821 103.8 456.688 104.2C456.554 104.467 456.421 104.667 456.288 104.8C456.154 104.933 456.154 104.8 456.288 104.4C456.021 104.667 455.688 105 455.288 105.4C455.021 105.667 454.754 105.933 454.488 106.2C454.221 106.867 454.021 107.333 453.888 107.6C453.888 107.867 453.754 108.333 453.488 109C453.088 109 452.821 108.933 452.688 108.8C452.421 109.467 452.021 109.933 451.488 110.2C451.088 110.467 450.754 111 450.488 111.8C450.221 111.8 449.954 112.133 449.688 112.8L446.888 115.8ZM392.288 98.6C392.021 96.8667 391.488 95.4 390.688 94.2C390.021 93 388.754 92.8667 386.888 93.8L383.688 97.4C383.421 97.8 383.088 98.1333 382.688 98.4C382.288 98.5333 381.954 98.7333 381.688 99C381.421 99.2667 381.154 99.6667 380.888 100.2C380.621 100.6 380.288 101.067 379.888 101.6L377.088 104.8C375.621 106.667 374.154 108.8 372.688 111.2C371.354 113.467 370.154 115.667 369.088 117.8C368.821 118.467 368.488 119.067 368.088 119.6C367.688 120.133 367.354 120.933 367.088 122C366.821 121.867 366.688 121.933 366.688 122.2C366.688 122.333 366.621 122.333 366.488 122.2C366.221 123.667 365.754 124.933 365.088 126C364.421 126.933 364.088 128.2 364.088 129.8C365.154 129.133 366.288 128.467 367.488 127.8C368.688 127.133 369.688 126.4 370.488 125.6C374.354 121.867 378.021 118 381.488 114C385.088 109.867 388.621 105.667 392.088 101.4C392.488 101.133 392.821 100.8 393.088 100.4C393.354 99.8667 393.688 99.5333 394.088 99.4V99C393.821 98.7333 393.221 98.6 392.288 98.6ZM499.016 124.6C497.949 124.733 497.016 125.2 496.216 126C495.416 126.8 494.482 127.4 493.416 127.8C493.282 127.933 493.282 128.133 493.416 128.4C492.482 128.4 492.016 128.4 492.016 128.4C491.882 128.267 491.749 128.2 491.616 128.2C491.216 128.2 491.082 128.333 491.216 128.6C491.349 128.733 491.282 128.933 491.016 129.2C489.949 129.467 489.149 129.867 488.616 130.4C488.216 130.8 487.282 131 485.816 131C485.816 131.267 485.749 131.467 485.616 131.6C484.949 131.6 484.349 132 483.816 132.8C482.749 132.8 481.749 133.267 480.816 134.2C478.682 134.467 476.882 135.2 475.416 136.4C474.082 137.6 472.216 138.333 469.816 138.6C469.282 138.6 469.016 138.667 469.016 138.8C466.349 139.2 463.616 139.333 460.816 139.2C458.149 139.2 455.416 138.733 452.616 137.8C451.549 137.533 450.482 137.133 449.416 136.6C448.482 136.067 447.549 135.533 446.616 135C445.149 134.467 443.949 133.333 443.016 131.6C441.949 129.867 441.216 128.2 440.816 126.6C440.282 124.733 440.149 122.4 440.416 119.6C440.549 116.8 441.016 114.267 441.816 112C442.216 110.4 442.816 108.933 443.616 107.6C444.416 106.267 445.149 104.867 445.816 103.4C446.616 103 447.349 101.933 448.016 100.2C448.016 100.2 448.149 100.133 448.416 100C450.282 97.3333 452.149 95 454.016 93C455.882 90.8667 458.149 88.8667 460.816 87C460.816 86.7333 460.882 86.6 461.016 86.6C461.282 86.6 461.416 86.5333 461.416 86.4C462.216 85.7333 463.082 85.2667 464.016 85C464.949 84.6 465.949 84.0667 467.016 83.4C467.682 83 468.282 82.5333 468.816 82C469.349 81.4667 470.149 81.2667 471.216 81.4C471.882 81.5333 472.482 81.8667 473.016 82.4C473.682 82.8 474.349 83.0667 475.016 83.2C475.416 83.4667 475.749 83.5333 476.016 83.4C476.416 83.2667 476.749 83.2 477.016 83.2C477.282 83.4667 477.549 83.8 477.816 84.2C478.082 84.4667 478.549 84.6 479.216 84.6C479.882 85.6667 480.682 86.9333 481.616 88.4C482.549 89.7333 483.016 91.3333 483.016 93.2C482.349 94.2667 482.149 95.6667 482.416 97.4C481.749 98.3333 481.216 99.5333 480.816 101C480.416 102.333 479.949 103.467 479.416 104.4C479.149 104.533 478.949 104.6 478.816 104.6C478.682 104.467 478.482 104.467 478.216 104.6C477.949 104.6 477.749 104.533 477.616 104.4C477.616 104.133 477.549 104 477.416 104C477.416 104.4 477.416 104.6 477.416 104.6C477.149 104.467 476.882 104.133 476.616 103.6C475.949 103.867 474.949 103.4 473.616 102.2C472.416 100.867 471.816 99.7333 471.816 98.8L472.616 96.6C473.282 95.1333 473.949 93.7333 474.616 92.4C475.416 90.9333 475.816 89.5333 475.816 88.2C472.616 89 470.149 90.4667 468.416 92.6C466.816 94.7333 464.816 96.8 462.416 98.8C462.416 99.0667 462.349 99.2 462.216 99.2C462.216 99.2 462.216 99.3333 462.216 99.6C459.416 102 457.216 104.867 455.616 108.2C454.016 111.533 452.482 114.933 451.016 118.4C450.882 119.467 450.749 120.667 450.616 122C450.482 123.2 450.416 124.4 450.416 125.6C450.549 126.533 450.882 127.8 451.416 129.4C451.949 131 452.949 131.933 454.416 132.2C457.616 133.267 460.416 133.333 462.816 132.4C465.349 131.333 467.949 130.467 470.616 129.8C474.749 127.933 478.616 126.267 482.216 124.8C485.816 123.2 489.349 121.267 492.816 119H493.416C495.282 117.667 497.082 116.4 498.816 115.2C500.682 114 502.549 112.667 504.416 111.2C506.149 110.533 507.616 109.533 508.816 108.2C510.016 106.867 511.549 105.867 513.416 105.2C513.549 104.533 513.882 104.067 514.416 103.8C514.549 103.533 514.549 103.4 514.416 103.4C514.416 103.4 514.482 103.333 514.616 103.2L515.216 103.4V103.2V102.8C515.882 102.8 516.282 102.533 516.416 102C516.682 101.333 517.016 100.867 517.416 100.6L517.616 100.8C517.882 100.4 518.216 100 518.616 99.6C519.016 99.2 519.616 98.8667 520.416 98.6C519.882 99.1333 519.882 99.5333 520.416 99.8C521.082 99.9333 521.149 100.133 520.616 100.4C520.882 100.267 521.082 100.333 521.216 100.6C521.349 100.733 521.616 100.8 522.016 100.8L521.816 101C521.816 101 521.949 101 522.216 101C522.349 101.133 522.349 101.333 522.216 101.6C522.216 101.733 522.416 101.8 522.816 101.8C522.549 102.2 522.416 102.667 522.416 103.2C522.549 103.6 522.616 103.867 522.616 104C522.616 104.133 522.549 104.2 522.416 104.2C522.282 104.2 522.149 104.267 522.016 104.4V106.4C521.749 106.8 521.549 107 521.416 107C521.416 106.867 521.349 106.933 521.216 107.2V107.4C520.682 107.267 520.682 107.2 521.216 107.2C520.549 106.933 520.416 107.067 520.816 107.6C520.149 107.467 519.682 107.667 519.416 108.2C519.149 108.6 518.749 108.933 518.216 109.2C518.216 108.533 518.416 108.067 518.816 107.8C519.216 107.533 519.416 107.267 519.416 107C518.749 107.267 518.282 107.733 518.016 108.4C517.882 108.933 517.482 109.4 516.816 109.8C516.816 109.8 516.949 109.667 517.216 109.4C516.416 109.4 515.816 109.6 515.416 110C515.149 110.267 514.882 110.533 514.616 110.8C514.616 111.067 514.616 111.2 514.616 111.2C514.749 111.067 514.816 111.133 514.816 111.4H514.616C514.216 111.267 514.016 110.933 514.016 110.4C513.749 110.8 513.416 111.4 513.016 112.2C512.749 112.867 512.416 113.333 512.016 113.6C511.749 113.467 511.549 113.467 511.416 113.6C511.282 113.6 511.149 113.6 511.016 113.6C511.016 113.867 510.949 114.067 510.816 114.2C510.682 114.333 510.549 114.533 510.416 114.8L510.216 114.6C510.216 114.6 510.216 114.733 510.216 115V115.2C510.082 115.067 509.549 115.4 508.616 116.2C507.816 116.867 507.282 117.333 507.016 117.6C506.882 118 506.816 118.333 506.816 118.6C506.949 118.867 506.949 119.067 506.816 119.2C506.549 119.067 506.282 119.2 506.016 119.6C505.749 119.867 505.482 120.133 505.216 120.4C504.949 120.133 504.949 119.933 505.216 119.8C505.616 119.667 505.816 119.467 505.816 119.2C505.816 119.067 505.616 119 505.216 119C504.282 119.533 503.549 120.133 503.016 120.8C502.482 121.467 501.882 122.333 501.216 123.4C500.549 123.533 500.016 123.8 499.616 124.2C499.349 124.467 499.082 124.733 498.816 125C498.682 124.867 498.682 124.8 498.816 124.8C498.949 124.8 499.016 124.733 499.016 124.6ZM520.416 101.8C520.682 101.933 520.882 101.933 521.016 101.8C521.282 101.667 521.349 101.467 521.216 101.2C520.682 101.467 520.416 101.667 520.416 101.8ZM519.216 106.8C519.616 106.533 519.949 106.2 520.216 105.8C519.949 106.067 519.749 106.267 519.616 106.4C519.482 106.4 519.349 106.533 519.216 106.8ZM521.616 102.6H521.816C522.216 102.2 522.149 102 521.616 102V102.6ZM575.222 114.2C575.222 114.467 575.089 114.667 574.822 114.8C574.689 114.933 574.755 115 575.022 115C574.355 115.933 573.289 117.2 571.822 118.8C570.489 120.267 569.622 121.4 569.222 122.2C568.955 122.2 568.422 122.333 567.622 122.6C567.889 122.2 568.289 121.8 568.822 121.4C569.489 121 570.022 120.667 570.422 120.4C570.422 120.133 570.555 119.733 570.822 119.2C571.089 118.533 571.355 117.933 571.622 117.4C571.355 117.533 571.022 118 570.622 118.8C570.222 119.6 569.889 120.133 569.622 120.4C568.822 121.2 568.022 121.8 567.222 122.2C566.422 122.467 565.689 123.133 565.022 124.2C563.689 124.733 562.555 125.733 561.622 127.2C560.822 128.667 559.689 129.533 558.222 129.8C558.089 130.2 557.955 130.467 557.822 130.6C557.689 130.6 557.489 130.733 557.222 131C557.089 130.733 557.022 130.533 557.022 130.4C557.155 130.133 557.155 130 557.022 130L555.222 131.6C554.555 131.867 553.955 132.267 553.422 132.8C553.022 133.2 552.489 133.4 551.822 133.4C551.822 133.4 551.889 133.333 552.022 133.2C551.489 133.467 551.155 133.733 551.022 134C550.889 134.133 550.755 134.267 550.622 134.4C550.622 134.533 550.555 134.733 550.422 135C550.289 135.133 549.955 135.267 549.422 135.4C549.155 135.4 549.022 135.333 549.022 135.2C548.489 135.333 547.955 135.6 547.422 136C547.022 136.533 546.489 136.8 545.822 136.8C545.822 136.533 545.955 136.4 546.222 136.4C545.422 136.267 544.889 136.467 544.622 137C544.622 137 544.489 137 544.222 137L539.022 139.8C537.955 140.2 536.755 140.6 535.422 141C534.089 141.4 532.889 141.667 531.822 141.8C529.822 142.733 527.689 142.933 525.422 142.4C523.155 142 520.889 141.267 518.622 140.2C517.022 139.267 515.622 138.533 514.422 138C513.222 137.467 512.289 136.8 511.622 136C510.955 135.333 510.489 134.533 510.222 133.6C509.955 132.533 509.822 131.067 509.822 129.2C509.822 128.933 509.889 128.8 510.022 128.8C510.155 128.667 510.222 128.467 510.222 128.2C510.089 125.933 510.355 123.267 511.022 120.2C511.689 117.133 512.355 114.267 513.022 111.6C513.289 110.933 513.422 110.333 513.422 109.8C513.422 109.267 513.622 108.733 514.022 108.2C514.689 105.4 515.555 102.533 516.622 99.6C517.689 96.5333 518.822 93.6 520.022 90.8C520.289 90.1333 520.422 89.8 520.422 89.8C520.422 89.6667 520.355 89.6 520.222 89.6L521.022 88.2C522.089 86.0667 523.355 83.4667 524.822 80.4C526.422 77.3333 527.555 74.6 528.222 72.2C527.689 72.6 527.489 72.7333 527.622 72.6C527.755 72.3333 527.489 72.2 526.822 72.2C525.889 72.4667 524.955 72.8 524.022 73.2C523.222 73.4667 522.355 73.6 521.422 73.6C520.355 73.8667 519.422 74.1333 518.622 74.4C517.822 74.6667 516.955 74.8667 516.022 75C514.422 75.2667 513.422 75.4 513.022 75.4C512.622 75.4 512.355 75.4 512.222 75.4C512.222 75.4 512.022 75.4667 511.622 75.6C511.355 75.7333 510.422 76 508.822 76.4C508.022 76.1333 507.089 76.2667 506.022 76.8C504.822 77.3333 503.689 77.5333 502.622 77.4C502.355 77.2667 502.222 77.2 502.222 77.2C502.089 77.0667 501.889 77 501.622 77C500.555 77.4 499.755 77.4667 499.222 77.2C498.555 76.8 498.022 76.2667 497.622 75.6C497.889 74.8 497.755 74.0667 497.222 73.4C496.689 72.7333 496.422 72.0667 496.422 71.4L497.222 72C500.022 71.4667 502.422 70.8667 504.422 70.2C506.422 69.4 508.622 68.6 511.022 67.8C513.422 67 516.289 66.2 519.622 65.4C522.955 64.6 527.355 63.8667 532.822 63.2C535.489 57.7333 538.222 52.7333 541.022 48.2C543.822 43.6667 546.755 39 549.822 34.2V33.2C550.089 32.9333 550.355 32.9333 550.622 33.2C551.022 33.3333 551.355 33.2667 551.622 33C551.489 33.4 551.555 33.6667 551.822 33.8C552.222 33.8 552.422 33.9333 552.422 34.2C553.089 34.3333 553.889 34.6 554.822 35C555.755 35.4 556.622 35.9333 557.422 36.6C558.222 37.2667 558.822 38 559.222 38.8C559.622 39.4667 559.622 40.2 559.222 41L557.422 42.4C557.289 42.6667 557.222 42.9333 557.222 43.2C556.822 44.4 556.155 45.5333 555.222 46.6C554.422 47.5333 553.755 48.5333 553.222 49.6C552.555 50.6667 552.022 51.6 551.622 52.4C551.355 53.2 550.889 54.2 550.222 55.4C549.555 56.7333 548.822 57.7333 548.022 58.4C547.222 58.9333 546.689 59.9333 546.422 61.4C548.689 61.1333 550.822 60.9333 552.822 60.8C554.822 60.6667 556.955 60.6 559.222 60.6C561.355 60.0667 563.222 59.8 564.822 59.8C566.422 59.8 567.422 59.8 567.822 59.8C568.489 59.8 568.889 59.8 569.022 59.8C569.289 59.8 569.422 59.8 569.422 59.8C569.555 59.8 569.689 59.8 569.822 59.8C569.955 59.8 570.289 59.7333 570.822 59.6C572.022 59.8667 573.155 59.8 574.222 59.4C575.422 59 576.689 59 578.022 59.4C578.422 59.4 578.822 59.4667 579.222 59.6C579.755 59.7333 580.289 59.7333 580.822 59.6C580.689 59.7333 580.755 59.7333 581.022 59.6C581.289 59.4667 581.555 59.4 581.822 59.4L581.622 59.6C582.422 59.8667 583.022 59.8667 583.422 59.6C583.022 59.3333 582.755 59.2 582.622 59.2C582.622 59.0667 583.155 59.2 584.222 59.6C585.289 59.6 586.622 59.7333 588.222 60C589.822 60.1333 591.155 60.8 592.222 62C592.355 62.1333 592.355 62.4 592.222 62.8C592.222 63.0667 592.289 63.3333 592.422 63.6C592.289 63.7333 592.155 63.8 592.022 63.8C591.889 63.8 591.822 63.9333 591.822 64.2C591.955 64.3333 592.022 64.4667 592.022 64.6C592.155 64.6 592.422 64.6667 592.822 64.8C592.555 65.0667 592.155 65.2 591.622 65.2C591.755 65.7333 592.155 66.2 592.822 66.6C592.555 66.8667 592.222 67 591.822 67C591.555 67 591.355 67.1333 591.222 67.4C590.955 67.4 590.689 67.3333 590.422 67.2C589.489 67.3333 588.622 67.3333 587.822 67.2C587.155 67.0667 586.289 67.2667 585.222 67.8C584.555 67.4 584.155 67.2667 584.022 67.4C583.889 67.5333 583.622 67.5333 583.222 67.4C583.222 67.1333 583.289 67.0667 583.422 67.2C583.555 67.2 583.622 67.0667 583.622 66.8C583.089 66.8 582.755 66.9333 582.622 67.2C582.489 67.3333 582.355 67.4667 582.222 67.6C582.222 67.7333 582.155 67.8 582.022 67.8C581.889 67.6667 581.622 67.4 581.222 67C580.689 67.2667 580.422 67.4 580.422 67.4L580.222 67.6H580.022C579.755 67.6 579.622 67.6 579.622 67.6C579.755 67.4667 579.755 67.3333 579.622 67.2C579.222 67.4667 579.022 67.6667 579.022 67.8C578.755 67.2667 578.222 67.2 577.422 67.6C576.755 67.8667 576.622 67.6667 577.022 67C576.755 67 576.555 67.2667 576.422 67.8C576.422 68.2 576.089 68.2 575.422 67.8C575.689 67.2667 575.822 67.0667 575.822 67.2C575.955 67.2 576.022 67.0667 576.022 66.8C575.889 66.8 575.689 66.8667 575.422 67C575.155 67.1333 574.955 67.4 574.822 67.8C574.822 67.8 574.822 67.6 574.822 67.2C574.289 67.2 574.022 67.4667 574.022 68C574.022 68 574.022 67.8 574.022 67.4C573.622 67.1333 573.355 67.0667 573.222 67.2C573.089 67.3333 572.822 67.4 572.422 67.4C572.155 67.1333 572.155 67.0667 572.422 67.2C572.689 67.2 572.955 67.0667 573.222 66.8C572.955 66.8 572.622 66.8 572.222 66.8C571.822 66.8 571.555 66.9333 571.422 67.2C570.622 66.6667 569.955 66.6667 569.422 67.2C569.555 67.4667 569.755 67.4667 570.022 67.2C570.422 66.9333 570.689 66.9333 570.822 67.2C570.689 67.3333 570.422 67.4667 570.022 67.6C569.622 67.7333 569.222 67.8667 568.822 68C568.555 68 568.355 68 568.222 68C568.089 67.8667 568.155 67.6667 568.422 67.4H567.622V67.2C567.489 67.2 567.422 67.2667 567.422 67.4V67.2C567.289 67.2 567.155 67.1333 567.022 67C567.022 66.8667 566.955 66.9333 566.822 67.2C566.955 67.2 567.022 67.2667 567.022 67.4C567.022 67.4 567.089 67.4 567.222 67.4C566.689 67.6667 566.422 67.9333 566.422 68.2C566.422 68.3333 566.289 68.2 566.022 67.8C566.022 67.2667 565.622 67.0667 564.822 67.2C564.022 67.2 563.289 67.3333 562.622 67.6V67.2C562.222 67.4667 561.689 67.7333 561.022 68C560.489 68.2667 559.955 68.1333 559.422 67.6C559.689 67.4667 559.889 67.4 560.022 67.4C560.155 67.4 560.289 67.3333 560.422 67.2C560.422 66.9333 560.355 66.8 560.222 66.8C560.089 66.8 560.022 66.7333 560.022 66.6C559.755 66.6 559.555 66.6667 559.422 66.8C559.289 66.9333 559.089 67.0667 558.822 67.2C558.689 67.2 558.622 67.0667 558.622 66.8C558.622 66.6667 558.689 66.6 558.822 66.6C558.155 66.6 557.889 66.5333 558.022 66.4C557.755 66.4 557.622 66.6667 557.622 67.2C557.622 67.7333 557.489 68.1333 557.222 68.4C556.555 68.4 555.955 68.4667 555.422 68.6C555.022 68.6 554.355 68.6 553.422 68.6C553.422 68.3333 553.489 68.2667 553.622 68.4C553.889 68.4 554.022 68.2667 554.022 68C553.889 68 553.822 68 553.822 68C553.822 67.8667 553.755 67.8 553.622 67.8H553.422C553.155 67.8 552.889 67.8667 552.622 68C552.355 68 552.089 68 551.822 68C551.555 68.6667 551.155 68.9333 550.622 68.8C550.222 68.5333 549.889 68.5333 549.622 68.8V68.6C549.222 68.6 548.955 68.7333 548.822 69C549.222 69.1333 549.489 69.0667 549.622 68.8C549.755 69.0667 549.822 69.1333 549.822 69C549.955 68.8667 550.022 68.9333 550.022 69.2C550.022 69.4667 549.889 69.6 549.622 69.6C549.489 69.6 549.289 69.7333 549.022 70C548.622 70 548.289 69.9333 548.022 69.8C547.755 69.5333 547.422 69.5333 547.022 69.8C546.355 69.8 545.555 69.8667 544.622 70C543.822 70.1333 543.089 70.2667 542.422 70.4C541.889 70.6667 541.555 71 541.422 71.4C541.289 71.6667 541.089 72.0667 540.822 72.6C539.889 75 538.555 77.8667 536.822 81.2C535.089 84.5333 533.689 87.6667 532.622 90.6C532.222 91.8 531.889 92.6667 531.622 93.2C531.489 93.7333 531.289 94.2 531.022 94.6C530.889 94.8667 530.689 95.2667 530.422 95.8C530.289 96.3333 530.022 97.2667 529.622 98.6C528.155 101 527.022 104 526.222 107.6C525.422 111.067 524.689 114.6 524.022 118.2C523.755 119.4 523.422 120.6 523.022 121.8C522.622 123 522.355 124.267 522.222 125.6C522.089 127.6 521.689 129.467 521.022 131.2C520.489 132.8 520.755 134.533 521.822 136.4C522.089 136.533 522.155 136.533 522.022 136.4C521.889 136.4 522.089 136.4 522.622 136.4C523.689 136.4 525.022 136.267 526.622 136C528.222 135.6 529.622 135.133 530.822 134.6C532.289 134.2 533.755 133.733 535.222 133.2C536.822 132.533 538.289 132 539.622 131.6C539.889 131.333 540.022 131.267 540.022 131.4C540.155 131.4 540.222 131.267 540.222 131C540.622 130.867 541.022 130.8 541.422 130.8C541.822 130.667 542.089 130.333 542.222 129.8C543.022 129.533 543.622 129.333 544.022 129.2C544.555 128.933 544.955 128.667 545.222 128.4C545.622 128.133 546.022 127.933 546.422 127.8C546.822 127.533 547.422 127.267 548.222 127V126.2C548.755 126.6 549.555 126.2 550.622 125C550.755 125 550.889 125.067 551.022 125.2C552.222 124.4 553.555 123.533 555.022 122.6C556.622 121.667 558.089 120.733 559.422 119.8C560.089 119.667 561.155 119 562.622 117.8C564.089 116.6 565.555 115.267 567.022 113.8C568.622 112.333 570.022 111 571.222 109.8C572.422 108.467 573.155 107.667 573.422 107.4C573.555 107.533 573.689 107.6 573.822 107.6C573.955 106.8 574.022 106.333 574.022 106.2C574.155 106.067 574.222 106 574.222 106C574.355 106 574.422 106 574.422 106C574.555 105.867 574.822 105.533 575.222 105C575.222 104.6 575.289 104.4 575.422 104.4C575.822 104.133 576.089 103.933 576.222 103.8C576.355 103.667 576.555 103.4 576.822 103C577.622 103.133 578.155 102.667 578.422 101.6C579.355 101.867 579.955 102.2 580.222 102.6C580.622 102.867 580.955 102.867 581.222 102.6C581.222 102.867 581.355 103.067 581.622 103.2C581.889 103.2 582.155 103.2 582.422 103.2C582.422 103.467 582.355 103.6 582.222 103.6C582.222 103.6 582.222 103.667 582.222 103.8C582.489 103.933 582.289 104.133 581.622 104.4C581.089 104.667 581.155 104.867 581.822 105C581.822 105.267 581.689 105.667 581.422 106.2C581.555 106.2 581.755 106.4 582.022 106.8C581.755 106.8 580.622 108.333 578.622 111.4H578.822C578.689 111.533 578.555 111.6 578.422 111.6C577.889 112.133 577.622 112.333 577.622 112.2L576.422 113.2V112.8C576.155 113.067 576.022 113.333 576.022 113.6C576.022 113.733 575.889 113.867 575.622 114C575.489 114.133 575.422 114.333 575.422 114.6V114.4C575.422 114.267 575.355 114.2 575.222 114.2ZM579.022 110C578.889 110 579.022 109.8 579.422 109.4V109.2L579.022 109.4C578.755 109.8 578.422 110.2 578.022 110.6C577.755 110.867 577.489 111.133 577.222 111.4V110.8C576.689 111.6 576.489 112.267 576.622 112.8L577.022 112.4H576.822L577.022 111.6C577.289 111.6 577.489 111.667 577.622 111.8C577.622 111.4 577.889 111.067 578.422 110.8L579.022 109.8V110ZM561.622 126.4C562.022 126 562.355 125.667 562.622 125.4C563.022 125.133 563.355 124.733 563.622 124.2C563.222 124.467 562.689 124.8 562.022 125.2C561.489 125.6 561.355 126 561.622 126.4ZM566.422 124.6C566.822 123.933 567.222 123.533 567.622 123.4C568.155 123.133 568.689 122.8 569.222 122.4V122.6C568.689 122.867 568.155 123.2 567.622 123.6C567.222 124 566.822 124.333 566.422 124.6ZM580.422 64.6C580.155 64.8667 579.822 64.9333 579.422 64.8C579.155 64.5333 578.889 64.5333 578.622 64.8C578.889 64.9333 579.289 65.0667 579.822 65.2C580.355 65.2 580.555 65 580.422 64.6ZM570.622 120.4C570.489 119.733 570.755 119.133 571.422 118.6C572.089 118.067 572.422 117.667 572.422 117.4C572.689 117.667 572.489 118.2 571.822 119C571.289 119.667 570.889 120.133 570.622 120.4ZM564.422 123C564.955 123.133 565.289 123.067 565.422 122.8C565.555 122.533 565.755 122.267 566.022 122C566.022 121.467 566.089 121.133 566.222 121C565.955 121 565.822 121.2 565.822 121.6C565.822 121.6 565.889 121.733 566.022 122C565.755 122.133 565.489 122.333 565.222 122.6C564.955 122.733 564.689 122.867 564.422 123ZM547.022 68.8C547.289 69.0667 547.489 69.1333 547.622 69C547.755 68.8667 547.889 68.8 548.022 68.8C548.022 68.6667 548.089 68.6 548.222 68.6C548.355 68.4667 548.289 68.2667 548.022 68C548.022 68.2667 547.889 68.4667 547.622 68.6C547.355 68.6 547.155 68.6667 547.022 68.8ZM564.422 123.8C564.555 124.067 564.755 124.133 565.022 124C565.422 123.733 565.489 123.467 565.222 123.2C565.089 123.467 564.889 123.6 564.622 123.6C564.489 123.467 564.422 123.533 564.422 123.8ZM564.222 120.8C564.489 120.933 564.755 120.867 565.022 120.6C565.289 120.333 565.355 120.067 565.222 119.8C564.955 120.067 564.755 120.267 564.622 120.4C564.622 120.533 564.489 120.667 564.222 120.8ZM567.422 67.6C567.289 67.6 567.222 67.5333 567.222 67.4H567.422C567.555 67.4 567.622 67.4 567.622 67.4C567.889 67.8 567.889 68 567.622 68C567.489 67.8667 567.422 67.7333 567.422 67.6ZM546.422 69C546.422 68.8667 546.489 68.8 546.622 68.8C546.755 68.8 546.822 68.7333 546.822 68.6C546.289 68.3333 546.155 68.4667 546.422 69ZM562.822 68C562.289 68.1333 562.022 68.2 562.022 68.2C562.155 68.0667 562.355 67.8667 562.622 67.6C562.622 67.8667 562.689 68 562.822 68ZM577.422 112C577.155 111.867 577.022 111.933 577.022 112.2C577.155 112.333 577.155 112.4 577.022 112.4L577.422 112ZM553.422 67.8C553.422 68.0667 553.289 68.2 553.022 68.2C553.289 67.9333 553.422 67.8 553.422 67.8ZM579.022 110.4C579.289 110.133 579.422 109.933 579.422 109.8L579.022 110.2V110.4ZM566.822 120.8C566.955 120.933 567.022 120.8 567.022 120.4C567.022 120.533 566.955 120.667 566.822 120.8ZM553.022 68.4C552.755 68.2667 552.755 68.2 553.022 68.2V68.4ZM569.422 122.2C569.289 122.333 569.222 122.4 569.222 122.4V122.2H569.422ZM579.022 110.4C579.022 110.533 578.955 110.6 578.822 110.6C578.955 110.6 579.022 110.533 579.022 110.4ZM575.022 115L575.222 114.8L575.022 115Z" fill="black"/>
</svg>
