<svg width="855" height="208" viewBox="0 0 855 208" fill="none" xmlns="http://www.w3.org/2000/svg">
<path d="M623.8 135.2C623.8 135.467 623.667 135.667 623.4 135.8C623.267 135.933 623.333 136 623.6 136C622.933 136.933 621.867 138.2 620.4 139.8C619.067 141.267 618.2 142.4 617.8 143.2C617.533 143.2 617 143.333 616.2 143.6C616.467 143.2 616.867 142.8 617.4 142.4C618.067 142 618.6 141.667 619 141.4C619 141.133 619.133 140.733 619.4 140.2C619.667 139.533 619.933 138.933 620.2 138.4C619.933 138.533 619.6 139 619.2 139.8C618.8 140.6 618.467 141.133 618.2 141.4C617.4 142.2 616.6 142.8 615.8 143.2C615 143.467 614.267 144.133 613.6 145.2C612.267 145.733 611.133 146.733 610.2 148.2C609.4 149.667 608.267 150.533 606.8 150.8C606.667 151.2 606.533 151.467 606.4 151.6C606.267 151.6 606.067 151.733 605.8 152C605.667 151.733 605.6 151.533 605.6 151.4C605.733 151.133 605.733 151 605.6 151L603.8 152.6C603.133 152.867 602.533 153.267 602 153.8C601.6 154.2 601.067 154.4 600.4 154.4C600.4 154.4 600.467 154.333 600.6 154.2C600.067 154.467 599.733 154.733 599.6 155C599.467 155.133 599.333 155.267 599.2 155.4C599.2 155.533 599.133 155.733 599 156C598.867 156.133 598.533 156.267 598 156.4C597.733 156.4 597.6 156.333 597.6 156.2C597.067 156.333 596.533 156.6 596 157C595.6 157.533 595.067 157.8 594.4 157.8C594.4 157.533 594.533 157.4 594.8 157.4C594 157.267 593.467 157.467 593.2 158C593.2 158 593.067 158 592.8 158L587.6 160.8C586.533 161.2 585.333 161.6 584 162C582.667 162.4 581.467 162.667 580.4 162.8C578.4 163.733 576.267 163.933 574 163.4C571.733 163 569.467 162.267 567.2 161.2C565.6 160.267 564.2 159.533 563 159C561.8 158.467 560.867 157.8 560.2 157C559.533 156.333 559.067 155.533 558.8 154.6C558.533 153.533 558.4 152.067 558.4 150.2C558.4 149.933 558.467 149.8 558.6 149.8C558.733 149.667 558.8 149.467 558.8 149.2C558.667 146.933 558.933 144.267 559.6 141.2C560.267 138.133 560.933 135.267 561.6 132.6C561.867 131.933 562 131.333 562 130.8C562 130.267 562.2 129.733 562.6 129.2C563.267 126.4 564.133 123.533 565.2 120.6C566.267 117.533 567.4 114.6 568.6 111.8C568.867 111.133 569 110.8 569 110.8C569 110.667 568.933 110.6 568.8 110.6L569.6 109.2C570.667 107.067 571.933 104.467 573.4 101.4C575 98.3333 576.133 95.6 576.8 93.2C576.267 93.6 576.067 93.7333 576.2 93.6C576.333 93.3333 576.067 93.2 575.4 93.2C574.467 93.4667 573.533 93.8 572.6 94.2C571.8 94.4667 570.933 94.6 570 94.6C568.933 94.8667 568 95.1333 567.2 95.4C566.4 95.6667 565.533 95.8667 564.6 96C563 96.2667 562 96.4 561.6 96.4C561.2 96.4 560.933 96.4 560.8 96.4C560.8 96.4 560.6 96.4667 560.2 96.6C559.933 96.7333 559 97 557.4 97.4C556.6 97.1333 555.667 97.2667 554.6 97.8C553.4 98.3333 552.267 98.5333 551.2 98.4C550.933 98.2667 550.8 98.2 550.8 98.2C550.667 98.0667 550.467 98 550.2 98C549.133 98.4 548.333 98.4667 547.8 98.2C547.133 97.8 546.6 97.2667 546.2 96.6C546.467 95.8 546.333 95.0667 545.8 94.4C545.267 93.7333 545 93.0667 545 92.4L545.8 93C548.6 92.4667 551 91.8667 553 91.2C555 90.4 557.2 89.6 559.6 88.8C562 88 564.867 87.2 568.2 86.4C571.533 85.6 575.933 84.8667 581.4 84.2C584.067 78.7333 586.8 73.7333 589.6 69.2C592.4 64.6667 595.333 60 598.4 55.2V54.2C598.667 53.9333 598.933 53.9333 599.2 54.2C599.6 54.3333 599.933 54.2667 600.2 54C600.067 54.4 600.133 54.6667 600.4 54.8C600.8 54.8 601 54.9333 601 55.2C601.667 55.3333 602.467 55.6 603.4 56C604.333 56.4 605.2 56.9333 606 57.6C606.8 58.2667 607.4 59 607.8 59.8C608.2 60.4667 608.2 61.2 607.8 62L606 63.4C605.867 63.6667 605.8 63.9333 605.8 64.2C605.4 65.4 604.733 66.5333 603.8 67.6C603 68.5333 602.333 69.5333 601.8 70.6C601.133 71.6667 600.6 72.6 600.2 73.4C599.933 74.2 599.467 75.2 598.8 76.4C598.133 77.7333 597.4 78.7333 596.6 79.4C595.8 79.9333 595.267 80.9333 595 82.4C597.267 82.1333 599.4 81.9333 601.4 81.8C603.4 81.6667 605.533 81.6 607.8 81.6C609.933 81.0667 611.8 80.8 613.4 80.8C615 80.8 616 80.8 616.4 80.8C617.067 80.8 617.467 80.8 617.6 80.8C617.867 80.8 618 80.8 618 80.8C618.133 80.8 618.267 80.8 618.4 80.8C618.533 80.8 618.867 80.7333 619.4 80.6C620.6 80.8667 621.733 80.8 622.8 80.4C624 80 625.267 80 626.6 80.4C627 80.4 627.4 80.4667 627.8 80.6C628.333 80.7333 628.867 80.7333 629.4 80.6C629.267 80.7333 629.333 80.7333 629.6 80.6C629.867 80.4667 630.133 80.4 630.4 80.4L630.2 80.6C631 80.8667 631.6 80.8667 632 80.6C631.6 80.3333 631.333 80.2 631.2 80.2C631.2 80.0667 631.733 80.2 632.8 80.6C633.867 80.6 635.2 80.7333 636.8 81C638.4 81.1333 639.733 81.8 640.8 83C640.933 83.1333 640.933 83.4 640.8 83.8C640.8 84.0667 640.867 84.3333 641 84.6C640.867 84.7333 640.733 84.8 640.6 84.8C640.467 84.8 640.4 84.9333 640.4 85.2C640.533 85.3333 640.6 85.4667 640.6 85.6C640.733 85.6 641 85.6667 641.4 85.8C641.133 86.0667 640.733 86.2 640.2 86.2C640.333 86.7333 640.733 87.2 641.4 87.6C641.133 87.8667 640.8 88 640.4 88C640.133 88 639.933 88.1333 639.8 88.4C639.533 88.4 639.267 88.3333 639 88.2C638.067 88.3333 637.2 88.3333 636.4 88.2C635.733 88.0667 634.867 88.2667 633.8 88.8C633.133 88.4 632.733 88.2667 632.6 88.4C632.467 88.5333 632.2 88.5333 631.8 88.4C631.8 88.1333 631.867 88.0667 632 88.2C632.133 88.2 632.2 88.0667 632.2 87.8C631.667 87.8 631.333 87.9333 631.2 88.2C631.067 88.3333 630.933 88.4667 630.8 88.6C630.8 88.7333 630.733 88.8 630.6 88.8C630.467 88.6667 630.2 88.4 629.8 88C629.267 88.2667 629 88.4 629 88.4L628.8 88.6H628.6C628.333 88.6 628.2 88.6 628.2 88.6C628.333 88.4667 628.333 88.3333 628.2 88.2C627.8 88.4667 627.6 88.6667 627.6 88.8C627.333 88.2667 626.8 88.2 626 88.6C625.333 88.8667 625.2 88.6667 625.6 88C625.333 88 625.133 88.2667 625 88.8C625 89.2 624.667 89.2 624 88.8C624.267 88.2667 624.4 88.0667 624.4 88.2C624.533 88.2 624.6 88.0667 624.6 87.8C624.467 87.8 624.267 87.8667 624 88C623.733 88.1333 623.533 88.4 623.4 88.8C623.4 88.8 623.4 88.6 623.4 88.2C622.867 88.2 622.6 88.4667 622.6 89C622.6 89 622.6 88.8 622.6 88.4C622.2 88.1333 621.933 88.0667 621.8 88.2C621.667 88.3333 621.4 88.4 621 88.4C620.733 88.1333 620.733 88.0667 621 88.2C621.267 88.2 621.533 88.0667 621.8 87.8C621.533 87.8 621.2 87.8 620.8 87.8C620.4 87.8 620.133 87.9333 620 88.2C619.2 87.6667 618.533 87.6667 618 88.2C618.133 88.4667 618.333 88.4667 618.6 88.2C619 87.9333 619.267 87.9333 619.4 88.2C619.267 88.3333 619 88.4667 618.6 88.6C618.2 88.7333 617.8 88.8667 617.4 89C617.133 89 616.933 89 616.8 89C616.667 88.8667 616.733 88.6667 617 88.4H616.2V88.2C616.067 88.2 616 88.2667 616 88.4V88.2C615.867 88.2 615.733 88.1333 615.6 88C615.6 87.8667 615.533 87.9333 615.4 88.2C615.533 88.2 615.6 88.2667 615.6 88.4C615.6 88.4 615.667 88.4 615.8 88.4C615.267 88.6667 615 88.9333 615 89.2C615 89.3333 614.867 89.2 614.6 88.8C614.6 88.2667 614.2 88.0667 613.4 88.2C612.6 88.2 611.867 88.3333 611.2 88.6V88.2C610.8 88.4667 610.267 88.7333 609.6 89C609.067 89.2667 608.533 89.1333 608 88.6C608.267 88.4667 608.467 88.4 608.6 88.4C608.733 88.4 608.867 88.3333 609 88.2C609 87.9333 608.933 87.8 608.8 87.8C608.667 87.8 608.6 87.7333 608.6 87.6C608.333 87.6 608.133 87.6667 608 87.8C607.867 87.9333 607.667 88.0667 607.4 88.2C607.267 88.2 607.2 88.0667 607.2 87.8C607.2 87.6667 607.267 87.6 607.4 87.6C606.733 87.6 606.467 87.5333 606.6 87.4C606.333 87.4 606.2 87.6667 606.2 88.2C606.2 88.7333 606.067 89.1333 605.8 89.4C605.133 89.4 604.533 89.4667 604 89.6C603.6 89.6 602.933 89.6 602 89.6C602 89.3333 602.067 89.2667 602.2 89.4C602.467 89.4 602.6 89.2667 602.6 89C602.467 89 602.4 89 602.4 89C602.4 88.8667 602.333 88.8 602.2 88.8H602C601.733 88.8 601.467 88.8667 601.2 89C600.933 89 600.667 89 600.4 89C600.133 89.6667 599.733 89.9333 599.2 89.8C598.8 89.5333 598.467 89.5333 598.2 89.8V89.6C597.8 89.6 597.533 89.7333 597.4 90C597.8 90.1333 598.067 90.0667 598.2 89.8C598.333 90.0667 598.4 90.1333 598.4 90C598.533 89.8667 598.6 89.9333 598.6 90.2C598.6 90.4667 598.467 90.6 598.2 90.6C598.067 90.6 597.867 90.7333 597.6 91C597.2 91 596.867 90.9333 596.6 90.8C596.333 90.5333 596 90.5333 595.6 90.8C594.933 90.8 594.133 90.8667 593.2 91C592.4 91.1333 591.667 91.2667 591 91.4C590.467 91.6667 590.133 92 590 92.4C589.867 92.6667 589.667 93.0667 589.4 93.6C588.467 96 587.133 98.8667 585.4 102.2C583.667 105.533 582.267 108.667 581.2 111.6C580.8 112.8 580.467 113.667 580.2 114.2C580.067 114.733 579.867 115.2 579.6 115.6C579.467 115.867 579.267 116.267 579 116.8C578.867 117.333 578.6 118.267 578.2 119.6C576.733 122 575.6 125 574.8 128.6C574 132.067 573.267 135.6 572.6 139.2C572.333 140.4 572 141.6 571.6 142.8C571.2 144 570.933 145.267 570.8 146.6C570.667 148.6 570.267 150.467 569.6 152.2C569.067 153.8 569.333 155.533 570.4 157.4C570.667 157.533 570.733 157.533 570.6 157.4C570.467 157.4 570.667 157.4 571.2 157.4C572.267 157.4 573.6 157.267 575.2 157C576.8 156.6 578.2 156.133 579.4 155.6C580.867 155.2 582.333 154.733 583.8 154.2C585.4 153.533 586.867 153 588.2 152.6C588.467 152.333 588.6 152.267 588.6 152.4C588.733 152.4 588.8 152.267 588.8 152C589.2 151.867 589.6 151.8 590 151.8C590.4 151.667 590.667 151.333 590.8 150.8C591.6 150.533 592.2 150.333 592.6 150.2C593.133 149.933 593.533 149.667 593.8 149.4C594.2 149.133 594.6 148.933 595 148.8C595.4 148.533 596 148.267 596.8 148V147.2C597.333 147.6 598.133 147.2 599.2 146C599.333 146 599.467 146.067 599.6 146.2C600.8 145.4 602.133 144.533 603.6 143.6C605.2 142.667 606.667 141.733 608 140.8C608.667 140.667 609.733 140 611.2 138.8C612.667 137.6 614.133 136.267 615.6 134.8C617.2 133.333 618.6 132 619.8 130.8C621 129.467 621.733 128.667 622 128.4C622.133 128.533 622.267 128.6 622.4 128.6C622.533 127.8 622.6 127.333 622.6 127.2C622.733 127.067 622.8 127 622.8 127C622.933 127 623 127 623 127C623.133 126.867 623.4 126.533 623.8 126C623.8 125.6 623.867 125.4 624 125.4C624.4 125.133 624.667 124.933 624.8 124.8C624.933 124.667 625.133 124.4 625.4 124C626.2 124.133 626.733 123.667 627 122.6C627.933 122.867 628.533 123.2 628.8 123.6C629.2 123.867 629.533 123.867 629.8 123.6C629.8 123.867 629.933 124.067 630.2 124.2C630.467 124.2 630.733 124.2 631 124.2C631 124.467 630.933 124.6 630.8 124.6C630.8 124.6 630.8 124.667 630.8 124.8C631.067 124.933 630.867 125.133 630.2 125.4C629.667 125.667 629.733 125.867 630.4 126C630.4 126.267 630.267 126.667 630 127.2C630.133 127.2 630.333 127.4 630.6 127.8C630.333 127.8 629.2 129.333 627.2 132.4H627.4C627.267 132.533 627.133 132.6 627 132.6C626.467 133.133 626.2 133.333 626.2 133.2L625 134.2V133.8C624.733 134.067 624.6 134.333 624.6 134.6C624.6 134.733 624.467 134.867 624.2 135C624.067 135.133 624 135.333 624 135.6V135.4C624 135.267 623.933 135.2 623.8 135.2ZM627.6 131C627.467 131 627.6 130.8 628 130.4V130.2L627.6 130.4C627.333 130.8 627 131.2 626.6 131.6C626.333 131.867 626.067 132.133 625.8 132.4V131.8C625.267 132.6 625.067 133.267 625.2 133.8L625.6 133.4H625.4L625.6 132.6C625.867 132.6 626.067 132.667 626.2 132.8C626.2 132.4 626.467 132.067 627 131.8L627.6 130.8V131ZM610.2 147.4C610.6 147 610.933 146.667 611.2 146.4C611.6 146.133 611.933 145.733 612.2 145.2C611.8 145.467 611.267 145.8 610.6 146.2C610.067 146.6 609.933 147 610.2 147.4ZM615 145.6C615.4 144.933 615.8 144.533 616.2 144.4C616.733 144.133 617.267 143.8 617.8 143.4V143.6C617.267 143.867 616.733 144.2 616.2 144.6C615.8 145 615.4 145.333 615 145.6ZM629 85.6C628.733 85.8667 628.4 85.9333 628 85.8C627.733 85.5333 627.467 85.5333 627.2 85.8C627.467 85.9333 627.867 86.0667 628.4 86.2C628.933 86.2 629.133 86 629 85.6ZM619.2 141.4C619.067 140.733 619.333 140.133 620 139.6C620.667 139.067 621 138.667 621 138.4C621.267 138.667 621.067 139.2 620.4 140C619.867 140.667 619.467 141.133 619.2 141.4ZM613 144C613.533 144.133 613.867 144.067 614 143.8C614.133 143.533 614.333 143.267 614.6 143C614.6 142.467 614.667 142.133 614.8 142C614.533 142 614.4 142.2 614.4 142.6C614.4 142.6 614.467 142.733 614.6 143C614.333 143.133 614.067 143.333 613.8 143.6C613.533 143.733 613.267 143.867 613 144ZM595.6 89.8C595.867 90.0667 596.067 90.1333 596.2 90C596.333 89.8667 596.467 89.8 596.6 89.8C596.6 89.6667 596.667 89.6 596.8 89.6C596.933 89.4667 596.867 89.2667 596.6 89C596.6 89.2667 596.467 89.4667 596.2 89.6C595.933 89.6 595.733 89.6667 595.6 89.8ZM613 144.8C613.133 145.067 613.333 145.133 613.6 145C614 144.733 614.067 144.467 613.8 144.2C613.667 144.467 613.467 144.6 613.2 144.6C613.067 144.467 613 144.533 613 144.8ZM612.8 141.8C613.067 141.933 613.333 141.867 613.6 141.6C613.867 141.333 613.933 141.067 613.8 140.8C613.533 141.067 613.333 141.267 613.2 141.4C613.2 141.533 613.067 141.667 612.8 141.8ZM616 88.6C615.867 88.6 615.8 88.5333 615.8 88.4H616C616.133 88.4 616.2 88.4 616.2 88.4C616.467 88.8 616.467 89 616.2 89C616.067 88.8667 616 88.7333 616 88.6ZM595 90C595 89.8667 595.067 89.8 595.2 89.8C595.333 89.8 595.4 89.7333 595.4 89.6C594.867 89.3333 594.733 89.4667 595 90ZM611.4 89C610.867 89.1333 610.6 89.2 610.6 89.2C610.733 89.0667 610.933 88.8667 611.2 88.6C611.2 88.8667 611.267 89 611.4 89ZM626 133C625.733 132.867 625.6 132.933 625.6 133.2C625.733 133.333 625.733 133.4 625.6 133.4L626 133ZM602 88.8C602 89.0667 601.867 89.2 601.6 89.2C601.867 88.9333 602 88.8 602 88.8ZM627.6 131.4C627.867 131.133 628 130.933 628 130.8L627.6 131.2V131.4ZM615.4 141.8C615.533 141.933 615.6 141.8 615.6 141.4C615.6 141.533 615.533 141.667 615.4 141.8ZM601.6 89.4C601.333 89.2667 601.333 89.2 601.6 89.2V89.4ZM618 143.2C617.867 143.333 617.8 143.4 617.8 143.4V143.2H618ZM627.6 131.4C627.6 131.533 627.533 131.6 627.4 131.6C627.533 131.6 627.6 131.533 627.6 131.4ZM623.6 136L623.8 135.8L623.6 136ZM708.356 136.8C707.69 136.667 707.09 137 706.556 137.8C706.023 138.467 705.49 139.133 704.956 139.8C704.956 139.667 705.023 139.467 705.156 139.2C704.09 140 703.09 140.867 702.156 141.8C701.223 142.6 700.223 143.533 699.156 144.6H698.756V144.4C698.49 144.667 698.156 145 697.756 145.4C697.49 145.8 697.156 145.867 696.756 145.6C696.09 146 695.556 146.467 695.156 147C694.89 147.533 694.49 147.867 693.956 148C693.29 148.667 692.756 149.2 692.356 149.6C691.956 149.867 691.356 150.333 690.556 151C690.556 150.867 690.423 150.8 690.156 150.8C689.756 151.333 688.89 151.733 687.556 152C686.09 152.8 684.756 153.667 683.556 154.6C682.49 155.4 681.356 155.8 680.156 155.8C678.956 155.933 678.09 156.067 677.556 156.2C677.023 156.333 676.423 156.333 675.756 156.2C674.69 156.2 673.356 156.467 671.756 157C670.156 157.667 668.823 157.8 667.756 157.4C667.49 156.733 667.023 156.267 666.356 156C665.69 155.6 665.023 155.267 664.356 155C663.823 154.733 663.423 154.133 663.156 153.2C661.69 152.267 660.623 150.933 659.956 149.2C659.29 147.333 658.89 145.267 658.756 143C658.756 140.6 658.956 138.133 659.356 135.6C659.756 133.067 660.29 130.6 660.956 128.2C659.09 129.667 657.29 131.467 655.556 133.6C653.823 135.6 652.09 137.533 650.356 139.4C649.69 140.6 648.956 141.6 648.156 142.4C647.356 143.2 646.556 143.933 645.756 144.6C643.49 147.267 641.356 149.6 639.356 151.6C639.356 151.733 639.29 151.867 639.156 152C639.156 152 639.09 152.133 638.956 152.4C637.89 153.2 636.69 154.133 635.356 155.2C634.023 156.267 632.623 157.133 631.156 157.8C629.823 158.6 628.356 159.067 626.756 159.2C625.29 159.333 623.756 158.8 622.156 157.6C621.223 157.467 620.556 157.2 620.156 156.8C619.89 156.267 619.423 155.8 618.756 155.4C617.29 154.733 616.423 153.933 616.156 153C615.756 152.067 615.49 150.667 615.356 148.8C615.223 147.867 615.356 146.667 615.756 145.2C616.023 143.733 616.423 142.467 616.956 141.4C617.623 138.867 618.623 136.533 619.956 134.4C621.29 132.133 622.556 130.067 623.756 128.2C626.023 125.133 628.29 122.333 630.556 119.8C632.956 117.133 635.423 114.533 637.956 112C638.756 111.6 639.556 111.067 640.356 110.4C641.29 109.733 642.29 109.2 643.356 108.8C644.023 109.067 644.756 108.933 645.556 108.4C646.356 107.733 647.023 107.867 647.556 108.8C650.356 109.067 652.823 109.733 654.956 110.8C657.09 111.867 658.556 113.6 659.356 116C660.29 115.333 661.156 114.733 661.956 114.2C662.756 113.667 663.623 113.267 664.556 113C664.956 112.867 665.29 112.6 665.556 112.2C665.823 111.8 666.09 111.6 666.356 111.6C667.69 111.333 668.89 111.6 669.956 112.4C671.156 113.2 672.29 113.867 673.356 114.4C673.49 114.267 673.623 114.267 673.756 114.4C674.023 114.4 674.356 114.333 674.756 114.2C675.023 114.6 675.223 114.933 675.356 115.2C675.49 115.333 675.623 115.6 675.756 116C676.023 118.4 675.69 121 674.756 123.8C673.956 126.6 673.023 128.933 671.956 130.8C671.423 133.867 670.69 137.2 669.756 140.8C668.823 144.4 668.756 147.533 669.556 150.2C674.223 149.667 678.09 148.533 681.156 146.8C684.356 144.933 687.556 143.133 690.756 141.4C691.956 140.467 693.023 139.667 693.956 139C695.023 138.333 696.023 137.467 696.956 136.4C697.09 136.4 697.223 136.467 697.356 136.6V136.8C698.023 136.8 699.356 136 701.356 134.4C703.356 132.667 705.356 130.933 707.356 129.2C709.49 127.333 711.423 125.733 713.156 124.4C715.023 123.067 716.09 122.6 716.356 123C716.623 123.267 716.956 123.333 717.356 123.2C717.756 122.933 718.09 122.867 718.356 123C718.49 123.267 718.49 123.467 718.356 123.6C718.356 123.733 718.423 123.867 718.556 124V123.6C718.69 123.6 718.69 123.8 718.556 124.2C718.423 124.467 718.29 124.8 718.156 125.2C718.023 125.467 717.89 125.667 717.756 125.8C717.623 125.933 717.623 125.8 717.756 125.4C717.49 125.667 717.156 126 716.756 126.4C716.49 126.667 716.223 126.933 715.956 127.2C715.69 127.867 715.49 128.333 715.356 128.6C715.356 128.867 715.223 129.333 714.956 130C714.556 130 714.29 129.933 714.156 129.8C713.89 130.467 713.49 130.933 712.956 131.2C712.556 131.467 712.223 132 711.956 132.8C711.69 132.8 711.423 133.133 711.156 133.8L708.356 136.8ZM653.756 119.6C653.49 117.867 652.956 116.4 652.156 115.2C651.49 114 650.223 113.867 648.356 114.8L645.156 118.4C644.89 118.8 644.556 119.133 644.156 119.4C643.756 119.533 643.423 119.733 643.156 120C642.89 120.267 642.623 120.667 642.356 121.2C642.09 121.6 641.756 122.067 641.356 122.6L638.556 125.8C637.09 127.667 635.623 129.8 634.156 132.2C632.823 134.467 631.623 136.667 630.556 138.8C630.29 139.467 629.956 140.067 629.556 140.6C629.156 141.133 628.823 141.933 628.556 143C628.29 142.867 628.156 142.933 628.156 143.2C628.156 143.333 628.09 143.333 627.956 143.2C627.69 144.667 627.223 145.933 626.556 147C625.89 147.933 625.556 149.2 625.556 150.8C626.623 150.133 627.756 149.467 628.956 148.8C630.156 148.133 631.156 147.4 631.956 146.6C635.823 142.867 639.49 139 642.956 135C646.556 130.867 650.09 126.667 653.556 122.4C653.956 122.133 654.29 121.8 654.556 121.4C654.823 120.867 655.156 120.533 655.556 120.4V120C655.29 119.733 654.69 119.6 653.756 119.6ZM760.484 145.6C759.418 145.733 758.484 146.2 757.684 147C756.884 147.8 755.951 148.4 754.884 148.8C754.751 148.933 754.751 149.133 754.884 149.4C753.951 149.4 753.484 149.4 753.484 149.4C753.351 149.267 753.218 149.2 753.084 149.2C752.684 149.2 752.551 149.333 752.684 149.6C752.818 149.733 752.751 149.933 752.484 150.2C751.418 150.467 750.618 150.867 750.084 151.4C749.684 151.8 748.751 152 747.284 152C747.284 152.267 747.218 152.467 747.084 152.6C746.418 152.6 745.818 153 745.284 153.8C744.218 153.8 743.218 154.267 742.284 155.2C740.151 155.467 738.351 156.2 736.884 157.4C735.551 158.6 733.684 159.333 731.284 159.6C730.751 159.6 730.484 159.667 730.484 159.8C727.818 160.2 725.084 160.333 722.284 160.2C719.618 160.2 716.884 159.733 714.084 158.8C713.018 158.533 711.951 158.133 710.884 157.6C709.951 157.067 709.018 156.533 708.084 156C706.618 155.467 705.418 154.333 704.484 152.6C703.418 150.867 702.684 149.2 702.284 147.6C701.751 145.733 701.618 143.4 701.884 140.6C702.018 137.8 702.484 135.267 703.284 133C703.684 131.4 704.284 129.933 705.084 128.6C705.884 127.267 706.618 125.867 707.284 124.4C708.084 124 708.818 122.933 709.484 121.2C709.484 121.2 709.618 121.133 709.884 121C711.751 118.333 713.618 116 715.484 114C717.351 111.867 719.618 109.867 722.284 108C722.284 107.733 722.351 107.6 722.484 107.6C722.751 107.6 722.884 107.533 722.884 107.4C723.684 106.733 724.551 106.267 725.484 106C726.418 105.6 727.418 105.067 728.484 104.4C729.151 104 729.751 103.533 730.284 103C730.818 102.467 731.618 102.267 732.684 102.4C733.351 102.533 733.951 102.867 734.484 103.4C735.151 103.8 735.818 104.067 736.484 104.2C736.884 104.467 737.218 104.533 737.484 104.4C737.884 104.267 738.218 104.2 738.484 104.2C738.751 104.467 739.018 104.8 739.284 105.2C739.551 105.467 740.018 105.6 740.684 105.6C741.351 106.667 742.151 107.933 743.084 109.4C744.018 110.733 744.484 112.333 744.484 114.2C743.818 115.267 743.618 116.667 743.884 118.4C743.218 119.333 742.684 120.533 742.284 122C741.884 123.333 741.418 124.467 740.884 125.4C740.618 125.533 740.418 125.6 740.284 125.6C740.151 125.467 739.951 125.467 739.684 125.6C739.418 125.6 739.218 125.533 739.084 125.4C739.084 125.133 739.018 125 738.884 125C738.884 125.4 738.884 125.6 738.884 125.6C738.618 125.467 738.351 125.133 738.084 124.6C737.418 124.867 736.418 124.4 735.084 123.2C733.884 121.867 733.284 120.733 733.284 119.8L734.084 117.6C734.751 116.133 735.418 114.733 736.084 113.4C736.884 111.933 737.284 110.533 737.284 109.2C734.084 110 731.618 111.467 729.884 113.6C728.284 115.733 726.284 117.8 723.884 119.8C723.884 120.067 723.818 120.2 723.684 120.2C723.684 120.2 723.684 120.333 723.684 120.6C720.884 123 718.684 125.867 717.084 129.2C715.484 132.533 713.951 135.933 712.484 139.4C712.351 140.467 712.218 141.667 712.084 143C711.951 144.2 711.884 145.4 711.884 146.6C712.018 147.533 712.351 148.8 712.884 150.4C713.418 152 714.418 152.933 715.884 153.2C719.084 154.267 721.884 154.333 724.284 153.4C726.818 152.333 729.418 151.467 732.084 150.8C736.218 148.933 740.084 147.267 743.684 145.8C747.284 144.2 750.818 142.267 754.284 140H754.884C756.751 138.667 758.551 137.4 760.284 136.2C762.151 135 764.018 133.667 765.884 132.2C767.618 131.533 769.084 130.533 770.284 129.2C771.484 127.867 773.018 126.867 774.884 126.2C775.018 125.533 775.351 125.067 775.884 124.8C776.018 124.533 776.018 124.4 775.884 124.4C775.884 124.4 775.951 124.333 776.084 124.2L776.684 124.4V124.2V123.8C777.351 123.8 777.751 123.533 777.884 123C778.151 122.333 778.484 121.867 778.884 121.6L779.084 121.8C779.351 121.4 779.684 121 780.084 120.6C780.484 120.2 781.084 119.867 781.884 119.6C781.351 120.133 781.351 120.533 781.884 120.8C782.551 120.933 782.618 121.133 782.084 121.4C782.351 121.267 782.551 121.333 782.684 121.6C782.818 121.733 783.084 121.8 783.484 121.8L783.284 122C783.284 122 783.418 122 783.684 122C783.818 122.133 783.818 122.333 783.684 122.6C783.684 122.733 783.884 122.8 784.284 122.8C784.018 123.2 783.884 123.667 783.884 124.2C784.018 124.6 784.084 124.867 784.084 125C784.084 125.133 784.018 125.2 783.884 125.2C783.751 125.2 783.618 125.267 783.484 125.4V127.4C783.218 127.8 783.018 128 782.884 128C782.884 127.867 782.818 127.933 782.684 128.2V128.4C782.151 128.267 782.151 128.2 782.684 128.2C782.018 127.933 781.884 128.067 782.284 128.6C781.618 128.467 781.151 128.667 780.884 129.2C780.618 129.6 780.218 129.933 779.684 130.2C779.684 129.533 779.884 129.067 780.284 128.8C780.684 128.533 780.884 128.267 780.884 128C780.218 128.267 779.751 128.733 779.484 129.4C779.351 129.933 778.951 130.4 778.284 130.8C778.284 130.8 778.418 130.667 778.684 130.4C777.884 130.4 777.284 130.6 776.884 131C776.618 131.267 776.351 131.533 776.084 131.8C776.084 132.067 776.084 132.2 776.084 132.2C776.218 132.067 776.284 132.133 776.284 132.4H776.084C775.684 132.267 775.484 131.933 775.484 131.4C775.218 131.8 774.884 132.4 774.484 133.2C774.218 133.867 773.884 134.333 773.484 134.6C773.218 134.467 773.018 134.467 772.884 134.6C772.751 134.6 772.618 134.6 772.484 134.6C772.484 134.867 772.418 135.067 772.284 135.2C772.151 135.333 772.018 135.533 771.884 135.8L771.684 135.6C771.684 135.6 771.684 135.733 771.684 136V136.2C771.551 136.067 771.018 136.4 770.084 137.2C769.284 137.867 768.751 138.333 768.484 138.6C768.351 139 768.284 139.333 768.284 139.6C768.418 139.867 768.418 140.067 768.284 140.2C768.018 140.067 767.751 140.2 767.484 140.6C767.218 140.867 766.951 141.133 766.684 141.4C766.418 141.133 766.418 140.933 766.684 140.8C767.084 140.667 767.284 140.467 767.284 140.2C767.284 140.067 767.084 140 766.684 140C765.751 140.533 765.018 141.133 764.484 141.8C763.951 142.467 763.351 143.333 762.684 144.4C762.018 144.533 761.484 144.8 761.084 145.2C760.818 145.467 760.551 145.733 760.284 146C760.151 145.867 760.151 145.8 760.284 145.8C760.418 145.8 760.484 145.733 760.484 145.6ZM781.884 122.8C782.151 122.933 782.351 122.933 782.484 122.8C782.751 122.667 782.818 122.467 782.684 122.2C782.151 122.467 781.884 122.667 781.884 122.8ZM780.684 127.8C781.084 127.533 781.418 127.2 781.684 126.8C781.418 127.067 781.218 127.267 781.084 127.4C780.951 127.4 780.818 127.533 780.684 127.8ZM783.084 123.6H783.284C783.684 123.2 783.618 123 783.084 123V123.6ZM836.691 135.2C836.691 135.467 836.557 135.667 836.291 135.8C836.157 135.933 836.224 136 836.491 136C835.824 136.933 834.757 138.2 833.291 139.8C831.957 141.267 831.091 142.4 830.691 143.2C830.424 143.2 829.891 143.333 829.091 143.6C829.357 143.2 829.757 142.8 830.291 142.4C830.957 142 831.491 141.667 831.891 141.4C831.891 141.133 832.024 140.733 832.291 140.2C832.557 139.533 832.824 138.933 833.091 138.4C832.824 138.533 832.491 139 832.091 139.8C831.691 140.6 831.357 141.133 831.091 141.4C830.291 142.2 829.491 142.8 828.691 143.2C827.891 143.467 827.157 144.133 826.491 145.2C825.157 145.733 824.024 146.733 823.091 148.2C822.291 149.667 821.157 150.533 819.691 150.8C819.557 151.2 819.424 151.467 819.291 151.6C819.157 151.6 818.957 151.733 818.691 152C818.557 151.733 818.491 151.533 818.491 151.4C818.624 151.133 818.624 151 818.491 151L816.691 152.6C816.024 152.867 815.424 153.267 814.891 153.8C814.491 154.2 813.957 154.4 813.291 154.4C813.291 154.4 813.357 154.333 813.491 154.2C812.957 154.467 812.624 154.733 812.491 155C812.357 155.133 812.224 155.267 812.091 155.4C812.091 155.533 812.024 155.733 811.891 156C811.757 156.133 811.424 156.267 810.891 156.4C810.624 156.4 810.491 156.333 810.491 156.2C809.957 156.333 809.424 156.6 808.891 157C808.491 157.533 807.957 157.8 807.291 157.8C807.291 157.533 807.424 157.4 807.691 157.4C806.891 157.267 806.357 157.467 806.091 158C806.091 158 805.957 158 805.691 158L800.491 160.8C799.424 161.2 798.224 161.6 796.891 162C795.557 162.4 794.357 162.667 793.291 162.8C791.291 163.733 789.157 163.933 786.891 163.4C784.624 163 782.357 162.267 780.091 161.2C778.491 160.267 777.091 159.533 775.891 159C774.691 158.467 773.757 157.8 773.091 157C772.424 156.333 771.957 155.533 771.691 154.6C771.424 153.533 771.291 152.067 771.291 150.2C771.291 149.933 771.357 149.8 771.491 149.8C771.624 149.667 771.691 149.467 771.691 149.2C771.557 146.933 771.824 144.267 772.491 141.2C773.157 138.133 773.824 135.267 774.491 132.6C774.757 131.933 774.891 131.333 774.891 130.8C774.891 130.267 775.091 129.733 775.491 129.2C776.157 126.4 777.024 123.533 778.091 120.6C779.157 117.533 780.291 114.6 781.491 111.8C781.757 111.133 781.891 110.8 781.891 110.8C781.891 110.667 781.824 110.6 781.691 110.6L782.491 109.2C783.557 107.067 784.824 104.467 786.291 101.4C787.891 98.3333 789.024 95.6 789.691 93.2C789.157 93.6 788.957 93.7333 789.091 93.6C789.224 93.3333 788.957 93.2 788.291 93.2C787.357 93.4667 786.424 93.8 785.491 94.2C784.691 94.4667 783.824 94.6 782.891 94.6C781.824 94.8667 780.891 95.1333 780.091 95.4C779.291 95.6667 778.424 95.8667 777.491 96C775.891 96.2667 774.891 96.4 774.491 96.4C774.091 96.4 773.824 96.4 773.691 96.4C773.691 96.4 773.491 96.4667 773.091 96.6C772.824 96.7333 771.891 97 770.291 97.4C769.491 97.1333 768.557 97.2667 767.491 97.8C766.291 98.3333 765.157 98.5333 764.091 98.4C763.824 98.2667 763.691 98.2 763.691 98.2C763.557 98.0667 763.357 98 763.091 98C762.024 98.4 761.224 98.4667 760.691 98.2C760.024 97.8 759.491 97.2667 759.091 96.6C759.357 95.8 759.224 95.0667 758.691 94.4C758.157 93.7333 757.891 93.0667 757.891 92.4L758.691 93C761.491 92.4667 763.891 91.8667 765.891 91.2C767.891 90.4 770.091 89.6 772.491 88.8C774.891 88 777.757 87.2 781.091 86.4C784.424 85.6 788.824 84.8667 794.291 84.2C796.957 78.7333 799.691 73.7333 802.491 69.2C805.291 64.6667 808.224 60 811.291 55.2V54.2C811.557 53.9333 811.824 53.9333 812.091 54.2C812.491 54.3333 812.824 54.2667 813.091 54C812.957 54.4 813.024 54.6667 813.291 54.8C813.691 54.8 813.891 54.9333 813.891 55.2C814.557 55.3333 815.357 55.6 816.291 56C817.224 56.4 818.091 56.9333 818.891 57.6C819.691 58.2667 820.291 59 820.691 59.8C821.091 60.4667 821.091 61.2 820.691 62L818.891 63.4C818.757 63.6667 818.691 63.9333 818.691 64.2C818.291 65.4 817.624 66.5333 816.691 67.6C815.891 68.5333 815.224 69.5333 814.691 70.6C814.024 71.6667 813.491 72.6 813.091 73.4C812.824 74.2 812.357 75.2 811.691 76.4C811.024 77.7333 810.291 78.7333 809.491 79.4C808.691 79.9333 808.157 80.9333 807.891 82.4C810.157 82.1333 812.291 81.9333 814.291 81.8C816.291 81.6667 818.424 81.6 820.691 81.6C822.824 81.0667 824.691 80.8 826.291 80.8C827.891 80.8 828.891 80.8 829.291 80.8C829.957 80.8 830.357 80.8 830.491 80.8C830.757 80.8 830.891 80.8 830.891 80.8C831.024 80.8 831.157 80.8 831.291 80.8C831.424 80.8 831.757 80.7333 832.291 80.6C833.491 80.8667 834.624 80.8 835.691 80.4C836.891 80 838.157 80 839.491 80.4C839.891 80.4 840.291 80.4667 840.691 80.6C841.224 80.7333 841.757 80.7333 842.291 80.6C842.157 80.7333 842.224 80.7333 842.491 80.6C842.757 80.4667 843.024 80.4 843.291 80.4L843.091 80.6C843.891 80.8667 844.491 80.8667 844.891 80.6C844.491 80.3333 844.224 80.2 844.091 80.2C844.091 80.0667 844.624 80.2 845.691 80.6C846.757 80.6 848.091 80.7333 849.691 81C851.291 81.1333 852.624 81.8 853.691 83C853.824 83.1333 853.824 83.4 853.691 83.8C853.691 84.0667 853.757 84.3333 853.891 84.6C853.757 84.7333 853.624 84.8 853.491 84.8C853.357 84.8 853.291 84.9333 853.291 85.2C853.424 85.3333 853.491 85.4667 853.491 85.6C853.624 85.6 853.891 85.6667 854.291 85.8C854.024 86.0667 853.624 86.2 853.091 86.2C853.224 86.7333 853.624 87.2 854.291 87.6C854.024 87.8667 853.691 88 853.291 88C853.024 88 852.824 88.1333 852.691 88.4C852.424 88.4 852.157 88.3333 851.891 88.2C850.957 88.3333 850.091 88.3333 849.291 88.2C848.624 88.0667 847.757 88.2667 846.691 88.8C846.024 88.4 845.624 88.2667 845.491 88.4C845.357 88.5333 845.091 88.5333 844.691 88.4C844.691 88.1333 844.757 88.0667 844.891 88.2C845.024 88.2 845.091 88.0667 845.091 87.8C844.557 87.8 844.224 87.9333 844.091 88.2C843.957 88.3333 843.824 88.4667 843.691 88.6C843.691 88.7333 843.624 88.8 843.491 88.8C843.357 88.6667 843.091 88.4 842.691 88C842.157 88.2667 841.891 88.4 841.891 88.4L841.691 88.6H841.491C841.224 88.6 841.091 88.6 841.091 88.6C841.224 88.4667 841.224 88.3333 841.091 88.2C840.691 88.4667 840.491 88.6667 840.491 88.8C840.224 88.2667 839.691 88.2 838.891 88.6C838.224 88.8667 838.091 88.6667 838.491 88C838.224 88 838.024 88.2667 837.891 88.8C837.891 89.2 837.557 89.2 836.891 88.8C837.157 88.2667 837.291 88.0667 837.291 88.2C837.424 88.2 837.491 88.0667 837.491 87.8C837.357 87.8 837.157 87.8667 836.891 88C836.624 88.1333 836.424 88.4 836.291 88.8C836.291 88.8 836.291 88.6 836.291 88.2C835.757 88.2 835.491 88.4667 835.491 89C835.491 89 835.491 88.8 835.491 88.4C835.091 88.1333 834.824 88.0667 834.691 88.2C834.557 88.3333 834.291 88.4 833.891 88.4C833.624 88.1333 833.624 88.0667 833.891 88.2C834.157 88.2 834.424 88.0667 834.691 87.8C834.424 87.8 834.091 87.8 833.691 87.8C833.291 87.8 833.024 87.9333 832.891 88.2C832.091 87.6667 831.424 87.6667 830.891 88.2C831.024 88.4667 831.224 88.4667 831.491 88.2C831.891 87.9333 832.157 87.9333 832.291 88.2C832.157 88.3333 831.891 88.4667 831.491 88.6C831.091 88.7333 830.691 88.8667 830.291 89C830.024 89 829.824 89 829.691 89C829.557 88.8667 829.624 88.6667 829.891 88.4H829.091V88.2C828.957 88.2 828.891 88.2667 828.891 88.4V88.2C828.757 88.2 828.624 88.1333 828.491 88C828.491 87.8667 828.424 87.9333 828.291 88.2C828.424 88.2 828.491 88.2667 828.491 88.4C828.491 88.4 828.557 88.4 828.691 88.4C828.157 88.6667 827.891 88.9333 827.891 89.2C827.891 89.3333 827.757 89.2 827.491 88.8C827.491 88.2667 827.091 88.0667 826.291 88.2C825.491 88.2 824.757 88.3333 824.091 88.6V88.2C823.691 88.4667 823.157 88.7333 822.491 89C821.957 89.2667 821.424 89.1333 820.891 88.6C821.157 88.4667 821.357 88.4 821.491 88.4C821.624 88.4 821.757 88.3333 821.891 88.2C821.891 87.9333 821.824 87.8 821.691 87.8C821.557 87.8 821.491 87.7333 821.491 87.6C821.224 87.6 821.024 87.6667 820.891 87.8C820.757 87.9333 820.557 88.0667 820.291 88.2C820.157 88.2 820.091 88.0667 820.091 87.8C820.091 87.6667 820.157 87.6 820.291 87.6C819.624 87.6 819.357 87.5333 819.491 87.4C819.224 87.4 819.091 87.6667 819.091 88.2C819.091 88.7333 818.957 89.1333 818.691 89.4C818.024 89.4 817.424 89.4667 816.891 89.6C816.491 89.6 815.824 89.6 814.891 89.6C814.891 89.3333 814.957 89.2667 815.091 89.4C815.357 89.4 815.491 89.2667 815.491 89C815.357 89 815.291 89 815.291 89C815.291 88.8667 815.224 88.8 815.091 88.8H814.891C814.624 88.8 814.357 88.8667 814.091 89C813.824 89 813.557 89 813.291 89C813.024 89.6667 812.624 89.9333 812.091 89.8C811.691 89.5333 811.357 89.5333 811.091 89.8V89.6C810.691 89.6 810.424 89.7333 810.291 90C810.691 90.1333 810.957 90.0667 811.091 89.8C811.224 90.0667 811.291 90.1333 811.291 90C811.424 89.8667 811.491 89.9333 811.491 90.2C811.491 90.4667 811.357 90.6 811.091 90.6C810.957 90.6 810.757 90.7333 810.491 91C810.091 91 809.757 90.9333 809.491 90.8C809.224 90.5333 808.891 90.5333 808.491 90.8C807.824 90.8 807.024 90.8667 806.091 91C805.291 91.1333 804.557 91.2667 803.891 91.4C803.357 91.6667 803.024 92 802.891 92.4C802.757 92.6667 802.557 93.0667 802.291 93.6C801.357 96 800.024 98.8667 798.291 102.2C796.557 105.533 795.157 108.667 794.091 111.6C793.691 112.8 793.357 113.667 793.091 114.2C792.957 114.733 792.757 115.2 792.491 115.6C792.357 115.867 792.157 116.267 791.891 116.8C791.757 117.333 791.491 118.267 791.091 119.6C789.624 122 788.491 125 787.691 128.6C786.891 132.067 786.157 135.6 785.491 139.2C785.224 140.4 784.891 141.6 784.491 142.8C784.091 144 783.824 145.267 783.691 146.6C783.557 148.6 783.157 150.467 782.491 152.2C781.957 153.8 782.224 155.533 783.291 157.4C783.557 157.533 783.624 157.533 783.491 157.4C783.357 157.4 783.557 157.4 784.091 157.4C785.157 157.4 786.491 157.267 788.091 157C789.691 156.6 791.091 156.133 792.291 155.6C793.757 155.2 795.224 154.733 796.691 154.2C798.291 153.533 799.757 153 801.091 152.6C801.357 152.333 801.491 152.267 801.491 152.4C801.624 152.4 801.691 152.267 801.691 152C802.091 151.867 802.491 151.8 802.891 151.8C803.291 151.667 803.557 151.333 803.691 150.8C804.491 150.533 805.091 150.333 805.491 150.2C806.024 149.933 806.424 149.667 806.691 149.4C807.091 149.133 807.491 148.933 807.891 148.8C808.291 148.533 808.891 148.267 809.691 148V147.2C810.224 147.6 811.024 147.2 812.091 146C812.224 146 812.357 146.067 812.491 146.2C813.691 145.4 815.024 144.533 816.491 143.6C818.091 142.667 819.557 141.733 820.891 140.8C821.557 140.667 822.624 140 824.091 138.8C825.557 137.6 827.024 136.267 828.491 134.8C830.091 133.333 831.491 132 832.691 130.8C833.891 129.467 834.624 128.667 834.891 128.4C835.024 128.533 835.157 128.6 835.291 128.6C835.424 127.8 835.491 127.333 835.491 127.2C835.624 127.067 835.691 127 835.691 127C835.824 127 835.891 127 835.891 127C836.024 126.867 836.291 126.533 836.691 126C836.691 125.6 836.757 125.4 836.891 125.4C837.291 125.133 837.557 124.933 837.691 124.8C837.824 124.667 838.024 124.4 838.291 124C839.091 124.133 839.624 123.667 839.891 122.6C840.824 122.867 841.424 123.2 841.691 123.6C842.091 123.867 842.424 123.867 842.691 123.6C842.691 123.867 842.824 124.067 843.091 124.2C843.357 124.2 843.624 124.2 843.891 124.2C843.891 124.467 843.824 124.6 843.691 124.6C843.691 124.6 843.691 124.667 843.691 124.8C843.957 124.933 843.757 125.133 843.091 125.4C842.557 125.667 842.624 125.867 843.291 126C843.291 126.267 843.157 126.667 842.891 127.2C843.024 127.2 843.224 127.4 843.491 127.8C843.224 127.8 842.091 129.333 840.091 132.4H840.291C840.157 132.533 840.024 132.6 839.891 132.6C839.357 133.133 839.091 133.333 839.091 133.2L837.891 134.2V133.8C837.624 134.067 837.491 134.333 837.491 134.6C837.491 134.733 837.357 134.867 837.091 135C836.957 135.133 836.891 135.333 836.891 135.6V135.4C836.891 135.267 836.824 135.2 836.691 135.2ZM840.491 131C840.357 131 840.491 130.8 840.891 130.4V130.2L840.491 130.4C840.224 130.8 839.891 131.2 839.491 131.6C839.224 131.867 838.957 132.133 838.691 132.4V131.8C838.157 132.6 837.957 133.267 838.091 133.8L838.491 133.4H838.291L838.491 132.6C838.757 132.6 838.957 132.667 839.091 132.8C839.091 132.4 839.357 132.067 839.891 131.8L840.491 130.8V131ZM823.091 147.4C823.491 147 823.824 146.667 824.091 146.4C824.491 146.133 824.824 145.733 825.091 145.2C824.691 145.467 824.157 145.8 823.491 146.2C822.957 146.6 822.824 147 823.091 147.4ZM827.891 145.6C828.291 144.933 828.691 144.533 829.091 144.4C829.624 144.133 830.157 143.8 830.691 143.4V143.6C830.157 143.867 829.624 144.2 829.091 144.6C828.691 145 828.291 145.333 827.891 145.6ZM841.891 85.6C841.624 85.8667 841.291 85.9333 840.891 85.8C840.624 85.5333 840.357 85.5333 840.091 85.8C840.357 85.9333 840.757 86.0667 841.291 86.2C841.824 86.2 842.024 86 841.891 85.6ZM832.091 141.4C831.957 140.733 832.224 140.133 832.891 139.6C833.557 139.067 833.891 138.667 833.891 138.4C834.157 138.667 833.957 139.2 833.291 140C832.757 140.667 832.357 141.133 832.091 141.4ZM825.891 144C826.424 144.133 826.757 144.067 826.891 143.8C827.024 143.533 827.224 143.267 827.491 143C827.491 142.467 827.557 142.133 827.691 142C827.424 142 827.291 142.2 827.291 142.6C827.291 142.6 827.357 142.733 827.491 143C827.224 143.133 826.957 143.333 826.691 143.6C826.424 143.733 826.157 143.867 825.891 144ZM808.491 89.8C808.757 90.0667 808.957 90.1333 809.091 90C809.224 89.8667 809.357 89.8 809.491 89.8C809.491 89.6667 809.557 89.6 809.691 89.6C809.824 89.4667 809.757 89.2667 809.491 89C809.491 89.2667 809.357 89.4667 809.091 89.6C808.824 89.6 808.624 89.6667 808.491 89.8ZM825.891 144.8C826.024 145.067 826.224 145.133 826.491 145C826.891 144.733 826.957 144.467 826.691 144.2C826.557 144.467 826.357 144.6 826.091 144.6C825.957 144.467 825.891 144.533 825.891 144.8ZM825.691 141.8C825.957 141.933 826.224 141.867 826.491 141.6C826.757 141.333 826.824 141.067 826.691 140.8C826.424 141.067 826.224 141.267 826.091 141.4C826.091 141.533 825.957 141.667 825.691 141.8ZM828.891 88.6C828.757 88.6 828.691 88.5333 828.691 88.4H828.891C829.024 88.4 829.091 88.4 829.091 88.4C829.357 88.8 829.357 89 829.091 89C828.957 88.8667 828.891 88.7333 828.891 88.6ZM807.891 90C807.891 89.8667 807.957 89.8 808.091 89.8C808.224 89.8 808.291 89.7333 808.291 89.6C807.757 89.3333 807.624 89.4667 807.891 90ZM824.291 89C823.757 89.1333 823.491 89.2 823.491 89.2C823.624 89.0667 823.824 88.8667 824.091 88.6C824.091 88.8667 824.157 89 824.291 89ZM838.891 133C838.624 132.867 838.491 132.933 838.491 133.2C838.624 133.333 838.624 133.4 838.491 133.4L838.891 133ZM814.891 88.8C814.891 89.0667 814.757 89.2 814.491 89.2C814.757 88.9333 814.891 88.8 814.891 88.8ZM840.491 131.4C840.757 131.133 840.891 130.933 840.891 130.8L840.491 131.2V131.4ZM828.291 141.8C828.424 141.933 828.491 141.8 828.491 141.4C828.491 141.533 828.424 141.667 828.291 141.8ZM814.491 89.4C814.224 89.2667 814.224 89.2 814.491 89.2V89.4ZM830.891 143.2C830.757 143.333 830.691 143.4 830.691 143.4V143.2H830.891ZM840.491 131.4C840.491 131.533 840.424 131.6 840.291 131.6C840.424 131.6 840.491 131.533 840.491 131.4ZM836.491 136L836.691 135.8L836.491 136Z" fill="black"/>
<path d="M97.2 21C97.7333 21.2667 98.2667 21.6 98.8 22C99.4667 22.2667 100.2 22.4 101 22.4C101.4 23.0667 101.867 23.8 102.4 24.6C103.067 25.4 103.733 26.1333 104.4 26.8C106.533 27.0667 108.267 27.8667 109.6 29.2C110.933 30.5333 111.733 32.2667 112 34.4C112 36.9333 111.6 39.4667 110.8 42C109.733 47.0667 108.133 51.6667 106 55.8C103.867 59.9333 101.733 64.2 99.6 68.6C99.3333 69.1333 99.0667 69.6667 98.8 70.2C98.6667 70.6 98.4667 71.0667 98.2 71.6L97.2 73C96.1333 74.2 95.1333 75.4667 94.2 76.8C93.2667 78 92.1333 79.1333 90.8 80.2L89.8 81.4C88.7333 81.9333 87.9333 81.9333 87.4 81.4C85.1333 81.2667 83.6 80.4 82.8 78.8C82.1333 77.2 81.4667 75.8 80.8 74.6C80.9333 74.3333 81.0667 74 81.2 73.6C81.3333 73.0667 81.2667 72.6667 81 72.4C81.1333 71.6 81.4 71 81.8 70.6C82.3333 70.2 82.7333 69.8 83 69.4C84.8667 67.2667 86.4667 65 87.8 62.6C89.1333 60.0667 90.6 57.6667 92.2 55.4C93.6667 53.2667 95 50.9333 96.2 48.4C97.4 45.8667 98.4667 43.1333 99.4 40.2C99.5333 39.6667 99.6667 39.2 99.8 38.8C99.9333 38.2667 100 37.8667 100 37.6C100 37.3333 99.9333 37.1333 99.8 37C99.8 36.8667 99.8 36.7333 99.8 36.6C99.9333 36.3333 100.067 36.1333 100.2 36C100.467 35.7333 100.533 35.4 100.4 35C98.1333 35.1333 96 35.6 94 36.4C92 37.2 90.1333 38.1333 88.4 39.2C86.8 40.2667 85.1333 41.3333 83.4 42.4C81.8 43.4667 80.4667 44.8 79.4 46.4C77.9333 47.2 76.6 48.2 75.4 49.4C74.2 50.6 72.9333 51.7333 71.6 52.8C70.6667 53.3333 69.8667 53.9333 69.2 54.6C68.6667 55.1333 68.1333 55.7333 67.6 56.4C64.5333 59.0667 61.5333 61.9333 58.6 65C55.6667 67.9333 52.9333 71.1333 50.4 74.6C48.4 75.8 46.8 77.4 45.6 79.4C44.5333 81.4 43.0667 83.0667 41.2 84.4C40.4 85.8667 39.4 87.3333 38.2 88.8C37.1333 90.1333 36 91.6 34.8 93.2L33 96.8C32.7333 97.2 32.4667 97.5333 32.2 97.8C31.9333 97.9333 31.6667 98.1333 31.4 98.4C30.8667 98.6667 30.5333 99 30.4 99.4C30.2667 99.6667 30.1333 99.9333 30 100.2C27.8667 104.333 25.5333 108.133 23 111.6L22 113.8C22 114.333 21.9333 114.8 21.8 115.2L19.8 119.2C19.2667 120.267 18.8667 121.4 18.6 122.6C18.3333 123.667 18.0667 124.667 17.8 125.6C16.3333 129.6 15.1333 133.8 14.2 138.2C13.4 141.667 12.8 145.267 12.4 149C12 152.733 12.1333 156.133 12.8 159.2C13.0667 160.267 13.2667 161.333 13.4 162.4C13.5333 163.467 13.8 164.333 14.2 165C14.6 165.667 15.0667 166.2 15.6 166.6C16.2667 167 16.9333 167.4 17.6 167.8C19.7333 169 22 170 24.4 170.8C26.9333 171.733 29.8667 172.067 33.2 171.8C37.2 171.533 41.1333 171.067 45 170.4C48.8667 169.867 52.4667 169.067 55.8 168C57.4 167.6 58.6 167.267 59.4 167C60.2 166.867 60.8667 166.667 61.4 166.4C62.0667 166.267 62.7333 166.067 63.4 165.8C64.2 165.533 65.3333 165 66.8 164.2C68.2667 163.267 69.7333 162.467 71.2 161.8C72.8 161.133 74.4667 160.333 76.2 159.4L82.4 156.2C83.0667 155.933 83.5333 155.733 83.8 155.6C84.0667 155.333 84.5333 155.067 85.2 154.8C85.4667 154.533 85.7333 154.333 86 154.2C86.4 153.933 86.8 153.667 87.2 153.4C87.4667 153.133 87.7333 153 88 153C88.4 152.867 88.7333 152.533 89 152C88.7333 151.467 88.9333 151.2 89.6 151.2C90.2667 151.067 90.6 150.667 90.6 150L91 150.6C91.6667 150.333 92.2667 150 92.8 149.6C93.4667 149.067 94.0667 148.733 94.6 148.6C94.8667 148.6 95 148.667 95 148.8C95.1333 148.8 95.2667 148.8 95.4 148.8C95.9333 148.667 96.4667 148.4 97 148C97.6667 147.6 98 147.6 98 148L101.2 146.4C101.067 146.667 101.2 146.6 101.6 146.2C102.133 145.667 102.8 145.067 103.6 144.4C104.4 143.6 105.267 142.733 106.2 141.8C107.133 140.867 108 139.933 108.8 139C108.4 138.6 108.267 138.267 108.4 138C109.2 137.733 109.8 137.333 110.2 136.8C110.6 136.267 111.067 135.733 111.6 135.2C112.4 133.867 113.4 132.733 114.6 131.8C115.8 130.867 116.733 129.667 117.4 128.2C117.4 128.067 117.4 127.933 117.4 127.8C117.533 127.667 117.6 127.533 117.6 127.4C117.733 127.8 117.867 127.867 118 127.6C118.267 127.6 118.4 127.533 118.4 127.4C118.4 127.267 118.533 127.133 118.8 127C119.2 126.867 119.6 126.6 120 126.2C120.267 126.467 120.333 126.733 120.2 127C120.067 127.267 120.133 127.467 120.4 127.6C121.067 127.867 121.4 127.733 121.4 127.2C121.667 127.6 121.733 127.867 121.6 128C121.467 128 121.467 128.333 121.6 129L121.4 130.4C121.4 131.067 121.267 131.733 121 132.4C120.867 133.067 120.8 133.733 120.8 134.4L120.6 135.8L119.8 137C119.267 137.667 118.8 138.4 118.4 139.2C118.133 139.867 117.733 140.467 117.2 141C116.933 141.267 116.667 141.533 116.4 141.8C116.133 141.933 115.867 142.2 115.6 142.6C114.933 143.267 114.2 144 113.4 144.8C112.733 145.6 112.067 146.333 111.4 147C108.6 149.267 105.667 151.533 102.6 153.8C99.5333 156.067 96.4667 158.2 93.4 160.2C92.6 161 92 161.467 91.6 161.6C91.0667 161.867 90.6 162 90.2 162C89.9333 162 89.6667 162.133 89.4 162.4H89.6H89.8C89.5333 163.2 89 163.8 88.2 164.2C87.9333 164.333 87.5333 164.4 87 164.4C86.6 164.533 86.2667 164.733 86 165C85.2 165.533 84.4 166 83.6 166.4C82.9333 166.933 82.2 167.333 81.4 167.6C80.2 168.533 78.8667 169.333 77.4 170C75.9333 170.8 74.4667 171.533 73 172.2L68 174.6C67.2 175 66.8 175.133 66.8 175C66.8 174.867 66.8667 174.733 67 174.6C67.2667 174.467 67.4 174.333 67.4 174.2C67.4 174.067 67.0667 174.2 66.4 174.6C65.0667 175.667 63.4667 176.6 61.6 177.4H59.8L58 178.2C57.0667 178.467 56.4667 178.733 56.2 179C55.5333 179.267 54.8 179.4 54 179.4C53.2 179.533 52.4 179.667 51.6 179.8L49.4 180.8C49.1333 181.067 48.8 181.2 48.4 181.2C48.1333 181.2 47.7333 181.267 47.2 181.4C46.5333 181.667 45.8667 181.867 45.2 182C44.5333 182.267 43.6667 182.533 42.6 182.8L32.6 183.2C26.8667 183.733 22.2 183.133 18.6 181.4C15 179.667 11.8667 177.333 9.2 174.4C8.53333 173.733 7.8 172.867 7 171.8C6.2 170.733 5.4 169.6 4.6 168.4C3.93333 167.333 3.33333 166.2 2.8 165C2.26667 163.8 2.06667 162.4 2.2 160.8C2.06667 160.533 1.93333 160.333 1.8 160.2C1.66667 160.2 1.53333 159.933 1.4 159.4C1.26667 157.267 1.06667 154.933 0.8 152.4C0.533333 149.733 0.466667 147.133 0.6 144.6L0.8 141.4C0.933333 140.467 1.13333 139.467 1.4 138.4C1.53333 137.333 1.73333 136.4 2 135.6C2 135.467 2.13333 135 2.4 134.2L3 129.8C3.4 127.133 4.06667 124.533 5 122C6.06667 119.467 7.13333 117 8.2 114.6C8.73333 113.8 9.06667 113 9.2 112.2C9.46667 111.267 9.93333 110.467 10.6 109.8C11.2667 108.333 11.9333 106.867 12.6 105.4C13.2667 103.8 13.9333 102.133 14.6 100.4C17.8 94.4 21.2667 88.8 25 83.6C28.7333 78.4 32.5333 73.3333 36.4 68.4C37.4667 67.3333 38.5333 66.1333 39.6 64.8C40.6667 63.4667 41.7333 62.2667 42.8 61.2C44 59.8667 45.0667 58.7333 46 57.8C47.0667 56.8667 48.1333 55.8667 49.2 54.8C51.8667 52.6667 54.3333 50.5333 56.6 48.4C58.8667 46.1333 61.2 44.0667 63.6 42.2C66 40.0667 68.4667 38 71 36C73.6667 34 76.4 32.2 79.2 30.6C79.8667 30.3333 80.4667 29.9333 81 29.4C81.6667 28.7333 82.3333 28.2667 83 28C83.6667 27.6 84.3333 27.2667 85 27C85.8 26.7333 86.6 26.4 87.4 26C88.0667 25.6 88.7333 25.1333 89.4 24.6C90.0667 24.0667 90.8 23.6667 91.6 23.4C92.2667 23 93 22.6 93.8 22.2C94.7333 21.6667 95.5333 21.2667 96.2 21H97.2ZM103.6 143.4C102.933 143.667 102.533 144.067 102.4 144.6C102.267 145.133 102 144.933 101.6 144C101.867 143.733 102.2 143.533 102.6 143.4C103 143.133 103.333 143.133 103.6 143.4ZM105.2 141.4C105.2 141.933 105.067 142.2 104.8 142.2C105.067 142.067 105.467 141.733 106 141.2C105.2 142 104.6 142.533 104.2 142.8C103.933 143.067 104.133 142.867 104.8 142.2C104.667 142.333 104.533 142.4 104.4 142.4C104.267 142.267 104.133 142.333 104 142.6C103.733 142.067 103.8 141.667 104.2 141.4C104.6 141.133 104.933 141.133 105.2 141.4ZM107 140.2C106.867 140.067 106.8 139.933 106.8 139.8C106.933 139.667 106.933 139.6 106.8 139.6C107.067 139.467 107.267 139.333 107.4 139.2C107.667 138.933 107.933 138.8 108.2 138.8L107 140.2ZM100.4 145C100.133 144.733 100 144.6 100 144.6C100.267 143.933 100.533 143.8 100.8 144.2C101.2 144.6 101.067 144.867 100.4 145ZM101 145.4C101.133 145.4 101.2 145.533 101.2 145.8C100.667 145.8 100.333 145.933 100.2 146.2C100.2 145.933 100.267 145.8 100.4 145.8C100.667 145.667 100.867 145.533 101 145.4ZM107.2 140.4C106.933 140.667 106.533 140.933 106 141.2C106.267 141.067 106.4 140.933 106.4 140.8C106.533 140.667 106.733 140.467 107 140.2C107 140.333 107.067 140.4 107.2 140.4ZM117.8 127.2C117.8 127.333 117.733 127.4 117.6 127.4C117.6 127 117.667 126.933 117.8 127.2ZM177.897 112.2C178.03 111.533 178.23 111.933 178.497 113.4C178.764 114.733 178.897 116.667 178.897 119.2C178.897 121.6 178.697 124.333 178.297 127.4C177.897 130.333 177.097 133 175.897 135.4C176.564 135.533 178.497 135.2 181.697 134.4L184.297 133.4C185.497 133.133 186.697 132.8 187.897 132.4C189.097 131.867 190.297 131.333 191.497 130.8L195.697 129.2L198.697 128C200.03 127.467 201.297 126.933 202.497 126.4C203.83 125.867 204.964 125.267 205.897 124.6L210.497 121.4L210.897 121.2C211.164 121.067 211.43 120.933 211.697 120.8C211.964 120.667 212.297 120.4 212.697 120C213.23 119.6 213.897 119.133 214.697 118.6C215.63 118.067 216.497 117.6 217.297 117.2C218.23 116.667 219.03 116.2 219.697 115.8C220.364 115.4 220.697 115.133 220.697 115L221.497 116.8C221.897 116.4 222.097 116.333 222.097 116.6C222.097 116.867 221.897 117.333 221.497 118C221.23 118.533 220.764 119.267 220.097 120.2C219.564 121 218.897 121.733 218.097 122.4L215.697 123.8C215.03 124.333 214.43 124.933 213.897 125.6C213.497 126.133 213.03 126.6 212.497 127C212.23 127.133 211.897 127.4 211.497 127.8C211.23 128.2 211.03 128.333 210.897 128.2C210.497 128.467 210.297 128.8 210.297 129.2C210.297 129.467 210.03 129.533 209.497 129.4C208.697 129.933 208.097 130.533 207.697 131.2C207.43 131.733 206.83 132.267 205.897 132.8C205.63 132.933 205.364 133.133 205.097 133.4C204.83 133.667 204.63 133.667 204.497 133.4C204.364 133.533 204.164 133.667 203.897 133.8C203.63 133.933 203.364 134.067 203.097 134.2C202.964 134.333 202.764 134.467 202.497 134.6L194.897 138.2C194.364 138.6 193.697 139 192.897 139.4C192.097 139.667 191.297 140 190.497 140.4C189.83 140.667 189.23 140.933 188.697 141.2C188.164 141.333 187.897 141.4 187.897 141.4C187.63 141.667 187.297 141.8 186.897 141.8C186.497 141.667 185.83 141.667 184.897 141.8C184.497 141.933 183.964 142.267 183.297 142.8C182.63 143.2 182.03 143.467 181.497 143.6C179.364 143.867 177.297 144.2 175.297 144.6C173.43 144.867 172.164 145.267 171.497 145.8C171.097 146.467 170.764 146.933 170.497 147.2C170.364 147.467 170.164 147.667 169.897 147.8C169.764 147.933 169.63 148.133 169.497 148.4C169.364 148.667 169.097 149.133 168.697 149.8C168.43 149.4 168.297 149.333 168.297 149.6C168.43 149.733 168.497 150 168.497 150.4C167.964 151.733 167.297 152.8 166.497 153.6C165.83 154.4 165.164 155.333 164.497 156.4C164.23 156.4 163.83 156.6 163.297 157C162.897 157.533 162.697 157.733 162.697 157.6C161.764 158.933 160.964 159.6 160.297 159.6C159.63 159.6 158.83 160.067 157.897 161C157.63 160.733 157.43 160.733 157.297 161C157.297 161.267 157.164 161.267 156.897 161C156.764 161.4 156.364 161.667 155.697 161.8C151.964 162.867 147.697 163.2 142.897 162.8L143.097 162.6C142.697 162.333 142.364 162.267 142.097 162.4C141.83 162.533 141.497 162.6 141.097 162.6C140.564 162.2 140.097 161.867 139.697 161.6C139.43 161.333 138.964 161.133 138.297 161C136.164 159.8 134.697 158 133.897 155.6C133.897 155.333 133.63 154.933 133.097 154.4C132.697 153.867 132.697 153.4 133.097 153C132.564 152.333 132.164 151.333 131.897 150C131.764 148.533 132.03 147.133 132.697 145.8C132.964 143 133.564 140.333 134.497 137.8C134.497 137.8 134.764 137.2 135.297 136C135.83 134.8 136.43 133.533 137.097 132.2C137.764 130.733 138.364 129.4 138.897 128.2C139.564 127 139.964 126.4 140.097 126.4C140.097 126.667 140.164 126.533 140.297 126C140.564 125.333 140.83 124.867 141.097 124.6C142.03 122.867 143.164 121.067 144.497 119.2C145.83 117.333 147.164 115.667 148.497 114.2C149.964 112.733 151.364 111.467 152.697 110.4C154.03 109.333 155.164 108.667 156.097 108.4L159.697 106.2C160.497 106.467 161.097 106.533 161.497 106.4C161.897 106.267 162.23 106.133 162.497 106C162.764 105.867 162.964 105.8 163.097 105.8C163.364 105.8 163.63 106.067 163.897 106.6H164.497C164.497 106.467 164.63 106.533 164.897 106.8C165.164 107.067 165.297 107 165.297 106.6C165.964 106.6 166.364 106.8 166.497 107.2C166.63 107.467 166.83 107.6 167.097 107.6C166.964 107.867 166.964 107.933 167.097 107.8C167.364 107.533 167.497 107.467 167.497 107.6C168.43 107.2 169.097 107.133 169.497 107.4C169.897 107.533 170.297 107.733 170.697 108C170.964 108.133 170.964 108.333 170.697 108.6C170.43 108.733 170.43 108.867 170.697 109C171.364 109 171.63 108.8 171.497 108.4C172.564 108.667 173.364 109.133 173.897 109.8C174.564 110.467 175.43 111.133 176.497 111.8C176.364 111.933 176.364 112.133 176.497 112.4C176.63 112.667 176.964 112.867 177.497 113H177.897L177.697 112.4L176.497 111.8C176.497 111.4 176.964 111.533 177.897 112.2ZM159.697 143.2C156.897 142.533 154.83 141.067 153.497 138.8C152.297 136.533 151.23 134.467 150.297 132.6C149.764 132.867 149.23 133.333 148.697 134C148.164 134.533 147.564 135.067 146.897 135.6L146.697 135.8C146.564 135.933 146.497 136.067 146.497 136.2C146.364 136.333 146.297 136.467 146.297 136.6V137H146.497C145.697 137.8 145.097 138.867 144.697 140.2C144.43 141 144.164 141.8 143.897 142.6C143.63 143.267 143.497 143.867 143.497 144.4C143.23 145.467 143.03 146.733 142.897 148.2C142.897 149.533 142.897 150.867 142.897 152.2C143.03 153.4 143.23 154.467 143.497 155.4C143.897 156.333 144.43 156.867 145.097 157C145.23 157 145.564 157 146.097 157C146.764 156.867 147.43 156.8 148.097 156.8C148.764 156.667 149.364 156.533 149.897 156.4C150.564 156.267 151.03 156.133 151.297 156C153.697 154.8 155.43 153.8 156.497 153C157.564 152.2 158.364 151.467 158.897 150.8C159.43 150 159.897 149.267 160.297 148.6C160.83 147.933 161.63 147.2 162.697 146.4L163.497 143.8C162.83 143.667 162.097 143.6 161.297 143.6C160.63 143.6 160.097 143.467 159.697 143.2ZM168.497 113.2C167.964 113.467 167.23 114 166.297 114.8C165.497 115.6 164.63 116.533 163.697 117.6C162.764 118.533 161.83 119.533 160.897 120.6C160.097 121.533 159.43 122.4 158.897 123.2C159.03 123.2 159.097 123.267 159.097 123.4C159.097 123.4 159.164 123.4 159.297 123.4C159.164 123.667 158.897 123.8 158.497 123.8C158.23 123.8 157.964 123.933 157.697 124.2C157.43 124.6 157.297 124.867 157.297 125C157.43 125.133 157.497 125.2 157.497 125.2C157.63 125.2 157.697 125.267 157.697 125.4C157.83 125.4 157.83 125.667 157.697 126.2C157.83 126.867 158.097 127.8 158.497 129C158.897 130.2 159.43 131.4 160.097 132.6C160.897 133.8 161.764 134.867 162.697 135.8C163.764 136.6 164.964 136.867 166.297 136.6C166.697 135.4 167.164 133.6 167.697 131.2C168.364 128.667 168.897 126.133 169.297 123.6C169.697 121.067 169.83 118.8 169.697 116.8C169.697 114.667 169.297 113.467 168.497 113.2ZM146.697 135.8C146.564 135.933 146.497 136.067 146.497 136.2V136.4C146.497 136.533 146.43 136.6 146.297 136.6C146.297 136.733 146.364 136.867 146.497 137V136.8C146.497 136.4 146.564 136.067 146.697 135.8ZM293.423 140.8C293.423 140.267 293.157 140.2 292.623 140.6C292.223 141 291.69 141.6 291.023 142.4C290.49 143.067 289.89 143.8 289.223 144.6C288.557 145.4 287.957 145.933 287.423 146.2C286.89 145.933 286.89 145.533 287.423 145C287.957 144.333 288.223 143.867 288.223 143.6C287.29 143.6 286.823 144.067 286.823 145C286.823 145.933 286.557 146.4 286.023 146.4C285.757 147.067 285.157 147.533 284.223 147.8C283.29 148.067 282.49 148.467 281.823 149C281.69 149 281.757 149 282.023 149C282.423 149 282.557 149.133 282.423 149.4C282.157 149.133 282.023 149.133 282.023 149.4C282.023 149.667 281.89 149.733 281.623 149.6V149.2C281.357 149.467 281.09 149.4 280.823 149C280.69 148.6 280.957 148.533 281.623 148.8C281.757 148.4 281.823 148 281.823 147.6C281.423 147.333 281.09 147.4 280.823 147.8C280.69 148.067 280.49 148.467 280.223 149C280.09 149.533 279.89 150.067 279.623 150.6C279.357 151 278.823 151.133 278.023 151C279.223 150.2 280.157 149.067 280.823 147.6C279.89 147.867 278.823 148.8 277.623 150.4C277.49 150 277.29 150 277.023 150.4C276.757 150.667 276.557 150.933 276.423 151.2C275.89 151.2 275.623 151.067 275.623 150.8H275.423C275.29 150.933 275.223 151.067 275.223 151.2C274.69 151.467 274.357 151.667 274.223 151.8C274.09 151.933 273.823 152.2 273.423 152.6C273.69 152.6 273.823 152.533 273.823 152.4C273.957 152.267 274.157 152.333 274.423 152.6C274.157 152.867 273.823 153.2 273.423 153.6C273.157 154 272.823 154.133 272.423 154C272.157 154 272.09 153.933 272.223 153.8C272.49 153.667 272.557 153.4 272.423 153C271.623 153.267 271.157 153.733 271.023 154.4C270.89 154.933 270.49 155.133 269.823 155C269.957 154.6 269.957 154.333 269.823 154.2C269.557 154.333 269.357 154.4 269.223 154.4C269.09 154.267 268.757 154.2 268.223 154.2C268.223 154.333 268.29 154.467 268.423 154.6C268.557 154.6 268.623 154.733 268.623 155C267.557 155.667 266.223 156 264.623 156C263.023 156 261.423 155.467 259.823 154.4C257.823 154.267 255.89 153.867 254.023 153.2C252.29 152.533 250.69 151.8 249.223 151C249.223 150.867 249.423 150.8 249.823 150.8C249.823 150.533 249.757 150.333 249.623 150.2C249.49 150.067 249.29 149.867 249.023 149.6C248.757 149.6 248.623 149.733 248.623 150C248.623 150.133 248.69 150.267 248.823 150.4C248.023 149.867 247.423 149.067 247.023 148C246.623 146.933 246.023 146.2 245.223 145.8C245.09 145.267 244.957 144.8 244.823 144.4C244.823 144 244.623 143.8 244.223 143.8C243.423 139.667 243.09 135.933 243.223 132.6C243.357 129.267 243.623 125.2 244.023 120.4C242.957 120.8 242.023 121.533 241.223 122.6C240.423 123.533 239.49 124.2 238.423 124.6C233.89 129.4 229.157 134.133 224.223 138.8C219.423 143.333 215.023 148.4 211.023 154C210.357 154.133 209.823 154.467 209.423 155C209.023 155.4 208.49 155.8 207.823 156.2C207.023 156.333 206.023 156.4 204.823 156.4C203.757 156.4 202.49 156.2 201.023 155.8C200.89 155.667 200.89 155.533 201.023 155.4C201.157 155.133 201.157 155 201.023 155C199.557 154.467 198.423 154.133 197.623 154C196.823 153.733 196.423 152.667 196.423 150.8C196.423 150.133 196.557 149.533 196.823 149C196.957 148.333 196.957 147.667 196.823 147C196.823 146.6 196.957 146.4 197.223 146.4C197.49 146.267 197.623 146.067 197.623 145.8C199.357 138.6 201.557 132 204.223 126C206.89 119.867 209.29 113.733 211.423 107.6C212.09 108.133 213.023 108.067 214.223 107.4C215.29 107.8 216.157 108.067 216.823 108.2C217.49 108.333 218.623 108.733 220.223 109.4C220.357 109.667 220.557 109.933 220.823 110.2C221.223 110.467 221.557 110.733 221.823 111C221.69 113.8 221.09 116.4 220.023 118.8C218.957 121.067 217.89 123.467 216.823 126C216.157 127.733 215.357 129.733 214.423 132C213.623 134.267 212.89 136.333 212.223 138.2C212.223 138.867 212.09 139.333 211.823 139.6C211.69 139.733 211.557 140 211.423 140.4C213.157 138.533 214.89 136.467 216.623 134.2C218.49 131.8 220.223 129.6 221.823 127.6C223.69 126.4 225.423 125 227.023 123.4C228.757 121.8 230.557 120.333 232.423 119C234.29 117.533 236.157 116.2 238.023 115C240.023 113.8 241.823 112.533 243.423 111.2C244.357 111.2 245.157 110.933 245.823 110.4C246.623 109.733 247.49 109.333 248.423 109.2C249.49 109.2 250.49 109.533 251.423 110.2C252.357 110.733 253.557 111 255.023 111V111.4C255.69 111.267 256.09 111.533 256.223 112.2C256.357 112.867 256.623 113.533 257.023 114.2C256.89 115.4 256.757 117 256.623 119C256.49 121 256.09 122.6 255.423 123.8C255.823 123.533 255.757 123.933 255.223 125C254.69 125.933 254.623 126.6 255.023 127C254.357 132.733 254.357 137.2 255.023 140.4C255.69 143.6 256.557 145.6 257.623 146.4C259.357 146.667 260.823 146.867 262.023 147C263.223 147 264.29 146.933 265.223 146.8C266.29 146.533 267.357 146.2 268.423 145.8C269.49 145.267 270.757 144.533 272.223 143.6C272.49 143.333 272.69 143.133 272.823 143C273.09 142.733 273.49 142.733 274.023 143C275.357 142.733 276.423 142.2 277.223 141.4C278.023 140.6 278.957 140.467 280.023 141C280.29 140.733 280.423 140.533 280.423 140.4C280.423 140.133 280.49 139.867 280.623 139.6C280.89 139.733 280.957 139.867 280.823 140C280.69 140 280.757 140.067 281.023 140.2C281.157 140.067 281.223 139.733 281.223 139.2C281.623 139.467 282.023 139.533 282.423 139.4C282.957 139.133 283.223 138.733 283.223 138.2C283.757 138.067 284.157 137.8 284.423 137.4C284.69 137 284.957 136.667 285.223 136.4C284.957 136.667 284.757 136.867 284.623 137C284.623 137.133 284.557 137.467 284.423 138C285.49 137.467 286.023 137 286.023 136.6C286.023 136.2 286.357 135.667 287.023 135C287.823 134.6 288.623 134.133 289.423 133.6C290.357 133.067 291.223 132.467 292.023 131.8C292.69 131.4 293.29 131 293.823 130.6C294.357 130.067 294.957 129.667 295.623 129.4C295.89 129.133 296.157 128.8 296.423 128.4C296.823 127.867 297.357 127.667 298.023 127.8C298.423 127.533 298.757 127.4 299.023 127.4C299.29 127.4 299.423 127.2 299.423 126.8C299.557 126.4 299.623 126.133 299.623 126C300.157 126 301.023 125.733 302.223 125.2C303.557 124.667 304.423 124.067 304.823 123.4C304.957 123.4 305.023 123.133 305.023 122.6C305.29 122.6 305.423 122.667 305.423 122.8C305.423 122.933 305.557 123 305.823 123C306.09 122.733 306.09 122.6 305.823 122.6C305.557 122.6 305.49 122.4 305.623 122C305.89 122.267 306.023 122.333 306.023 122.2C306.023 121.933 306.023 121.667 306.023 121.4C306.29 121.267 306.423 121.333 306.423 121.6C306.423 121.867 306.49 121.933 306.623 121.8C306.623 121.933 306.557 122 306.423 122C306.29 122 306.223 122.133 306.223 122.4C306.757 122.133 307.29 122.6 307.823 123.8C308.357 124.867 308.09 126.067 307.023 127.4C306.89 127.4 306.89 127.467 307.023 127.6C307.157 127.6 307.09 127.667 306.823 127.8C306.823 128.333 306.423 129.067 305.623 130C304.823 130.8 304.357 131.333 304.223 131.6L293.423 140.8ZM299.023 133.4C299.023 133.8 298.89 133.933 298.623 133.8C298.357 133.667 298.09 133.933 297.823 134.6C298.89 134.333 299.29 133.933 299.023 133.4ZM291.023 138C291.29 138.133 291.623 138 292.023 137.6L292.423 137.2C291.757 137.2 291.29 137.467 291.023 138ZM273.223 152.6C272.957 152.6 272.757 152.8 272.623 153.2C272.623 153.467 272.823 153.6 273.223 153.6V152.6ZM275.623 151.8C275.223 152.067 275.157 151.933 275.423 151.4C275.423 151.4 275.49 151.533 275.623 151.8ZM275.423 151V151.2H275.223C275.357 151.2 275.357 151.2 275.223 151.2C275.223 151.067 275.29 151 275.423 151ZM281.823 149C281.69 149.133 281.623 149.2 281.623 149.2C281.757 149.2 281.823 149.133 281.823 149Z" fill="black"/>
<path d="M398.065 112.999C393.695 120.101 409.747 121.879 412.341 114.097" stroke="black" stroke-width="12" stroke-linecap="round"/>
<path d="M370 101.001C372.5 77.001 456.5 59.001 482 103.001" stroke="black" stroke-width="12" stroke-linecap="round"/>
<path d="M414 134.744C419.793 146.662 453.28 139.778 459.922 127.283" stroke="black" stroke-width="12" stroke-linecap="round"/>
<path d="M371.5 96.2253C382.5 36.2255 479 50.2266 479 103.36" stroke="#00D959" stroke-width="6" stroke-linecap="round"/>
<path d="M434.468 113.352C434.826 114.604 438.08 119.607 444.492 119.039C448.516 118.682 452.424 113.548 452.424 113.548" stroke="black" stroke-width="12" stroke-linecap="round"/>
<path d="M452.5 29.5028C437 24.5028 444.088 33.5688 450.5 33.0005C453.684 32.7184 457.623 10.5018 459.5 7.00154C461.377 3.50126 459.5 10.0013 466.5 14.5013" stroke="black" stroke-width="12" stroke-linecap="round"/>
<path d="M484.836 68.0113C473.913 55.9311 475.518 67.3263 481.355 70.0404C484.254 71.3878 498.774 54.1174 502.149 52.0246C505.525 49.9317 500.649 54.6225 504.461 62.0196" stroke="black" stroke-width="12" stroke-linecap="round"/>
<path d="M488.709 106.048C488.224 104.855 483.029 106.688 482.355 107.133C480.398 108.426 480.756 111.621 481.828 113.492C482.312 114.336 487.163 115.362 486.264 115.697C482.218 117.205 483.794 120.049 484.927 123.815C485.475 125.64 487.128 125.899 488.56 126.923C489.244 127.413 489.859 127.973 490.64 128.312C490.737 128.354 491.819 128.537 491.505 128.792C489.867 130.117 488.818 130.837 490.052 133.026C490.651 134.086 492.401 137.701 493.673 138.036C494.541 138.264 493.814 140.172 494.704 141.176" stroke="black" stroke-width="12" stroke-linecap="round"/>
<path d="M495.912 105.826C498.255 107.235 500.252 108.478 501.337 111.017C501.978 112.52 502.217 114.154 502.838 115.646C503.163 116.428 503.907 116.851 504.208 117.747C505.609 121.917 506.89 126.075 508.034 130.343C509.896 137.292 509.177 142.951 505.744 148.897" stroke="black" stroke-width="12" stroke-linecap="round"/>
<path d="M358.472 101.163C358.685 99.4627 365.995 100.03 367.014 100.37C369.975 101.357 370.615 105.588 369.881 108.362C369.55 109.614 363.668 112.603 364.939 112.724C370.659 113.269 369.612 117.469 369.454 122.699C369.377 125.234 367.342 126.136 365.854 127.946C365.143 128.811 364.546 129.742 363.658 130.447C363.548 130.534 362.22 131.144 362.713 131.362C365.274 132.501 366.87 133.066 366.037 136.304C365.634 137.873 364.629 143.122 363.109 143.991C362.072 144.584 363.664 146.785 362.865 148.384" stroke="black" stroke-width="12" stroke-linecap="round"/>
<path d="M349.138 103.359C346.611 105.977 344.472 108.263 343.952 111.901C343.645 114.053 343.901 116.236 343.617 118.367C343.468 119.485 342.658 120.285 342.58 121.54C342.214 127.383 342 133.169 342 139.049C342 148.622 344.873 155.649 351.334 162.111" stroke="black" stroke-width="12" stroke-linecap="round"/>
</svg>
