<svg width="39" height="24" viewBox="0 0 39 24" fill="none" xmlns="http://www.w3.org/2000/svg">
<path d="M16 6C15.5006 6.53931 15.8027 7.81301 15.4167 8.48C15.1373 8.96282 15.2392 9.54068 15 10" stroke="black" stroke-width="12" stroke-linecap="round"/>
<path d="M16 6C15.5006 6.53931 15.8027 7.81301 15.4167 8.48C15.1373 8.96282 15.2392 9.54068 15 10" stroke="white" stroke-width="3" stroke-linecap="round"/>
<path d="M24 6C23.9206 7.37222 23.6114 8.82617 23 10" stroke="black" stroke-width="12" stroke-linecap="round"/>
<path d="M24 6C23.9206 7.37222 23.6114 8.82617 23 10" stroke="white" stroke-width="3" stroke-linecap="round"/>
<path d="M6 14.2105C6.38611 14.3406 6.70274 14.8774 7.03125 15.1345C7.64036 15.6112 8.3284 15.9062 9.04167 16.1169C10.9393 16.6777 12.9906 17.5022 14.9375 17.7427C17.0907 18.0086 19.2437 18 21.4062 18C22.8014 18 24.1539 17.5789 25.5625 17.5789C28.3025 17.5789 30.707 15.2873 33 14" stroke="black" stroke-width="12" stroke-linecap="round"/>
<path d="M6 14.2105C6.38611 14.3406 6.70274 14.8774 7.03125 15.1345C7.64036 15.6112 8.3284 15.9062 9.04167 16.1169C10.9393 16.6777 12.9906 17.5022 14.9375 17.7427C17.0907 18.0086 19.2437 18 21.4062 18C22.8014 18 24.1539 17.5789 25.5625 17.5789C28.3025 17.5789 30.707 15.2873 33 14" stroke="white" stroke-width="3" stroke-linecap="round"/>
</svg>
