<svg width="24" height="24" viewBox="0 0 24 24" fill="none" xmlns="http://www.w3.org/2000/svg">
<path d="M7.47105 10.283L5.23759 12.5165C4.40346 13.3506 3.92378 14.4856 3.93254 15.6784C3.94131 16.8712 4.41049 18.0131 5.28421 18.8598C6.13089 19.7336 7.27302 20.2027 8.46564 20.2115C9.68547 20.2205 10.7936 19.7678 11.6278 18.9337L13.8612 16.7002M16.714 13.902L18.9475 11.6685C19.7816 10.8344 20.2613 9.69941 20.2525 8.50659C20.2438 7.31378 19.7746 6.17189 18.9009 5.32516C18.0544 4.47868 16.9124 4.00946 15.7196 4.0007C14.5268 3.99193 13.3917 4.44438 12.5575 5.27854L10.3241 7.512M8.70564 15.4197L15.406 8.7193M5.3362 5.21699L4.22989 4.11069M9.1777 3.26824L9.35869 1.44472M1.72177 9.0813L3.61243 8.89365M18.9408 18.5056L20.0471 19.6119M15.0993 20.4544L14.9183 22.2779M22.5553 14.6413L20.6646 14.8289" stroke="black" stroke-width="2" stroke-linecap="round" stroke-linejoin="round"/>
</svg>
