<svg width="181" height="84" viewBox="0 0 181 84" fill="none" xmlns="http://www.w3.org/2000/svg">
<path d="M26.7054 7.67242C29.7575 5.88581 35.4656 4.99965 40.3311 5C45.1965 5.00035 54.1805 8.20423 55.5398 9.90333C64.1462 20.6613 66.6996 36.5564 64.8538 50.0038C63.833 57.4411 60.2488 65.0573 54.8148 70.3887C45.746 79.2864 28.9966 80.1315 18.1164 74.5159C6.03314 68.2794 3.49511 50.3189 5.73485 38.431C7.1351 30.9989 11.1137 22.0788 16.2201 16.4566C19.2508 13.1197 22.8002 9.95835 26.7054 7.67242Z" stroke="#287EFF" stroke-width="10" stroke-linecap="round"/>
<path d="M87.0364 7.67242C90.0885 5.88581 95.7966 4.99965 100.662 5C105.528 5.00035 114.512 8.20423 115.871 9.90333C124.477 20.6613 127.031 36.5564 125.185 50.0038C124.164 57.4411 120.58 65.0573 115.146 70.3887C106.077 79.2864 89.3277 80.1315 78.4474 74.5159C66.3642 68.2794 63.8262 50.3189 66.0659 38.431C67.4662 30.9989 71.4448 22.0788 76.5512 16.4566C79.5819 13.1197 83.1313 9.95835 87.0364 7.67242Z" stroke="#287EFF" stroke-width="10" stroke-linecap="round"/>
<path d="M38 41C37.0369 41.1067 36.3569 47.5751 36.3333 48.6818C36.295 50.4811 36 52.2098 36 54" stroke="white" stroke-width="10" stroke-linecap="round"/>
<path d="M98.0524 40.0908C97.0118 42.3021 97.2538 46.1152 97.2538 48.565C97.2538 49.8751 96.8545 51.0961 96.8545 52.4694" stroke="white" stroke-width="10" stroke-linecap="round"/>
<path d="M40 5C42.7434 5 45.8336 5.91964 48.4381 6.2619C53.1502 6.88111 58.0991 7.8824 62.8295 8C68.978 8.15286 74.9099 11 81 11" stroke="#287EFF" stroke-width="10" stroke-linecap="round"/>
<path d="M119 10C120.836 10 122.718 11.8883 124.484 12.6993C127.35 14.0151 130.174 15.2365 133.027 16.6569C134.551 17.4157 135.911 18.818 137.463 19.4706C138.517 19.9138 139.606 20.139 140.65 20.6144C142.79 21.5885 144.991 22.3601 147.169 23.1765C150.168 24.3009 153.026 25.8722 156.012 27.2026C157.689 27.9493 159.403 28.9842 161.124 29.3758C162.449 29.6775 163.598 31 165 31" stroke="#287EFF" stroke-width="10" stroke-linecap="round"/>
<path d="M102 77.8042C103.557 78.157 105.024 77.6695 106.549 77.5975C108.751 77.4935 110.999 77.9186 113.193 77.7318C116.494 77.4506 119.78 77.2331 123.072 76.7938C130.39 75.8173 137.908 75.2506 145.38 75.7986C148.866 76.0543 152.48 75.752 155.904 75.295C157.655 75.0615 159.364 74.7076 161.143 74.9563" stroke="#287EFF" stroke-width="10" stroke-linecap="round"/>
<path d="M33.0068 78.2661C36.2769 78.1036 39.4998 78.344 42.7619 78.1819C45.1675 78.0623 47.5731 77.9428 49.9787 77.8232C51.8427 77.7306 53.7066 77.638 55.5706 77.5454C57.5381 77.4476 59.5122 77.75 61.4533 77.6535C65.8267 77.4362 70.2001 77.2189 74.5735 77.0015C75.7765 76.9418 76.9543 77.0835 78.1444 77.0243C80.0064 76.9318 82.2972 76.135 83.9936 76.7337" stroke="#287EFF" stroke-width="10" stroke-linecap="round"/>
<path d="M165.091 31C165.402 33.603 167.96 36.1571 168.773 38.7302C169.586 41.3045 170 43.616 170 46.2701C170 51.9681 169.824 57.4056 168.795 63.0063C168.274 65.8461 166.914 67.8913 165.409 70.4128C164.845 71.3581 164.087 72.037 163.455 72.9642C163.163 73.3921 162.495 73.6374 162.227 74.0304C161.096 75.6888 161.179 75.1041 161 73.1546" stroke="#287EFF" stroke-width="10" stroke-linecap="round"/>
<path d="M172.053 34C173.088 34.2199 173.343 36.3639 173.646 37.0301C174.498 38.8988 174.862 40.9731 175.342 42.9288C175.709 44.4251 175.737 46.3884 175.737 47.9085C175.737 49.2152 176 50.4882 176 51.7582C176 55.277 175.888 58.5757 175.459 62.0405C175.346 62.9533 174.652 63.7152 174.421 64.5987C174.176 65.5363 173.755 66.4286 173.368 67.3307C172.939 68.3331 172.498 69.4728 171.994 70.4353C171.726 70.9484 171.603 71.7439 171 72" stroke="#287EFF" stroke-width="10" stroke-linecap="round"/>
</svg>
