<svg width="117" height="100" viewBox="0 0 117 100" fill="none" xmlns="http://www.w3.org/2000/svg">
<path d="M98.8428 85.2843C100.106 85.2843 101.266 85.0106 102.186 84.0903" stroke="#287EFF" stroke-width="6" stroke-linecap="round"/>
<path d="M113.595 91.4668V91.7056" stroke="#287EFF" stroke-width="6" stroke-linecap="round"/>
<path d="M83.7492 72.4827C65.2618 60.0912 47.7539 49.7274 37.4975 39.471C33.5042 35.4777 29.0834 29.3724 24.0657 26.7441C22.506 25.9271 21.6317 24.5196 20.228 23.6113C19.67 23.2502 21.8323 37.3251 22.0294 38.2571C24.4302 49.612 26.582 61.4699 30.2529 72.4827C31.367 75.825 38.262 65.5495 38.4765 65.2773C46.7775 54.7463 55.8128 44.5365 63.3038 33.4012C64.7856 31.1986 71.141 24.3162 65.2618 24.3162C55.1245 24.3162 45.0765 23.7059 34.9521 23.6113C29.9117 23.5642 22.7429 22.773 18.1134 24.3162" stroke="#287EFF" stroke-width="12" stroke-linecap="round"/>
</svg>
