<svg width="219" height="307" viewBox="0 0 219 307" fill="none" xmlns="http://www.w3.org/2000/svg">
<path d="M81.0577 268.964C79.7266 270.462 80.5316 273.998 79.5027 275.85C78.758 277.191 79.0298 278.795 78.3921 280.071" stroke="#6028FF" stroke-width="12" stroke-linecap="round"/>
<path d="M102.382 269.408C102.171 273.219 101.346 277.256 99.7168 280.515" stroke="#6028FF" stroke-width="12" stroke-linecap="round"/>
<path d="M108.666 56C108.454 59.8102 107.63 63.8473 106 67.1066" stroke="#6028FF" stroke-width="8" stroke-linecap="round"/>
<path d="M30 128.196C33.8102 128.408 37.8473 129.232 41.1066 130.862" stroke="#6028FF" stroke-width="8" stroke-linecap="round"/>
<path d="M159.862 78.3328C157.773 81.5266 155.041 84.6108 152 86.6186" stroke="#6028FF" stroke-width="8" stroke-linecap="round"/>
<path d="M52.3328 76.9999C55.5266 79.0883 58.6108 81.8207 60.6186 84.8616" stroke="#6028FF" stroke-width="8" stroke-linecap="round"/>
<path d="M182.418 130.575C178.683 131.356 174.57 131.605 171 130.875" stroke="#6028FF" stroke-width="8" stroke-linecap="round"/>
<path d="M55.5171 292.313C56.5098 292.611 57.3239 293.84 58.1685 294.429C59.7346 295.52 61.5036 296.196 63.3375 296.679C68.2166 297.963 73.4907 299.851 78.4963 300.401C84.0326 301.01 89.5679 300.991 95.1282 300.991C98.7152 300.991 102.193 300.026 105.814 300.026C112.859 300.026 119.041 294.779 124.937 291.831" stroke="#6028FF" stroke-width="12" stroke-linecap="round"/>
<path d="M136 252.936C137.41 241.653 142.905 228.27 149.174 218.683C151.246 215.514 154.363 209.011 159.326 210.429C162.24 211.262 158.33 214.183 161.806 212.638C162.916 212.144 164.143 213.147 165.293 213.18C168.456 213.273 170.157 211.388 172.307 209.306C176.273 205.464 179.791 202.534 185.442 201.672C190.281 200.934 201.176 198.422 205.591 201.479C207.748 202.972 209.344 206.526 210.241 208.918C210.476 209.546 209.098 210.643 209.388 210.933C209.828 211.372 211.597 210.648 211.171 211.785C210.8 212.774 211.758 213.205 211.985 214.227C212.944 218.544 203.929 221.412 200.864 222.945" stroke="#6028FF" stroke-width="12" stroke-linecap="round"/>
<path d="M164.596 227.827C158.902 228.641 175.584 232.012 181.335 232.012" stroke="#6028FF" stroke-width="12" stroke-linecap="round"/>
<path d="M198.772 238.986C198.772 245.432 197.66 250.814 196.369 257.082C195.082 263.332 195.023 269.849 193.192 275.952" stroke="#6028FF" stroke-width="12" stroke-linecap="round"/>
<path d="M6.96499 253.124C6.96499 242.326 8.69477 232 12.5447 221.894C14.0064 218.057 10.6138 220.004 8.51491 218.096C6.07121 215.875 6.26753 211.725 6.26753 208.797C6.26753 207.063 5.19248 200.654 7.35247 199.42C8.89598 198.538 13.474 197.682 14.0946 199.73C14.5146 201.116 17.4174 205.778 17.4269 205.697C18.0582 200.331 20.7882 198.65 25.2152 196.553C29.5979 194.477 47.3234 183.489 49.8589 190.082C50.6249 192.073 50.2563 194.768 50.2076 196.863C50.1927 197.504 48.9316 199.08 49.3164 198.567C50.8621 196.506 54.0088 195.466 56.3297 194.693C62.8983 192.503 69.7575 191.237 76.6336 190.508C80.633 190.084 75.5617 198.205 78.8035 198.025C83.5662 197.76 78.544 204.023 77.1373 204.961C75.7863 205.861 69.2338 206.902 69.7752 208.797C70.2608 210.496 71.5617 211.922 72.5263 213.369" stroke="#6028FF" stroke-width="12" stroke-linecap="round"/>
<path d="M71.8289 229.411C69.4501 236.785 67.2679 244.178 65.5518 251.729" stroke="#6028FF" stroke-width="12" stroke-linecap="round"/>
<path d="M27.8887 225.226C28.2306 228.303 37.2597 229.814 39.7455 229.023C43.1322 227.946 49.7155 225.307 50.9049 221.739" stroke="#6028FF" stroke-width="12" stroke-linecap="round"/>
<path d="M86.4 135.8C86.6667 135.667 86.8667 135.4 87 135C87 134.6 86.9333 134.267 86.8 134C87.0667 133.333 87.2 132.667 87.2 132C87.3333 131.333 87.7333 130.867 88.4 130.6C88.8 130.2 88.8667 129.867 88.6 129.6C88.4667 129.333 88.6667 129.133 89.2 129C89.4667 128.467 89.6667 127.933 89.8 127.4C90.0667 126.867 90.4 126.4 90.8 126C91.8667 123.467 93.2 120.8 94.8 118C96.5333 115.067 98.0667 112.267 99.4 109.6C100.067 108.8 100.667 108 101.2 107.2C101.733 106.4 102.067 105.533 102.2 104.6H102.6C102.867 103.267 103.733 102.8 105.2 103.2C106.8 103.467 108.333 103.867 109.8 104.4C110.467 104.667 110.867 105.067 111 105.6C111.133 106 111.2 106.467 111.2 107C110.933 107.133 110.8 107.4 110.8 107.8C110.933 108.067 110.933 108.333 110.8 108.6C109.867 110.067 109.2 111.6 108.8 113.2C108.4 114.8 107.733 116.333 106.8 117.8C106.667 118.067 106.467 118.267 106.2 118.4C106.067 118.533 105.933 118.733 105.8 119C105.533 119.533 105.267 120.333 105 121.4C104.867 122.333 104.467 123.333 103.8 124.4C102.733 126.533 101.8 128.533 101 130.4C100.2 132.267 99.4 134.333 98.6 136.6C98.2 138.733 97.7333 140.533 97.2 142C96.8 143.467 97.1333 145.2 98.2 147.2C101.267 146.4 103.933 145.467 106.2 144.4C108.6 143.2 111.067 141.933 113.6 140.6L119 136.6L120.6 135.6L127 130.8L132.4 126.6C132.933 126.2 133.6 125.8 134.4 125.4C135.2 124.867 135.867 124.4 136.4 124C137.733 122.933 138.8 122.133 139.6 121.6C140.4 120.933 141.467 120.133 142.8 119.2C143.067 118.8 143.333 118.533 143.6 118.4C144 118.133 144.467 117.867 145 117.6L146.4 116.6C146.667 115.933 147.267 115.467 148.2 115.2C149.267 114.933 149.933 114.333 150.2 113.4C150.733 113.533 151 113.4 151 113C151.667 113.267 151.867 113.6 151.6 114C151.467 114.4 151.667 114.733 152.2 115C151.933 115.133 151.667 115.467 151.4 116C151.267 116.533 151.2 116.867 151.2 117C151.733 117.267 152.067 117 152.2 116.2C152.333 115.267 152.6 114.867 153 115C153 115.133 152.933 115.533 152.8 116.2C152.667 116.733 152.533 117 152.4 117C153.067 117.267 153.2 117.667 152.8 118.2C152.4 118.6 152.333 119 152.6 119.4C152.333 119.667 152.133 119.867 152 120C151.867 120 151.733 120.2 151.6 120.6C151.333 120.6 151.267 120.467 151.4 120.2C151.667 119.933 151.533 119.8 151 119.8C150.867 120.067 150.733 120.333 150.6 120.6C150.467 120.733 150.333 121.067 150.2 121.6C149.933 121.6 149.8 121.533 149.8 121.4C149.933 121.133 150 120.933 150 120.8C149.333 120.8 149 121 149 121.4C148.333 121.667 147.933 122.067 147.8 122.6C147.667 123.133 147.4 123.667 147 124.2C146.6 124.2 146.467 124.133 146.6 124C146.733 123.867 146.6 123.8 146.2 123.8C146.333 123.933 146.2 124.333 145.8 125C145.533 125.533 145.2 126.067 144.8 126.6C144.4 127.133 144.067 127.6 143.8 128C143.667 128.267 143.733 128.133 144 127.6C143.733 127.467 143.133 127.733 142.2 128.4C141.267 129.067 140.667 129.533 140.4 129.8L138 132.2C137.6 132.467 136.867 133 135.8 133.8C134.867 134.6 134.267 135.133 134 135.4C134 135.4 133.867 135.333 133.6 135.2C133.6 135.333 133.533 135.467 133.4 135.6C133.4 135.6 133.4 135.733 133.4 136C133.267 135.733 133.067 135.733 132.8 136C132.533 136.133 132.533 136.333 132.8 136.6H132.2C132.2 136.733 131.933 137.2 131.4 138C130.867 138.8 130.133 139.467 129.2 140V139.2C128.933 139.067 128.8 139.133 128.8 139.4C128.8 139.533 128.667 139.667 128.4 139.8H129C128.867 140.333 128.667 140.667 128.4 140.8C128.133 140.8 127.8 140.867 127.4 141C127.267 141 127.267 140.933 127.4 140.8C127.667 140.667 127.667 140.6 127.4 140.6C127.133 140.867 126.8 141.2 126.4 141.6C126.133 142 125.8 142.333 125.4 142.6C125.133 142.2 124.867 142.133 124.6 142.4C124.467 142.667 124.267 142.867 124 143C124 143 123.667 143.133 123 143.4C122.6 143.667 122.2 143.933 121.8 144.2C121.533 144.467 121.067 144.667 120.4 144.8C120.267 145.067 120.2 145.333 120.2 145.6C120.067 145.6 120 145.533 120 145.4C120 145.267 119.867 145.267 119.6 145.4C119.333 145.667 119 146 118.6 146.4C118.2 146.667 117.667 146.867 117 147C116.467 147.933 115.667 148.6 114.6 149C113.667 149.4 112.667 149.8 111.6 150.2C110 151.267 108.4 152 106.8 152.4C105.333 152.667 103.733 152.933 102 153.2C100.267 153.6 98.4 153.667 96.4 153.4C95.0667 153.133 93.7333 152.933 92.4 152.8C91.2 152.667 90.2667 152.4 89.6 152C88.6667 151.333 87.8667 150.533 87.2 149.6C86.6667 148.667 86.2 147.867 85.8 147.2C85.4 147.067 85.2 146.867 85.2 146.6C85.2 146.333 85 146 84.6 145.6C84.6 145.467 84.6667 145.4 84.8 145.4C84.8 145.4 84.8 145.267 84.8 145C84.5333 145.267 84.3333 145.4 84.2 145.4C83.9333 144.733 84.0667 144.2 84.6 143.8C85 143.4 85 142.867 84.6 142.2C84.3333 142.467 84.2 143 84.2 143.8C83.9333 143.533 83.8 143.2 83.8 142.8C83.8 142.267 84.0667 142 84.6 142C84.6 141.2 84.8667 140.267 85.4 139.2C85.1333 139.2 84.9333 139.267 84.8 139.4C84.9333 138.733 85.2 138.2 85.6 137.8C86 137.4 86.2 136.867 86.2 136.2C85.9333 136.2 85.8667 136.333 86 136.6C86 136.867 85.9333 137 85.8 137C85.5333 136.333 85.8 135.467 86.6 134.4C86.7333 134.4 86.8 134.267 86.8 134C86.8 134.267 86.6667 134.6 86.4 135C86.1333 135.267 86.1333 135.533 86.4 135.8ZM119.6 90C119.333 90.1333 119.267 90.2667 119.4 90.4C119.533 90.4 119.467 90.5333 119.2 90.8C118.533 91.3333 118 92 117.6 92.8C117.333 93.6 116.733 93.9333 115.8 93.8C115.133 94.0667 114.6 94.5333 114.2 95.2C113.533 95.2 113.133 95.1333 113 95C112.867 94.8667 112.667 94.6667 112.4 94.4C111.733 94.4 111.333 94.6 111.2 95C110 94.6 109 94.2 108.2 93.8C107.533 93.4 106.733 93 105.8 92.6C105.8 91.4 105.933 90.2667 106.2 89.2C106.6 88 107.6 87.5333 109.2 87.8C109.467 87.5333 109.667 87.4 109.8 87.4C109.933 87.4 110.067 87.3333 110.2 87.2C111.8 87.3333 113.2 87.6667 114.4 88.2C115.6 88.7333 117.067 89.0667 118.8 89.2C118.533 89.7333 118.8 90 119.6 90ZM146.6 123C146.067 123.133 145.667 123.4 145.4 123.8C145.133 124.2 145.2 124.6 145.6 125C145.6 124.6 145.8 124.2 146.2 123.8C146.467 123.533 146.6 123.267 146.6 123ZM125.2 141.4C125.467 141.4 125.733 141.333 126 141.2C126.267 140.933 126.267 140.667 126 140.4L125.2 141.4ZM148.6 122C148.467 121.867 148.533 121.8 148.8 121.8L148.6 122Z" fill="#6028FF"/>
</svg>
