<svg width="101" height="84" viewBox="0 0 101 84" fill="none" xmlns="http://www.w3.org/2000/svg">
<path d="M15.0367 25C12.223 25.8441 9.76119 31.3836 8.044 33.7686C5.88649 36.7651 4.99096 40.1261 7.60002 43.4806C9.54826 45.9855 17.4272 48.8347 16.9791 51.9717C16.1276 57.9322 9.93814 58.3077 17.5895 60.9623C21.7208 62.3956 18.7182 65.6222 20.8084 68.1769C22.5097 70.2563 23.3406 73.1996 25.5257 74.9476C30.515 78.9391 42.9683 77.4645 48.0021 74.9476" stroke="#287EFF" stroke-width="12" stroke-linecap="round"/>
<path d="M85.9653 58.4189C88.779 57.5748 91.2408 52.0354 92.958 49.6504C95.1155 46.6538 96.011 43.2928 93.4019 39.9383C91.4537 37.4335 83.5747 34.5843 84.0229 31.4472C84.8744 25.4867 91.0638 25.1112 83.4124 22.4567C79.2811 21.0234 82.2838 17.7967 80.1936 15.242C78.4923 13.1626 77.6613 10.2194 75.4763 8.47133C70.4869 4.47985 58.0336 5.95445 52.9999 8.47133" stroke="#287EFF" stroke-width="12" stroke-linecap="round"/>
<path d="M50.0431 27.2051C50.3561 30.9621 50.63 34.5575 50.63 38.3573C50.63 41.6292 49.4561 44.838 49.4561 48.0421C49.4561 50.9364 48.8691 53.6463 48.8691 56.553" stroke="white" stroke-width="12" stroke-linecap="round"/>
</svg>
