<svg width="382" height="453" viewBox="0 0 382 453" fill="none" xmlns="http://www.w3.org/2000/svg">
<path d="M140.811 388.919C138.422 391.608 139.867 397.957 138.02 401.282C136.682 403.689 137.171 406.57 136.026 408.86" stroke="#002811" stroke-width="12" stroke-linecap="round"/>
<path d="M179.097 389.717C178.717 396.558 177.237 403.806 174.311 409.657" stroke="#002811" stroke-width="12" stroke-linecap="round"/>
<path d="M190.377 6.57178C189.997 13.4124 188.518 20.6604 185.592 26.5121" stroke="#00C853" stroke-width="12" stroke-linecap="round"/>
<path d="M49.1443 136.19C55.9849 136.57 63.2329 138.05 69.0846 140.976" stroke="#00C853" stroke-width="12" stroke-linecap="round"/>
<path d="M282.293 46.667C278.544 52.4011 273.638 57.9382 268.178 61.543" stroke="#00C853" stroke-width="12" stroke-linecap="round"/>
<path d="M89.2398 44.2742C94.9739 48.0236 100.511 52.9292 104.116 58.3889" stroke="#00C853" stroke-width="12" stroke-linecap="round"/>
<path d="M322.79 140.46C316.084 141.864 308.7 142.31 302.29 140.999" stroke="#00C853" stroke-width="12" stroke-linecap="round"/>
<path d="M94.9568 430.839C96.7391 431.374 98.2007 433.581 99.7171 434.638C102.529 436.597 105.705 437.81 108.997 438.677C117.757 440.982 127.226 444.372 136.213 445.361C146.152 446.454 156.09 446.418 166.073 446.418C172.513 446.418 178.756 444.687 185.258 444.687C197.907 444.687 209.006 435.266 219.59 429.974" stroke="#002811" stroke-width="12" stroke-linecap="round"/>
<path d="M239.453 360.142C241.985 339.886 251.85 315.859 263.105 298.646C266.825 292.956 272.42 281.282 281.332 283.828C286.563 285.323 279.543 290.567 285.784 287.793C287.777 286.907 289.98 288.707 292.045 288.767C297.723 288.934 300.777 285.549 304.636 281.811C311.757 274.913 318.073 269.654 328.219 268.106C336.906 266.781 356.467 262.271 364.394 267.758C368.266 270.439 371.131 276.821 372.742 281.115C373.165 282.243 370.69 284.211 371.211 284.732C372 285.521 375.177 284.221 374.411 286.263C373.746 288.038 375.465 288.812 375.872 290.646C377.595 298.398 361.409 303.547 355.907 306.298" stroke="#002811" stroke-width="12" stroke-linecap="round"/>
<path d="M290.793 315.063C280.571 316.524 310.52 322.577 320.846 322.577" stroke="#002811" stroke-width="12" stroke-linecap="round"/>
<path d="M352.15 335.098C352.15 346.671 350.154 356.333 347.837 367.586C345.527 378.807 345.42 390.508 342.133 401.465" stroke="#002811" stroke-width="12" stroke-linecap="round"/>
<path d="M7.78817 360.481C7.78817 341.095 10.8938 322.555 17.8057 304.411C20.43 297.522 14.3392 301.019 10.5708 297.593C6.18352 293.605 6.53598 286.154 6.53598 280.897C6.53598 277.785 4.60587 266.278 8.48384 264.062C11.255 262.479 19.4742 260.942 20.5884 264.619C21.3425 267.107 26.5541 275.477 26.5711 275.332C27.7044 265.699 32.6058 262.679 40.5539 258.914C48.4225 255.187 80.2461 235.461 84.7982 247.297C86.1736 250.873 85.5117 255.711 85.4243 259.471C85.3975 260.622 83.1335 263.453 83.8242 262.532C86.5994 258.832 92.2489 256.964 96.4158 255.575C108.209 251.644 120.523 249.371 132.869 248.062C140.049 247.3 130.944 261.881 136.764 261.558C145.315 261.083 136.298 272.327 133.773 274.01C131.347 275.627 119.583 277.495 120.555 280.897C121.427 283.949 123.763 286.508 125.495 289.106" stroke="#002811" stroke-width="12" stroke-linecap="round"/>
<path d="M146.7 154.252C147.127 154.038 147.447 153.612 147.66 152.972C147.66 152.332 147.553 151.798 147.34 151.372C147.767 150.305 147.98 149.238 147.98 148.172C148.193 147.105 148.833 146.358 149.9 145.932C150.54 145.292 150.647 144.758 150.22 144.332C150.007 143.905 150.327 143.585 151.18 143.372C151.607 142.518 151.927 141.665 152.14 140.812C152.567 139.958 153.1 139.212 153.74 138.572C155.447 134.518 157.58 130.252 160.14 125.772C162.913 121.078 165.367 116.598 167.5 112.332C168.567 111.052 169.527 109.772 170.38 108.492C171.233 107.212 171.767 105.825 171.98 104.332H172.62C173.047 102.198 174.433 101.452 176.78 102.092C179.34 102.518 181.793 103.158 184.14 104.012C185.207 104.438 185.847 105.078 186.06 105.932C186.273 106.572 186.38 107.318 186.38 108.172C185.953 108.385 185.74 108.812 185.74 109.452C185.953 109.878 185.953 110.305 185.74 110.732C184.247 113.078 183.18 115.532 182.54 118.092C181.9 120.652 180.833 123.105 179.34 125.452C179.127 125.878 178.807 126.198 178.38 126.412C178.167 126.625 177.953 126.945 177.74 127.372C177.313 128.225 176.887 129.505 176.46 131.212C176.247 132.705 175.607 134.305 174.54 136.012C172.833 139.425 171.34 142.625 170.06 145.612C168.78 148.598 167.5 151.905 166.22 155.532C165.58 158.945 164.833 161.825 163.98 164.172C163.34 166.518 163.873 169.292 165.58 172.492C170.487 171.212 174.753 169.718 178.38 168.012C182.22 166.092 186.167 164.065 190.22 161.932L198.86 155.532L201.42 153.932L211.66 146.252L220.3 139.532C221.153 138.892 222.22 138.252 223.5 137.612C224.78 136.758 225.847 136.012 226.7 135.372C228.833 133.665 230.54 132.385 231.82 131.532C233.1 130.465 234.807 129.185 236.94 127.692C237.367 127.052 237.793 126.625 238.22 126.412C238.86 125.985 239.607 125.558 240.46 125.132L242.7 123.532C243.127 122.465 244.087 121.718 245.58 121.292C247.287 120.865 248.353 119.905 248.78 118.412C249.633 118.625 250.06 118.412 250.06 117.772C251.127 118.198 251.447 118.732 251.02 119.372C250.807 120.012 251.127 120.545 251.98 120.972C251.553 121.185 251.127 121.718 250.7 122.572C250.487 123.425 250.38 123.958 250.38 124.172C251.233 124.598 251.767 124.172 251.98 122.892C252.193 121.398 252.62 120.758 253.26 120.972C253.26 121.185 253.153 121.825 252.94 122.892C252.727 123.745 252.513 124.172 252.3 124.172C253.367 124.598 253.58 125.238 252.94 126.092C252.3 126.732 252.193 127.372 252.62 128.012C252.193 128.438 251.873 128.758 251.66 128.972C251.447 128.972 251.233 129.292 251.02 129.932C250.593 129.932 250.487 129.718 250.7 129.292C251.127 128.865 250.913 128.652 250.06 128.652C249.847 129.078 249.633 129.505 249.42 129.932C249.207 130.145 248.993 130.678 248.78 131.532C248.353 131.532 248.14 131.425 248.14 131.212C248.353 130.785 248.46 130.465 248.46 130.252C247.393 130.252 246.86 130.572 246.86 131.212C245.793 131.638 245.153 132.278 244.94 133.132C244.727 133.985 244.3 134.838 243.66 135.692C243.02 135.692 242.807 135.585 243.02 135.372C243.233 135.158 243.02 135.052 242.38 135.052C242.593 135.265 242.38 135.905 241.74 136.972C241.313 137.825 240.78 138.678 240.14 139.532C239.5 140.385 238.967 141.132 238.54 141.772C238.327 142.198 238.433 141.985 238.86 141.132C238.433 140.918 237.473 141.345 235.98 142.412C234.487 143.478 233.527 144.225 233.1 144.652L229.26 148.492C228.62 148.918 227.447 149.772 225.74 151.052C224.247 152.332 223.287 153.185 222.86 153.612C222.86 153.612 222.647 153.505 222.22 153.292C222.22 153.505 222.113 153.718 221.9 153.932C221.9 153.932 221.9 154.145 221.9 154.572C221.687 154.145 221.367 154.145 220.94 154.572C220.513 154.785 220.513 155.105 220.94 155.532H219.98C219.98 155.745 219.553 156.492 218.7 157.772C217.847 159.052 216.673 160.118 215.18 160.972V159.692C214.753 159.478 214.54 159.585 214.54 160.012C214.54 160.225 214.327 160.438 213.9 160.652H214.86C214.647 161.505 214.327 162.038 213.9 162.252C213.473 162.252 212.94 162.358 212.3 162.572C212.087 162.572 212.087 162.465 212.3 162.252C212.727 162.038 212.727 161.932 212.3 161.932C211.873 162.358 211.34 162.892 210.7 163.532C210.273 164.172 209.74 164.705 209.1 165.132C208.673 164.492 208.247 164.385 207.82 164.812C207.607 165.238 207.287 165.558 206.86 165.772C206.86 165.772 206.327 165.985 205.26 166.412C204.62 166.838 203.98 167.265 203.34 167.692C202.913 168.118 202.167 168.438 201.1 168.652C200.887 169.078 200.78 169.505 200.78 169.932C200.567 169.932 200.46 169.825 200.46 169.612C200.46 169.398 200.247 169.398 199.82 169.612C199.393 170.038 198.86 170.572 198.22 171.212C197.58 171.638 196.727 171.958 195.66 172.172C194.807 173.665 193.527 174.732 191.82 175.372C190.327 176.012 188.727 176.652 187.02 177.292C184.46 178.998 181.9 180.172 179.34 180.812C176.993 181.238 174.433 181.665 171.66 182.092C168.887 182.732 165.9 182.838 162.7 182.412C160.567 181.985 158.433 181.665 156.3 181.452C154.38 181.238 152.887 180.812 151.82 180.172C150.327 179.105 149.047 177.825 147.98 176.332C147.127 174.838 146.38 173.558 145.74 172.492C145.1 172.278 144.78 171.958 144.78 171.532C144.78 171.105 144.46 170.572 143.82 169.932C143.82 169.718 143.927 169.612 144.14 169.612C144.14 169.612 144.14 169.398 144.14 168.972C143.713 169.398 143.393 169.612 143.18 169.612C142.753 168.545 142.967 167.692 143.82 167.052C144.46 166.412 144.46 165.558 143.82 164.492C143.393 164.918 143.18 165.772 143.18 167.052C142.753 166.625 142.54 166.092 142.54 165.452C142.54 164.598 142.967 164.172 143.82 164.172C143.82 162.892 144.247 161.398 145.1 159.692C144.673 159.692 144.353 159.798 144.14 160.012C144.353 158.945 144.78 158.092 145.42 157.452C146.06 156.812 146.38 155.958 146.38 154.892C145.953 154.892 145.847 155.105 146.06 155.532C146.06 155.958 145.953 156.172 145.74 156.172C145.313 155.105 145.74 153.718 147.02 152.012C147.233 152.012 147.34 151.798 147.34 151.372C147.34 151.798 147.127 152.332 146.7 152.972C146.273 153.398 146.273 153.825 146.7 154.252ZM199.82 80.9718C199.393 81.1851 199.287 81.3984 199.5 81.6118C199.713 81.6118 199.607 81.8251 199.18 82.2518C198.113 83.1051 197.26 84.1718 196.62 85.4518C196.193 86.7318 195.233 87.2651 193.74 87.0518C192.673 87.4784 191.82 88.2251 191.18 89.2918C190.113 89.2918 189.473 89.1851 189.26 88.9718C189.047 88.7584 188.727 88.4384 188.3 88.0118C187.233 88.0118 186.593 88.3318 186.38 88.9718C184.46 88.3318 182.86 87.6918 181.58 87.0518C180.513 86.4118 179.233 85.7718 177.74 85.1318C177.74 83.2118 177.953 81.3984 178.38 79.6918C179.02 77.7718 180.62 77.0251 183.18 77.4518C183.607 77.0251 183.927 76.8118 184.14 76.8118C184.353 76.8118 184.567 76.7051 184.78 76.4918C187.34 76.7051 189.58 77.2384 191.5 78.0918C193.42 78.9451 195.767 79.4784 198.54 79.6918C198.113 80.5451 198.54 80.9718 199.82 80.9718ZM243.02 133.772C242.167 133.985 241.527 134.412 241.1 135.052C240.673 135.692 240.78 136.332 241.42 136.972C241.42 136.332 241.74 135.692 242.38 135.052C242.807 134.625 243.02 134.198 243.02 133.772ZM208.78 163.212C209.207 163.212 209.633 163.105 210.06 162.892C210.487 162.465 210.487 162.038 210.06 161.612L208.78 163.212ZM246.22 132.172C246.007 131.958 246.113 131.852 246.54 131.852L246.22 132.172Z" fill="#00C853"/>
<path d="M124.242 317.906C119.972 331.146 116.054 344.42 112.973 357.977" stroke="#002811" stroke-width="12" stroke-linecap="round"/>
<path d="M45.3538 310.393C45.9676 315.918 62.1781 318.631 66.6411 317.211C72.7214 315.276 84.5408 310.539 86.6762 304.132" stroke="#002811" stroke-width="12" stroke-linecap="round"/>
</svg>
