<svg width="128" height="131" viewBox="0 0 128 131" fill="none" xmlns="http://www.w3.org/2000/svg">
<path d="M38.1686 59.8149C31.9353 59.8149 25.9018 60.0605 20.1173 62.7013C15.8506 64.6492 10.9541 70.2175 10.9541 75.0945C10.9541 76.8751 10.8206 82.0813 13.6343 82.0813C16.2487 82.0813 17.4923 82.524 16.4062 84.9677C15.1164 87.8697 20.2679 90.1696 22.408 90.3282C24.6521 90.4944 26.8999 90.7405 29.2575 90.7405C31.794 90.7405 30.3299 93.2987 30.7236 95.0701C31.475 98.4516 39.359 99.3795 41.8339 99.812C49.4388 101.141 56.4048 101.874 64.1461 101.874C64.7543 101.874 65.682 100.806 65.7726 101.53C66.0091 103.422 65.7221 105.053 67.2387 106.57C68.7982 108.129 74.3576 108.033 76.3331 108.059C80.951 108.119 85.5739 108.059 90.1923 108.059C93.2688 108.059 95.2607 107.85 97.958 106.501C100.95 105.005 103.494 103.975 105.609 101.255C108.371 97.7048 107.934 94.2798 106.617 90.3282" stroke="white" stroke-width="12" stroke-linecap="round"/>
<path d="M43.6223 59.4966C38.0227 59.4966 32.6027 59.7144 27.4062 62.0561C23.5734 63.7833 19.1747 68.721 19.1747 73.0456C19.1747 74.6245 19.0548 79.2412 21.5824 79.2412C23.931 79.2412 25.0481 79.6337 24.0725 81.8006C22.9139 84.3739 27.5416 86.4134 29.4641 86.554C31.4801 86.7014 33.4993 86.9196 35.6172 86.9196C37.8958 86.9196 36.5806 89.1881 36.9342 90.7588C37.6093 93.7574 44.6917 94.5802 46.9149 94.9637C53.7467 96.1422 60.0045 96.7919 66.9587 96.7919C67.5051 96.7919 68.3385 95.8451 68.4198 96.4872C68.6323 98.1651 68.3744 99.6113 69.7368 100.956C71.1378 102.339 76.132 102.254 77.9066 102.277C82.055 102.33 86.208 102.277 90.3568 102.277C93.1205 102.277 94.9099 102.091 97.333 100.895C100.021 99.5686 102.306 98.6554 104.206 96.2434C106.687 93.0951 106.295 90.0581 105.112 86.554" stroke="white" stroke-opacity="0.38" stroke-width="12" stroke-linecap="round"/>
<path d="M45.5913 57.7529C43.7503 59.8241 46.7785 63.9687 47.8821 65.5874C50.7432 69.7837 57.042 72.2801 61.7184 73.6051C71.2846 76.3156 80.5141 80.7942 90.2845 82.4934C93.0149 82.9682 95.7419 83.3275 98.5084 83.6388C100.561 83.8697 103.935 83.4086 105.793 84.2344C107.142 84.8338 108.729 84.4459 109.504 83.089C110.474 81.3913 111.154 80.4742 111.154 78.37C111.154 77.3848 110.314 75.0637 109.504 74.6589" stroke="#287EFF" stroke-width="12" stroke-linecap="round"/>
<path d="M47.6533 55.691C47.6533 50.5468 53.4506 50.1328 57.1372 51.8883C59.1173 52.8313 67.6422 56.9782 72.6779 56.9782C77.7136 56.9782 77.0841 53.8309 78.3431 51.8883" stroke="#287EFF" stroke-width="12" stroke-linecap="round"/>
<path d="M104.457 29.8491C105.335 27.95 106.408 24.3925 104.567 22.7043C102.593 20.8934 99.8092 19.2972 96.9674 19.3967C90.0935 19.6374 89.7012 28.3221 87.0558 32.9041" stroke="#287EFF" stroke-width="12" stroke-linecap="round"/>
</svg>
