<svg width="89" height="52" viewBox="0 0 89 52" fill="none" xmlns="http://www.w3.org/2000/svg">
<path d="M43.2403 48C43.2403 45.2898 41.6342 41.263 42.4162 36.5783C43.1982 31.8936 43.2916 30.2584 44.0024 25.4995C44.3337 23.281 46.4012 19.7635 47.9664 17.8168C49.6125 15.7697 52.2878 14.0648 54.2352 12.1645C56.922 9.54263 60.1648 8.86617 63.938 7.74654C70.4987 5.79973 77.048 7.25318 82.7903 9.56569C85.0944 10.4936 85.3256 13.163 84.7032 14.6983C84.0523 16.3039 82.6362 17.4338 80.8544 18.564C79.6625 19.32 77.1206 19.766 75.5536 20.0258C72.6565 20.5062 69.173 20.3831 66.1966 20.3831C60.1783 20.3831 55.8533 17.9716 50.4325 16.5824C45.9806 15.4415 47.0277 13.0334 40.4351 9.56569C33.8426 6.09794 29.4475 5.1243 24.5031 4.51554C19.5588 3.90678 14.418 3.75385 11.8674 4.51551C9.42369 5.24527 6.04624 6.70601 4.72557 9.04593C3.40491 11.3859 3.90127 14.6008 6.09894 16.5824C8.2966 18.564 16.618 19.7364 20.1081 20.0258C22.4368 20.2189 25.3272 19.8925 28.0741 19.2283C30.821 18.564 32.4691 18.1654 34.1173 17.8168" stroke="black" stroke-opacity="0.8" stroke-width="8" stroke-linecap="round"/>
</svg>
