<svg width="864" height="1161" viewBox="0 0 864 1161" fill="none" xmlns="http://www.w3.org/2000/svg">
<path d="M682.985 101C687.575 107.853 612.008 193.934 423.569 309.933C235.13 425.931 80.7341 386.806 103.174 397.441C158.475 423.648 299.772 420.029 357.091 425.931C433.046 433.753 471.99 423.642 492.489 425.931C512.988 428.22 549.987 429.016 572.987 425.931C595.986 422.847 614.985 416.775 631.985 410.028C648.984 403.281 680.984 391.4 692.483 387.137C703.983 382.874 764.218 352.61 762.981 354.632C747.586 379.8 583.018 535.706 564.028 551.648C511.059 596.117 453.251 615.018 394.932 629.456C346.812 641.368 337.965 656.078 289.495 661.828C269.266 664.228 228.496 668.238 193.497 661.828C158.498 655.419 170.232 659.088 153.998 653.13C150.251 651.754 151.172 652.672 136.999 653.13C122.826 653.587 194.472 720.885 221.066 736.315C249.983 753.092 279.638 762.924 309.808 771.141C339.939 779.346 370.251 786.489 400.742 789.562C451.604 794.687 475.507 798.258 519.988 798.258C564.47 798.258 613.701 786.082 651.984 777.199C690.268 768.315 751.685 724.9 752.482 727.296C753.209 729.485 633.104 804.422 632.818 804.591C598.291 825.076 560.98 835.823 525.221 848.49C498.428 857.981 471.422 867.534 444.044 870.577C419.624 873.291 395.1 871.983 370.705 874.609C359.379 875.829 348.645 879.014 337.707 883.774C334.829 885.027 332.385 887.073 329.376 887.073C313.124 887.073 297.402 889.221 281.196 891.93C275.008 892.965 242.064 891.034 243 891.93C257.918 906.222 333.256 927.042 381.5 936.5C429.744 945.958 597.5 984 370.705 1060.5" stroke="url(#paint0_linear_581_463)" stroke-width="200" stroke-linecap="round"/>
<defs>
<linearGradient id="paint0_linear_581_463" x1="384.655" y1="410.281" x2="218.85" y2="1011.59" gradientUnits="userSpaceOnUse">
<stop stop-color="#287EFF"/>
<stop offset="1" stop-color="#287EFF" stop-opacity="0"/>
</linearGradient>
</defs>
</svg>
