<svg width="1920" height="174" viewBox="0 0 1920 174" fill="none" xmlns="http://www.w3.org/2000/svg">
<path d="M0 61.7624C6.48339 57.5831 14.8927 55.917 22.8106 53.5454C31.845 50.8395 39.8341 46.767 48.8147 44.0137C56.0958 41.7815 61.3872 42.908 61.5886 49.4369C62.1763 68.4897 38.6647 85.7387 26.9165 101.697C20.7035 110.136 12.6199 119.104 8.21181 128.156C1.35962 142.225 22.992 124.914 26.9165 122.239C60.1592 99.5841 90.606 74.3638 125.8 53.2989C131.43 49.9297 164.802 27.7888 161.271 43.8494C155.626 69.5204 125.659 87.8098 106.754 108.599C101.56 114.31 98.5238 120.964 96.945 127.663C96.3814 130.054 93.75 134.615 97.8574 131.853C128.226 111.433 162.421 95.975 194.802 77.3746C216.49 64.9171 238.425 54.051 261.752 43.3564C273.239 38.0896 274.349 37.6461 272.815 48.6974C269.462 72.8546 237.296 94.4422 218.982 113.694C217.942 114.786 205.847 129.205 209.173 129.142C222.321 128.892 240.244 114.276 248.635 108.27C279.744 86.0068 307.533 61.4866 340.562 40.5626C349.729 34.7552 372.234 14.6224 369.189 34.7286C364.876 63.213 328.037 84.9009 310.908 109.256C307.884 113.556 308.395 118.207 305.89 122.568C302.471 128.52 316.927 112.327 323.682 108.106C353.626 89.3967 382.525 69.8789 411.959 50.7517C415.677 48.3357 450.358 26.2397 451.194 29.7162C457.497 55.955 426.541 84.2473 407.739 104.408C402.897 109.601 396.69 115.219 394.395 121.418C394.142 122.102 393.712 126.84 395.536 125.526C420.545 107.508 443.342 87.7028 469.214 70.1437C484.604 59.6985 500.237 46.4219 518.941 38.7549C530.325 34.0886 523.926 48.0008 522.591 51.902C517.621 66.4167 508.027 80.196 498.525 93.3977C490.277 104.859 482.336 116.516 475.601 128.484C473.764 131.748 471.375 135.529 472.293 139.166C472.867 141.439 487.408 129.201 487.804 128.895C498.252 120.84 508.316 112.602 517.458 103.751C532.743 88.954 548.664 74.7571 567.87 62.5019C577.089 56.6192 594.808 43.1426 587.373 60.2833C577.996 81.8997 560.656 101.705 549.735 123.061C546.957 128.493 543.851 133.804 540.839 139.166C538.439 143.439 551.839 127.542 553.385 126.019C576.117 103.625 595.112 79.1752 618.851 57.4074C625.197 51.589 607.641 43.0467 613.532 36.9838C614.508 35.9789 636.46 48.5069 637.328 53.9587C641.484 80.0489 611.05 82.0046 605.165 106.791C602.873 116.444 590.408 144.372 595.813 135.386C605.682 118.978 628.387 102.948 645.312 89.7001C660.515 77.8005 678.57 69.0478 692.53 56.1749C695.24 53.6751 698.352 49.7779 697.89 55.1067C696.738 68.3907 690.25 79.0017 681.466 90.604C665.992 111.043 656.717 107.735 656.717 131.771C656.717 137.904 669.603 131.722 670.979 130.346C678.848 122.476 672.608 133.204 680.212 125.197C698.849 105.573 712.174 82.1348 735.185 64.8027C737.609 62.9768 772.889 40.0849 773.849 48.0401C776.87 73.0659 744.104 94.9753 736.098 118.049C733.848 124.532 726.298 143.829 729.026 137.441C736.773 119.302 758.481 103.554 775.788 89.7001C790.481 77.9383 811.079 71.655 830.077 63.8988C835.23 61.7953 837.961 60.9166 837.149 66.0352C834.783 80.9492 826.868 94.8249 818.444 108.435C811.915 118.982 797.385 151.968 804.301 141.549C818.087 120.783 837.269 101.889 852.432 81.6475C861.753 69.2035 872.702 65.1697 887.104 56.8322C890.985 54.5852 897.939 48.1728 902.843 47.6292C903.783 47.525 902.912 56.8974 902.843 57.3252C899.585 77.5705 884.962 98.0252 873.418 116.323C872.155 118.324 861.157 132.009 869.768 124.704C884.515 112.195 896.018 97.8885 909.002 84.4412C913.508 79.7743 948.899 47.4732 948.464 64.3918C947.85 88.2883 934.394 108.334 923.145 130.128C920.454 135.339 917.673 140.491 915.161 145.74C913.006 150.243 914.722 147.078 918.012 144.343C935.669 129.665 946.439 112.077 962.607 96.6845C973.387 86.4217 980.345 74.4557 993.173 65.2135C1003.67 57.65 1001.71 65.3551 999.56 72.4445C993.549 92.2436 988.871 112.229 981.312 131.771C980.525 133.805 974.821 147.129 980.855 142.782C986.553 138.677 989.719 136.104 992.603 130.703C995.987 124.363 1008 118.507 1008 112.05" stroke="#6028FF" stroke-width="52" stroke-linecap="round"/>
<path d="M1008 61.7624C1013.87 57.5831 1021.47 55.917 1028.64 53.5454C1036.81 50.8395 1044.04 46.767 1052.17 44.0137C1058.75 41.7815 1063.54 42.908 1063.72 49.4369C1064.25 68.4897 1042.98 85.7387 1032.35 101.697C1026.73 110.136 1019.42 119.104 1015.43 128.156C1009.23 142.225 1028.8 124.914 1032.35 122.239C1062.43 99.5841 1089.98 74.3638 1121.82 53.2989C1126.91 49.9297 1157.11 27.7888 1153.91 43.8494C1148.8 69.5204 1121.69 87.8098 1104.59 108.599C1099.89 114.31 1097.14 120.964 1095.71 127.663C1095.2 130.054 1092.82 134.615 1096.54 131.853C1124.01 111.433 1154.95 95.975 1184.25 77.3746C1203.87 64.9171 1223.72 54.051 1244.82 43.3564C1255.22 38.0896 1256.22 37.6461 1254.83 48.6974C1251.8 72.8546 1222.7 94.4422 1206.13 113.694C1205.19 114.786 1194.24 129.205 1197.25 129.142C1209.15 128.892 1225.36 114.276 1232.96 108.27C1261.1 86.0068 1286.24 61.4866 1316.13 40.5626C1324.42 34.7552 1344.78 14.6224 1342.03 34.7286C1338.13 63.213 1304.8 84.9009 1289.3 109.256C1286.56 113.556 1287.02 118.207 1284.76 122.568C1281.66 128.52 1294.74 112.327 1300.86 108.106C1327.95 89.3967 1354.09 69.8789 1380.73 50.7517C1384.09 48.3357 1415.47 26.2397 1416.22 29.7162C1421.93 55.955 1393.92 84.2473 1376.91 104.408C1372.53 109.601 1366.91 115.219 1364.83 121.418C1364.6 122.102 1364.22 126.84 1365.87 125.526C1388.49 107.508 1409.12 87.7028 1432.53 70.1437C1446.45 59.6985 1460.6 46.4219 1477.52 38.7549C1487.82 34.0886 1482.03 48.0008 1480.82 51.902C1476.32 66.4167 1467.64 80.196 1459.05 93.3977C1451.58 104.859 1444.4 116.516 1438.31 128.484C1436.64 131.748 1434.48 135.529 1435.31 139.166C1435.83 141.439 1448.99 129.201 1449.35 128.895C1458.8 120.84 1467.91 112.602 1476.18 103.751C1490.01 88.954 1504.41 74.7571 1521.79 62.5019C1530.13 56.6192 1546.16 43.1426 1539.43 60.2833C1530.95 81.8997 1515.26 101.705 1505.38 123.061C1502.87 128.493 1500.06 133.804 1497.33 139.166C1495.16 143.439 1507.28 127.542 1508.68 126.019C1529.25 103.625 1546.43 79.1752 1567.91 57.4074C1573.65 51.589 1557.77 43.0467 1563.1 36.9838C1563.98 35.9789 1583.84 48.5069 1584.63 53.9587C1588.39 80.0489 1560.85 82.0046 1555.53 106.791C1553.46 116.444 1542.18 144.372 1547.07 135.386C1556 118.978 1576.54 102.948 1591.85 89.7001C1605.61 77.8005 1621.94 69.0478 1634.57 56.1749C1637.03 53.6751 1639.84 49.7779 1639.42 55.1067C1638.38 68.3907 1632.51 79.0017 1624.56 90.604C1610.56 111.043 1602.17 107.735 1602.17 131.771C1602.17 137.904 1613.83 131.722 1615.08 130.346C1622.2 122.476 1616.55 133.204 1623.43 125.197C1640.29 105.573 1652.35 82.1348 1673.17 64.8027C1675.36 62.9768 1707.28 40.0849 1708.15 48.0401C1710.88 73.0659 1681.24 94.9753 1673.99 118.049C1671.96 124.532 1665.13 143.829 1667.6 137.441C1674.6 119.302 1694.25 103.554 1709.9 89.7001C1723.2 77.9383 1741.83 71.655 1759.02 63.8988C1763.68 61.7953 1766.15 60.9166 1765.42 66.0352C1763.28 80.9492 1756.12 94.8249 1748.5 108.435C1742.59 118.982 1729.44 151.968 1735.7 141.549C1748.17 120.783 1765.53 101.889 1779.25 81.6475C1787.68 69.2035 1797.59 65.1697 1810.62 56.8322C1814.13 54.5852 1820.42 48.1728 1824.86 47.6292C1825.71 47.525 1824.92 56.8974 1824.86 57.3252C1821.91 77.5705 1808.68 98.0252 1798.23 116.323C1797.09 118.324 1787.14 132.009 1794.93 124.704C1808.28 112.195 1818.68 97.8885 1830.43 84.4412C1834.51 79.7743 1866.53 47.4732 1866.13 64.3918C1865.58 88.2883 1853.4 108.334 1843.23 130.128C1840.79 135.339 1838.28 140.491 1836 145.74C1834.05 150.243 1835.61 147.078 1838.58 144.343C1854.56 129.665 1864.3 112.077 1878.93 96.6845C1888.68 86.4217 1894.98 74.4557 1906.59 65.2135C1916.08 57.65 1914.31 65.3551 1912.36 72.4445C1906.92 92.2436 1902.69 112.229 1895.85 131.771C1895.14 133.805 1889.98 147.129 1895.44 142.782C1900.6 138.677 1903.46 136.104 1906.07 130.703C1909.13 124.363 1920 118.507 1920 112.05" stroke="#6028FF" stroke-width="52" stroke-linecap="round"/>
</svg>
