<svg width="66" height="61" viewBox="0 0 66 61" fill="none" xmlns="http://www.w3.org/2000/svg">
<path d="M39.527 16.2681C45.5431 9.34973 45.5541 8.88549 47.1947 10.2248" stroke="#001A23" stroke-width="3" stroke-linecap="round"/>
<path d="M59.6888 24.1904C59.563 19.7091 51.5932 35.2013 48.1504 31.1788" stroke="#001A23" stroke-width="3" stroke-linecap="round"/>
<path d="M21.9972 17.7344C21.6919 8.57117 21.3838 8.22372 23.4973 8.08742" stroke="#001A23" stroke-width="3" stroke-linecap="round"/>
<rect x="54.5688" y="49.4268" width="43.6116" height="38.212" rx="19.106" transform="rotate(165 54.5688 49.4268)" fill="#F4F4F4" stroke="#F4F4F4" stroke-width="9" stroke-linecap="round" stroke-linejoin="round" stroke-dasharray="1 7"/>
<rect x="51.4558" y="49.9868" width="40.4147" height="38.212" rx="19.106" transform="rotate(165 51.4558 49.9868)" fill="white" stroke="white" stroke-width="9" stroke-linecap="round" stroke-linejoin="round" stroke-dasharray="1 7"/>
<path d="M34.3998 30.3735C34.44 29.6656 35.6974 29.5438 35.7971 30.1607" stroke="#001A23" stroke-linecap="round"/>
<path d="M38.7329 30.5479C39.4413 29.8943 40.9088 29.8414 41.3856 30.2838" stroke="#001A23" stroke-linecap="round"/>
<path d="M30.2955 32.9087C31.0039 32.2551 32.4714 32.2023 32.9482 32.6447" stroke="#001A23" stroke-linecap="round"/>
<path d="M23.7665 21.8295C17.5153 26.9626 21.1164 28.2141 15.4393 32.3574" stroke="#001A23" stroke-width="3" stroke-linecap="round"/>
</svg>
