<svg width="1252" height="130" viewBox="0 0 1252 130" fill="none" xmlns="http://www.w3.org/2000/svg">
<path d="M626.291 44C626.291 78 628.149 88.9557 626.291 122.289C626.146 124.888 624 122.333 622.924 121.138C618.155 115.843 614.357 109.7 609.883 104.193C605.921 99.3172 609.097 102.527 611.352 104.82C614.337 107.856 616.383 110.845 620.168 113.293C621.425 114.106 629.715 120.217 631.189 118.418C632.357 116.993 633.844 115.318 634.862 113.816C636.097 111.995 637.392 110.034 639.516 108.9C641.332 107.93 642.62 104.275 643.924 102.728C646.236 99.9855 649.486 97.746 651.638 94.9879" stroke="black" stroke-width="12" stroke-linecap="round"/>
<path d="M6 6C9.5 11.5 15.7946 17.0476 18 18.5C29.9156 26.3473 53.3296 25.1741 70.5285 26.0417C118.245 28.4486 166.256 27.5893 214.165 27.5893C237.663 27.5893 260.853 26.1964 284.363 26.1964C309.814 26.1964 334.811 22.7143 360.434 22.7143C389.504 22.7143 418.554 23.4107 447.642 23.4107C458.146 23.4107 468.378 22.7143 478.894 22.7143C505.4 22.7143 531.744 22.0179 558.272 22.0179C607.986 22.0179 626 36.4859 626 45" stroke="black" stroke-width="12" stroke-linecap="round"/>
<path d="M1246 6C1242.43 6.256 1235.79 13.6012 1233.58 15.0536C1221.66 22.9009 1198.67 25.1741 1181.47 26.0417C1133.76 28.4486 1085.74 27.5893 1037.83 27.5893C1014.34 27.5893 991.147 26.1964 967.637 26.1964C942.186 26.1964 917.189 22.7143 891.566 22.7143C862.496 22.7143 833.446 23.4107 804.358 23.4107C793.854 23.4107 783.622 22.7143 773.106 22.7143C746.6 22.7143 720.256 22.0179 693.728 22.0179C644.014 22.0179 626 36.4859 626 45" stroke="black" stroke-width="12" stroke-linecap="round"/>
</svg>
