<svg width="168" height="181" viewBox="0 0 168 181" fill="none" xmlns="http://www.w3.org/2000/svg">
<path d="M74.6029 33.0654C80.7737 11.8718 81.6994 11.2448 76.8504 9.6678" stroke="#001A23" stroke-width="7" stroke-linecap="round"/>
<path d="M30.6711 131.688C33.6342 121.309 29.5737 117.307 40.0012 109.975" stroke="#001A23" stroke-width="7" stroke-linecap="round"/>
<path d="M109.555 46.3916C115.726 25.1979 116.652 24.571 111.803 22.994" stroke="#001A23" stroke-width="7" stroke-linecap="round"/>
<rect width="105" height="92" rx="46" transform="matrix(0.871852 0.48977 0.48977 -0.871852 14.6931 100.918)" fill="white" stroke="white" stroke-width="17" stroke-linecap="round" stroke-linejoin="round" stroke-dasharray="1 15"/>
<rect opacity="0.6" width="17" height="14" rx="7" transform="matrix(0.871852 0.48977 0.48977 -0.871852 20.0526 138.339)" fill="white" stroke="white" stroke-width="7" stroke-linecap="round" stroke-linejoin="round" stroke-dasharray="1 6"/>
<rect x="64.2603" y="94.354" width="6" height="6" rx="3" transform="rotate(29.3255 64.2603 94.354)" fill="#001A23"/>
<rect x="82.6366" y="105.824" width="6" height="6" rx="3" transform="rotate(29.3255 82.6366 105.824)" fill="#001A23"/>
<rect x="76.7302" y="86.4482" width="9" height="15" rx="4.5" transform="rotate(29.3255 76.7302 86.4482)" fill="white" stroke="#001A23" stroke-width="2" stroke-linecap="round" stroke-linejoin="round"/>
<line x1="78.1519" y1="124.089" x2="75.0189" y2="122.76" stroke="#001A23" stroke-width="3" stroke-linecap="round"/>
<line x1="58.4814" y1="114.186" x2="55.3485" y2="112.857" stroke="#001A23" stroke-width="3" stroke-linecap="round"/>
<path d="M118.433 140.844C129.394 113.165 121.254 119.489 119.199 102.729" stroke="#001A23" stroke-width="7" stroke-linecap="round"/>
</svg>
