<svg width="678" height="125" viewBox="0 0 678 125" fill="none" xmlns="http://www.w3.org/2000/svg">
<path fill-rule="evenodd" clip-rule="evenodd" d="M90.1327 7.25751C85.0934 4.52805 79.1192 3 72.3018 3C59.7921 3 49.6126 5.48552 40.4965 10.2334C37.3086 10.1697 34.4031 10.2077 31.9423 10.3372C16.0678 11.1726 5.19075 32.767 6.76775 48.4569C0.840168 62.3354 2.285 73.749 8.46148 83.2503L8.5184 83.7451C9.10371 88.833 9.67166 93.77 9.92799 98.3833C11.0104 117.864 42.8797 120.395 55.7911 120.395C61.4223 120.395 66.6103 119.907 71.3732 118.836C82.8191 122.087 92.2444 123.218 100.29 120.383C105.346 120.303 110.036 119.811 114.373 118.836C125.805 122.083 135.221 123.215 143.261 120.393L143.486 120.394C143.589 120.395 143.69 120.395 143.791 120.395C149.422 120.395 154.61 119.907 159.373 118.836C170.819 122.087 180.244 123.218 188.29 120.383C193.346 120.303 198.036 119.811 202.373 118.836C213.972 122.131 223.495 123.248 231.611 120.268C235.416 120.06 239.001 119.594 242.373 118.836C253.819 122.087 263.244 123.218 271.29 120.383C276.346 120.303 281.036 119.811 285.373 118.836C296.972 122.131 306.495 123.248 314.611 120.268C318.416 120.06 322.001 119.594 325.373 118.836C336.819 122.087 346.244 123.218 354.29 120.383C359.346 120.303 364.036 119.811 368.373 118.836C379.972 122.131 389.495 123.248 397.611 120.268C401.416 120.06 405.001 119.594 408.373 118.836C419.819 122.087 429.244 123.218 437.29 120.383C442.346 120.303 447.036 119.811 451.373 118.836C467.295 123.359 479.306 123.778 489.135 115.128C499.642 119.556 513.358 120.395 520.791 120.395C526.422 120.395 531.61 119.907 536.373 118.836C551.951 123.261 563.786 123.758 573.496 115.675C583.801 119.626 596.675 120.395 603.791 120.395C609.422 120.395 614.61 119.907 619.373 118.836C642.189 125.317 656.976 123.372 668.815 98.3833C680.002 74.769 671.792 52.8317 656.527 36.2238C653.975 17.1393 641.04 3 620.302 3C607.792 3 597.613 5.48552 588.497 10.2334C585.309 10.1697 582.403 10.2077 579.942 10.3372C574.715 10.6123 570.029 13.1383 566.152 16.9633C559.903 8.37218 550.085 3 537.302 3C524.792 3 514.613 5.48552 505.496 10.2334C502.309 10.1697 499.403 10.2077 496.942 10.3372C491.183 10.6403 486.081 13.6761 481.993 18.1711C475.801 8.87864 465.674 3 452.302 3C442.739 3 434.538 4.4524 427.133 7.25751C422.093 4.52805 416.119 3 409.302 3C400.491 3 392.837 4.23289 385.895 6.62073C381.124 4.29151 375.569 3 369.302 3C359.739 3 351.538 4.4524 344.133 7.25752C339.093 4.52805 333.119 3 326.302 3C317.491 3 309.837 4.23289 302.895 6.62073C298.124 4.29151 292.569 3 286.302 3C276.739 3 268.538 4.4524 261.133 7.25752C256.093 4.52805 250.119 3 243.302 3C234.491 3 226.837 4.23289 219.895 6.62073C215.124 4.29151 209.569 3 203.302 3C193.739 3 185.538 4.4524 178.133 7.25751C173.093 4.52805 167.119 3 160.302 3C150.229 3 141.667 4.61148 133.954 7.71795C128.747 4.70047 122.494 3 115.302 3C105.739 3 97.538 4.4524 90.1327 7.25751Z" fill="#00c897"/>
<path d="M90.1327 7.25751L88.7039 9.89542L89.9113 10.5494L91.1954 10.063L90.1327 7.25751ZM40.4965 10.2334L40.4365 13.2328L41.2027 13.2481L41.8823 12.8942L40.4965 10.2334ZM31.9423 10.3372L32.0999 13.333L31.9423 10.3372ZM6.76775 48.4569L9.52665 49.6352L9.82993 48.9251L9.75271 48.1569L6.76775 48.4569ZM8.46148 83.2503L11.4418 82.9075L11.3612 82.2067L10.9767 81.6152L8.46148 83.2503ZM8.5184 83.7451L5.53805 84.0879L5.53805 84.088L8.5184 83.7451ZM9.92799 98.3833L12.9234 98.2168L12.9234 98.2168L9.92799 98.3833ZM71.3732 118.836L72.193 115.95L71.4593 115.741L70.7151 115.909L71.3732 118.836ZM100.29 120.383L100.243 117.383L99.7543 117.391L99.2934 117.554L100.29 120.383ZM114.373 118.836L115.193 115.95L114.459 115.741L113.715 115.909L114.373 118.836ZM143.261 120.393L143.273 117.393L142.756 117.391L142.267 117.563L143.261 120.393ZM143.486 120.394L143.473 123.394L143.477 123.394L143.486 120.394ZM159.373 118.836L160.193 115.95L159.459 115.741L158.715 115.909L159.373 118.836ZM188.29 120.383L188.243 117.383L187.754 117.391L187.293 117.554L188.29 120.383ZM202.373 118.836L203.193 115.95L202.459 115.741L201.715 115.909L202.373 118.836ZM231.611 120.268L231.448 117.272L230.999 117.296L230.577 117.451L231.611 120.268ZM242.373 118.836L243.193 115.95L242.459 115.741L241.715 115.909L242.373 118.836ZM271.29 120.383L271.243 117.383L270.754 117.391L270.293 117.554L271.29 120.383ZM285.373 118.836L286.193 115.95L285.459 115.741L284.715 115.909L285.373 118.836ZM314.611 120.268L314.448 117.272L313.999 117.296L313.577 117.451L314.611 120.268ZM325.373 118.836L326.193 115.95L325.459 115.741L324.715 115.909L325.373 118.836ZM354.29 120.383L354.243 117.383L353.754 117.391L353.293 117.554L354.29 120.383ZM368.373 118.836L369.193 115.95L368.459 115.741L367.715 115.909L368.373 118.836ZM397.611 120.268L397.448 117.272L396.999 117.296L396.577 117.451L397.611 120.268ZM408.373 118.836L409.193 115.95L408.459 115.741L407.715 115.909L408.373 118.836ZM437.29 120.383L437.243 117.383L436.754 117.391L436.293 117.554L437.29 120.383ZM451.373 118.836L452.193 115.95L451.459 115.741L450.715 115.909L451.373 118.836ZM489.135 115.128L490.3 112.363L488.565 111.632L487.152 112.876L489.135 115.128ZM536.373 118.836L537.193 115.95L536.459 115.741L535.715 115.909L536.373 118.836ZM573.496 115.675L574.57 112.874L572.928 112.244L571.576 113.369L573.496 115.675ZM619.373 118.836L620.193 115.95L619.459 115.741L618.715 115.909L619.373 118.836ZM668.815 98.3833L666.104 97.0989L666.104 97.0989L668.815 98.3833ZM656.527 36.2238L653.553 36.6213L653.678 37.5581L654.318 38.2539L656.527 36.2238ZM588.497 10.2334L588.437 13.2328L589.203 13.2481L589.882 12.8942L588.497 10.2334ZM579.942 10.3372L579.785 7.34132L579.785 7.34132L579.942 10.3372ZM566.152 16.9633L563.726 18.728L565.777 21.5475L568.259 19.099L566.152 16.9633ZM505.496 10.2334L505.437 13.2328L506.203 13.2481L506.882 12.8942L505.496 10.2334ZM496.942 10.3372L496.785 7.34132L496.785 7.34132L496.942 10.3372ZM481.993 18.1711L479.497 19.8346L481.627 23.0324L484.213 20.1895L481.993 18.1711ZM427.133 7.25751L425.704 9.89542L426.911 10.5494L428.195 10.063L427.133 7.25751ZM385.895 6.62073L384.579 9.31661L385.696 9.86184L386.871 9.45757L385.895 6.62073ZM344.133 7.25752L342.704 9.89542L343.911 10.5494L345.195 10.063L344.133 7.25752ZM302.895 6.62073L301.579 9.31661L302.696 9.86184L303.871 9.45757L302.895 6.62073ZM261.133 7.25752L259.704 9.89542L260.911 10.5494L262.195 10.063L261.133 7.25752ZM219.895 6.62073L218.579 9.3166L219.696 9.86184L220.871 9.45757L219.895 6.62073ZM178.133 7.25751L176.704 9.89542L177.911 10.5494L179.195 10.063L178.133 7.25751ZM133.954 7.71795L132.45 10.3136L133.717 11.0477L135.075 10.5007L133.954 7.71795ZM72.3018 6C78.6614 6 84.1382 7.42246 88.7039 9.89542L91.5615 4.61961C86.0487 1.63365 79.577 0 72.3018 0V6ZM41.8823 12.8942C50.5256 8.3925 60.2214 6 72.3018 6V0C59.3629 0 48.6996 2.57853 39.1107 7.57265L41.8823 12.8942ZM32.0999 13.333C34.4734 13.2081 37.3046 13.1702 40.4365 13.2328L40.5565 7.234C37.3125 7.16915 34.3327 7.20723 31.7846 7.34132L32.0999 13.333ZM9.75271 48.1569C9.03735 41.0396 11.1626 32.3608 15.3789 25.3772C19.6178 18.3561 25.5529 13.6776 32.0999 13.333L31.7846 7.34132C22.4571 7.83218 15.0165 14.3686 10.2425 22.2761C5.44587 30.2209 2.92115 40.1843 3.78279 48.7569L9.75271 48.1569ZM10.9767 81.6152C5.39044 73.0218 3.95828 62.6727 9.52665 49.6352L4.00886 47.2786C-2.27794 61.9981 -0.820452 74.4762 5.94623 84.8854L10.9767 81.6152ZM11.4987 83.4023L11.4418 82.9075L5.48113 83.5931L5.53805 84.0879L11.4987 83.4023ZM12.9234 98.2168C12.6612 93.4987 12.0817 88.47 11.4987 83.4023L5.53805 84.088C6.12568 89.1959 6.68211 94.0414 6.93261 98.5497L12.9234 98.2168ZM55.7911 117.395C49.4537 117.395 38.614 116.766 29.3269 113.834C19.8452 110.84 13.3528 105.946 12.9234 98.2168L6.93261 98.5497C7.58558 110.302 17.569 116.413 27.5204 119.555C37.6664 122.759 49.217 123.395 55.7911 123.395V117.395ZM70.7151 115.909C66.2139 116.921 61.2533 117.395 55.7911 117.395V123.395C61.5913 123.395 67.0067 122.892 72.0314 121.763L70.7151 115.909ZM99.2934 117.554C92.1676 120.064 83.5125 119.165 72.193 115.95L70.5534 121.721C82.1258 125.009 92.3212 126.372 101.287 123.213L99.2934 117.554ZM113.715 115.909C109.617 116.83 105.137 117.306 100.243 117.383L100.338 123.383C105.556 123.3 110.455 122.792 115.031 121.763L113.715 115.909ZM142.267 117.563C135.146 120.062 126.499 119.162 115.193 115.95L113.553 121.721C125.112 125.005 135.296 126.369 144.255 123.224L142.267 117.563ZM143.498 117.394L143.273 117.393L143.248 123.393L143.473 123.394L143.498 117.394ZM143.791 117.395C143.693 117.395 143.595 117.395 143.495 117.394L143.477 123.394C143.583 123.395 143.687 123.395 143.791 123.395V117.395ZM158.715 115.909C154.214 116.921 149.253 117.395 143.791 117.395V123.395C149.591 123.395 155.007 122.892 160.031 121.763L158.715 115.909ZM187.293 117.554C180.168 120.064 171.513 119.165 160.193 115.95L158.553 121.721C170.126 125.009 180.321 126.372 189.287 123.213L187.293 117.554ZM201.715 115.909C197.617 116.83 193.137 117.306 188.243 117.383L188.338 123.383C193.556 123.3 198.455 122.792 203.031 121.763L201.715 115.909ZM230.577 117.451C223.398 120.088 214.665 119.209 203.193 115.95L201.553 121.721C213.278 125.052 223.592 126.408 232.646 123.084L230.577 117.451ZM241.715 115.909C238.529 116.625 235.112 117.072 231.448 117.272L231.775 123.263C235.72 123.048 239.473 122.563 243.031 121.763L241.715 115.909ZM270.293 117.554C263.168 120.064 254.512 119.165 243.193 115.95L241.553 121.721C253.126 125.009 263.321 126.372 272.287 123.213L270.293 117.554ZM284.715 115.909C280.617 116.83 276.137 117.306 271.243 117.383L271.338 123.383C276.556 123.3 281.455 122.792 286.031 121.763L284.715 115.909ZM313.577 117.451C306.398 120.088 297.665 119.209 286.193 115.95L284.553 121.721C296.278 125.052 306.592 126.408 315.646 123.084L313.577 117.451ZM324.715 115.909C321.529 116.625 318.112 117.072 314.448 117.272L314.775 123.263C318.72 123.048 322.473 122.563 326.031 121.763L324.715 115.909ZM353.293 117.554C346.168 120.064 337.512 119.165 326.193 115.95L324.553 121.721C336.126 125.009 346.321 126.372 355.287 123.213L353.293 117.554ZM367.715 115.909C363.617 116.83 359.137 117.306 354.243 117.383L354.338 123.383C359.556 123.3 364.455 122.792 369.031 121.763L367.715 115.909ZM396.577 117.451C389.398 120.088 380.665 119.209 369.193 115.95L367.553 121.721C379.278 125.052 389.592 126.408 398.646 123.084L396.577 117.451ZM407.715 115.909C404.53 116.625 401.112 117.072 397.448 117.272L397.775 123.263C401.72 123.048 405.473 122.563 409.031 121.763L407.715 115.909ZM436.293 117.554C429.168 120.064 420.512 119.165 409.193 115.95L407.553 121.721C419.126 125.009 429.321 126.372 438.287 123.213L436.293 117.554ZM450.715 115.909C446.617 116.83 442.137 117.306 437.243 117.383L437.338 123.383C442.556 123.3 447.455 122.792 452.031 121.763L450.715 115.909ZM487.152 112.876C478.546 120.451 467.915 120.416 452.193 115.95L450.553 121.721C466.674 126.301 480.066 127.106 491.117 117.38L487.152 112.876ZM520.791 117.395C513.447 117.395 500.232 116.549 490.3 112.363L487.97 117.892C499.053 122.563 513.269 123.395 520.791 123.395V117.395ZM535.715 115.909C531.214 116.921 526.253 117.395 520.791 117.395V123.395C526.591 123.395 532.007 122.892 537.031 121.763L535.715 115.909ZM571.576 113.369C563.084 120.439 552.585 120.322 537.193 115.95L535.553 121.721C551.317 126.2 564.488 127.078 575.415 117.98L571.576 113.369ZM603.791 117.395C596.777 117.395 584.35 116.624 574.57 112.874L572.422 118.476C583.252 122.629 596.573 123.395 603.791 123.395V117.395ZM618.715 115.909C614.214 116.921 609.253 117.395 603.791 117.395V123.395C609.591 123.395 615.007 122.892 620.031 121.763L618.715 115.909ZM666.104 97.0989C660.365 109.212 654.196 115.147 647.223 117.578C640.11 120.059 631.475 119.155 620.193 115.95L618.553 121.721C630.088 124.998 640.254 126.363 649.198 123.244C658.282 120.076 665.426 112.544 671.526 99.6677L666.104 97.0989ZM654.318 38.2539C669.064 54.2975 676.597 74.9492 666.104 97.0989L671.526 99.6677C683.407 74.5888 674.519 51.366 658.735 34.1937L654.318 38.2539ZM620.302 6C629.947 6 637.603 9.26918 643.153 14.6157C648.731 19.9902 652.352 27.6336 653.553 36.6213L659.5 35.8262C658.15 25.7294 654.027 16.761 647.316 10.2948C640.575 3.80047 631.395 0 620.302 0V6ZM589.882 12.8942C598.526 8.3925 608.221 6 620.302 6V0C607.363 0 596.7 2.57853 587.111 7.57265L589.882 12.8942ZM580.1 13.333C582.473 13.2081 585.305 13.1702 588.437 13.2328L588.556 7.234C585.313 7.16915 582.333 7.20723 579.785 7.34132L580.1 13.333ZM568.259 19.099C571.757 15.6486 575.784 13.5602 580.1 13.333L579.785 7.34132C573.646 7.66437 568.302 10.6281 564.045 14.8276L568.259 19.099ZM537.302 6C549.158 6 558.061 10.9393 563.726 18.728L568.578 15.1986C561.745 5.80508 551.011 0 537.302 0V6ZM506.882 12.8942C515.526 8.3925 525.221 6 537.302 6V0C524.363 0 513.7 2.57853 504.111 7.57265L506.882 12.8942ZM497.1 13.333C499.473 13.2081 502.305 13.1702 505.437 13.2328L505.556 7.234C502.313 7.16915 499.333 7.20723 496.785 7.34132L497.1 13.333ZM484.213 20.1895C487.936 16.0949 492.348 13.5831 497.1 13.333L496.785 7.34132C490.018 7.69743 484.226 11.2573 479.774 16.1527L484.213 20.1895ZM452.302 6C464.694 6 473.874 11.3967 479.497 19.8346L484.49 16.5076C477.729 6.36056 466.653 0 452.302 0V6ZM428.195 10.063C435.219 7.40264 443.054 6 452.302 6V0C442.425 0 433.857 1.50215 426.07 4.45205L428.195 10.063ZM409.302 6C415.661 6 421.138 7.42246 425.704 9.89542L428.561 4.61961C423.049 1.63365 416.577 0 409.302 0V6ZM386.871 9.45757C393.459 7.19136 400.779 6 409.302 6V0C400.204 0 392.214 1.27442 384.919 3.78388L386.871 9.45757ZM369.302 6C375.15 6 380.25 7.2031 384.579 9.31661L387.211 3.92485C381.999 1.37992 375.989 0 369.302 0V6ZM345.195 10.063C352.219 7.40264 360.054 6 369.302 6V0C359.425 0 350.857 1.50215 343.07 4.45205L345.195 10.063ZM326.302 6C332.661 6 338.138 7.42246 342.704 9.89542L345.561 4.61961C340.049 1.63365 333.577 0 326.302 0V6ZM303.871 9.45757C310.459 7.19136 317.779 6 326.302 6V0C317.204 0 309.214 1.27442 301.919 3.78389L303.871 9.45757ZM286.302 6C292.15 6 297.25 7.2031 301.579 9.31661L304.211 3.92485C298.999 1.37993 292.989 0 286.302 0V6ZM262.195 10.063C269.219 7.40264 277.054 6 286.302 6V0C276.425 0 267.857 1.50215 260.07 4.45205L262.195 10.063ZM243.302 6C249.661 6 255.138 7.42246 259.704 9.89542L262.561 4.61961C257.049 1.63365 250.577 0 243.302 0V6ZM220.871 9.45757C227.459 7.19136 234.779 6 243.302 6V0C234.204 0 226.214 1.27442 218.919 3.78388L220.871 9.45757ZM203.302 6C209.15 6 214.25 7.2031 218.579 9.3166L221.211 3.92485C215.999 1.37992 209.989 0 203.302 0V6ZM179.195 10.063C186.219 7.40264 194.054 6 203.302 6V0C193.425 0 184.857 1.50215 177.07 4.45205L179.195 10.063ZM160.302 6C166.661 6 172.138 7.42246 176.704 9.89542L179.561 4.61961C174.049 1.63365 167.577 0 160.302 0V6ZM135.075 10.5007C142.387 7.55556 150.562 6 160.302 6V0C149.896 0 140.947 1.6674 132.834 4.93519L135.075 10.5007ZM115.302 6C122.009 6 127.736 7.58213 132.45 10.3136L135.458 5.12225C129.758 1.81881 122.978 0 115.302 0V6ZM91.1954 10.063C98.2185 7.40264 106.054 6 115.302 6V0C105.425 0 96.8575 1.50215 89.07 4.45205L91.1954 10.063Z" fill="#00c897"/>
</svg>
