<svg width="370" height="117" viewBox="0 0 370 117" fill="none" xmlns="http://www.w3.org/2000/svg">
<path d="M91.6 84C91.8667 84.2667 92.4667 84.4667 93.4 84.6C94.3333 84.7333 95 84.8667 95.4 85C95.4 85.2667 95.8667 85.3333 96.8 85.2C97.7333 85.0667 98.7333 84.9333 99.8 84.8C101 84.5333 102.133 84.2667 103.2 84C104.267 83.6 105 83.2667 105.4 83C106.867 82.7333 108.2 82.2667 109.4 81.6C110.6 80.8 111.667 80.2667 112.6 80C113.533 79.4667 114.2 79 114.6 78.6C115 78.2 115.333 77.8667 115.6 77.6C115.867 77.2 116.2 76.8 116.6 76.4C117.133 75.8667 117.933 75.2 119 74.4C119.667 73.3333 120.6 72.2 121.8 71C123.133 69.6667 123.8 68.2667 123.8 66.8C124.2 66.1333 124.867 65.7333 125.8 65.6C126.733 65.3333 127.6 65.3333 128.4 65.6C129.333 65.8667 130 66.4 130.4 67.2C130.933 67.8667 131 68.7333 130.6 69.8C129.933 71.4 129.133 72.6667 128.2 73.6C127.267 74.5333 126.333 75.5333 125.4 76.6C125.267 76.4667 125.2 76.6 125.2 77C124.533 77.6667 124.133 78.2 124 78.6C124 79 124 79.2667 124 79.4L116.8 84.8C116.533 85.7333 116.267 86.1333 116 86C115.6 86.5333 115.067 86.8667 114.4 87C113.733 87.1333 113.333 87.4 113.2 87.8C112.933 87.8 112.533 88.0667 112 88.6C111.467 89.1333 111.067 89.2667 110.8 89C109.867 89.6667 108.933 90.0667 108 90.2C107.2 90.2 106.667 90.3333 106.4 90.6C106.133 90.8667 105.333 91.2 104 91.6C102.667 92 101.2 92.3333 99.6 92.6C98.1333 92.7333 96.7333 92.8667 95.4 93C94.2 93 93.5333 92.8667 93.4 92.6C93.1333 92.7333 93 92.7333 93 92.6C93 92.3333 92.9333 92.2 92.8 92.2C91.7333 92.4667 91.2667 92.5333 91.4 92.4C91.5333 92.1333 91.1333 92 90.2 92C89.6667 91.7333 89.2 91.5333 88.8 91.4C88.5333 91.2667 88.4 90.9333 88.4 90.4H87.4C86.4667 90 86 89.8 86 89.8C86.1333 89.6667 85.7333 89.1333 84.8 88.2C84.8 88.3333 84.6 88 84.2 87.2C83.8 86.2667 83.5333 85.8667 83.4 86C83.1333 86.1333 83.0667 86.1333 83.2 86C83.3333 85.7333 83.2667 85.6 83 85.6C82.8667 86.1333 82.6667 86.4 82.4 86.4C82.1333 86.2667 81.9333 86.1333 81.8 86C81.8 85.7333 81.8 85.5333 81.8 85.4C81.9333 85.2667 82 85.0667 82 84.8L81.4 86C81.1333 86 80.9333 86.1333 80.8 86.4C80.5333 87.4667 80.0667 88.0667 79.4 88.2C78.7333 88.3333 78.4 88.9333 78.4 90C78 90.1333 77.7333 90.5333 77.6 91.2C77.6 91.7333 77.3333 92 76.8 92C76.1333 93.0667 75.6 93.9333 75.2 94.6C74.8 95.1333 74.3333 95.6667 73.8 96.2C73.4 96.6 72.9333 97.1333 72.4 97.8C71.8667 98.3333 71.2 99.1333 70.4 100.2C69.8667 100.2 69.5333 100.4 69.4 100.8C69.2667 101.067 68.9333 101.2 68.4 101.2C67.7333 102.8 66.7333 103.867 65.4 104.4C64.0667 104.933 63 105.867 62.2 107.2C62.0667 107.333 62 107.333 62 107.2V107C61.3333 107.667 60.7333 108.2 60.2 108.6C59.6667 108.867 59.0667 109.333 58.4 110C57.7333 109.867 57 109.933 56.2 110.2C55.5333 110.467 54.7333 110.533 53.8 110.4C53.5333 110.267 53.5333 110.067 53.8 109.8C53.2667 109.933 52.8667 109.933 52.6 109.8C52.4667 109.667 51.8667 109.733 50.8 110C50.6667 109.867 50.4 109.8 50 109.8C49.7333 109.8 49.6667 109.667 49.8 109.4C49.5333 109.4 49.2667 109.4 49 109.4C48.7333 109.533 48.5333 109.467 48.4 109.2C48.5333 109.067 48.7333 109.067 49 109.2C49.2667 109.333 49.4667 109.267 49.6 109C49.6 108.467 49.2667 108.2 48.6 108.2C48.0667 108.2 47.8 107.867 47.8 107.2C47.5333 107.467 47.1333 107.533 46.6 107.4C46.2 107.267 45.8667 107.333 45.6 107.6C45.8667 107.867 46.1333 108 46.4 108C46.8 108 47.2667 108 47.8 108C47.8 108.133 47.6667 108.2 47.4 108.2H45.2C45.3333 108.6 45.7333 108.867 46.4 109C47.0667 109 47.5333 108.733 47.8 108.2C47.9333 108.2 47.9333 108.267 47.8 108.4C47.8 108.533 47.7333 108.667 47.6 108.8C47.4667 108.933 47.4 109 47.4 109C47.4 109.133 47.6667 109.2 48.2 109.2C46.7333 109.6 45.8667 109.533 45.6 109C45.4667 108.467 44.9333 108.133 44 108C43.7333 107.2 43.3333 106.6 42.8 106.2C42.4 105.8 42 105.4 41.6 105C41.8667 105.667 42.1333 106.333 42.4 107C42.8 107.667 43.2667 108.133 43.8 108.4C43.4 108.4 43 108.133 42.6 107.6C42.3333 107.067 41.9333 106.8 41.4 106.8C41.2667 106.133 41.0667 105.6 40.8 105.2C40.5333 104.8 40.4 104.467 40.4 104.2C40.4 104.067 40.5333 104 40.8 104C40.8 103.867 40.7333 103.667 40.6 103.4C40.4667 103.133 40.4 103.267 40.4 103.8C40 103.4 39.7333 103 39.6 102.6C39.6 102.2 39.4667 101.867 39.2 101.6C39.4667 101.067 39.6 100.867 39.6 101C39.2 100.733 38.9333 100.333 38.8 99.8C38.8 99.2667 38.8 98.7333 38.8 98.2C38.8 97.6667 38.6667 97.2 38.4 96.8C38.1333 96.4 38.0667 96 38.2 95.6C38.2 95.4667 38.2667 95.3333 38.4 95.2C38.6667 95.0667 38.8 94.9333 38.8 94.8C38.8 93.8667 38.6667 92.8667 38.4 91.8C38.1333 90.6 38.1333 89.4667 38.4 88.4C37.7333 89.0667 37.2 89.6 36.8 90C36.4 90.4 36.0667 90.8667 35.8 91.4C35.9333 91.2667 36 91.0667 36 90.8C35.4667 91.6 35.1333 92.2 35 92.6C34.6 92.6 34.4 92.6667 34.4 92.8C34.4 92.8 34.2667 92.8 34 92.8C34 93.3333 34 93.7333 34 94C34.1333 94.1333 34.2 94.3333 34.2 94.6C34.0667 94.7333 33.8667 94.7333 33.6 94.6C33.4667 94.3333 33.4 94.3333 33.4 94.6C32.4667 95.6667 31.6 96.8 30.8 98C30.1333 99.0667 29.3333 100.067 28.4 101C27.8667 101 27.4667 101.2 27.2 101.6C26.9333 102 26.6667 102.467 26.4 103H26C24.2667 104.867 22.2667 106.533 20 108C17.8667 109.467 15.6667 110.733 13.4 111.8V112.4C13.1333 112.4 13 112.2 13 111.8C11.2667 111.8 9.33333 111.733 7.2 111.6C5.2 111.6 3.6 111 2.4 109.8C2.4 109.533 2.4 109.4 2.4 109.4C2.53333 109.4 2.6 109.333 2.6 109.2C1.4 107.2 0.866667 104.933 1 102.4C1 99.7333 1.33333 97 2 94.2C2.66667 91.4 3.46667 88.6667 4.4 86C5.46667 83.2 6.33333 80.6667 7 78.4C7.26667 78 7.4 77.5333 7.4 77C7.53333 76.4667 7.66667 76 7.8 75.6C8.86667 72.5333 9.86667 69.5333 10.8 66.6C11.8667 63.5333 13.0667 60.6667 14.4 58C14.2667 57.8667 14.2 57.7333 14.2 57.6C14.3333 57.3333 14.3333 57 14.2 56.6C15.2667 56.8667 16 56.5333 16.4 55.6C18.6667 55.4667 20.5333 55.6 22 56C23.6 56.4 25.1333 57.0667 26.6 58C26.2 58.8 25.6667 59.3333 25 59.6C24.8667 60.6667 24.7333 61.5333 24.6 62.2C24.4667 62.7333 24.4 63.3333 24.4 64C24 65.4667 23.4667 67 22.8 68.6C22.1333 70.2 21.6 71.6 21.2 72.8C20.8 74.2667 20.4 75.7333 20 77.2C19.6 78.6667 18.9333 80 18 81.2C17.4667 83.8667 16.8 86.4667 16 89C15.3333 91.4 14.5333 93.8667 13.6 96.4C13.4667 96.6667 13.3333 96.8 13.2 96.8C13.0667 96.8 12.8667 96.9333 12.6 97.2C12.3333 98.2667 12.0667 99.2667 11.8 100.2C11.6667 101.133 11.6667 102.133 11.8 103.2C13.4 102.133 14.8667 101 16.2 99.8C17.6667 98.6 19.2 97.3333 20.8 96C21.8667 95.3333 22.8667 94.4667 23.8 93.4C24.7333 92.2 25.7333 91.2 26.8 90.4C29.2 88.5333 31.4 86.4 33.4 84C35.5333 81.4667 37.7333 79.2 40 77.2C40.1333 76.5333 40.2667 76.1333 40.4 76C40.6667 75.7333 40.8 75.1333 40.8 74.2C41.4667 74.2 41.8 74.1333 41.8 74C41.8 73.8667 41.9333 73.6667 42.2 73.4C41.9333 73.2667 42 73 42.4 72.6C42.8 71.8 43.2 70.9333 43.6 70C44.1333 69.0667 44.7333 68.3333 45.4 67.8C46.8667 68.3333 48.4667 68.6 50.2 68.6C51.9333 68.4667 53.4667 68.5333 54.8 68.8C56 70.2667 56.1333 72.1333 55.2 74.4C54.4 76.6667 53.6667 78.7333 53 80.6C52.4667 84.0667 51.5333 87.3333 50.2 90.4C50.4667 90.6667 50.5333 90.9333 50.4 91.2C50.2667 91.4667 50.1333 91.8 50 92.2C50 92.3333 50.0667 92.4 50.2 92.4C50.0667 93.4667 49.9333 94.4667 49.8 95.4C49.8 96.2 49.8 97.2 49.8 98.4C49.9333 98.6667 50 98.6667 50 98.4C50 98.1333 50.0667 98.2 50.2 98.6C50.2 98.8667 50.1333 99.1333 50 99.4C50 99.5333 50.2 99.5333 50.6 99.4C50.6 100.067 50.7333 100.667 51 101.2C53.5333 100.533 55.6667 99.4667 57.4 98C59.2667 96.4 61 94.7333 62.6 93C62.7333 93.4 63 93.4667 63.4 93.2C63.8 92.9333 63.9333 92.6 63.8 92.2C64.2 92.2 64.2667 92.3333 64 92.6C64.4 92.4667 64.4667 92.3333 64.2 92.2C64.0667 91.9333 64.1333 91.6667 64.4 91.4C64.5333 91.4 64.5333 91.5333 64.4 91.8C64.2667 91.9333 64.2667 92.0667 64.4 92.2C65.0667 91.9333 65.5333 91.4 65.8 90.6C66.3333 90.4667 66.4667 90.4 66.2 90.4C66.0667 90.2667 66.1333 90.0667 66.4 89.8C66.6667 89.8 66.6667 89.9333 66.4 90.2C66.9333 89.8 67.2 89.5333 67.2 89.4C67.3333 89.2667 67.3333 89.2 67.2 89.2C67.3333 89.0667 67.6667 88.8 68.2 88.4C68.6 87.3333 69.1333 86.6 69.8 86.2C70.4667 85.6667 70.9333 84.8667 71.2 83.8C71.4667 83.9333 71.6 83.8667 71.6 83.6C71.6 83.2 71.7333 83 72 83V83.2C73.4667 82.1333 74.5333 80.7333 75.2 79C75.4667 78.7333 75.7333 78.5333 76 78.4C76.4 78.1333 76.6 77.8 76.6 77.4C76.2 77.1333 76.1333 76.6667 76.4 76C76.6667 75.2 77.0667 74.1333 77.6 72.8C77.3333 73.0667 77.2 73.2667 77.2 73.4C77.3333 73.4 77.3333 73.5333 77.2 73.8C76.5333 71.9333 76.4667 70.3333 77 69C77.5333 67.5333 78.1333 65.6 78.8 63.2C79.2 62.8 79.6 62.6 80 62.6C80.5333 62.4667 80.8667 62.0667 81 61.4C81.2667 61.4 81.2667 61.5333 81 61.8C81.4 61.6667 81.4667 61.6 81.2 61.6C81.0667 61.4667 81.0667 61.2667 81.2 61C81.6 61 81.8667 60.9333 82 60.8C82.4 60.5333 82.6667 60.2667 82.8 60C82.9333 59.6 83.2667 59.4667 83.8 59.6C83.9333 59.6 83.8 59.6667 83.4 59.8C83.1333 59.8 82.9333 59.9333 82.8 60.2C83.4667 60.2 83.8667 60.1333 84 60C84.1333 59.8667 84.1333 59.8667 84 60C84 60.1333 84.1333 60.2 84.4 60.2C84.4 60.2 84.4 60.1333 84.4 60C84.2667 60 84.2 59.9333 84.2 59.8C84.2 59.6667 84.3333 59.6667 84.6 59.8C85 59.9333 85.2 60.1333 85.2 60.4C85.3333 60.4 85.4 60.2 85.4 59.8C86.3333 60.4667 87.4 60.9333 88.6 61.2C89.9333 61.4667 91.1333 61.9333 92.2 62.6C92.2 62.8667 91.9333 63 91.4 63C90.8667 63 90.6 63.0667 90.6 63.2C90.6 63.4667 90.7333 63.7333 91 64C91.4 64.1333 91.7333 64.3333 92 64.6L91.4 65C91.4 65.6667 91.5333 66.1333 91.8 66.4C92.2 66.5333 92.1333 66.9333 91.6 67.6C91.3333 67.8667 91.2 67.8667 91.2 67.6C91.2 68.4 90.8667 69.3333 90.2 70.4C89.6667 71.3333 89.0667 72.3333 88.4 73.4C87.8667 74.3333 87.4 75.2667 87 76.2C86.7333 77 86.8667 77.7333 87.4 78.4L91.6 84ZM42 104.2C42 103.267 41.8667 102.667 41.6 102.4C41.4667 102 41.3333 101.533 41.2 101C40.8 101 40.6 101 40.6 101C40.6 100.733 40.6667 100.6 40.8 100.6C40.9333 100.467 40.8667 100.267 40.6 100C40.6 100.533 40.5333 100.6 40.4 100.2C40.4 99.6667 40.2667 99.4 40 99.4C40.1333 100.067 40.2667 101 40.4 102.2C40.6667 103.267 41.2 103.933 42 104.2ZM85 87C85.1333 87.4 85.2667 87.6667 85.4 87.8C85.6667 87.9333 85.9333 88.0667 86.2 88.2C86.6 87.9333 86.5333 87.7333 86 87.6C85.6 87.3333 85.2667 87.1333 85 87ZM43.6 106.2C43.4667 106.333 43.6 106.6 44 107C44.4 107.4 44.7333 107.467 45 107.2C44.7333 107.067 44.4667 106.933 44.2 106.8C44.0667 106.533 43.8667 106.333 43.6 106.2ZM82 86.6C81.7333 86.6 81.6 86.5333 81.6 86.4C81.6 86.2667 81.5333 86.1333 81.4 86H81.8L82 86.6ZM65.8 90.2C66.0667 90.2 66.0667 90.3333 65.8 90.6V90.2ZM35.6 92C35.4667 92 35.5333 91.8 35.8 91.4C35.8 91.5333 35.7333 91.6667 35.6 91.8C35.6 91.8 35.6 91.8667 35.6 92ZM150.994 -3.33786e-06C151.26 0.26666 151.327 0.333326 151.194 0.199994C151.194 0.0666625 151.527 0.0666625 152.194 0.199994C152.46 0.199994 152.594 0.26666 152.594 0.399992C152.727 0.399992 152.927 0.399992 153.194 0.399992C153.46 0.533323 153.727 0.533323 153.994 0.399992C154.26 0.26666 154.527 0.199994 154.794 0.199994C155.194 0.199994 155.527 0.333326 155.794 0.599989C156.06 0.86666 156.394 1.06666 156.794 1.19999H157.394L157.994 1.8C158.26 2.06666 158.594 2.26666 158.994 2.39999C159.394 2.53333 159.66 2.73333 159.794 2.99999C160.46 3.66666 160.86 4.46666 160.994 5.4C161.127 6.33333 161.06 7.39999 160.794 8.59999C160.527 8.86666 160.394 9.13333 160.394 9.39999C160.394 9.53333 160.327 9.73333 160.194 9.99999C160.06 10.2667 159.86 10.4667 159.594 10.6C159.46 10.6 159.327 10.7333 159.194 11C158.527 11.8 157.927 12.6667 157.394 13.6C156.86 14.5333 156.394 15.4667 155.994 16.4L154.194 18.4V20C153.927 20.1333 153.727 20.2 153.594 20.2C153.594 20.0667 153.46 20.0667 153.194 20.2C152.927 20.3333 152.794 20.5333 152.794 20.8C152.794 21.0667 152.727 21.3333 152.594 21.6C151.794 23.0667 151.06 24.6 150.394 26.2C149.727 27.8 149.26 29.4 148.994 31C148.06 31.2667 147.594 31.7333 147.594 32.4C147.46 32.5333 147.394 32.9333 147.394 33.6C147.127 34.1333 146.86 34.6667 146.594 35.2C146.327 35.7333 146.127 36.3333 145.994 37C145.594 37.6667 145.194 38.4 144.794 39.2C144.527 39.8667 144.26 40.6 143.994 41.4L143.194 42.8C143.194 43.0667 143.127 43.2667 142.994 43.4C142.86 43.5333 142.794 43.7333 142.794 44L134.794 62L133.594 65L132.594 66.8L131.594 68.6C131.594 68.7333 131.527 68.8 131.394 68.8C131.26 68.6667 131.194 68.6667 131.194 68.8C130.794 71.3333 130.06 73.6 128.994 75.6C128.06 77.6 127.06 79.6 125.994 81.6L121.794 90.4C121.527 90.9333 121.26 91.4667 120.994 92C120.727 92.4 120.527 92.9333 120.394 93.6L120.194 94.4L119.394 95.6C120.86 94 122.46 92.4 124.194 90.8C125.927 89.2 127.66 87.6 129.394 86L130.394 84.6L131.794 83.4C133.527 82.0667 135.127 80.6667 136.594 79.2C138.194 77.7333 139.794 76.4 141.394 75.2C142.994 73.8667 144.66 72.6667 146.394 71.6C148.127 70.4 149.86 69.1333 151.594 67.8C151.86 67.6667 152.127 67.4667 152.394 67.2C152.66 66.9333 152.86 66.8 152.994 66.8H153.994C154.794 66.5333 155.46 66.2 155.994 65.8C156.527 65.2667 157.26 64.9333 158.194 64.8C158.86 64.5333 159.394 64.5333 159.794 64.8C160.194 64.9333 160.66 65.1333 161.194 65.4C161.727 65.6667 162.26 65.8667 162.794 66C163.327 66.1333 163.927 66.1333 164.594 66C164.727 66.2667 164.66 66.5333 164.394 66.8C165.06 66.6667 165.394 66.7333 165.394 67C165.527 67.2667 165.727 67.6 165.994 68C166.26 68.5333 166.327 69 166.194 69.4C166.327 69.9333 166.26 70.8667 165.994 72.2C165.727 73.4 165.46 74.6667 165.194 76C165.06 77.3333 164.727 78.3333 164.194 79C164.46 78.8667 164.527 79 164.394 79.4C164.26 79.6667 164.127 79.9333 163.994 80.2C163.727 80.6 163.594 80.9333 163.594 81.2C163.594 81.4667 163.527 81.8 163.394 82.2L163.194 85C162.927 87.5333 162.727 89.7333 162.594 91.6C162.594 93.3333 162.86 95.1333 163.394 97C163.527 97.5333 163.727 98.4 163.994 99.6C164.394 100.8 164.86 101.533 165.394 101.8C165.66 102.067 165.994 102.133 166.394 102C166.794 101.867 167.26 101.8 167.794 101.8C168.194 102.067 168.594 102.2 168.994 102.2C169.527 102.2 169.994 102.2 170.394 102.2C172.66 101.933 175.127 101.067 177.794 99.6C180.594 98 182.794 96.6667 184.394 95.6L185.794 94.4C186.06 94.1333 186.194 94 186.194 94C186.194 93.8667 186.327 93.7333 186.594 93.6C186.86 93.3333 187.06 93.2667 187.194 93.4C187.46 93.4 187.727 93.3333 187.994 93.2C188.527 93.2 188.994 93 189.394 92.6C189.927 92.2 190.394 91.9333 190.794 91.8C191.06 91.5333 191.327 91.3333 191.594 91.2C191.86 90.9333 192.26 90.6 192.794 90.2C193.327 89.8 193.994 89.2667 194.794 88.6C195.727 87.9333 196.927 87 198.394 85.8C198.394 85.9333 198.46 85.9333 198.594 85.8C198.727 85.8 198.927 85.5333 199.194 85C198.927 85.2667 198.727 85.4 198.594 85.4C198.727 85.1333 198.794 84.9333 198.794 84.8C198.927 84.5333 199.327 84.1333 199.994 83.6C199.994 83.6 200.06 83.5333 200.194 83.4C200.194 83.4 200.26 83.2667 200.394 83C200.66 82.7333 200.927 82.4667 201.194 82.2C201.46 81.9333 201.927 81.7333 202.594 81.6C202.86 81.0667 203.46 80.7333 204.394 80.6C204.794 80.2 204.994 79.8 204.994 79.4C205.927 79.1333 206.66 79 207.194 79C207.727 79 208.26 78.6 208.794 77.8C208.794 77.5333 208.86 77.4667 208.994 77.6C209.127 77.7333 209.194 77.6667 209.194 77.4C209.194 77.4 209.26 77.3333 209.394 77.2V77C209.66 76.7333 209.86 76.7333 209.994 77C210.127 77.1333 210.26 77.1333 210.394 77C210.394 76.7333 210.26 76.6 209.994 76.6C209.86 76.6 209.86 76.4667 209.994 76.2C210.26 76.2 210.394 76.2 210.394 76.2C210.527 76.0667 210.527 75.8667 210.394 75.6C210.394 75.2 210.527 75.4667 210.794 76.4C212.394 75.8667 213.327 76.1333 213.594 77.2V77.4C213.594 78.0667 213.394 78.6 212.994 79C212.727 79.4 212.46 79.8 212.194 80.2C212.194 80.4667 212.194 80.6 212.194 80.6C212.194 80.8667 211.994 81.3333 211.594 82C211.194 82.5333 210.86 82.8667 210.594 83C210.46 83.6667 210.26 84.0667 209.994 84.2C209.727 84.3333 209.46 84.5333 209.194 84.8C208.927 85.0667 208.66 85.4 208.394 85.8C208.26 86.0667 207.86 86.3333 207.194 86.6C206.127 87.5333 205.46 88.2 205.194 88.6C204.927 88.8667 204.66 89.1333 204.394 89.4C204.26 89.5333 203.994 89.8 203.594 90.2C203.194 90.4667 202.46 91.0667 201.394 92C201.127 91.7333 200.794 91.9333 200.394 92.6C200.127 93.1333 199.86 93.5333 199.594 93.8C198.527 94.4667 197.66 95.0667 196.994 95.6C196.327 96.1333 195.66 96.6667 194.994 97.2C194.46 97.7333 193.86 98.2667 193.194 98.8C192.527 99.2 191.727 99.6667 190.794 100.2C190.527 100.067 190.26 100.2 189.994 100.6C189.86 101 189.66 101.333 189.394 101.6C188.994 101.6 188.794 101.6 188.794 101.6V101C188.66 101.133 188.527 101.2 188.394 101.2C188.26 101.067 188.194 101.133 188.194 101.4C188.06 101.533 188.127 101.667 188.394 101.8C188.66 101.933 188.727 102.2 188.594 102.6H188.194C187.927 102.333 187.86 102.133 187.994 102C188.127 101.867 188.194 101.733 188.194 101.6C187.527 101.867 187.06 102.2 186.794 102.6C186.66 102.867 186.394 103.133 185.994 103.4C186.26 103.4 186.46 103.333 186.594 103.2C186.86 102.933 186.994 102.933 186.994 103.2C186.994 103.467 186.86 103.8 186.594 104.2C186.327 104.467 186.127 104.667 185.994 104.8C185.86 104.933 185.594 105.067 185.194 105.2V104.6C184.527 104.467 183.994 104.733 183.594 105.4C183.327 106.067 182.794 106.4 181.994 106.4C181.86 106.4 181.86 106.4 181.994 106.4C182.127 106.267 182.06 106.067 181.794 105.8C181.527 105.933 181.26 106 180.994 106C180.727 106 180.46 106.133 180.194 106.4C180.327 106.667 180.46 106.733 180.594 106.6C180.727 106.467 180.794 106.533 180.794 106.8C180.26 107.333 179.394 107.867 178.194 108.4C177.127 108.8 175.86 109.133 174.394 109.4C173.06 109.8 171.727 110.067 170.394 110.2C169.194 110.333 168.26 110.267 167.594 110C167.46 110 167.327 109.933 167.194 109.8C167.194 109.8 167.06 109.8 166.794 109.8C166.26 109.667 165.66 109.6 164.994 109.6C163.26 109.333 161.66 108.933 160.194 108.4C158.86 107.733 157.594 107 156.394 106.2C156.394 106.333 156.527 106.267 156.794 106C156.927 105.733 156.86 105.533 156.594 105.4C156.327 105.133 156.127 105.2 155.994 105.6C155.327 105.067 154.794 104.333 154.394 103.4C153.994 102.467 153.46 101.667 152.794 101C152.794 100.067 152.527 99.5333 151.994 99.4C151.194 96.3333 150.927 92.7333 151.194 88.6C151.594 84.3333 152.26 80.2 153.194 76.2C152.127 76.4667 151.327 76.9333 150.794 77.6C150.26 78.1333 149.66 78.7333 148.994 79.4C148.46 79.9333 147.927 80.2667 147.394 80.4C147.127 80.6667 146.794 81 146.394 81.4C145.994 81.6667 145.66 82 145.394 82.4C140.86 87.0667 136.127 91.6667 131.194 96.2C126.26 100.733 121.86 105.733 117.994 111.2L115.794 112.4C115.527 112.667 115.327 112.867 115.194 113C115.06 113.267 114.86 113.467 114.594 113.6C114.06 113.733 113.527 113.733 112.994 113.6C112.46 113.6 111.86 113.667 111.194 113.8H110.794C110.26 113.8 109.994 113.733 109.994 113.6C109.994 113.6 109.794 113.6 109.394 113.6L109.194 112.8C108.527 112.533 107.86 112.333 107.194 112.2C106.527 112.2 105.994 112.067 105.594 111.8C105.06 111.133 104.794 110.067 104.794 108.6V107.8L105.394 106.2L105.794 104.6C105.794 104.467 105.86 104.4 105.994 104.4C105.994 104.4 105.994 104.267 105.994 104L106.394 103.4C107.194 100.467 108.194 97.4667 109.394 94.4C110.994 90.1333 112.727 85.9333 114.594 81.8C116.594 77.6667 118.527 73.5333 120.394 69.4C122.927 63.6667 125.46 58.0667 127.994 52.6C130.527 47 132.927 41.4 135.194 35.8C135.727 35.6667 136.06 35.4 136.194 35L137.994 30.8C139.46 27.2 140.927 23.5333 142.394 19.8C143.86 16.0667 145.527 12.4667 147.394 9C148.327 7.53333 149.06 6.06666 149.594 4.6C150.127 3.13333 150.594 1.59999 150.994 -3.33786e-06ZM196.394 93C196.66 93.1333 196.994 92.8 197.394 92C197.794 91.0667 197.994 90.4667 197.994 90.2C197.46 90.4667 197.06 90.9333 196.794 91.6C196.66 92.1333 196.527 92.6 196.394 93ZM200.994 89.4C201.66 89.4 202.194 89.2 202.594 88.8C202.327 88.5333 202.194 88.4 202.194 88.4C202.327 88.6667 202.194 88.8 201.794 88.8C201.527 88.8 201.394 88.8667 201.394 89L200.994 89.4ZM157.794 106.8C158.06 106.8 158.327 106.933 158.594 107.2C158.86 107.333 159.127 107.4 159.394 107.4C159.394 107.133 159.194 106.933 158.794 106.8C158.394 106.533 158.06 106.533 157.794 106.8ZM185.794 104.6C185.794 104.467 185.794 104.267 185.794 104C185.927 103.733 185.927 103.6 185.794 103.6C185.527 103.733 185.394 104 185.394 104.4C185.394 104.667 185.527 104.733 185.794 104.6ZM198.594 85.4C198.594 85.5333 198.527 85.6667 198.394 85.8C198.394 85.6667 198.394 85.6 198.394 85.6C198.527 85.6 198.594 85.5333 198.594 85.4ZM290.442 88.8C289.776 88.6667 289.176 89 288.642 89.8C288.109 90.4667 287.576 91.1333 287.042 91.8C287.042 91.6667 287.109 91.4667 287.242 91.2C286.176 92 285.176 92.8667 284.242 93.8C283.309 94.6 282.309 95.5333 281.242 96.6H280.842V96.4C280.576 96.6667 280.242 97 279.842 97.4C279.576 97.8 279.242 97.8667 278.842 97.6C278.176 98 277.642 98.4667 277.242 99C276.976 99.5333 276.576 99.8667 276.042 100C275.376 100.667 274.842 101.2 274.442 101.6C274.042 101.867 273.442 102.333 272.642 103C272.642 102.867 272.509 102.8 272.242 102.8C271.842 103.333 270.976 103.733 269.642 104C268.176 104.8 266.842 105.667 265.642 106.6C264.576 107.4 263.442 107.8 262.242 107.8C261.042 107.933 260.176 108.067 259.642 108.2C259.109 108.333 258.509 108.333 257.842 108.2C256.776 108.2 255.442 108.467 253.842 109C252.242 109.667 250.909 109.8 249.842 109.4C249.576 108.733 249.109 108.267 248.442 108C247.776 107.6 247.109 107.267 246.442 107C245.909 106.733 245.509 106.133 245.242 105.2C243.776 104.267 242.709 102.933 242.042 101.2C241.376 99.3333 240.976 97.2667 240.842 95C240.842 92.6 241.042 90.1333 241.442 87.6C241.842 85.0667 242.376 82.6 243.042 80.2C241.176 81.6667 239.376 83.4667 237.642 85.6C235.909 87.6 234.176 89.5333 232.442 91.4C231.776 92.6 231.042 93.6 230.242 94.4C229.442 95.2 228.642 95.9333 227.842 96.6C225.576 99.2667 223.442 101.6 221.442 103.6C221.442 103.733 221.376 103.867 221.242 104C221.242 104 221.176 104.133 221.042 104.4C219.976 105.2 218.776 106.133 217.442 107.2C216.109 108.267 214.709 109.133 213.242 109.8C211.909 110.6 210.442 111.067 208.842 111.2C207.376 111.333 205.842 110.8 204.242 109.6C203.309 109.467 202.642 109.2 202.242 108.8C201.976 108.267 201.509 107.8 200.842 107.4C199.376 106.733 198.509 105.933 198.242 105C197.842 104.067 197.576 102.667 197.442 100.8C197.309 99.8667 197.442 98.6667 197.842 97.2C198.109 95.7333 198.509 94.4667 199.042 93.4C199.709 90.8667 200.709 88.5333 202.042 86.4C203.376 84.1333 204.642 82.0667 205.842 80.2C208.109 77.1333 210.376 74.3333 212.642 71.8C215.042 69.1333 217.509 66.5333 220.042 64C220.842 63.6 221.642 63.0667 222.442 62.4C223.376 61.7333 224.376 61.2 225.442 60.8C226.109 61.0667 226.842 60.9333 227.642 60.4C228.442 59.7333 229.109 59.8667 229.642 60.8C232.442 61.0667 234.909 61.7333 237.042 62.8C239.176 63.8667 240.642 65.6 241.442 68C242.376 67.3333 243.242 66.7333 244.042 66.2C244.842 65.6667 245.709 65.2667 246.642 65C247.042 64.8667 247.376 64.6 247.642 64.2C247.909 63.8 248.176 63.6 248.442 63.6C249.776 63.3333 250.976 63.6 252.042 64.4C253.242 65.2 254.376 65.8667 255.442 66.4C255.576 66.2667 255.709 66.2667 255.842 66.4C256.109 66.4 256.442 66.3333 256.842 66.2C257.109 66.6 257.309 66.9333 257.442 67.2C257.576 67.3333 257.709 67.6 257.842 68C258.109 70.4 257.776 73 256.842 75.8C256.042 78.6 255.109 80.9333 254.042 82.8C253.509 85.8667 252.776 89.2 251.842 92.8C250.909 96.4 250.842 99.5333 251.642 102.2C256.309 101.667 260.176 100.533 263.242 98.8C266.442 96.9333 269.642 95.1333 272.842 93.4C274.042 92.4667 275.109 91.6667 276.042 91C277.109 90.3333 278.109 89.4667 279.042 88.4C279.176 88.4 279.309 88.4667 279.442 88.6V88.8C280.109 88.8 281.442 88 283.442 86.4C285.442 84.6667 287.442 82.9333 289.442 81.2C291.576 79.3333 293.509 77.7333 295.242 76.4C297.109 75.0667 298.176 74.6 298.442 75C298.709 75.2667 299.042 75.3333 299.442 75.2C299.842 74.9333 300.176 74.8667 300.442 75C300.576 75.2667 300.576 75.4667 300.442 75.6C300.442 75.7333 300.509 75.8667 300.642 76V75.6C300.776 75.6 300.776 75.8 300.642 76.2C300.509 76.4667 300.376 76.8 300.242 77.2C300.109 77.4667 299.976 77.6667 299.842 77.8C299.709 77.9333 299.709 77.8 299.842 77.4C299.576 77.6667 299.242 78 298.842 78.4C298.576 78.6667 298.309 78.9333 298.042 79.2C297.776 79.8667 297.576 80.3333 297.442 80.6C297.442 80.8667 297.309 81.3333 297.042 82C296.642 82 296.376 81.9333 296.242 81.8C295.976 82.4667 295.576 82.9333 295.042 83.2C294.642 83.4667 294.309 84 294.042 84.8C293.776 84.8 293.509 85.1333 293.242 85.8L290.442 88.8ZM235.842 71.6C235.576 69.8667 235.042 68.4 234.242 67.2C233.576 66 232.309 65.8667 230.442 66.8L227.242 70.4C226.976 70.8 226.642 71.1333 226.242 71.4C225.842 71.5333 225.509 71.7333 225.242 72C224.976 72.2667 224.709 72.6667 224.442 73.2C224.176 73.6 223.842 74.0667 223.442 74.6L220.642 77.8C219.176 79.6667 217.709 81.8 216.242 84.2C214.909 86.4667 213.709 88.6667 212.642 90.8C212.376 91.4667 212.042 92.0667 211.642 92.6C211.242 93.1333 210.909 93.9333 210.642 95C210.376 94.8667 210.242 94.9333 210.242 95.2C210.242 95.3333 210.176 95.3333 210.042 95.2C209.776 96.6667 209.309 97.9333 208.642 99C207.976 99.9333 207.642 101.2 207.642 102.8C208.709 102.133 209.842 101.467 211.042 100.8C212.242 100.133 213.242 99.4 214.042 98.6C217.909 94.8667 221.576 91 225.042 87C228.642 82.8667 232.176 78.6667 235.642 74.4C236.042 74.1333 236.376 73.8 236.642 73.4C236.909 72.8667 237.242 72.5333 237.642 72.4V72C237.376 71.7333 236.776 71.6 235.842 71.6ZM352.37 87.2C352.37 87.4667 352.237 87.6667 351.97 87.8C351.837 87.9333 351.904 88 352.17 88C351.504 88.9333 350.437 90.2 348.97 91.8C347.637 93.2667 346.77 94.4 346.37 95.2C346.104 95.2 345.57 95.3333 344.77 95.6C345.037 95.2 345.437 94.8 345.97 94.4C346.637 94 347.17 93.6667 347.57 93.4C347.57 93.1333 347.704 92.7333 347.97 92.2C348.237 91.5333 348.504 90.9333 348.77 90.4C348.504 90.5333 348.17 91 347.77 91.8C347.37 92.6 347.037 93.1333 346.77 93.4C345.97 94.2 345.17 94.8 344.37 95.2C343.57 95.4667 342.837 96.1333 342.17 97.2C340.837 97.7333 339.704 98.7333 338.77 100.2C337.97 101.667 336.837 102.533 335.37 102.8C335.237 103.2 335.104 103.467 334.97 103.6C334.837 103.6 334.637 103.733 334.37 104C334.237 103.733 334.17 103.533 334.17 103.4C334.304 103.133 334.304 103 334.17 103L332.37 104.6C331.704 104.867 331.104 105.267 330.57 105.8C330.17 106.2 329.637 106.4 328.97 106.4C328.97 106.4 329.037 106.333 329.17 106.2C328.637 106.467 328.304 106.733 328.17 107C328.037 107.133 327.904 107.267 327.77 107.4C327.77 107.533 327.704 107.733 327.57 108C327.437 108.133 327.104 108.267 326.57 108.4C326.304 108.4 326.17 108.333 326.17 108.2C325.637 108.333 325.104 108.6 324.57 109C324.17 109.533 323.637 109.8 322.97 109.8C322.97 109.533 323.104 109.4 323.37 109.4C322.57 109.267 322.037 109.467 321.77 110C321.77 110 321.637 110 321.37 110L316.17 112.8C315.104 113.2 313.904 113.6 312.57 114C311.237 114.4 310.037 114.667 308.97 114.8C306.97 115.733 304.837 115.933 302.57 115.4C300.304 115 298.037 114.267 295.77 113.2C294.17 112.267 292.77 111.533 291.57 111C290.37 110.467 289.437 109.8 288.77 109C288.104 108.333 287.637 107.533 287.37 106.6C287.104 105.533 286.97 104.067 286.97 102.2C286.97 101.933 287.037 101.8 287.17 101.8C287.304 101.667 287.37 101.467 287.37 101.2C287.237 98.9333 287.504 96.2667 288.17 93.2C288.837 90.1333 289.504 87.2667 290.17 84.6C290.437 83.9333 290.57 83.3333 290.57 82.8C290.57 82.2667 290.77 81.7333 291.17 81.2C291.837 78.4 292.704 75.5333 293.77 72.6C294.837 69.5333 295.97 66.6 297.17 63.8C297.437 63.1333 297.57 62.8 297.57 62.8C297.57 62.6667 297.504 62.6 297.37 62.6L298.17 61.2C299.237 59.0667 300.504 56.4667 301.97 53.4C303.57 50.3333 304.704 47.6 305.37 45.2C304.837 45.6 304.637 45.7333 304.77 45.6C304.904 45.3333 304.637 45.2 303.97 45.2C303.037 45.4667 302.104 45.8 301.17 46.2C300.37 46.4667 299.504 46.6 298.57 46.6C297.504 46.8667 296.57 47.1333 295.77 47.4C294.97 47.6667 294.104 47.8667 293.17 48C291.57 48.2667 290.57 48.4 290.17 48.4C289.77 48.4 289.504 48.4 289.37 48.4C289.37 48.4 289.17 48.4667 288.77 48.6C288.504 48.7333 287.57 49 285.97 49.4C285.17 49.1333 284.237 49.2667 283.17 49.8C281.97 50.3333 280.837 50.5333 279.77 50.4C279.504 50.2667 279.37 50.2 279.37 50.2C279.237 50.0667 279.037 50 278.77 50C277.704 50.4 276.904 50.4667 276.37 50.2C275.704 49.8 275.17 49.2667 274.77 48.6C275.037 47.8 274.904 47.0667 274.37 46.4C273.837 45.7333 273.57 45.0667 273.57 44.4L274.37 45C277.17 44.4667 279.57 43.8667 281.57 43.2C283.57 42.4 285.77 41.6 288.17 40.8C290.57 40 293.437 39.2 296.77 38.4C300.104 37.6 304.504 36.8667 309.97 36.2C312.637 30.7333 315.37 25.7333 318.17 21.2C320.97 16.6667 323.904 12 326.97 7.2V6.2C327.237 5.93333 327.504 5.93333 327.77 6.2C328.17 6.33333 328.504 6.26666 328.77 5.99999C328.637 6.39999 328.704 6.66666 328.97 6.79999C329.37 6.79999 329.57 6.93333 329.57 7.2C330.237 7.33333 331.037 7.6 331.97 8C332.904 8.4 333.77 8.93333 334.57 9.6C335.37 10.2667 335.97 11 336.37 11.8C336.77 12.4667 336.77 13.2 336.37 14L334.57 15.4C334.437 15.6667 334.37 15.9333 334.37 16.2C333.97 17.4 333.304 18.5333 332.37 19.6C331.57 20.5333 330.904 21.5333 330.37 22.6C329.704 23.6667 329.17 24.6 328.77 25.4C328.504 26.2 328.037 27.2 327.37 28.4C326.704 29.7333 325.97 30.7333 325.17 31.4C324.37 31.9333 323.837 32.9333 323.57 34.4C325.837 34.1333 327.97 33.9333 329.97 33.8C331.97 33.6667 334.104 33.6 336.37 33.6C338.504 33.0667 340.37 32.8 341.97 32.8C343.57 32.8 344.57 32.8 344.97 32.8C345.637 32.8 346.037 32.8 346.17 32.8C346.437 32.8 346.57 32.8 346.57 32.8C346.704 32.8 346.837 32.8 346.97 32.8C347.104 32.8 347.437 32.7333 347.97 32.6C349.17 32.8667 350.304 32.8 351.37 32.4C352.57 32 353.837 32 355.17 32.4C355.57 32.4 355.97 32.4667 356.37 32.6C356.904 32.7333 357.437 32.7333 357.97 32.6C357.837 32.7333 357.904 32.7333 358.17 32.6C358.437 32.4667 358.704 32.4 358.97 32.4L358.77 32.6C359.57 32.8667 360.17 32.8667 360.57 32.6C360.17 32.3333 359.904 32.2 359.77 32.2C359.77 32.0667 360.304 32.2 361.37 32.6C362.437 32.6 363.77 32.7333 365.37 33C366.97 33.1333 368.304 33.8 369.37 35C369.504 35.1333 369.504 35.4 369.37 35.8C369.37 36.0667 369.437 36.3333 369.57 36.6C369.437 36.7333 369.304 36.8 369.17 36.8C369.037 36.8 368.97 36.9333 368.97 37.2C369.104 37.3333 369.17 37.4667 369.17 37.6C369.304 37.6 369.57 37.6667 369.97 37.8C369.704 38.0667 369.304 38.2 368.77 38.2C368.904 38.7333 369.304 39.2 369.97 39.6C369.704 39.8667 369.37 40 368.97 40C368.704 40 368.504 40.1333 368.37 40.4C368.104 40.4 367.837 40.3333 367.57 40.2C366.637 40.3333 365.77 40.3333 364.97 40.2C364.304 40.0667 363.437 40.2667 362.37 40.8C361.704 40.4 361.304 40.2667 361.17 40.4C361.037 40.5333 360.77 40.5333 360.37 40.4C360.37 40.1333 360.437 40.0667 360.57 40.2C360.704 40.2 360.77 40.0667 360.77 39.8C360.237 39.8 359.904 39.9333 359.77 40.2C359.637 40.3333 359.504 40.4667 359.37 40.6C359.37 40.7333 359.304 40.8 359.17 40.8C359.037 40.6667 358.77 40.4 358.37 40C357.837 40.2667 357.57 40.4 357.57 40.4L357.37 40.6H357.17C356.904 40.6 356.77 40.6 356.77 40.6C356.904 40.4667 356.904 40.3333 356.77 40.2C356.37 40.4667 356.17 40.6667 356.17 40.8C355.904 40.2667 355.37 40.2 354.57 40.6C353.904 40.8667 353.77 40.6667 354.17 40C353.904 40 353.704 40.2667 353.57 40.8C353.57 41.2 353.237 41.2 352.57 40.8C352.837 40.2667 352.97 40.0667 352.97 40.2C353.104 40.2 353.17 40.0667 353.17 39.8C353.037 39.8 352.837 39.8667 352.57 40C352.304 40.1333 352.104 40.4 351.97 40.8C351.97 40.8 351.97 40.6 351.97 40.2C351.437 40.2 351.17 40.4667 351.17 41C351.17 41 351.17 40.8 351.17 40.4C350.77 40.1333 350.504 40.0667 350.37 40.2C350.237 40.3333 349.97 40.4 349.57 40.4C349.304 40.1333 349.304 40.0667 349.57 40.2C349.837 40.2 350.104 40.0667 350.37 39.8C350.104 39.8 349.77 39.8 349.37 39.8C348.97 39.8 348.704 39.9333 348.57 40.2C347.77 39.6667 347.104 39.6667 346.57 40.2C346.704 40.4667 346.904 40.4667 347.17 40.2C347.57 39.9333 347.837 39.9333 347.97 40.2C347.837 40.3333 347.57 40.4667 347.17 40.6C346.77 40.7333 346.37 40.8667 345.97 41C345.704 41 345.504 41 345.37 41C345.237 40.8667 345.304 40.6667 345.57 40.4H344.77V40.2C344.637 40.2 344.57 40.2667 344.57 40.4V40.2C344.437 40.2 344.304 40.1333 344.17 40C344.17 39.8667 344.104 39.9333 343.97 40.2C344.104 40.2 344.17 40.2667 344.17 40.4C344.17 40.4 344.237 40.4 344.37 40.4C343.837 40.6667 343.57 40.9333 343.57 41.2C343.57 41.3333 343.437 41.2 343.17 40.8C343.17 40.2667 342.77 40.0667 341.97 40.2C341.17 40.2 340.437 40.3333 339.77 40.6V40.2C339.37 40.4667 338.837 40.7333 338.17 41C337.637 41.2667 337.104 41.1333 336.57 40.6C336.837 40.4667 337.037 40.4 337.17 40.4C337.304 40.4 337.437 40.3333 337.57 40.2C337.57 39.9333 337.504 39.8 337.37 39.8C337.237 39.8 337.17 39.7333 337.17 39.6C336.904 39.6 336.704 39.6667 336.57 39.8C336.437 39.9333 336.237 40.0667 335.97 40.2C335.837 40.2 335.77 40.0667 335.77 39.8C335.77 39.6667 335.837 39.6 335.97 39.6C335.304 39.6 335.037 39.5333 335.17 39.4C334.904 39.4 334.77 39.6667 334.77 40.2C334.77 40.7333 334.637 41.1333 334.37 41.4C333.704 41.4 333.104 41.4667 332.57 41.6C332.17 41.6 331.504 41.6 330.57 41.6C330.57 41.3333 330.637 41.2667 330.77 41.4C331.037 41.4 331.17 41.2667 331.17 41C331.037 41 330.97 41 330.97 41C330.97 40.8667 330.904 40.8 330.77 40.8H330.57C330.304 40.8 330.037 40.8667 329.77 41C329.504 41 329.237 41 328.97 41C328.704 41.6667 328.304 41.9333 327.77 41.8C327.37 41.5333 327.037 41.5333 326.77 41.8V41.6C326.37 41.6 326.104 41.7333 325.97 42C326.37 42.1333 326.637 42.0667 326.77 41.8C326.904 42.0667 326.97 42.1333 326.97 42C327.104 41.8667 327.17 41.9333 327.17 42.2C327.17 42.4667 327.037 42.6 326.77 42.6C326.637 42.6 326.437 42.7333 326.17 43C325.77 43 325.437 42.9333 325.17 42.8C324.904 42.5333 324.57 42.5333 324.17 42.8C323.504 42.8 322.704 42.8667 321.77 43C320.97 43.1333 320.237 43.2667 319.57 43.4C319.037 43.6667 318.704 44 318.57 44.4C318.437 44.6667 318.237 45.0667 317.97 45.6C317.037 48 315.704 50.8667 313.97 54.2C312.237 57.5333 310.837 60.6667 309.77 63.6C309.37 64.8 309.037 65.6667 308.77 66.2C308.637 66.7333 308.437 67.2 308.17 67.6C308.037 67.8667 307.837 68.2667 307.57 68.8C307.437 69.3333 307.17 70.2667 306.77 71.6C305.304 74 304.17 77 303.37 80.6C302.57 84.0667 301.837 87.6 301.17 91.2C300.904 92.4 300.57 93.6 300.17 94.8C299.77 96 299.504 97.2667 299.37 98.6C299.237 100.6 298.837 102.467 298.17 104.2C297.637 105.8 297.904 107.533 298.97 109.4C299.237 109.533 299.304 109.533 299.17 109.4C299.037 109.4 299.237 109.4 299.77 109.4C300.837 109.4 302.17 109.267 303.77 109C305.37 108.6 306.77 108.133 307.97 107.6C309.437 107.2 310.904 106.733 312.37 106.2C313.97 105.533 315.437 105 316.77 104.6C317.037 104.333 317.17 104.267 317.17 104.4C317.304 104.4 317.37 104.267 317.37 104C317.77 103.867 318.17 103.8 318.57 103.8C318.97 103.667 319.237 103.333 319.37 102.8C320.17 102.533 320.77 102.333 321.17 102.2C321.704 101.933 322.104 101.667 322.37 101.4C322.77 101.133 323.17 100.933 323.57 100.8C323.97 100.533 324.57 100.267 325.37 100V99.2C325.904 99.6 326.704 99.2 327.77 98C327.904 98 328.037 98.0667 328.17 98.2C329.37 97.4 330.704 96.5333 332.17 95.6C333.77 94.6667 335.237 93.7333 336.57 92.8C337.237 92.6667 338.304 92 339.77 90.8C341.237 89.6 342.704 88.2667 344.17 86.8C345.77 85.3333 347.17 84 348.37 82.8C349.57 81.4667 350.304 80.6667 350.57 80.4C350.704 80.5333 350.837 80.6 350.97 80.6C351.104 79.8 351.17 79.3333 351.17 79.2C351.304 79.0667 351.37 79 351.37 79C351.504 79 351.57 79 351.57 79C351.704 78.8667 351.97 78.5333 352.37 78C352.37 77.6 352.437 77.4 352.57 77.4C352.97 77.1333 353.237 76.9333 353.37 76.8C353.504 76.6667 353.704 76.4 353.97 76C354.77 76.1333 355.304 75.6667 355.57 74.6C356.504 74.8667 357.104 75.2 357.37 75.6C357.77 75.8667 358.104 75.8667 358.37 75.6C358.37 75.8667 358.504 76.0667 358.77 76.2C359.037 76.2 359.304 76.2 359.57 76.2C359.57 76.4667 359.504 76.6 359.37 76.6C359.37 76.6 359.37 76.6667 359.37 76.8C359.637 76.9333 359.437 77.1333 358.77 77.4C358.237 77.6667 358.304 77.8667 358.97 78C358.97 78.2667 358.837 78.6667 358.57 79.2C358.704 79.2 358.904 79.4 359.17 79.8C358.904 79.8 357.77 81.3333 355.77 84.4H355.97C355.837 84.5333 355.704 84.6 355.57 84.6C355.037 85.1333 354.77 85.3333 354.77 85.2L353.57 86.2V85.8C353.304 86.0667 353.17 86.3333 353.17 86.6C353.17 86.7333 353.037 86.8667 352.77 87C352.637 87.1333 352.57 87.3333 352.57 87.6V87.4C352.57 87.2667 352.504 87.2 352.37 87.2ZM356.17 83C356.037 83 356.17 82.8 356.57 82.4V82.2L356.17 82.4C355.904 82.8 355.57 83.2 355.17 83.6C354.904 83.8667 354.637 84.1333 354.37 84.4V83.8C353.837 84.6 353.637 85.2667 353.77 85.8L354.17 85.4H353.97L354.17 84.6C354.437 84.6 354.637 84.6667 354.77 84.8C354.77 84.4 355.037 84.0667 355.57 83.8L356.17 82.8V83ZM338.77 99.4C339.17 99 339.504 98.6667 339.77 98.4C340.17 98.1333 340.504 97.7333 340.77 97.2C340.37 97.4667 339.837 97.8 339.17 98.2C338.637 98.6 338.504 99 338.77 99.4ZM343.57 97.6C343.97 96.9333 344.37 96.5333 344.77 96.4C345.304 96.1333 345.837 95.8 346.37 95.4V95.6C345.837 95.8667 345.304 96.2 344.77 96.6C344.37 97 343.97 97.3333 343.57 97.6ZM357.57 37.6C357.304 37.8667 356.97 37.9333 356.57 37.8C356.304 37.5333 356.037 37.5333 355.77 37.8C356.037 37.9333 356.437 38.0667 356.97 38.2C357.504 38.2 357.704 38 357.57 37.6ZM347.77 93.4C347.637 92.7333 347.904 92.1333 348.57 91.6C349.237 91.0667 349.57 90.6667 349.57 90.4C349.837 90.6667 349.637 91.2 348.97 92C348.437 92.6667 348.037 93.1333 347.77 93.4ZM341.57 96C342.104 96.1333 342.437 96.0667 342.57 95.8C342.704 95.5333 342.904 95.2667 343.17 95C343.17 94.4667 343.237 94.1333 343.37 94C343.104 94 342.97 94.2 342.97 94.6C342.97 94.6 343.037 94.7333 343.17 95C342.904 95.1333 342.637 95.3333 342.37 95.6C342.104 95.7333 341.837 95.8667 341.57 96ZM324.17 41.8C324.437 42.0667 324.637 42.1333 324.77 42C324.904 41.8667 325.037 41.8 325.17 41.8C325.17 41.6667 325.237 41.6 325.37 41.6C325.504 41.4667 325.437 41.2667 325.17 41C325.17 41.2667 325.037 41.4667 324.77 41.6C324.504 41.6 324.304 41.6667 324.17 41.8ZM341.57 96.8C341.704 97.0667 341.904 97.1333 342.17 97C342.57 96.7333 342.637 96.4667 342.37 96.2C342.237 96.4667 342.037 96.6 341.77 96.6C341.637 96.4667 341.57 96.5333 341.57 96.8ZM341.37 93.8C341.637 93.9333 341.904 93.8667 342.17 93.6C342.437 93.3333 342.504 93.0667 342.37 92.8C342.104 93.0667 341.904 93.2667 341.77 93.4C341.77 93.5333 341.637 93.6667 341.37 93.8ZM344.57 40.6C344.437 40.6 344.37 40.5333 344.37 40.4H344.57C344.704 40.4 344.77 40.4 344.77 40.4C345.037 40.8 345.037 41 344.77 41C344.637 40.8667 344.57 40.7333 344.57 40.6ZM323.57 42C323.57 41.8667 323.637 41.8 323.77 41.8C323.904 41.8 323.97 41.7333 323.97 41.6C323.437 41.3333 323.304 41.4667 323.57 42ZM339.97 41C339.437 41.1333 339.17 41.2 339.17 41.2C339.304 41.0667 339.504 40.8667 339.77 40.6C339.77 40.8667 339.837 41 339.97 41ZM354.57 85C354.304 84.8667 354.17 84.9333 354.17 85.2C354.304 85.3333 354.304 85.4 354.17 85.4L354.57 85ZM330.57 40.8C330.57 41.0667 330.437 41.2 330.17 41.2C330.437 40.9333 330.57 40.8 330.57 40.8ZM356.17 83.4C356.437 83.1333 356.57 82.9333 356.57 82.8L356.17 83.2V83.4ZM343.97 93.8C344.104 93.9333 344.17 93.8 344.17 93.4C344.17 93.5333 344.104 93.6667 343.97 93.8ZM330.17 41.4C329.904 41.2667 329.904 41.2 330.17 41.2V41.4ZM346.57 95.2C346.437 95.3333 346.37 95.4 346.37 95.4V95.2H346.57ZM356.17 83.4C356.17 83.5333 356.104 83.6 355.97 83.6C356.104 83.6 356.17 83.5333 356.17 83.4ZM352.17 88L352.37 87.8L352.17 88Z" fill="black"/>
</svg>
