<svg width="387" height="120" viewBox="0 0 387 120" fill="none" xmlns="http://www.w3.org/2000/svg">
<path d="M3.4 96.8C3.66667 96.6667 3.86667 96.4 4 96C4 95.6 3.93333 95.2667 3.8 95C4.06667 94.3333 4.2 93.6667 4.2 93C4.33333 92.3333 4.73333 91.8667 5.4 91.6C5.8 91.2 5.86667 90.8667 5.6 90.6C5.46667 90.3333 5.66667 90.1333 6.2 90C6.46667 89.4667 6.66667 88.9333 6.8 88.4C7.06667 87.8667 7.4 87.4 7.8 87C8.86667 84.4667 10.2 81.8 11.8 79C13.5333 76.0667 15.0667 73.2667 16.4 70.6C17.0667 69.8 17.6667 69 18.2 68.2C18.7333 67.4 19.0667 66.5333 19.2 65.6H19.6C19.8667 64.2667 20.7333 63.8 22.2 64.2C23.8 64.4667 25.3333 64.8667 26.8 65.4C27.4667 65.6667 27.8667 66.0667 28 66.6C28.1333 67 28.2 67.4667 28.2 68C27.9333 68.1333 27.8 68.4 27.8 68.8C27.9333 69.0667 27.9333 69.3333 27.8 69.6C26.8667 71.0667 26.2 72.6 25.8 74.2C25.4 75.8 24.7333 77.3333 23.8 78.8C23.6667 79.0667 23.4667 79.2667 23.2 79.4C23.0667 79.5333 22.9333 79.7333 22.8 80C22.5333 80.5333 22.2667 81.3333 22 82.4C21.8667 83.3333 21.4667 84.3333 20.8 85.4C19.7333 87.5333 18.8 89.5333 18 91.4C17.2 93.2667 16.4 95.3333 15.6 97.6C15.2 99.7333 14.7333 101.533 14.2 103C13.8 104.467 14.1333 106.2 15.2 108.2C18.2667 107.4 20.9333 106.467 23.2 105.4C25.6 104.2 28.0667 102.933 30.6 101.6L36 97.6L37.6 96.6L44 91.8L49.4 87.6C49.9333 87.2 50.6 86.8 51.4 86.4C52.2 85.8667 52.8667 85.4 53.4 85C54.7333 83.9333 55.8 83.1333 56.6 82.6C57.4 81.9333 58.4667 81.1333 59.8 80.2C60.0667 79.8 60.3333 79.5333 60.6 79.4C61 79.1333 61.4667 78.8667 62 78.6L63.4 77.6C63.6667 76.9333 64.2667 76.4667 65.2 76.2C66.2667 75.9333 66.9333 75.3333 67.2 74.4C67.7333 74.5333 68 74.4 68 74C68.6667 74.2667 68.8667 74.6 68.6 75C68.4667 75.4 68.6667 75.7333 69.2 76C68.9333 76.1333 68.6667 76.4667 68.4 77C68.2667 77.5333 68.2 77.8667 68.2 78C68.7333 78.2667 69.0667 78 69.2 77.2C69.3333 76.2667 69.6 75.8667 70 76C70 76.1333 69.9333 76.5333 69.8 77.2C69.6667 77.7333 69.5333 78 69.4 78C70.0667 78.2667 70.2 78.6667 69.8 79.2C69.4 79.6 69.3333 80 69.6 80.4C69.3333 80.6667 69.1333 80.8667 69 81C68.8667 81 68.7333 81.2 68.6 81.6C68.3333 81.6 68.2667 81.4667 68.4 81.2C68.6667 80.9333 68.5333 80.8 68 80.8C67.8667 81.0667 67.7333 81.3333 67.6 81.6C67.4667 81.7333 67.3333 82.0667 67.2 82.6C66.9333 82.6 66.8 82.5333 66.8 82.4C66.9333 82.1333 67 81.9333 67 81.8C66.3333 81.8 66 82 66 82.4C65.3333 82.6667 64.9333 83.0667 64.8 83.6C64.6667 84.1333 64.4 84.6667 64 85.2C63.6 85.2 63.4667 85.1333 63.6 85C63.7333 84.8667 63.6 84.8 63.2 84.8C63.3333 84.9333 63.2 85.3333 62.8 86C62.5333 86.5333 62.2 87.0667 61.8 87.6C61.4 88.1333 61.0667 88.6 60.8 89C60.6667 89.2667 60.7333 89.1333 61 88.6C60.7333 88.4667 60.1333 88.7333 59.2 89.4C58.2667 90.0667 57.6667 90.5333 57.4 90.8L55 93.2C54.6 93.4667 53.8667 94 52.8 94.8C51.8667 95.6 51.2667 96.1333 51 96.4C51 96.4 50.8667 96.3333 50.6 96.2C50.6 96.3333 50.5333 96.4667 50.4 96.6C50.4 96.6 50.4 96.7333 50.4 97C50.2667 96.7333 50.0667 96.7333 49.8 97C49.5333 97.1333 49.5333 97.3333 49.8 97.6H49.2C49.2 97.7333 48.9333 98.2 48.4 99C47.8667 99.8 47.1333 100.467 46.2 101V100.2C45.9333 100.067 45.8 100.133 45.8 100.4C45.8 100.533 45.6667 100.667 45.4 100.8H46C45.8667 101.333 45.6667 101.667 45.4 101.8C45.1333 101.8 44.8 101.867 44.4 102C44.2667 102 44.2667 101.933 44.4 101.8C44.6667 101.667 44.6667 101.6 44.4 101.6C44.1333 101.867 43.8 102.2 43.4 102.6C43.1333 103 42.8 103.333 42.4 103.6C42.1333 103.2 41.8667 103.133 41.6 103.4C41.4667 103.667 41.2667 103.867 41 104C41 104 40.6667 104.133 40 104.4C39.6 104.667 39.2 104.933 38.8 105.2C38.5333 105.467 38.0667 105.667 37.4 105.8C37.2667 106.067 37.2 106.333 37.2 106.6C37.0667 106.6 37 106.533 37 106.4C37 106.267 36.8667 106.267 36.6 106.4C36.3333 106.667 36 107 35.6 107.4C35.2 107.667 34.6667 107.867 34 108C33.4667 108.933 32.6667 109.6 31.6 110C30.6667 110.4 29.6667 110.8 28.6 111.2C27 112.267 25.4 113 23.8 113.4C22.3333 113.667 20.7333 113.933 19 114.2C17.2667 114.6 15.4 114.667 13.4 114.4C12.0667 114.133 10.7333 113.933 9.4 113.8C8.2 113.667 7.26667 113.4 6.6 113C5.66667 112.333 4.86667 111.533 4.2 110.6C3.66667 109.667 3.2 108.867 2.8 108.2C2.4 108.067 2.2 107.867 2.2 107.6C2.2 107.333 2 107 1.6 106.6C1.6 106.467 1.66667 106.4 1.8 106.4C1.8 106.4 1.8 106.267 1.8 106C1.53333 106.267 1.33333 106.4 1.2 106.4C0.933333 105.733 1.06667 105.2 1.6 104.8C2 104.4 2 103.867 1.6 103.2C1.33333 103.467 1.2 104 1.2 104.8C0.933333 104.533 0.8 104.2 0.8 103.8C0.8 103.267 1.06667 103 1.6 103C1.6 102.2 1.86667 101.267 2.4 100.2C2.13333 100.2 1.93333 100.267 1.8 100.4C1.93333 99.7333 2.2 99.2 2.6 98.8C3 98.4 3.2 97.8667 3.2 97.2C2.93333 97.2 2.86667 97.3333 3 97.6C3 97.8667 2.93333 98 2.8 98C2.53333 97.3333 2.8 96.4667 3.6 95.4C3.73333 95.4 3.8 95.2667 3.8 95C3.8 95.2667 3.66667 95.6 3.4 96C3.13333 96.2667 3.13333 96.5333 3.4 96.8ZM36.6 51C36.3333 51.1333 36.2667 51.2667 36.4 51.4C36.5333 51.4 36.4667 51.5333 36.2 51.8C35.5333 52.3333 35 53 34.6 53.8C34.3333 54.6 33.7333 54.9333 32.8 54.8C32.1333 55.0667 31.6 55.5333 31.2 56.2C30.5333 56.2 30.1333 56.1333 30 56C29.8667 55.8667 29.6667 55.6667 29.4 55.4C28.7333 55.4 28.3333 55.6 28.2 56C27 55.6 26 55.2 25.2 54.8C24.5333 54.4 23.7333 54 22.8 53.6C22.8 52.4 22.9333 51.2667 23.2 50.2C23.6 49 24.6 48.5333 26.2 48.8C26.4667 48.5333 26.6667 48.4 26.8 48.4C26.9333 48.4 27.0667 48.3333 27.2 48.2C28.8 48.3333 30.2 48.6667 31.4 49.2C32.6 49.7333 34.0667 50.0667 35.8 50.2C35.5333 50.7333 35.8 51 36.6 51ZM63.6 84C63.0667 84.1333 62.6667 84.4 62.4 84.8C62.1333 85.2 62.2 85.6 62.6 86C62.6 85.6 62.8 85.2 63.2 84.8C63.4667 84.5333 63.6 84.2667 63.6 84ZM42.2 102.4C42.4667 102.4 42.7333 102.333 43 102.2C43.2667 101.933 43.2667 101.667 43 101.4L42.2 102.4ZM65.6 83C65.4667 82.8667 65.5333 82.8 65.8 82.8L65.6 83ZM174.517 107.8C174.251 107.933 173.984 108 173.717 108C173.451 107.867 173.251 107.867 173.117 108C173.117 108.133 172.851 108.067 172.317 107.8C171.917 108.467 171.517 109.133 171.117 109.8C170.717 110.333 170.184 110.467 169.517 110.2C169.251 110.467 168.917 110.733 168.517 111C168.251 111.133 167.917 111.4 167.517 111.8C167.384 111.933 167.317 111.933 167.317 111.8C166.917 112.067 166.117 112.4 164.917 112.8C163.851 113.2 162.717 113.6 161.517 114C160.317 114.533 159.184 115 158.117 115.4C157.184 115.8 156.584 116.133 156.317 116.4C155.517 116.4 154.584 116.533 153.517 116.8C152.584 117.067 151.784 117.467 151.117 118C149.517 118.267 147.651 118.6 145.517 119C143.517 119.533 141.317 119.467 138.917 118.8C138.251 118.667 137.917 118.6 137.917 118.6C137.917 118.733 137.984 118.867 138.117 119C138.251 119.133 138.317 119.267 138.317 119.4C138.317 119.533 138.051 119.6 137.517 119.6C137.517 119.067 137.384 118.733 137.117 118.6C136.851 118.6 136.584 118.6 136.317 118.6C136.051 118.333 135.717 118.067 135.317 117.8C135.051 117.667 134.584 117.533 133.917 117.4C131.384 115 129.317 112.267 127.717 109.2C126.117 106 125.117 102.467 124.717 98.6C124.717 98.2 124.784 97.8 124.917 97.4C125.051 96.8667 125.051 96.4667 124.917 96.2V87.4C124.917 87.1333 124.984 86.9333 125.117 86.8C125.384 86.5333 125.451 86.2667 125.317 86L125.917 81.4C125.917 81 125.851 80.7333 125.717 80.6C125.717 80.3333 125.717 80.0667 125.717 79.8L125.917 79.6C126.184 79.6 126.317 79.4667 126.317 79.2C126.584 78.9333 126.651 78.7333 126.517 78.6C126.384 78.4667 126.317 78.2667 126.317 78L127.517 74.4C127.651 74.1333 127.717 73.9333 127.717 73.8C127.851 73.5333 127.784 73.2 127.517 72.8C127.651 72.5333 127.917 72.5333 128.317 72.8C128.451 72.1333 128.584 71.4667 128.717 70.8C128.851 70.1333 128.784 69.5333 128.517 69H128.717C128.984 68.7333 129.117 68.4667 129.117 68.2C129.117 67.9333 129.251 67.8 129.517 67.8C129.651 65.8 130.184 64.0667 131.117 62.6C132.051 61 132.584 59.2667 132.717 57.4C133.651 57 133.984 56.4 133.717 55.6C133.984 55.6 134.117 55.4 134.117 55C134.117 54.4667 134.251 54.1333 134.517 54V53.8V53.4C135.851 51.6667 136.584 49.8667 136.717 48C138.851 45.0667 140.384 42.1333 141.317 39.2C141.851 39.0667 142.117 38.8667 142.117 38.6C142.251 38.2 142.384 37.8 142.517 37.4C143.184 36.3333 143.851 35.0667 144.517 33.6C145.184 32.1333 146.117 30.8667 147.317 29.8C147.717 28.8667 148.251 27.9333 148.917 27C149.584 26.0667 150.251 25.0667 150.917 24C153.184 20.8 155.451 17.6 157.717 14.4C159.984 11.0667 163.051 8.13333 166.917 5.6C167.584 4.93333 168.317 4.46666 169.117 4.19999C169.917 3.93333 170.851 3.6 171.917 3.19999C174.984 1.33333 178.117 1.53333 181.317 3.8C181.984 4.33333 182.784 4.73333 183.717 4.99999C184.651 5.13333 185.317 5.66666 185.717 6.6C186.251 6.73333 186.451 6.93333 186.317 7.19999C186.317 7.33333 186.384 7.6 186.517 7.99999C186.651 8.26666 186.851 8.53333 187.117 8.79999C187.384 9.06666 187.384 9.4 187.117 9.79999C186.984 10.0667 186.984 10.3333 187.117 10.6C187.384 10.8667 187.317 11.2667 186.917 11.8C186.784 12.4667 186.251 13.2667 185.317 14.2L184.917 17.2L183.517 18.8C183.117 19.8667 182.717 20.9333 182.317 22C181.917 22.9333 181.384 23.8 180.717 24.6C179.917 27.8 178.451 30.6667 176.317 33.2C174.184 35.7333 172.251 38.4 170.517 41.2C169.184 42.6667 168.051 44.3333 167.117 46.2C166.317 48.0667 165.317 49.8 164.117 51.4C163.717 51.6667 163.251 52 162.717 52.4C162.317 52.8 162.117 53.3333 162.117 54C160.384 55.4667 158.984 57.0667 157.917 58.8C156.984 60.5333 155.717 62.2667 154.117 64C153.851 64.9333 153.384 65.6 152.717 66C152.051 66.2667 151.584 66.8667 151.317 67.8C151.051 68.0667 150.784 68.2667 150.517 68.4C150.251 68.4 150.184 68.6667 150.317 69.2C149.517 69.4667 148.851 70.1333 148.317 71.2C147.917 72.2667 147.384 73 146.717 73.4C146.584 73.8 146.251 74.2 145.717 74.6C145.317 75 144.984 75.2667 144.717 75.4C143.784 76.3333 142.717 77.6 141.517 79.2C140.451 80.6667 138.784 82.1333 136.517 83.6C136.251 84 135.984 84.2 135.717 84.2V85.6C135.051 88.4 134.584 91.6 134.317 95.2C134.184 98.6667 134.517 102.133 135.317 105.6C135.851 107.6 136.251 108.667 136.517 108.8C136.784 108.933 136.984 108.867 137.117 108.6C137.384 108.333 137.517 108.267 137.517 108.4C137.651 108.533 137.851 109.467 138.117 111.2C138.117 111.333 138.184 111.4 138.317 111.4H138.717C138.851 111.533 139.051 111.6 139.317 111.6C141.851 112 143.584 112.133 144.517 112C145.584 112 146.851 111.667 148.317 111C150.451 110.2 152.451 109.467 154.317 108.8C156.317 108 158.184 107.067 159.917 106C159.917 106.133 160.051 106.2 160.317 106.2H160.517V106.4C160.784 106.4 160.851 106.267 160.717 106C160.984 106 161.117 106 161.117 106C161.117 105.867 161.184 105.8 161.317 105.8H161.717L162.317 105.2C164.584 104.133 166.651 102.733 168.517 101C170.517 99.1333 172.651 97.6667 174.917 96.6C174.917 96.2 175.051 96 175.317 96C175.584 95.8667 175.717 95.6 175.717 95.2C175.851 95.2 175.851 95.2667 175.717 95.4C175.717 95.5333 175.851 95.4667 176.117 95.2C177.451 94.5333 178.584 94 179.517 93.6C180.584 93.0667 181.051 92.2667 180.917 91.2C181.184 91.2 181.317 91.2667 181.317 91.4C181.317 91.5333 181.384 91.6 181.517 91.6C182.051 90.9333 182.451 90.4667 182.717 90.2C182.984 89.9333 183.251 89.7333 183.517 89.6C183.784 89.4667 184.051 89.3333 184.317 89.2C184.717 88.9333 185.251 88.4667 185.917 87.8C185.517 87.4 185.451 87.2 185.717 87.2C185.984 87.0667 186.184 86.8667 186.317 86.6C186.584 86.8667 186.584 87.0667 186.317 87.2C186.184 87.2 186.184 87.3333 186.317 87.6C187.384 86.4 188.384 85.2667 189.317 84.2C190.384 83.1333 190.984 82.8667 191.117 83.4C191.917 82.7333 192.251 82.4 192.117 82.4C192.117 82.2667 191.984 82.2 191.717 82.2C191.584 82.2 191.451 82.2 191.317 82.2C191.317 82.0667 191.717 81.7333 192.517 81.2C193.184 81.0667 193.717 81.2 194.117 81.6C193.984 82.5333 194.317 83.0667 195.117 83.2C194.584 83.4667 194.384 83.7333 194.517 84C194.784 84.2667 194.984 84.5333 195.117 84.8C195.117 85.3333 195.051 85.7333 194.917 86C194.784 87.3333 194.584 88.2667 194.317 88.8C194.184 89.2 193.984 89.4667 193.717 89.6C193.584 89.7333 193.384 89.8667 193.117 90C192.984 90 192.917 90.2 192.917 90.6C192.917 90.8667 192.984 91.0667 193.117 91.2V91.4C192.984 91.5333 192.851 91.4667 192.717 91.2C192.717 90.9333 192.584 90.7333 192.317 90.6C192.317 90.8667 192.251 91.1333 192.117 91.4C192.117 91.6667 192.251 91.8667 192.517 92C191.984 92.4 191.584 92.6667 191.317 92.8C191.051 92.9333 190.851 93 190.717 93C190.717 93 190.651 93.0667 190.517 93.2C190.384 93.3333 190.184 93.6667 189.917 94.2C189.917 94.2 189.917 94.1333 189.917 94V93.8C189.384 93.6667 189.117 93.8667 189.117 94.4C189.117 94.8 188.917 95.1333 188.517 95.4C188.251 95.1333 188.184 94.9333 188.317 94.8C188.584 94.6667 188.651 94.4667 188.517 94.2C188.251 94.0667 187.984 94.2 187.717 94.6C187.584 94.8667 187.384 94.8 187.117 94.4C186.984 94.6667 186.851 95.1333 186.717 95.8C186.584 96.4667 186.317 96.9333 185.917 97.2C185.651 97.2 185.584 97.0667 185.717 96.8C185.984 96.4 186.117 96.0667 186.117 95.8C185.317 96.3333 184.851 96.8 184.717 97.2C184.317 97.6 184.117 97.8 184.117 97.8C184.117 97.9333 184.251 98 184.517 98C184.517 98.2667 184.451 98.6 184.317 99C184.184 99.2667 183.784 99.5333 183.117 99.8C182.851 101 182.184 101.6 181.117 101.6C181.117 101.6 181.184 101.467 181.317 101.2V100.8C180.517 100.8 180.251 101.067 180.517 101.6C180.251 101.467 180.051 101.533 179.917 101.8C179.784 102.067 179.517 102.067 179.117 101.8C178.851 102.067 178.851 102.267 179.117 102.4C179.517 102.4 179.584 102.4 179.317 102.4C179.184 102.533 179.051 102.533 178.917 102.4C178.917 102.267 178.851 102.2 178.717 102.2C177.917 102.867 177.051 103.533 176.117 104.2C175.184 104.867 174.451 105.667 173.917 106.6C173.917 106.867 173.984 107.067 174.117 107.2C174.251 107.333 174.384 107.533 174.517 107.8ZM139.917 68C142.717 64.5333 145.251 61.2 147.517 58C149.784 54.6667 152.184 51.2667 154.717 47.8C154.717 47.6667 154.784 47.6 154.917 47.6C155.717 46.9333 156.317 46 156.717 44.8C157.251 43.6 157.784 42.6667 158.317 42C160.451 39.2 162.517 36.4 164.517 33.6C166.651 30.6667 168.451 27.6667 169.917 24.6C170.851 22.8667 171.717 21.2 172.517 19.6C173.317 17.8667 173.917 16.0667 174.317 14.2C175.784 13.2667 176.317 11.8 175.917 9.79999C174.451 10.2 173.317 11 172.517 12.2C171.717 13.2667 170.784 14.2 169.717 15C169.184 16.2 168.517 17.3333 167.717 18.4C166.917 19.3333 166.117 20.2667 165.317 21.2C161.851 24.1333 159.184 27.4667 157.317 31.2C155.451 34.9333 153.584 38.7333 151.717 42.6C151.317 42.7333 150.984 42.8 150.717 42.8C150.451 43.8667 149.984 44.8 149.317 45.6C148.651 46.2667 148.317 47.0667 148.317 48C147.517 49.0667 146.917 50.0667 146.517 51C146.117 51.9333 145.584 52.9333 144.917 54C144.651 54.6667 144.317 55.3333 143.917 56C143.651 56.5333 143.384 57.0667 143.117 57.6V58.6C142.851 59.1333 142.517 59.7333 142.117 60.4C141.717 60.9333 141.584 61.6667 141.717 62.6C141.051 63.4 140.584 64.2667 140.317 65.2C140.184 66.1333 139.984 67.0667 139.717 68H139.917ZM169.517 106.2C169.517 106.333 169.451 106.4 169.317 106.4C169.584 106.533 169.717 106.533 169.717 106.4C169.851 106.133 169.917 105.933 169.917 105.8C170.584 105.933 171.117 105.733 171.517 105.2C171.917 104.533 172.317 104 172.717 103.6C172.717 103.733 172.851 103.867 173.117 104C173.384 103.733 173.651 103.467 173.917 103.2C174.317 102.8 174.451 102.467 174.317 102.2C173.651 102.467 172.917 102.867 172.117 103.4C171.317 103.8 170.584 104.467 169.917 105.4H169.317V105.8C169.317 105.933 169.384 106 169.517 106C169.251 105.867 168.984 105.933 168.717 106.2C168.451 106.467 168.451 106.733 168.717 107C168.851 107 168.917 106.933 168.917 106.8C169.051 106.533 169.251 106.333 169.517 106.2ZM183.317 97.4C182.784 97.6667 182.384 97.8667 182.117 98C181.851 98.1333 181.584 98.3333 181.317 98.6C181.184 98.6 181.117 98.6 181.117 98.6C181.251 98.4667 181.184 98.4 180.917 98.4C180.651 98.6667 180.384 98.8667 180.117 99C179.984 99.1333 179.984 99.4667 180.117 100C180.917 99.7333 181.517 99.4 181.917 99C182.451 98.6 182.917 98.0667 183.317 97.4ZM191.917 88.8C191.251 89.2 190.917 89.8 190.917 90.6C191.317 90.7333 191.717 90.6667 192.117 90.4C192.517 90 192.451 89.4667 191.917 88.8ZM176.317 102.2C176.317 101.667 176.384 101.4 176.517 101.4C176.517 101.933 176.517 102.2 176.517 102.2C176.917 102.2 177.117 102.133 177.117 102C177.251 101.867 177.451 101.667 177.717 101.4C177.317 101.4 177.117 101.267 177.117 101C176.717 101.133 176.384 101.333 176.117 101.6C175.984 101.867 176.051 102.067 176.317 102.2ZM188.117 92.2C187.584 92.2 187.117 92.4 186.717 92.8C186.317 93.0667 186.184 93.3333 186.317 93.6C186.584 93.4667 186.784 93.3333 186.917 93.2C187.184 93.0667 187.584 92.7333 188.117 92.2ZM175.517 101.4C174.851 101.4 174.517 101.667 174.517 102.2C174.784 102.2 174.917 102.133 174.917 102C175.051 101.867 175.251 101.667 175.517 101.4ZM185.117 97C185.117 97.5333 184.917 97.8667 184.517 98C184.517 97.6 184.584 97.3333 184.717 97.2C184.717 97.0667 184.851 97 185.117 97ZM178.717 100C178.851 100.133 178.784 100.4 178.517 100.8C178.384 101.067 178.451 101.2 178.717 101.2C178.851 100.933 178.917 100.733 178.917 100.6C178.917 100.333 178.851 100.133 178.717 100ZM177.717 100.8C177.584 100.8 177.451 100.867 177.317 101C177.317 101 177.251 101 177.117 101C177.517 101.4 177.717 101.533 177.717 101.4C177.717 101.267 177.717 101.067 177.717 100.8ZM128.517 77.2C128.517 76.6667 128.451 76.3333 128.317 76.2C128.317 76.3333 128.251 76.5333 128.117 76.8C128.117 76.9333 128.251 77.0667 128.517 77.2ZM193.117 91.2V91.4V92.2V91V91.2ZM186.117 87.6C185.984 87.2 185.917 87.2667 185.917 87.8L186.117 87.6ZM169.717 106L169.517 106.2V106H169.717ZM193.317 92.2C193.317 92.3333 193.251 92.4 193.117 92.4C193.117 92.4 193.117 92.3333 193.117 92.2H193.317ZM185.627 96.8C185.893 96.6667 186.093 96.4 186.227 96C186.227 95.6 186.16 95.2667 186.027 95C186.293 94.3333 186.427 93.6667 186.427 93C186.56 92.3333 186.96 91.8667 187.627 91.6C188.027 91.2 188.093 90.8667 187.827 90.6C187.693 90.3333 187.893 90.1333 188.427 90C188.693 89.4667 188.893 88.9333 189.027 88.4C189.293 87.8667 189.627 87.4 190.027 87C191.093 84.4667 192.427 81.8 194.027 79C195.76 76.0667 197.293 73.2667 198.627 70.6C199.293 69.8 199.893 69 200.427 68.2C200.96 67.4 201.293 66.5333 201.427 65.6H201.827C202.093 64.2667 202.96 63.8 204.427 64.2C206.027 64.4667 207.56 64.8667 209.027 65.4C209.693 65.6667 210.093 66.0667 210.227 66.6C210.36 67 210.427 67.4667 210.427 68C210.16 68.1333 210.027 68.4 210.027 68.8C210.16 69.0667 210.16 69.3333 210.027 69.6C209.093 71.0667 208.427 72.6 208.027 74.2C207.627 75.8 206.96 77.3333 206.027 78.8C205.893 79.0667 205.693 79.2667 205.427 79.4C205.293 79.5333 205.16 79.7333 205.027 80C204.76 80.5333 204.493 81.3333 204.227 82.4C204.093 83.3333 203.693 84.3333 203.027 85.4C201.96 87.5333 201.027 89.5333 200.227 91.4C199.427 93.2667 198.627 95.3333 197.827 97.6C197.427 99.7333 196.96 101.533 196.427 103C196.027 104.467 196.36 106.2 197.427 108.2C200.493 107.4 203.16 106.467 205.427 105.4C207.827 104.2 210.293 102.933 212.827 101.6L218.227 97.6L219.827 96.6L226.227 91.8L231.627 87.6C232.16 87.2 232.827 86.8 233.627 86.4C234.427 85.8667 235.093 85.4 235.627 85C236.96 83.9333 238.027 83.1333 238.827 82.6C239.627 81.9333 240.693 81.1333 242.027 80.2C242.293 79.8 242.56 79.5333 242.827 79.4C243.227 79.1333 243.693 78.8667 244.227 78.6L245.627 77.6C245.893 76.9333 246.493 76.4667 247.427 76.2C248.493 75.9333 249.16 75.3333 249.427 74.4C249.96 74.5333 250.227 74.4 250.227 74C250.893 74.2667 251.093 74.6 250.827 75C250.693 75.4 250.893 75.7333 251.427 76C251.16 76.1333 250.893 76.4667 250.627 77C250.493 77.5333 250.427 77.8667 250.427 78C250.96 78.2667 251.293 78 251.427 77.2C251.56 76.2667 251.827 75.8667 252.227 76C252.227 76.1333 252.16 76.5333 252.027 77.2C251.893 77.7333 251.76 78 251.627 78C252.293 78.2667 252.427 78.6667 252.027 79.2C251.627 79.6 251.56 80 251.827 80.4C251.56 80.6667 251.36 80.8667 251.227 81C251.093 81 250.96 81.2 250.827 81.6C250.56 81.6 250.493 81.4667 250.627 81.2C250.893 80.9333 250.76 80.8 250.227 80.8C250.093 81.0667 249.96 81.3333 249.827 81.6C249.693 81.7333 249.56 82.0667 249.427 82.6C249.16 82.6 249.027 82.5333 249.027 82.4C249.16 82.1333 249.227 81.9333 249.227 81.8C248.56 81.8 248.227 82 248.227 82.4C247.56 82.6667 247.16 83.0667 247.027 83.6C246.893 84.1333 246.627 84.6667 246.227 85.2C245.827 85.2 245.693 85.1333 245.827 85C245.96 84.8667 245.827 84.8 245.427 84.8C245.56 84.9333 245.427 85.3333 245.027 86C244.76 86.5333 244.427 87.0667 244.027 87.6C243.627 88.1333 243.293 88.6 243.027 89C242.893 89.2667 242.96 89.1333 243.227 88.6C242.96 88.4667 242.36 88.7333 241.427 89.4C240.493 90.0667 239.893 90.5333 239.627 90.8L237.227 93.2C236.827 93.4667 236.093 94 235.027 94.8C234.093 95.6 233.493 96.1333 233.227 96.4C233.227 96.4 233.093 96.3333 232.827 96.2C232.827 96.3333 232.76 96.4667 232.627 96.6C232.627 96.6 232.627 96.7333 232.627 97C232.493 96.7333 232.293 96.7333 232.027 97C231.76 97.1333 231.76 97.3333 232.027 97.6H231.427C231.427 97.7333 231.16 98.2 230.627 99C230.093 99.8 229.36 100.467 228.427 101V100.2C228.16 100.067 228.027 100.133 228.027 100.4C228.027 100.533 227.893 100.667 227.627 100.8H228.227C228.093 101.333 227.893 101.667 227.627 101.8C227.36 101.8 227.027 101.867 226.627 102C226.493 102 226.493 101.933 226.627 101.8C226.893 101.667 226.893 101.6 226.627 101.6C226.36 101.867 226.027 102.2 225.627 102.6C225.36 103 225.027 103.333 224.627 103.6C224.36 103.2 224.093 103.133 223.827 103.4C223.693 103.667 223.493 103.867 223.227 104C223.227 104 222.893 104.133 222.227 104.4C221.827 104.667 221.427 104.933 221.027 105.2C220.76 105.467 220.293 105.667 219.627 105.8C219.493 106.067 219.427 106.333 219.427 106.6C219.293 106.6 219.227 106.533 219.227 106.4C219.227 106.267 219.093 106.267 218.827 106.4C218.56 106.667 218.227 107 217.827 107.4C217.427 107.667 216.893 107.867 216.227 108C215.693 108.933 214.893 109.6 213.827 110C212.893 110.4 211.893 110.8 210.827 111.2C209.227 112.267 207.627 113 206.027 113.4C204.56 113.667 202.96 113.933 201.227 114.2C199.493 114.6 197.627 114.667 195.627 114.4C194.293 114.133 192.96 113.933 191.627 113.8C190.427 113.667 189.493 113.4 188.827 113C187.893 112.333 187.093 111.533 186.427 110.6C185.893 109.667 185.427 108.867 185.027 108.2C184.627 108.067 184.427 107.867 184.427 107.6C184.427 107.333 184.227 107 183.827 106.6C183.827 106.467 183.893 106.4 184.027 106.4C184.027 106.4 184.027 106.267 184.027 106C183.76 106.267 183.56 106.4 183.427 106.4C183.16 105.733 183.293 105.2 183.827 104.8C184.227 104.4 184.227 103.867 183.827 103.2C183.56 103.467 183.427 104 183.427 104.8C183.16 104.533 183.027 104.2 183.027 103.8C183.027 103.267 183.293 103 183.827 103C183.827 102.2 184.093 101.267 184.627 100.2C184.36 100.2 184.16 100.267 184.027 100.4C184.16 99.7333 184.427 99.2 184.827 98.8C185.227 98.4 185.427 97.8667 185.427 97.2C185.16 97.2 185.093 97.3333 185.227 97.6C185.227 97.8667 185.16 98 185.027 98C184.76 97.3333 185.027 96.4667 185.827 95.4C185.96 95.4 186.027 95.2667 186.027 95C186.027 95.2667 185.893 95.6 185.627 96C185.36 96.2667 185.36 96.5333 185.627 96.8ZM218.827 51C218.56 51.1333 218.493 51.2667 218.627 51.4C218.76 51.4 218.693 51.5333 218.427 51.8C217.76 52.3333 217.227 53 216.827 53.8C216.56 54.6 215.96 54.9333 215.027 54.8C214.36 55.0667 213.827 55.5333 213.427 56.2C212.76 56.2 212.36 56.1333 212.227 56C212.093 55.8667 211.893 55.6667 211.627 55.4C210.96 55.4 210.56 55.6 210.427 56C209.227 55.6 208.227 55.2 207.427 54.8C206.76 54.4 205.96 54 205.027 53.6C205.027 52.4 205.16 51.2667 205.427 50.2C205.827 49 206.827 48.5333 208.427 48.8C208.693 48.5333 208.893 48.4 209.027 48.4C209.16 48.4 209.293 48.3333 209.427 48.2C211.027 48.3333 212.427 48.6667 213.627 49.2C214.827 49.7333 216.293 50.0667 218.027 50.2C217.76 50.7333 218.027 51 218.827 51ZM245.827 84C245.293 84.1333 244.893 84.4 244.627 84.8C244.36 85.2 244.427 85.6 244.827 86C244.827 85.6 245.027 85.2 245.427 84.8C245.693 84.5333 245.827 84.2667 245.827 84ZM224.427 102.4C224.693 102.4 224.96 102.333 225.227 102.2C225.493 101.933 225.493 101.667 225.227 101.4L224.427 102.4ZM247.827 83C247.693 82.8667 247.76 82.8 248.027 82.8L247.827 83ZM316.408 93.4C316.141 94.0667 315.808 94.5333 315.408 94.8C315.141 94.9333 314.941 95.3333 314.808 96C314.541 96 314.408 96 314.408 96C314.408 95.8667 314.274 95.8 314.008 95.8C313.741 96.4667 313.341 96.9333 312.808 97.2C312.274 97.4667 311.874 98 311.608 98.8L310.808 99.2C310.141 99.8667 309.874 100.2 310.008 100.2C310.141 100.2 310.341 100.133 310.608 100C310.874 99.8667 311.008 99.8 311.008 99.8C311.141 99.8 310.808 100.133 310.008 100.8C309.341 100.667 308.941 100.667 308.808 100.8C308.674 100.933 308.408 101.067 308.008 101.2C307.741 101.867 307.341 102.2 306.808 102.2H306.608C306.874 102.2 307.008 102 307.008 101.6C306.474 101.867 305.808 102.2 305.008 102.6C304.341 103 303.674 103.2 303.008 103.2C302.741 103.467 302.474 103.667 302.208 103.8C301.941 103.8 301.808 104 301.808 104.4C301.674 104.133 301.341 104.067 300.808 104.2C300.408 104.333 300.008 104.467 299.608 104.6C299.341 104.733 299.141 105 299.008 105.4C298.874 105.667 298.674 105.8 298.408 105.8C297.608 105.8 297.008 105.933 296.608 106.2C296.208 106.467 295.808 106.6 295.408 106.6C295.141 106.6 294.874 106.733 294.608 107C294.341 107.267 294.074 107.4 293.808 107.4C292.741 108.067 291.541 108.533 290.208 108.8C288.874 109.067 287.608 109.267 286.408 109.4C285.741 109.667 285.141 109.933 284.608 110.2C284.208 110.333 283.608 110.4 282.808 110.4C280.674 110.533 278.541 110.467 276.408 110.2C274.408 109.8 272.474 109.267 270.608 108.6C266.874 107.533 263.808 106.067 261.408 104.2C260.208 103.4 259.141 102.467 258.208 101.4C257.274 100.333 256.608 99.0667 256.208 97.6C255.141 98.8 254.141 100.2 253.208 101.8C252.274 103.4 251.274 105 250.208 106.6C249.808 106.867 249.474 107.2 249.208 107.6C248.941 107.867 248.808 108.2 248.808 108.6C248.808 108.867 248.741 109.133 248.608 109.4C247.941 110.467 247.274 111.467 246.608 112.4C246.074 113.333 245.808 114.533 245.808 116C244.341 117.2 242.874 118 241.408 118.4C239.941 118 238.808 117.4 238.008 116.6C237.208 115.8 236.008 115.267 234.408 115C233.741 113.933 233.474 112.533 233.608 110.8C233.608 108.933 234.008 107.6 234.808 106.8C235.074 103.867 235.741 101.133 236.808 98.6C237.874 95.9333 238.808 93.1333 239.608 90.2C240.808 86.0667 242.008 82 243.208 78C244.408 74 245.674 70 247.008 66L248.008 64.2C248.274 63.6667 248.408 63.2 248.408 62.8C248.541 62.4 248.741 62.0667 249.008 61.8C250.608 56.3333 252.541 51.2667 254.808 46.6C257.074 41.9333 259.141 37.0667 261.008 32L261.408 31.6C262.741 28.2667 263.941 25.0667 265.008 22C266.208 18.9333 267.474 15.8667 268.808 12.8C269.608 11.0667 270.341 9.53333 271.008 8.19999C271.808 6.73333 272.341 4.99999 272.608 3C273.141 3.26666 273.608 3.39999 274.008 3.39999C274.408 3.26666 274.941 3.19999 275.608 3.19999C275.608 3.33333 275.674 3.39999 275.808 3.39999C275.808 3.39999 275.941 3.39999 276.208 3.39999C276.608 3.39999 276.941 3.39999 277.208 3.39999C277.474 3.26666 277.741 3.19999 278.008 3.19999C278.274 3.19999 278.674 3.33333 279.208 3.59999C279.741 3.86666 280.141 3.93333 280.408 3.8C280.674 3.66666 280.808 3.73332 280.808 4C280.941 4.13333 281.208 4.33333 281.608 4.6C282.274 4.86666 282.808 5.13333 283.208 5.39999C283.741 5.53333 284.141 5.93333 284.408 6.6C284.808 7.8 284.808 9.26667 284.408 11C283.341 11.9333 282.474 13.0667 281.808 14.4C281.141 15.6 280.341 16.7333 279.408 17.8C279.274 18.0667 279.208 18.4667 279.208 19C279.208 19.2667 279.074 19.3333 278.808 19.2C278.674 19.0667 278.541 19.1333 278.408 19.4C277.874 20.7333 277.208 22.1333 276.408 23.6C275.741 25.0667 275.274 26.6667 275.008 28.4C274.741 28.4 274.608 28.4667 274.608 28.6C274.608 28.6 274.474 28.6667 274.208 28.8C274.208 29.8667 274.074 30.6 273.808 31C273.541 31.4 273.408 32 273.408 32.8C272.741 33.3333 272.274 34.0667 272.008 35C271.741 35.9333 271.274 36.7333 270.608 37.4C269.674 40.3333 268.541 43.3333 267.208 46.4C266.008 49.3333 264.874 52.3333 263.808 55.4C263.008 56.3333 262.341 57.5333 261.808 59C261.274 60.3333 260.674 61.5333 260.008 62.6C258.541 67.6667 256.874 72.6667 255.008 77.6C253.141 82.4 251.674 87.3333 250.608 92.4C252.474 89.8667 254.474 87.4667 256.608 85.2C258.874 82.8 261.074 80.4667 263.208 78.2C263.741 77.5333 264.274 76.8667 264.808 76.2C265.341 75.4 265.941 74.7333 266.608 74.2L270.008 71.6C271.608 70.2667 273.341 68.8667 275.208 67.4C277.074 65.9333 278.941 64.7333 280.808 63.8C281.074 63.5333 281.341 63.4 281.608 63.4C281.874 63.4 282.141 63.3333 282.408 63.2C283.208 62.4 284.008 61.9333 284.808 61.8C285.741 61.8 286.608 62.0667 287.408 62.6C288.341 63.1333 289.274 63.5333 290.208 63.8C290.474 64.6 290.874 65.4667 291.408 66.4C292.074 67.2 292.208 68.1333 291.808 69.2C291.674 69.4667 291.408 69.6667 291.008 69.8C290.741 69.9333 290.474 70.1333 290.208 70.4C290.074 70.5333 290.008 70.8 290.008 71.2L288.008 73.2C287.341 73.8667 286.674 74.4 286.008 74.8C285.341 75.2 284.608 75.6667 283.808 76.2C280.874 78.6 277.941 80.9333 275.008 83.2C272.074 85.4667 269.274 87.8 266.608 90.2C266.474 90.2 266.341 90.4 266.208 90.8C265.541 91.0667 265.074 91.4667 264.808 92C264.541 92.5333 264.141 92.9333 263.608 93.2C263.608 93.8667 263.808 94.2667 264.208 94.4C264.074 95.0667 264.008 95.6 264.008 96C264.008 96.4 264.141 96.8 264.408 97.2C264.808 97.6 265.141 98.0667 265.408 98.6C265.674 99 265.941 99.4 266.208 99.8C267.274 101.267 268.808 102.267 270.808 102.8C272.808 103.333 274.741 103.6 276.608 103.6C281.808 103.6 286.274 102.867 290.008 101.4C293.741 99.8 297.541 98.2667 301.408 96.8C301.674 96.8 301.874 96.6667 302.008 96.4C302.141 96 302.341 95.8 302.608 95.8C302.608 95.5333 302.608 95.4667 302.608 95.6C302.741 95.7333 302.874 95.8 303.008 95.8C303.274 95.5333 303.474 95.2667 303.608 95C303.874 94.7333 304.141 94.5333 304.408 94.4C305.074 94.1333 305.541 94 305.808 94C306.074 94 306.274 93.8 306.408 93.4C306.274 93.5333 306.008 93.6667 305.608 93.8C305.341 93.8 305.541 93.4667 306.208 92.8C307.008 92.5333 307.408 92.6 307.408 93C307.408 93.4 307.808 93.4 308.608 93C309.274 91.6667 309.941 90.8667 310.608 90.6C311.408 90.3333 312.274 89.8667 313.208 89.2C313.474 89.4667 313.608 89.7333 313.608 90C313.608 90.1333 313.874 90.2 314.408 90.2C314.674 89.9333 314.808 89.6667 314.808 89.4C314.941 89 315.141 88.8 315.408 88.8C315.541 88.9333 315.541 89 315.408 89C315.274 89 315.208 89.0667 315.208 89.2C315.474 89.4667 315.674 89.5333 315.808 89.4C315.941 89.1333 316.008 89.0667 316.008 89.2C316.008 89.6 316.008 90.0667 316.008 90.6C316.008 91.1333 316.208 91.6 316.608 92C315.941 92.4 315.874 92.8667 316.408 93.4ZM381.711 87.8C381.978 88.2 381.511 88.8667 380.311 89.8C379.111 90.7333 377.911 91.8 376.711 93C376.444 93.1333 375.844 93.6 374.911 94.4C373.978 95.2 373.444 95.7333 373.311 96L372.111 97L368.711 99.6L367.111 100.6L364.311 102.4C362.044 103.867 359.911 105.267 357.911 106.6C355.911 107.933 353.444 109.133 350.511 110.2C350.378 110.2 350.111 110.267 349.711 110.4C349.444 110.533 349.111 110.667 348.711 110.8C348.178 110.933 347.711 111.067 347.311 111.2C346.778 111.2 346.311 111.333 345.911 111.6C345.511 111.733 344.978 111.8 344.311 111.8C344.178 111.8 344.244 111.667 344.511 111.4C343.844 111.533 343.311 111.667 342.911 111.8C342.511 111.8 342.044 112 341.511 112.4C341.111 112.133 340.711 112.133 340.311 112.4C340.044 112.8 339.644 112.867 339.111 112.6C338.844 113 338.444 113.133 337.911 113C337.378 112.867 336.911 113 336.511 113.4C336.244 113.267 336.178 113.133 336.311 113C336.444 113 336.378 112.933 336.111 112.8C335.711 112.933 335.178 112.933 334.511 112.8C333.978 112.8 333.378 113 332.711 113.4C332.311 113.133 331.978 113.067 331.711 113.2C331.578 113.333 331.178 113.267 330.511 113L330.311 113.4C328.311 113 326.844 112.867 325.911 113C325.378 112.867 324.978 112.733 324.711 112.6C324.444 112.467 324.178 112.533 323.911 112.8C322.444 112.533 321.044 112.267 319.711 112C318.511 111.6 317.178 111.067 315.711 110.4C314.111 109.733 312.711 108.8 311.511 107.6C310.311 106.267 309.178 104.867 308.111 103.4C307.578 102.467 307.178 101.533 306.911 100.6C306.644 99.6667 306.378 98.8 306.111 98C305.844 96.9333 305.711 96 305.711 95.2C305.711 94.2667 305.844 93.2667 306.111 92.2C306.378 90.7333 306.844 88.7333 307.511 86.2C308.044 83.6667 309.044 81.4667 310.511 79.6L315.111 74.4L318.111 70.4C319.178 69.6 320.044 68.9333 320.711 68.4C321.378 67.8667 322.178 67.0667 323.111 66C323.778 65.3333 324.578 64.8 325.511 64.4C326.444 63.8667 327.244 63.2667 327.911 62.6C329.111 61.8 330.044 61.0667 330.711 60.4C331.644 59.7333 332.644 59.1333 333.711 58.6C334.778 57.9333 335.778 57.4667 336.711 57.2C337.111 56.9333 337.644 56.8 338.311 56.8C338.978 56.8 339.511 56.6667 339.911 56.4C340.178 56.2667 340.444 56.1333 340.711 56C340.978 55.8667 341.311 55.8 341.711 55.8C342.378 56.8667 343.244 57.8 344.311 58.6C345.511 59.2667 346.444 60.1333 347.111 61.2C348.044 61.4667 348.578 61.9333 348.711 62.6C348.844 63.2667 349.244 63.8667 349.911 64.4C350.178 65.4667 350.178 66.4 349.911 67.2C349.778 68 349.444 68.8667 348.911 69.8C348.644 70.0667 348.511 70.3333 348.511 70.6C348.511 70.8667 348.444 71.1333 348.311 71.4C348.044 72.0667 347.578 72.6667 346.911 73.2C346.378 73.6 345.844 74.1333 345.311 74.8C345.044 75.0667 344.778 75.4667 344.511 76C344.378 76.5333 344.178 77.0667 343.911 77.6C343.378 78.1333 342.711 78.8 341.911 79.6C341.111 80.4 340.378 81.2 339.711 82C339.044 82.9333 338.178 83.6 337.111 84C336.178 84.4 335.378 85 334.711 85.8C334.311 86.0667 334.111 86.4667 334.111 87C333.044 88.0667 331.778 89.0667 330.311 90C328.978 90.8 327.778 91.7333 326.711 92.8C324.578 93.2 322.578 94 320.711 95.2C318.978 96.4 316.911 96.7333 314.511 96.2C314.244 96.3333 314.178 96.4667 314.311 96.6C314.578 96.7333 314.911 96.8 315.311 96.8C314.911 97.4667 314.844 98 315.111 98.4C315.511 98.6667 315.778 99 315.911 99.4C316.978 100.467 318.244 101.467 319.711 102.4C321.178 103.333 322.778 103.933 324.511 104.2C329.444 105.667 334.111 105.733 338.511 104.4C339.978 104.133 341.311 103.867 342.511 103.6C343.844 103.333 345.378 102.867 347.111 102.2C349.244 101.4 351.178 100.533 352.911 99.6L355.511 98.4C355.911 98.1333 356.111 98.0667 356.111 98.2C356.244 98.2 356.244 98.2667 356.111 98.4C356.111 98.4 356.111 98.4667 356.111 98.6C356.111 98.6 356.311 98.4667 356.711 98.2L361.911 95.8C363.378 94.7333 364.578 93.9333 365.511 93.4C366.444 92.7333 367.844 91.6667 369.711 90.2C369.844 90.0667 370.244 89.8 370.911 89.4C371.578 88.8667 372.244 88.3333 372.911 87.8C373.711 87.2667 374.444 86.8 375.111 86.4C375.778 85.8667 376.244 85.5333 376.511 85.4L378.511 83.4C380.111 82.3333 381.444 81.4667 382.511 80.8C383.711 80 384.578 79.4667 385.111 79.2C385.511 79.6 385.778 80.2 385.911 81C386.044 81.6667 386.311 82 386.711 82C385.911 83.2 385.311 84.1333 384.911 84.8C384.644 85.3333 384.378 85.7333 384.111 86C383.978 86.2667 383.711 86.5333 383.311 86.8C383.044 86.9333 382.511 87.2667 381.711 87.8ZM339.311 65.4C338.911 65.6667 338.444 66 337.911 66.4C337.378 66.8 336.911 67.1333 336.511 67.4C335.978 67.4 335.644 67.5333 335.511 67.8C335.244 67.9333 334.978 68.0667 334.711 68.2C334.578 68.3333 334.378 68.4667 334.111 68.6L332.511 69.8C331.844 70.4667 331.178 71 330.511 71.4C329.844 71.6667 329.178 72.0667 328.511 72.6C327.711 73.6667 326.911 74.5333 326.111 75.2C325.444 75.7333 324.711 76.5333 323.911 77.6C322.444 78.5333 321.244 79.6667 320.311 81C318.844 82.4667 317.511 83.9333 316.311 85.4C315.111 86.7333 314.178 88.1333 313.511 89.6C316.044 88.8 318.444 87.5333 320.711 85.8C322.978 84.0667 325.378 82.2667 327.911 80.4C328.711 79.7333 329.511 79.0667 330.311 78.4C331.111 77.7333 331.844 76.9333 332.511 76C333.711 75.3333 335.044 74.2667 336.511 72.8C338.111 71.2 339.444 69.6667 340.511 68.2C340.778 67.5333 341.044 66.9333 341.311 66.4C341.711 65.8667 341.778 65.3333 341.511 64.8C341.244 64.8 340.844 64.8667 340.311 65C339.911 65 339.578 65.1333 339.311 65.4Z" fill="black"/>
</svg>
