<svg width="132" height="145" viewBox="0 0 132 145" fill="none" xmlns="http://www.w3.org/2000/svg">
<path d="M32.6917 49.207C18.8612 32.0033 17.7658 31.7795 21.6386 28.4627" stroke="#001A23" stroke-width="7" stroke-linecap="round"/>
<path d="M60.055 4.80664C49.3824 3.19541 82.6972 28.6814 71.6985 35.1257" stroke="#001A23" stroke-width="7" stroke-linecap="round"/>
<path d="M28.6974 91.3706C6.85402 88.1898 5.89944 88.7718 6.47694 83.7056" stroke="#001A23" stroke-width="7" stroke-linecap="round"/>
<rect x="117.674" y="27.6914" width="105" height="92" rx="46" transform="rotate(85.1932 117.674 27.6914)" fill="#F4F4F4" stroke="#F4F4F4" stroke-width="17" stroke-linecap="round" stroke-linejoin="round" stroke-dasharray="1 15"/>
<rect x="117.674" y="35.3066" width="97.3032" height="92" rx="46" transform="rotate(85.1932 117.674 35.3066)" fill="white" stroke="white" stroke-width="17" stroke-linecap="round" stroke-linejoin="round" stroke-dasharray="1 15"/>
<path d="M63.931 67.3667C62.2706 66.9698 62.5176 63.9384 64.022 63.9648" stroke="#001A23" stroke-width="3" stroke-linecap="round"/>
<path d="M66.1902 57.1724C64.9434 55.2153 65.4434 51.7153 66.6948 50.774" stroke="#001A23" stroke-width="3" stroke-linecap="round"/>
<path d="M68.1901 78.1719C66.9433 76.2148 67.4433 72.7148 68.6947 71.7735" stroke="#001A23" stroke-width="3" stroke-linecap="round"/>
<path d="M39.1543 88.9229C48.6543 105.923 53.1543 97.9229 60.5535 113.141" stroke="#001A23" stroke-width="7" stroke-linecap="round"/>
</svg>
