<svg width="145" height="84" viewBox="0 0 145 84" fill="none" xmlns="http://www.w3.org/2000/svg">
<path d="M69.0648 6C64.6947 13.1015 80.747 14.8796 83.3408 7.09815" stroke="black" stroke-opacity="0.8" stroke-width="12" stroke-linecap="round"/>
<path d="M92.4156 27.7446C98.2087 39.6629 131.695 32.7791 138.338 20.2839" stroke="black" stroke-opacity="0.8" stroke-width="12" stroke-linecap="round"/>
<path d="M105.468 6.35254C105.826 7.60544 109.08 12.6082 115.492 12.0399C119.515 11.6833 123.423 6.54909 123.423 6.54909" stroke="black" stroke-opacity="0.8" stroke-width="12" stroke-linecap="round"/>
<path d="M6.87464 34.2859C5.59693 34.4456 6.02343 39.9384 6.27866 40.7041C7.02042 42.9294 10.2 43.4105 12.2843 42.8588C13.2249 42.6098 15.4711 38.19 15.5621 39.1454C15.9715 43.4437 19.1273 42.657 23.0577 42.5379C24.9624 42.4801 25.6405 40.9511 27.0003 39.833C27.65 39.2988 28.35 38.8499 28.8799 38.1827C28.9454 38.1002 29.4031 37.1021 29.5676 37.4721C30.4231 39.397 30.8477 40.5963 33.2809 39.9706C34.4602 39.6673 38.4045 38.9125 39.0573 37.7701C39.5027 36.9906 41.1571 38.1872 42.3581 37.5867" stroke="black" stroke-opacity="0.8" stroke-width="12" stroke-linecap="round"/>
<path d="M57.7201 66.0537C56.0198 66.2663 56.5873 73.576 56.927 74.5949C57.9141 77.5562 62.1454 78.1965 64.9191 77.4623C66.1709 77.1309 69.1601 71.2493 69.2812 72.5206C69.826 78.2407 74.0257 77.1937 79.2561 77.0352C81.7909 76.9584 82.6932 74.9236 84.5028 73.4357C85.3675 72.7248 86.299 72.1274 87.0042 71.2394C87.0913 71.1297 87.7005 69.8015 87.9193 70.2938C89.0578 72.8554 89.623 74.4514 92.861 73.6188C94.4304 73.2152 99.6793 72.2107 100.548 70.6904C101.141 69.6531 103.342 71.2455 104.941 70.4463" stroke="black" stroke-opacity="0.8" stroke-width="12" stroke-linecap="round"/>
<path d="M8.5249 27.2717C10.4918 25.3726 12.2099 23.7654 14.9431 23.375C16.5603 23.1439 18.2007 23.3364 19.8026 23.1228C20.6421 23.0109 21.2432 22.4024 22.1865 22.3435C26.5772 22.0691 30.9254 21.908 35.3438 21.908C42.5374 21.908 47.8174 24.0666 52.6729 28.9221" stroke="black" stroke-opacity="0.8" stroke-width="12" stroke-linecap="round"/>
<path d="M59.9165 56.7193C62.5341 54.192 64.8204 52.0532 68.4577 51.5336C70.6099 51.2261 72.7929 51.4823 74.9246 51.198C76.0419 51.0491 76.8418 50.2393 78.097 50.1609C83.94 49.7957 89.7266 49.5813 95.6065 49.5813C105.18 49.5813 112.206 52.454 118.668 58.9156" stroke="black" stroke-opacity="0.8" stroke-width="12" stroke-linecap="round"/>
</svg>
