<svg width="194" height="60" viewBox="0 0 194 60" fill="none" xmlns="http://www.w3.org/2000/svg">
<path d="M1.7 48.4C1.83333 48.3333 1.93333 48.2 2 48C2 47.8 1.96667 47.6333 1.9 47.5C2.03333 47.1667 2.1 46.8333 2.1 46.5C2.16667 46.1667 2.36667 45.9333 2.7 45.8C2.9 45.6 2.93333 45.4333 2.8 45.3C2.73333 45.1667 2.83333 45.0667 3.1 45C3.23333 44.7333 3.33333 44.4667 3.4 44.2C3.53333 43.9333 3.7 43.7 3.9 43.5C4.43333 42.2333 5.1 40.9 5.9 39.5C6.76667 38.0333 7.53333 36.6333 8.2 35.3C8.53333 34.9 8.83333 34.5 9.1 34.1C9.36667 33.7 9.53333 33.2667 9.6 32.8H9.8C9.93333 32.1333 10.3667 31.9 11.1 32.1C11.9 32.2333 12.6667 32.4333 13.4 32.7C13.7333 32.8333 13.9333 33.0333 14 33.3C14.0667 33.5 14.1 33.7333 14.1 34C13.9667 34.0667 13.9 34.2 13.9 34.4C13.9667 34.5333 13.9667 34.6667 13.9 34.8C13.4333 35.5333 13.1 36.3 12.9 37.1C12.7 37.9 12.3667 38.6667 11.9 39.4C11.8333 39.5333 11.7333 39.6333 11.6 39.7C11.5333 39.7667 11.4667 39.8667 11.4 40C11.2667 40.2667 11.1333 40.6667 11 41.2C10.9333 41.6667 10.7333 42.1667 10.4 42.7C9.86667 43.7667 9.4 44.7667 9 45.7C8.6 46.6333 8.2 47.6667 7.8 48.8C7.6 49.8667 7.36667 50.7667 7.1 51.5C6.9 52.2333 7.06667 53.1 7.6 54.1C9.13333 53.7 10.4667 53.2333 11.6 52.7C12.8 52.1 14.0333 51.4667 15.3 50.8L18 48.8L18.8 48.3L22 45.9L24.7 43.8C24.9667 43.6 25.3 43.4 25.7 43.2C26.1 42.9333 26.4333 42.7 26.7 42.5C27.3667 41.9667 27.9 41.5667 28.3 41.3C28.7 40.9667 29.2333 40.5667 29.9 40.1C30.0333 39.9 30.1667 39.7667 30.3 39.7C30.5 39.5667 30.7333 39.4333 31 39.3L31.7 38.8C31.8333 38.4667 32.1333 38.2333 32.6 38.1C33.1333 37.9667 33.4667 37.6667 33.6 37.2C33.8667 37.2667 34 37.2 34 37C34.3333 37.1333 34.4333 37.3 34.3 37.5C34.2333 37.7 34.3333 37.8667 34.6 38C34.4667 38.0667 34.3333 38.2333 34.2 38.5C34.1333 38.7667 34.1 38.9333 34.1 39C34.3667 39.1333 34.5333 39 34.6 38.6C34.6667 38.1333 34.8 37.9333 35 38C35 38.0667 34.9667 38.2667 34.9 38.6C34.8333 38.8667 34.7667 39 34.7 39C35.0333 39.1333 35.1 39.3333 34.9 39.6C34.7 39.8 34.6667 40 34.8 40.2C34.6667 40.3333 34.5667 40.4333 34.5 40.5C34.4333 40.5 34.3667 40.6 34.3 40.8C34.1667 40.8 34.1333 40.7333 34.2 40.6C34.3333 40.4667 34.2667 40.4 34 40.4C33.9333 40.5333 33.8667 40.6667 33.8 40.8C33.7333 40.8667 33.6667 41.0333 33.6 41.3C33.4667 41.3 33.4 41.2667 33.4 41.2C33.4667 41.0667 33.5 40.9667 33.5 40.9C33.1667 40.9 33 41 33 41.2C32.6667 41.3333 32.4667 41.5333 32.4 41.8C32.3333 42.0667 32.2 42.3333 32 42.6C31.8 42.6 31.7333 42.5667 31.8 42.5C31.8667 42.4333 31.8 42.4 31.6 42.4C31.6667 42.4667 31.6 42.6667 31.4 43C31.2667 43.2667 31.1 43.5333 30.9 43.8C30.7 44.0667 30.5333 44.3 30.4 44.5C30.3333 44.6333 30.3667 44.5667 30.5 44.3C30.3667 44.2333 30.0667 44.3667 29.6 44.7C29.1333 45.0333 28.8333 45.2667 28.7 45.4L27.5 46.6C27.3 46.7333 26.9333 47 26.4 47.4C25.9333 47.8 25.6333 48.0667 25.5 48.2C25.5 48.2 25.4333 48.1667 25.3 48.1C25.3 48.1667 25.2667 48.2333 25.2 48.3C25.2 48.3 25.2 48.3667 25.2 48.5C25.1333 48.3667 25.0333 48.3667 24.9 48.5C24.7667 48.5667 24.7667 48.6667 24.9 48.8H24.6C24.6 48.8667 24.4667 49.1 24.2 49.5C23.9333 49.9 23.5667 50.2333 23.1 50.5V50.1C22.9667 50.0333 22.9 50.0667 22.9 50.2C22.9 50.2667 22.8333 50.3333 22.7 50.4H23C22.9333 50.6667 22.8333 50.8333 22.7 50.9C22.5667 50.9 22.4 50.9333 22.2 51C22.1333 51 22.1333 50.9667 22.2 50.9C22.3333 50.8333 22.3333 50.8 22.2 50.8C22.0667 50.9333 21.9 51.1 21.7 51.3C21.5667 51.5 21.4 51.6667 21.2 51.8C21.0667 51.6 20.9333 51.5667 20.8 51.7C20.7333 51.8333 20.6333 51.9333 20.5 52C20.5 52 20.3333 52.0667 20 52.2C19.8 52.3333 19.6 52.4667 19.4 52.6C19.2667 52.7333 19.0333 52.8333 18.7 52.9C18.6333 53.0333 18.6 53.1667 18.6 53.3C18.5333 53.3 18.5 53.2667 18.5 53.2C18.5 53.1333 18.4333 53.1333 18.3 53.2C18.1667 53.3333 18 53.5 17.8 53.7C17.6 53.8333 17.3333 53.9333 17 54C16.7333 54.4667 16.3333 54.8 15.8 55C15.3333 55.2 14.8333 55.4 14.3 55.6C13.5 56.1333 12.7 56.5 11.9 56.7C11.1667 56.8333 10.3667 56.9667 9.5 57.1C8.63333 57.3 7.7 57.3333 6.7 57.2C6.03333 57.0667 5.36667 56.9667 4.7 56.9C4.1 56.8333 3.63333 56.7 3.3 56.5C2.83333 56.1667 2.43333 55.7667 2.1 55.3C1.83333 54.8333 1.6 54.4333 1.4 54.1C1.2 54.0333 1.1 53.9333 1.1 53.8C1.1 53.6667 1 53.5 0.8 53.3C0.8 53.2333 0.833333 53.2 0.9 53.2C0.9 53.2 0.9 53.1333 0.9 53C0.766667 53.1333 0.666667 53.2 0.6 53.2C0.466667 52.8667 0.533333 52.6 0.8 52.4C1 52.2 1 51.9333 0.8 51.6C0.666667 51.7333 0.6 52 0.6 52.4C0.466667 52.2667 0.4 52.1 0.4 51.9C0.4 51.6333 0.533333 51.5 0.8 51.5C0.8 51.1 0.933333 50.6333 1.2 50.1C1.06667 50.1 0.966667 50.1333 0.9 50.2C0.966667 49.8667 1.1 49.6 1.3 49.4C1.5 49.2 1.6 48.9333 1.6 48.6C1.46667 48.6 1.43333 48.6667 1.5 48.8C1.5 48.9333 1.46667 49 1.4 49C1.26667 48.6667 1.4 48.2333 1.8 47.7C1.86667 47.7 1.9 47.6333 1.9 47.5C1.9 47.6333 1.83333 47.8 1.7 48C1.56667 48.1333 1.56667 48.2667 1.7 48.4ZM18.3 25.5C18.1667 25.5667 18.1333 25.6333 18.2 25.7C18.2667 25.7 18.2333 25.7667 18.1 25.9C17.7667 26.1667 17.5 26.5 17.3 26.9C17.1667 27.3 16.8667 27.4667 16.4 27.4C16.0667 27.5333 15.8 27.7667 15.6 28.1C15.2667 28.1 15.0667 28.0667 15 28C14.9333 27.9333 14.8333 27.8333 14.7 27.7C14.3667 27.7 14.1667 27.8 14.1 28C13.5 27.8 13 27.6 12.6 27.4C12.2667 27.2 11.8667 27 11.4 26.8C11.4 26.2 11.4667 25.6333 11.6 25.1C11.8 24.5 12.3 24.2667 13.1 24.4C13.2333 24.2667 13.3333 24.2 13.4 24.2C13.4667 24.2 13.5333 24.1667 13.6 24.1C14.4 24.1667 15.1 24.3333 15.7 24.6C16.3 24.8667 17.0333 25.0333 17.9 25.1C17.7667 25.3667 17.9 25.5 18.3 25.5ZM31.8 42C31.5333 42.0667 31.3333 42.2 31.2 42.4C31.0667 42.6 31.1 42.8 31.3 43C31.3 42.8 31.4 42.6 31.6 42.4C31.7333 42.2667 31.8 42.1333 31.8 42ZM21.1 51.2C21.2333 51.2 21.3667 51.1667 21.5 51.1C21.6333 50.9667 21.6333 50.8333 21.5 50.7L21.1 51.2ZM32.8 41.5C32.7333 41.4333 32.7667 41.4 32.9 41.4L32.8 41.5ZM87.2586 53.9C87.1253 53.9667 86.9919 54 86.8586 54C86.7253 53.9333 86.6253 53.9333 86.5586 54C86.5586 54.0667 86.4253 54.0333 86.1586 53.9C85.9586 54.2333 85.7586 54.5667 85.5586 54.9C85.3586 55.1667 85.0919 55.2333 84.7586 55.1C84.6253 55.2333 84.4586 55.3667 84.2586 55.5C84.1253 55.5667 83.9586 55.7 83.7586 55.9C83.6919 55.9667 83.6586 55.9667 83.6586 55.9C83.4586 56.0333 83.0586 56.2 82.4586 56.4C81.9253 56.6 81.3586 56.8 80.7586 57C80.1586 57.2667 79.5919 57.5 79.0586 57.7C78.5919 57.9 78.2919 58.0667 78.1586 58.2C77.7586 58.2 77.2919 58.2667 76.7586 58.4C76.2919 58.5333 75.8919 58.7333 75.5586 59C74.7586 59.1333 73.8253 59.3 72.7586 59.5C71.7586 59.7667 70.6586 59.7333 69.4586 59.4C69.1253 59.3333 68.9586 59.3 68.9586 59.3C68.9586 59.3667 68.9919 59.4333 69.0586 59.5C69.1253 59.5667 69.1586 59.6333 69.1586 59.7C69.1586 59.7667 69.0253 59.8 68.7586 59.8C68.7586 59.5333 68.6919 59.3667 68.5586 59.3C68.4253 59.3 68.2919 59.3 68.1586 59.3C68.0253 59.1667 67.8586 59.0333 67.6586 58.9C67.5253 58.8333 67.2919 58.7667 66.9586 58.7C65.6919 57.5 64.6586 56.1333 63.8586 54.6C63.0586 53 62.5586 51.2333 62.3586 49.3C62.3586 49.1 62.3919 48.9 62.4586 48.7C62.5253 48.4333 62.5253 48.2333 62.4586 48.1V43.7C62.4586 43.5667 62.4919 43.4667 62.5586 43.4C62.6919 43.2667 62.7253 43.1333 62.6586 43L62.9586 40.7C62.9586 40.5 62.9253 40.3667 62.8586 40.3C62.8586 40.1667 62.8586 40.0333 62.8586 39.9L62.9586 39.8C63.0919 39.8 63.1586 39.7333 63.1586 39.6C63.2919 39.4667 63.3253 39.3667 63.2586 39.3C63.1919 39.2333 63.1586 39.1333 63.1586 39L63.7586 37.2C63.8253 37.0667 63.8586 36.9667 63.8586 36.9C63.9253 36.7667 63.8919 36.6 63.7586 36.4C63.8253 36.2667 63.9586 36.2667 64.1586 36.4C64.2253 36.0667 64.2919 35.7333 64.3586 35.4C64.4253 35.0667 64.3919 34.7667 64.2586 34.5H64.3586C64.4919 34.3667 64.5586 34.2333 64.5586 34.1C64.5586 33.9667 64.6253 33.9 64.7586 33.9C64.8253 32.9 65.0919 32.0333 65.5586 31.3C66.0253 30.5 66.2919 29.6333 66.3586 28.7C66.8253 28.5 66.9919 28.2 66.8586 27.8C66.9919 27.8 67.0586 27.7 67.0586 27.5C67.0586 27.2333 67.1253 27.0667 67.2586 27V26.9V26.7C67.9253 25.8333 68.2919 24.9333 68.3586 24C69.4253 22.5333 70.1919 21.0667 70.6586 19.6C70.9253 19.5333 71.0586 19.4333 71.0586 19.3C71.1253 19.1 71.1919 18.9 71.2586 18.7C71.5919 18.1667 71.9253 17.5333 72.2586 16.8C72.5919 16.0667 73.0586 15.4333 73.6586 14.9C73.8586 14.4333 74.1253 13.9667 74.4586 13.5C74.7919 13.0333 75.1253 12.5333 75.4586 12C76.5919 10.4 77.7253 8.8 78.8586 7.2C79.9919 5.53333 81.5253 4.06667 83.4586 2.8C83.7919 2.46667 84.1586 2.23333 84.5586 2.1C84.9586 1.96666 85.4253 1.8 85.9586 1.6C87.4919 0.666664 89.0586 0.766665 90.6586 1.9C90.9919 2.16667 91.3919 2.36667 91.8586 2.5C92.3253 2.56666 92.6586 2.83333 92.8586 3.3C93.1253 3.36666 93.2253 3.46666 93.1586 3.6C93.1586 3.66666 93.1919 3.8 93.2586 4C93.3253 4.13333 93.4253 4.26667 93.5586 4.4C93.6919 4.53333 93.6919 4.7 93.5586 4.9C93.4919 5.03333 93.4919 5.16667 93.5586 5.3C93.6919 5.43333 93.6586 5.63333 93.4586 5.9C93.3919 6.23333 93.1253 6.63333 92.6586 7.1L92.4586 8.6L91.7586 9.4C91.5586 9.93333 91.3586 10.4667 91.1586 11C90.9586 11.4667 90.6919 11.9 90.3586 12.3C89.9586 13.9 89.2253 15.3333 88.1586 16.6C87.0919 17.8667 86.1253 19.2 85.2586 20.6C84.5919 21.3333 84.0253 22.1667 83.5586 23.1C83.1586 24.0333 82.6586 24.9 82.0586 25.7C81.8586 25.8333 81.6253 26 81.3586 26.2C81.1586 26.4 81.0586 26.6667 81.0586 27C80.1919 27.7333 79.4919 28.5333 78.9586 29.4C78.4919 30.2667 77.8586 31.1333 77.0586 32C76.9253 32.4667 76.6919 32.8 76.3586 33C76.0253 33.1333 75.7919 33.4333 75.6586 33.9C75.5253 34.0333 75.3919 34.1333 75.2586 34.2C75.1253 34.2 75.0919 34.3333 75.1586 34.6C74.7586 34.7333 74.4253 35.0667 74.1586 35.6C73.9586 36.1333 73.6919 36.5 73.3586 36.7C73.2919 36.9 73.1253 37.1 72.8586 37.3C72.6586 37.5 72.4919 37.6333 72.3586 37.7C71.8919 38.1667 71.3586 38.8 70.7586 39.6C70.2253 40.3333 69.3919 41.0667 68.2586 41.8C68.1253 42 67.9919 42.1 67.8586 42.1V42.8C67.5253 44.2 67.2919 45.8 67.1586 47.6C67.0919 49.3333 67.2586 51.0667 67.6586 52.8C67.9253 53.8 68.1253 54.3333 68.2586 54.4C68.3919 54.4667 68.4919 54.4333 68.5586 54.3C68.6919 54.1667 68.7586 54.1333 68.7586 54.2C68.8253 54.2667 68.9253 54.7333 69.0586 55.6C69.0586 55.6667 69.0919 55.7 69.1586 55.7H69.3586C69.4253 55.7667 69.5253 55.8 69.6586 55.8C70.9253 56 71.7919 56.0667 72.2586 56C72.7919 56 73.4253 55.8333 74.1586 55.5C75.2253 55.1 76.2253 54.7333 77.1586 54.4C78.1586 54 79.0919 53.5333 79.9586 53C79.9586 53.0667 80.0253 53.1 80.1586 53.1H80.2586V53.2C80.3919 53.2 80.4253 53.1333 80.3586 53C80.4919 53 80.5586 53 80.5586 53C80.5586 52.9333 80.5919 52.9 80.6586 52.9H80.8586L81.1586 52.6C82.2919 52.0667 83.3253 51.3667 84.2586 50.5C85.2586 49.5667 86.3253 48.8333 87.4586 48.3C87.4586 48.1 87.5253 48 87.6586 48C87.7919 47.9333 87.8586 47.8 87.8586 47.6C87.9253 47.6 87.9253 47.6333 87.8586 47.7C87.8586 47.7667 87.9253 47.7333 88.0586 47.6C88.7253 47.2667 89.2919 47 89.7586 46.8C90.2919 46.5333 90.5253 46.1333 90.4586 45.6C90.5919 45.6 90.6586 45.6333 90.6586 45.7C90.6586 45.7667 90.6919 45.8 90.7586 45.8C91.0253 45.4667 91.2253 45.2333 91.3586 45.1C91.4919 44.9667 91.6253 44.8667 91.7586 44.8C91.8919 44.7333 92.0253 44.6667 92.1586 44.6C92.3586 44.4667 92.6253 44.2333 92.9586 43.9C92.7586 43.7 92.7253 43.6 92.8586 43.6C92.9919 43.5333 93.0919 43.4333 93.1586 43.3C93.2919 43.4333 93.2919 43.5333 93.1586 43.6C93.0919 43.6 93.0919 43.6667 93.1586 43.8C93.6919 43.2 94.1919 42.6333 94.6586 42.1C95.1919 41.5667 95.4919 41.4333 95.5586 41.7C95.9586 41.3667 96.1253 41.2 96.0586 41.2C96.0586 41.1333 95.9919 41.1 95.8586 41.1C95.7919 41.1 95.7253 41.1 95.6586 41.1C95.6586 41.0333 95.8586 40.8667 96.2586 40.6C96.5919 40.5333 96.8586 40.6 97.0586 40.8C96.9919 41.2667 97.1586 41.5333 97.5586 41.6C97.2919 41.7333 97.1919 41.8667 97.2586 42C97.3919 42.1333 97.4919 42.2667 97.5586 42.4C97.5586 42.6667 97.5253 42.8667 97.4586 43C97.3919 43.6667 97.2919 44.1333 97.1586 44.4C97.0919 44.6 96.9919 44.7333 96.8586 44.8C96.7919 44.8667 96.6919 44.9333 96.5586 45C96.4919 45 96.4586 45.1 96.4586 45.3C96.4586 45.4333 96.4919 45.5333 96.5586 45.6V45.7C96.4919 45.7667 96.4253 45.7333 96.3586 45.6C96.3586 45.4667 96.2919 45.3667 96.1586 45.3C96.1586 45.4333 96.1253 45.5667 96.0586 45.7C96.0586 45.8333 96.1253 45.9333 96.2586 46C95.9919 46.2 95.7919 46.3333 95.6586 46.4C95.5253 46.4667 95.4253 46.5 95.3586 46.5C95.3586 46.5 95.3253 46.5333 95.2586 46.6C95.1919 46.6667 95.0919 46.8333 94.9586 47.1C94.9586 47.1 94.9586 47.0667 94.9586 47V46.9C94.6919 46.8333 94.5586 46.9333 94.5586 47.2C94.5586 47.4 94.4586 47.5667 94.2586 47.7C94.1253 47.5667 94.0919 47.4667 94.1586 47.4C94.2919 47.3333 94.3253 47.2333 94.2586 47.1C94.1253 47.0333 93.9919 47.1 93.8586 47.3C93.7919 47.4333 93.6919 47.4 93.5586 47.2C93.4919 47.3333 93.4253 47.5667 93.3586 47.9C93.2919 48.2333 93.1586 48.4667 92.9586 48.6C92.8253 48.6 92.7919 48.5333 92.8586 48.4C92.9919 48.2 93.0586 48.0333 93.0586 47.9C92.6586 48.1667 92.4253 48.4 92.3586 48.6C92.1586 48.8 92.0586 48.9 92.0586 48.9C92.0586 48.9667 92.1253 49 92.2586 49C92.2586 49.1333 92.2253 49.3 92.1586 49.5C92.0919 49.6333 91.8919 49.7667 91.5586 49.9C91.4253 50.5 91.0919 50.8 90.5586 50.8C90.5586 50.8 90.5919 50.7333 90.6586 50.6V50.4C90.2586 50.4 90.1253 50.5333 90.2586 50.8C90.1253 50.7333 90.0253 50.7667 89.9586 50.9C89.8919 51.0333 89.7586 51.0333 89.5586 50.9C89.4253 51.0333 89.4253 51.1333 89.5586 51.2C89.7586 51.2 89.7919 51.2 89.6586 51.2C89.5919 51.2667 89.5253 51.2667 89.4586 51.2C89.4586 51.1333 89.4253 51.1 89.3586 51.1C88.9586 51.4333 88.5253 51.7667 88.0586 52.1C87.5919 52.4333 87.2253 52.8333 86.9586 53.3C86.9586 53.4333 86.9919 53.5333 87.0586 53.6C87.1253 53.6667 87.1919 53.7667 87.2586 53.9ZM69.9586 34C71.3586 32.2667 72.6253 30.6 73.7586 29C74.8919 27.3333 76.0919 25.6333 77.3586 23.9C77.3586 23.8333 77.3919 23.8 77.4586 23.8C77.8586 23.4667 78.1586 23 78.3586 22.4C78.6253 21.8 78.8919 21.3333 79.1586 21C80.2253 19.6 81.2586 18.2 82.2586 16.8C83.3253 15.3333 84.2253 13.8333 84.9586 12.3C85.4253 11.4333 85.8586 10.6 86.2586 9.8C86.6586 8.93333 86.9586 8.03333 87.1586 7.1C87.8919 6.63333 88.1586 5.9 87.9586 4.9C87.2253 5.1 86.6586 5.5 86.2586 6.1C85.8586 6.63333 85.3919 7.1 84.8586 7.5C84.5919 8.1 84.2586 8.66667 83.8586 9.2C83.4586 9.66666 83.0586 10.1333 82.6586 10.6C80.9253 12.0667 79.5919 13.7333 78.6586 15.6C77.7253 17.4667 76.7919 19.3667 75.8586 21.3C75.6586 21.3667 75.4919 21.4 75.3586 21.4C75.2253 21.9333 74.9919 22.4 74.6586 22.8C74.3253 23.1333 74.1586 23.5333 74.1586 24C73.7586 24.5333 73.4586 25.0333 73.2586 25.5C73.0586 25.9667 72.7919 26.4667 72.4586 27C72.3253 27.3333 72.1586 27.6667 71.9586 28C71.8253 28.2667 71.6919 28.5333 71.5586 28.8V29.3C71.4253 29.5667 71.2586 29.8667 71.0586 30.2C70.8586 30.4667 70.7919 30.8333 70.8586 31.3C70.5253 31.7 70.2919 32.1333 70.1586 32.6C70.0919 33.0667 69.9919 33.5333 69.8586 34H69.9586ZM84.7586 53.1C84.7586 53.1667 84.7253 53.2 84.6586 53.2C84.7919 53.2667 84.8586 53.2667 84.8586 53.2C84.9253 53.0667 84.9586 52.9667 84.9586 52.9C85.2919 52.9667 85.5586 52.8667 85.7586 52.6C85.9586 52.2667 86.1586 52 86.3586 51.8C86.3586 51.8667 86.4253 51.9333 86.5586 52C86.6919 51.8667 86.8253 51.7333 86.9586 51.6C87.1586 51.4 87.2253 51.2333 87.1586 51.1C86.8253 51.2333 86.4586 51.4333 86.0586 51.7C85.6586 51.9 85.2919 52.2333 84.9586 52.7H84.6586V52.9C84.6586 52.9667 84.6919 53 84.7586 53C84.6253 52.9333 84.4919 52.9667 84.3586 53.1C84.2253 53.2333 84.2253 53.3667 84.3586 53.5C84.4253 53.5 84.4586 53.4667 84.4586 53.4C84.5253 53.2667 84.6253 53.1667 84.7586 53.1ZM91.6586 48.7C91.3919 48.8333 91.1919 48.9333 91.0586 49C90.9253 49.0667 90.7919 49.1667 90.6586 49.3C90.5919 49.3 90.5586 49.3 90.5586 49.3C90.6253 49.2333 90.5919 49.2 90.4586 49.2C90.3253 49.3333 90.1919 49.4333 90.0586 49.5C89.9919 49.5667 89.9919 49.7333 90.0586 50C90.4586 49.8667 90.7586 49.7 90.9586 49.5C91.2253 49.3 91.4586 49.0333 91.6586 48.7ZM95.9586 44.4C95.6253 44.6 95.4586 44.9 95.4586 45.3C95.6586 45.3667 95.8586 45.3333 96.0586 45.2C96.2586 45 96.2253 44.7333 95.9586 44.4ZM88.1586 51.1C88.1586 50.8333 88.1919 50.7 88.2586 50.7C88.2586 50.9667 88.2586 51.1 88.2586 51.1C88.4586 51.1 88.5586 51.0667 88.5586 51C88.6253 50.9333 88.7253 50.8333 88.8586 50.7C88.6586 50.7 88.5586 50.6333 88.5586 50.5C88.3586 50.5667 88.1919 50.6667 88.0586 50.8C87.9919 50.9333 88.0253 51.0333 88.1586 51.1ZM94.0586 46.1C93.7919 46.1 93.5586 46.2 93.3586 46.4C93.1586 46.5333 93.0919 46.6667 93.1586 46.8C93.2919 46.7333 93.3919 46.6667 93.4586 46.6C93.5919 46.5333 93.7919 46.3667 94.0586 46.1ZM87.7586 50.7C87.4253 50.7 87.2586 50.8333 87.2586 51.1C87.3919 51.1 87.4586 51.0667 87.4586 51C87.5253 50.9333 87.6253 50.8333 87.7586 50.7ZM92.5586 48.5C92.5586 48.7667 92.4586 48.9333 92.2586 49C92.2586 48.8 92.2919 48.6667 92.3586 48.6C92.3586 48.5333 92.4253 48.5 92.5586 48.5ZM89.3586 50C89.4253 50.0667 89.3919 50.2 89.2586 50.4C89.1919 50.5333 89.2253 50.6 89.3586 50.6C89.4253 50.4667 89.4586 50.3667 89.4586 50.3C89.4586 50.1667 89.4253 50.0667 89.3586 50ZM88.8586 50.4C88.7919 50.4 88.7253 50.4333 88.6586 50.5C88.6586 50.5 88.6253 50.5 88.5586 50.5C88.7586 50.7 88.8586 50.7667 88.8586 50.7C88.8586 50.6333 88.8586 50.5333 88.8586 50.4ZM64.2586 38.6C64.2586 38.3333 64.2253 38.1667 64.1586 38.1C64.1586 38.1667 64.1253 38.2667 64.0586 38.4C64.0586 38.4667 64.1253 38.5333 64.2586 38.6ZM96.5586 45.6V45.7V46.1V45.5V45.6ZM93.0586 43.8C92.9919 43.6 92.9586 43.6333 92.9586 43.9L93.0586 43.8ZM84.8586 53L84.7586 53.1V53H84.8586ZM96.6586 46.1C96.6586 46.1667 96.6253 46.2 96.5586 46.2C96.5586 46.2 96.5586 46.1667 96.5586 46.1H96.6586ZM92.8133 48.4C92.9466 48.3333 93.0466 48.2 93.1133 48C93.1133 47.8 93.0799 47.6333 93.0133 47.5C93.1466 47.1667 93.2133 46.8333 93.2133 46.5C93.2799 46.1667 93.4799 45.9333 93.8133 45.8C94.0133 45.6 94.0466 45.4333 93.9133 45.3C93.8466 45.1667 93.9466 45.0667 94.2133 45C94.3466 44.7333 94.4466 44.4667 94.5133 44.2C94.6466 43.9333 94.8133 43.7 95.0133 43.5C95.5466 42.2333 96.2133 40.9 97.0133 39.5C97.8799 38.0333 98.6466 36.6333 99.3133 35.3C99.6466 34.9 99.9466 34.5 100.213 34.1C100.48 33.7 100.647 33.2667 100.713 32.8H100.913C101.047 32.1333 101.48 31.9 102.213 32.1C103.013 32.2333 103.78 32.4333 104.513 32.7C104.847 32.8333 105.047 33.0333 105.113 33.3C105.18 33.5 105.213 33.7333 105.213 34C105.08 34.0667 105.013 34.2 105.013 34.4C105.08 34.5333 105.08 34.6667 105.013 34.8C104.547 35.5333 104.213 36.3 104.013 37.1C103.813 37.9 103.48 38.6667 103.013 39.4C102.947 39.5333 102.847 39.6333 102.713 39.7C102.647 39.7667 102.58 39.8667 102.513 40C102.38 40.2667 102.247 40.6667 102.113 41.2C102.047 41.6667 101.847 42.1667 101.513 42.7C100.98 43.7667 100.513 44.7667 100.113 45.7C99.7133 46.6333 99.3133 47.6667 98.9133 48.8C98.7133 49.8667 98.4799 50.7667 98.2133 51.5C98.0133 52.2333 98.1799 53.1 98.7133 54.1C100.247 53.7 101.58 53.2333 102.713 52.7C103.913 52.1 105.147 51.4667 106.413 50.8L109.113 48.8L109.913 48.3L113.113 45.9L115.813 43.8C116.08 43.6 116.413 43.4 116.813 43.2C117.213 42.9333 117.547 42.7 117.813 42.5C118.48 41.9667 119.013 41.5667 119.413 41.3C119.813 40.9667 120.347 40.5667 121.013 40.1C121.147 39.9 121.28 39.7667 121.413 39.7C121.613 39.5667 121.847 39.4333 122.113 39.3L122.813 38.8C122.947 38.4667 123.247 38.2333 123.713 38.1C124.247 37.9667 124.58 37.6667 124.713 37.2C124.98 37.2667 125.113 37.2 125.113 37C125.447 37.1333 125.547 37.3 125.413 37.5C125.347 37.7 125.447 37.8667 125.713 38C125.58 38.0667 125.447 38.2333 125.313 38.5C125.247 38.7667 125.213 38.9333 125.213 39C125.48 39.1333 125.647 39 125.713 38.6C125.78 38.1333 125.913 37.9333 126.113 38C126.113 38.0667 126.08 38.2667 126.013 38.6C125.947 38.8667 125.88 39 125.813 39C126.147 39.1333 126.213 39.3333 126.013 39.6C125.813 39.8 125.78 40 125.913 40.2C125.78 40.3333 125.68 40.4333 125.613 40.5C125.547 40.5 125.48 40.6 125.413 40.8C125.28 40.8 125.247 40.7333 125.313 40.6C125.447 40.4667 125.38 40.4 125.113 40.4C125.047 40.5333 124.98 40.6667 124.913 40.8C124.847 40.8667 124.78 41.0333 124.713 41.3C124.58 41.3 124.513 41.2667 124.513 41.2C124.58 41.0667 124.613 40.9667 124.613 40.9C124.28 40.9 124.113 41 124.113 41.2C123.78 41.3333 123.58 41.5333 123.513 41.8C123.447 42.0667 123.313 42.3333 123.113 42.6C122.913 42.6 122.847 42.5667 122.913 42.5C122.98 42.4333 122.913 42.4 122.713 42.4C122.78 42.4667 122.713 42.6667 122.513 43C122.38 43.2667 122.213 43.5333 122.013 43.8C121.813 44.0667 121.647 44.3 121.513 44.5C121.447 44.6333 121.48 44.5667 121.613 44.3C121.48 44.2333 121.18 44.3667 120.713 44.7C120.247 45.0333 119.947 45.2667 119.813 45.4L118.613 46.6C118.413 46.7333 118.047 47 117.513 47.4C117.047 47.8 116.747 48.0667 116.613 48.2C116.613 48.2 116.547 48.1667 116.413 48.1C116.413 48.1667 116.38 48.2333 116.313 48.3C116.313 48.3 116.313 48.3667 116.313 48.5C116.247 48.3667 116.147 48.3667 116.013 48.5C115.88 48.5667 115.88 48.6667 116.013 48.8H115.713C115.713 48.8667 115.58 49.1 115.313 49.5C115.047 49.9 114.68 50.2333 114.213 50.5V50.1C114.08 50.0333 114.013 50.0667 114.013 50.2C114.013 50.2667 113.947 50.3333 113.813 50.4H114.113C114.047 50.6667 113.947 50.8333 113.813 50.9C113.68 50.9 113.513 50.9333 113.313 51C113.247 51 113.247 50.9667 113.313 50.9C113.447 50.8333 113.447 50.8 113.313 50.8C113.18 50.9333 113.013 51.1 112.813 51.3C112.68 51.5 112.513 51.6667 112.313 51.8C112.18 51.6 112.047 51.5667 111.913 51.7C111.847 51.8333 111.747 51.9333 111.613 52C111.613 52 111.447 52.0667 111.113 52.2C110.913 52.3333 110.713 52.4667 110.513 52.6C110.38 52.7333 110.147 52.8333 109.813 52.9C109.747 53.0333 109.713 53.1667 109.713 53.3C109.647 53.3 109.613 53.2667 109.613 53.2C109.613 53.1333 109.547 53.1333 109.413 53.2C109.28 53.3333 109.113 53.5 108.913 53.7C108.713 53.8333 108.447 53.9333 108.113 54C107.847 54.4667 107.447 54.8 106.913 55C106.447 55.2 105.947 55.4 105.413 55.6C104.613 56.1333 103.813 56.5 103.013 56.7C102.28 56.8333 101.48 56.9667 100.613 57.1C99.7466 57.3 98.8133 57.3333 97.8133 57.2C97.1466 57.0667 96.4799 56.9667 95.8133 56.9C95.2133 56.8333 94.7466 56.7 94.4133 56.5C93.9466 56.1667 93.5466 55.7667 93.2133 55.3C92.9466 54.8333 92.7133 54.4333 92.5133 54.1C92.3133 54.0333 92.2133 53.9333 92.2133 53.8C92.2133 53.6667 92.1133 53.5 91.9133 53.3C91.9133 53.2333 91.9466 53.2 92.0133 53.2C92.0133 53.2 92.0133 53.1333 92.0133 53C91.8799 53.1333 91.7799 53.2 91.7133 53.2C91.5799 52.8667 91.6466 52.6 91.9133 52.4C92.1133 52.2 92.1133 51.9333 91.9133 51.6C91.7799 51.7333 91.7133 52 91.7133 52.4C91.5799 52.2667 91.5133 52.1 91.5133 51.9C91.5133 51.6333 91.6466 51.5 91.9133 51.5C91.9133 51.1 92.0466 50.6333 92.3133 50.1C92.1799 50.1 92.0799 50.1333 92.0133 50.2C92.0799 49.8667 92.2133 49.6 92.4133 49.4C92.6133 49.2 92.7133 48.9333 92.7133 48.6C92.5799 48.6 92.5466 48.6667 92.6133 48.8C92.6133 48.9333 92.5799 49 92.5133 49C92.3799 48.6667 92.5133 48.2333 92.9133 47.7C92.9799 47.7 93.0133 47.6333 93.0133 47.5C93.0133 47.6333 92.9466 47.8 92.8133 48C92.6799 48.1333 92.6799 48.2667 92.8133 48.4ZM109.413 25.5C109.28 25.5667 109.247 25.6333 109.313 25.7C109.38 25.7 109.347 25.7667 109.213 25.9C108.88 26.1667 108.613 26.5 108.413 26.9C108.28 27.3 107.98 27.4667 107.513 27.4C107.18 27.5333 106.913 27.7667 106.713 28.1C106.38 28.1 106.18 28.0667 106.113 28C106.047 27.9333 105.947 27.8333 105.813 27.7C105.48 27.7 105.28 27.8 105.213 28C104.613 27.8 104.113 27.6 103.713 27.4C103.38 27.2 102.98 27 102.513 26.8C102.513 26.2 102.58 25.6333 102.713 25.1C102.913 24.5 103.413 24.2667 104.213 24.4C104.347 24.2667 104.447 24.2 104.513 24.2C104.58 24.2 104.647 24.1667 104.713 24.1C105.513 24.1667 106.213 24.3333 106.813 24.6C107.413 24.8667 108.147 25.0333 109.013 25.1C108.88 25.3667 109.013 25.5 109.413 25.5ZM122.913 42C122.647 42.0667 122.447 42.2 122.313 42.4C122.18 42.6 122.213 42.8 122.413 43C122.413 42.8 122.513 42.6 122.713 42.4C122.847 42.2667 122.913 42.1333 122.913 42ZM112.213 51.2C112.347 51.2 112.48 51.1667 112.613 51.1C112.747 50.9667 112.747 50.8333 112.613 50.7L112.213 51.2ZM123.913 41.5C123.847 41.4333 123.88 41.4 124.013 41.4L123.913 41.5ZM158.204 46.7C158.071 47.0333 157.904 47.2667 157.704 47.4C157.571 47.4667 157.471 47.6667 157.404 48C157.271 48 157.204 48 157.204 48C157.204 47.9333 157.137 47.9 157.004 47.9C156.871 48.2333 156.671 48.4667 156.404 48.6C156.137 48.7333 155.937 49 155.804 49.4L155.404 49.6C155.071 49.9333 154.937 50.1 155.004 50.1C155.071 50.1 155.171 50.0667 155.304 50C155.437 49.9333 155.504 49.9 155.504 49.9C155.571 49.9 155.404 50.0667 155.004 50.4C154.671 50.3333 154.471 50.3333 154.404 50.4C154.337 50.4667 154.204 50.5333 154.004 50.6C153.871 50.9333 153.671 51.1 153.404 51.1H153.304C153.437 51.1 153.504 51 153.504 50.8C153.237 50.9333 152.904 51.1 152.504 51.3C152.171 51.5 151.837 51.6 151.504 51.6C151.371 51.7333 151.237 51.8333 151.104 51.9C150.971 51.9 150.904 52 150.904 52.2C150.837 52.0667 150.671 52.0333 150.404 52.1C150.204 52.1667 150.004 52.2333 149.804 52.3C149.671 52.3667 149.571 52.5 149.504 52.7C149.437 52.8333 149.337 52.9 149.204 52.9C148.804 52.9 148.504 52.9667 148.304 53.1C148.104 53.2333 147.904 53.3 147.704 53.3C147.571 53.3 147.437 53.3667 147.304 53.5C147.171 53.6333 147.037 53.7 146.904 53.7C146.371 54.0333 145.771 54.2667 145.104 54.4C144.437 54.5333 143.804 54.6333 143.204 54.7C142.871 54.8333 142.571 54.9667 142.304 55.1C142.104 55.1667 141.804 55.2 141.404 55.2C140.337 55.2667 139.271 55.2333 138.204 55.1C137.204 54.9 136.237 54.6333 135.304 54.3C133.437 53.7667 131.904 53.0333 130.704 52.1C130.104 51.7 129.571 51.2333 129.104 50.7C128.637 50.1667 128.304 49.5333 128.104 48.8C127.571 49.4 127.071 50.1 126.604 50.9C126.137 51.7 125.637 52.5 125.104 53.3C124.904 53.4333 124.737 53.6 124.604 53.8C124.471 53.9333 124.404 54.1 124.404 54.3C124.404 54.4333 124.371 54.5667 124.304 54.7C123.971 55.2333 123.637 55.7333 123.304 56.2C123.037 56.6667 122.904 57.2667 122.904 58C122.171 58.6 121.437 59 120.704 59.2C119.971 59 119.404 58.7 119.004 58.3C118.604 57.9 118.004 57.6333 117.204 57.5C116.871 56.9667 116.737 56.2667 116.804 55.4C116.804 54.4667 117.004 53.8 117.404 53.4C117.537 51.9333 117.871 50.5667 118.404 49.3C118.937 47.9667 119.404 46.5667 119.804 45.1C120.404 43.0333 121.004 41 121.604 39C122.204 37 122.837 35 123.504 33L124.004 32.1C124.137 31.8333 124.204 31.6 124.204 31.4C124.271 31.2 124.371 31.0333 124.504 30.9C125.304 28.1667 126.271 25.6333 127.404 23.3C128.537 20.9667 129.571 18.5333 130.504 16L130.704 15.8C131.371 14.1333 131.971 12.5333 132.504 11C133.104 9.46666 133.737 7.93333 134.404 6.4C134.804 5.53333 135.171 4.76666 135.504 4.09999C135.904 3.36666 136.171 2.5 136.304 1.5C136.571 1.63333 136.804 1.7 137.004 1.7C137.204 1.63333 137.471 1.6 137.804 1.6C137.804 1.66666 137.837 1.7 137.904 1.7C137.904 1.7 137.971 1.7 138.104 1.7C138.304 1.7 138.471 1.7 138.604 1.7C138.737 1.63333 138.871 1.6 139.004 1.6C139.137 1.6 139.337 1.66666 139.604 1.79999C139.871 1.93333 140.071 1.96666 140.204 1.9C140.337 1.83333 140.404 1.86666 140.404 2C140.471 2.06666 140.604 2.16666 140.804 2.3C141.137 2.43333 141.404 2.56666 141.604 2.69999C141.871 2.76666 142.071 2.96667 142.204 3.3C142.404 3.9 142.404 4.63333 142.204 5.5C141.671 5.96667 141.237 6.53333 140.904 7.2C140.571 7.8 140.171 8.36666 139.704 8.9C139.637 9.03333 139.604 9.23333 139.604 9.5C139.604 9.63333 139.537 9.66666 139.404 9.6C139.337 9.53333 139.271 9.56666 139.204 9.7C138.937 10.3667 138.604 11.0667 138.204 11.8C137.871 12.5333 137.637 13.3333 137.504 14.2C137.371 14.2 137.304 14.2333 137.304 14.3C137.304 14.3 137.237 14.3333 137.104 14.4C137.104 14.9333 137.037 15.3 136.904 15.5C136.771 15.7 136.704 16 136.704 16.4C136.371 16.6667 136.137 17.0333 136.004 17.5C135.871 17.9667 135.637 18.3667 135.304 18.7C134.837 20.1667 134.271 21.6667 133.604 23.2C133.004 24.6667 132.437 26.1667 131.904 27.7C131.504 28.1667 131.171 28.7667 130.904 29.5C130.637 30.1667 130.337 30.7667 130.004 31.3C129.271 33.8333 128.437 36.3333 127.504 38.8C126.571 41.2 125.837 43.6667 125.304 46.2C126.237 44.9333 127.237 43.7333 128.304 42.6C129.437 41.4 130.537 40.2333 131.604 39.1C131.871 38.7667 132.137 38.4333 132.404 38.1C132.671 37.7 132.971 37.3667 133.304 37.1L135.004 35.8C135.804 35.1333 136.671 34.4333 137.604 33.7C138.537 32.9667 139.471 32.3667 140.404 31.9C140.537 31.7667 140.671 31.7 140.804 31.7C140.937 31.7 141.071 31.6667 141.204 31.6C141.604 31.2 142.004 30.9667 142.404 30.9C142.871 30.9 143.304 31.0333 143.704 31.3C144.171 31.5667 144.637 31.7667 145.104 31.9C145.237 32.3 145.437 32.7333 145.704 33.2C146.037 33.6 146.104 34.0667 145.904 34.6C145.837 34.7333 145.704 34.8333 145.504 34.9C145.371 34.9667 145.237 35.0667 145.104 35.2C145.037 35.2667 145.004 35.4 145.004 35.6L144.004 36.6C143.671 36.9333 143.337 37.2 143.004 37.4C142.671 37.6 142.304 37.8333 141.904 38.1C140.437 39.3 138.971 40.4667 137.504 41.6C136.037 42.7333 134.637 43.9 133.304 45.1C133.237 45.1 133.171 45.2 133.104 45.4C132.771 45.5333 132.537 45.7333 132.404 46C132.271 46.2667 132.071 46.4667 131.804 46.6C131.804 46.9333 131.904 47.1333 132.104 47.2C132.037 47.5333 132.004 47.8 132.004 48C132.004 48.2 132.071 48.4 132.204 48.6C132.404 48.8 132.571 49.0333 132.704 49.3C132.837 49.5 132.971 49.7 133.104 49.9C133.637 50.6333 134.404 51.1333 135.404 51.4C136.404 51.6667 137.371 51.8 138.304 51.8C140.904 51.8 143.137 51.4333 145.004 50.7C146.871 49.9 148.771 49.1333 150.704 48.4C150.837 48.4 150.937 48.3333 151.004 48.2C151.071 48 151.171 47.9 151.304 47.9C151.304 47.7667 151.304 47.7333 151.304 47.8C151.371 47.8667 151.437 47.9 151.504 47.9C151.637 47.7667 151.737 47.6333 151.804 47.5C151.937 47.3667 152.071 47.2667 152.204 47.2C152.537 47.0667 152.771 47 152.904 47C153.037 47 153.137 46.9 153.204 46.7C153.137 46.7667 153.004 46.8333 152.804 46.9C152.671 46.9 152.771 46.7333 153.104 46.4C153.504 46.2667 153.704 46.3 153.704 46.5C153.704 46.7 153.904 46.7 154.304 46.5C154.637 45.8333 154.971 45.4333 155.304 45.3C155.704 45.1667 156.137 44.9333 156.604 44.6C156.737 44.7333 156.804 44.8667 156.804 45C156.804 45.0667 156.937 45.1 157.204 45.1C157.337 44.9667 157.404 44.8333 157.404 44.7C157.471 44.5 157.571 44.4 157.704 44.4C157.771 44.4667 157.771 44.5 157.704 44.5C157.637 44.5 157.604 44.5333 157.604 44.6C157.737 44.7333 157.837 44.7667 157.904 44.7C157.971 44.5667 158.004 44.5333 158.004 44.6C158.004 44.8 158.004 45.0333 158.004 45.3C158.004 45.5667 158.104 45.8 158.304 46C157.971 46.2 157.937 46.4333 158.204 46.7ZM190.855 43.9C190.989 44.1 190.755 44.4333 190.155 44.9C189.555 45.3667 188.955 45.9 188.355 46.5C188.222 46.5667 187.922 46.8 187.455 47.2C186.989 47.6 186.722 47.8667 186.655 48L186.055 48.5L184.355 49.8L183.555 50.3L182.155 51.2C181.022 51.9333 179.955 52.6333 178.955 53.3C177.955 53.9667 176.722 54.5667 175.255 55.1C175.189 55.1 175.055 55.1333 174.855 55.2C174.722 55.2667 174.555 55.3333 174.355 55.4C174.089 55.4667 173.855 55.5333 173.655 55.6C173.389 55.6 173.155 55.6667 172.955 55.8C172.755 55.8667 172.489 55.9 172.155 55.9C172.089 55.9 172.122 55.8333 172.255 55.7C171.922 55.7667 171.655 55.8333 171.455 55.9C171.255 55.9 171.022 56 170.755 56.2C170.555 56.0667 170.355 56.0667 170.155 56.2C170.022 56.4 169.822 56.4333 169.555 56.3C169.422 56.5 169.222 56.5667 168.955 56.5C168.689 56.4333 168.455 56.5 168.255 56.7C168.122 56.6333 168.089 56.5667 168.155 56.5C168.222 56.5 168.189 56.4667 168.055 56.4C167.855 56.4667 167.589 56.4667 167.255 56.4C166.989 56.4 166.689 56.5 166.355 56.7C166.155 56.5667 165.989 56.5333 165.855 56.6C165.789 56.6667 165.589 56.6333 165.255 56.5L165.155 56.7C164.155 56.5 163.422 56.4333 162.955 56.5C162.689 56.4333 162.489 56.3667 162.355 56.3C162.222 56.2333 162.089 56.2667 161.955 56.4C161.222 56.2667 160.522 56.1333 159.855 56C159.255 55.8 158.589 55.5333 157.855 55.2C157.055 54.8667 156.355 54.4 155.755 53.8C155.155 53.1333 154.589 52.4333 154.055 51.7C153.789 51.2333 153.589 50.7667 153.455 50.3C153.322 49.8333 153.189 49.4 153.055 49C152.922 48.4667 152.855 48 152.855 47.6C152.855 47.1333 152.922 46.6333 153.055 46.1C153.189 45.3667 153.422 44.3667 153.755 43.1C154.022 41.8333 154.522 40.7333 155.255 39.8L157.555 37.2L159.055 35.2C159.589 34.8 160.022 34.4667 160.355 34.2C160.689 33.9333 161.089 33.5333 161.555 33C161.889 32.6667 162.289 32.4 162.755 32.2C163.222 31.9333 163.622 31.6333 163.955 31.3C164.555 30.9 165.022 30.5333 165.355 30.2C165.822 29.8667 166.322 29.5667 166.855 29.3C167.389 28.9667 167.889 28.7333 168.355 28.6C168.555 28.4667 168.822 28.4 169.155 28.4C169.489 28.4 169.755 28.3333 169.955 28.2C170.089 28.1333 170.222 28.0667 170.355 28C170.489 27.9333 170.655 27.9 170.855 27.9C171.189 28.4333 171.622 28.9 172.155 29.3C172.755 29.6333 173.222 30.0667 173.555 30.6C174.022 30.7333 174.289 30.9667 174.355 31.3C174.422 31.6333 174.622 31.9333 174.955 32.2C175.089 32.7333 175.089 33.2 174.955 33.6C174.889 34 174.722 34.4333 174.455 34.9C174.322 35.0333 174.255 35.1667 174.255 35.3C174.255 35.4333 174.222 35.5667 174.155 35.7C174.022 36.0333 173.789 36.3333 173.455 36.6C173.189 36.8 172.922 37.0667 172.655 37.4C172.522 37.5333 172.389 37.7333 172.255 38C172.189 38.2667 172.089 38.5333 171.955 38.8C171.689 39.0667 171.355 39.4 170.955 39.8C170.555 40.2 170.189 40.6 169.855 41C169.522 41.4667 169.089 41.8 168.555 42C168.089 42.2 167.689 42.5 167.355 42.9C167.155 43.0333 167.055 43.2333 167.055 43.5C166.522 44.0333 165.889 44.5333 165.155 45C164.489 45.4 163.889 45.8667 163.355 46.4C162.289 46.6 161.289 47 160.355 47.6C159.489 48.2 158.455 48.3667 157.255 48.1C157.122 48.1667 157.089 48.2333 157.155 48.3C157.289 48.3667 157.455 48.4 157.655 48.4C157.455 48.7333 157.422 49 157.555 49.2C157.755 49.3333 157.889 49.5 157.955 49.7C158.489 50.2333 159.122 50.7333 159.855 51.2C160.589 51.6667 161.389 51.9667 162.255 52.1C164.722 52.8333 167.055 52.8667 169.255 52.2C169.989 52.0667 170.655 51.9333 171.255 51.8C171.922 51.6667 172.689 51.4333 173.555 51.1C174.622 50.7 175.589 50.2667 176.455 49.8L177.755 49.2C177.955 49.0667 178.055 49.0333 178.055 49.1C178.122 49.1 178.122 49.1333 178.055 49.2C178.055 49.2 178.055 49.2333 178.055 49.3C178.055 49.3 178.155 49.2333 178.355 49.1L180.955 47.9C181.689 47.3667 182.289 46.9667 182.755 46.7C183.222 46.3667 183.922 45.8333 184.855 45.1C184.922 45.0333 185.122 44.9 185.455 44.7C185.789 44.4333 186.122 44.1667 186.455 43.9C186.855 43.6333 187.222 43.4 187.555 43.2C187.889 42.9333 188.122 42.7667 188.255 42.7L189.255 41.7C190.055 41.1667 190.722 40.7333 191.255 40.4C191.855 40 192.289 39.7333 192.555 39.6C192.755 39.8 192.889 40.1 192.955 40.5C193.022 40.8333 193.155 41 193.355 41C192.955 41.6 192.655 42.0667 192.455 42.4C192.322 42.6667 192.189 42.8667 192.055 43C191.989 43.1333 191.855 43.2667 191.655 43.4C191.522 43.4667 191.255 43.6333 190.855 43.9ZM169.655 32.7C169.455 32.8333 169.222 33 168.955 33.2C168.689 33.4 168.455 33.5667 168.255 33.7C167.989 33.7 167.822 33.7667 167.755 33.9C167.622 33.9667 167.489 34.0333 167.355 34.1C167.289 34.1667 167.189 34.2333 167.055 34.3L166.255 34.9C165.922 35.2333 165.589 35.5 165.255 35.7C164.922 35.8333 164.589 36.0333 164.255 36.3C163.855 36.8333 163.455 37.2667 163.055 37.6C162.722 37.8667 162.355 38.2667 161.955 38.8C161.222 39.2667 160.622 39.8333 160.155 40.5C159.422 41.2333 158.755 41.9667 158.155 42.7C157.555 43.3667 157.089 44.0667 156.755 44.8C158.022 44.4 159.222 43.7667 160.355 42.9C161.489 42.0333 162.689 41.1333 163.955 40.2C164.355 39.8667 164.755 39.5333 165.155 39.2C165.555 38.8667 165.922 38.4667 166.255 38C166.855 37.6667 167.522 37.1333 168.255 36.4C169.055 35.6 169.722 34.8333 170.255 34.1C170.389 33.7667 170.522 33.4667 170.655 33.2C170.855 32.9333 170.889 32.6667 170.755 32.4C170.622 32.4 170.422 32.4333 170.155 32.5C169.955 32.5 169.789 32.5667 169.655 32.7Z" fill="#002F3F"/>
</svg>
