<svg width="164" height="152" viewBox="0 0 164 152" fill="none" xmlns="http://www.w3.org/2000/svg">
<path d="M66.0059 43.7433C59.2559 32.0519 68.2808 14.7109 77.5056 12.9792" stroke="#001A23" stroke-width="7" stroke-linecap="round"/>
<rect width="105" height="92" rx="46" transform="matrix(-0.97045 -0.241301 -0.241301 0.97045 137.154 51.3833)" fill="#F4F4F4" stroke="#F4F4F4" stroke-width="17" stroke-linecap="round" stroke-linejoin="round" stroke-dasharray="1 15"/>
<rect width="80" height="68" rx="34" transform="matrix(-0.97045 -0.241301 -0.241301 0.97045 125.51 48.4883)" fill="white" stroke="white" stroke-width="17" stroke-linecap="round" stroke-linejoin="round" stroke-dasharray="1 15"/>
<rect x="74.2861" y="53.8286" width="6" height="6" rx="3" transform="rotate(-108.563 74.2861 53.8286)" fill="#001A23"/>
<rect x="94.0924" y="61.0894" width="6" height="6" rx="3" transform="rotate(-108.563 94.0924 61.0894)" fill="#001A23"/>
<path d="M32.1634 107.841C22.8419 100.982 8.71205 104.133 4.34311 100.982" stroke="#001A23" stroke-width="7" stroke-linecap="round"/>
<path d="M75.2279 123.996C60.8435 110.982 46.8429 129.982 43.8421 125.483" stroke="#001A23" stroke-width="7" stroke-linecap="round"/>
<path d="M90.5001 62.521C83.0001 59.521 80.5001 58.521 75.0001 56.521" stroke="#001A23" stroke-width="4" stroke-linecap="round"/>
<path d="M91.2261 65.3811C89.2261 63.8811 91.226 60.3811 93.726 61.3811" stroke="#001A23" stroke-width="4" stroke-linecap="round"/>
<path d="M151.182 83.1082C141.465 85.3078 130.57 77.4572 117.241 80.8621" stroke="#001A23" stroke-width="7" stroke-linecap="round"/>
</svg>
