<svg width="115" height="91" viewBox="0 0 115 91" fill="none" xmlns="http://www.w3.org/2000/svg">
<path d="M55.8981 85C55.8981 80.1339 53.8558 72.904 54.8502 64.4928C55.8447 56.0817 55.9634 53.1458 56.8672 44.6014C57.2886 40.6181 59.9176 34.3026 61.9079 30.8075C64.0011 27.1319 67.403 24.0709 69.8793 20.6589C73.2959 15.9515 77.4195 14.737 82.2174 12.7267C90.56 9.23133 98.8883 11.8409 106.19 15.9929C109.12 17.6589 109.414 22.4518 108.623 25.2083C107.795 28.0912 105.994 30.1198 103.728 32.149C102.213 33.5064 98.9806 34.3071 96.9879 34.7736C93.3039 35.6362 88.8743 35.4152 85.0894 35.4152C77.4367 35.4152 71.9369 31.0854 65.0437 28.5912C59.3827 26.5427 60.7142 22.2191 52.3311 15.9929C43.9479 9.76676 38.3591 8.01863 32.0719 6.92563C25.7846 5.83262 19.2475 5.55805 16.0042 6.92557C12.8968 8.23582 8.60201 10.8585 6.92264 15.0597C5.24328 19.261 5.87445 25.0333 8.66902 28.5912C11.4636 32.149 22.0451 34.2541 26.4831 34.7736C29.4443 35.1203 33.1197 34.5343 36.6127 33.3417C40.1057 32.149 42.2015 31.4334 44.2972 30.8075" stroke="#00D959" stroke-width="12" stroke-linecap="round"/>
</svg>
