<svg width="263" height="120" viewBox="0 0 263 120" fill="none" xmlns="http://www.w3.org/2000/svg">
<path d="M50.4 107.8C50.1333 107.933 49.8667 108 49.6 108C49.3333 107.867 49.1333 107.867 49 108C49 108.133 48.7333 108.067 48.2 107.8C47.8 108.467 47.4 109.133 47 109.8C46.6 110.333 46.0667 110.467 45.4 110.2C45.1333 110.467 44.8 110.733 44.4 111C44.1333 111.133 43.8 111.4 43.4 111.8C43.2667 111.933 43.2 111.933 43.2 111.8C42.8 112.067 42 112.4 40.8 112.8C39.7333 113.2 38.6 113.6 37.4 114C36.2 114.533 35.0667 115 34 115.4C33.0667 115.8 32.4667 116.133 32.2 116.4C31.4 116.4 30.4667 116.533 29.4 116.8C28.4667 117.067 27.6667 117.467 27 118C25.4 118.267 23.5333 118.6 21.4 119C19.4 119.533 17.2 119.467 14.8 118.8C14.1333 118.667 13.8 118.6 13.8 118.6C13.8 118.733 13.8667 118.867 14 119C14.1333 119.133 14.2 119.267 14.2 119.4C14.2 119.533 13.9333 119.6 13.4 119.6C13.4 119.067 13.2667 118.733 13 118.6C12.7333 118.6 12.4667 118.6 12.2 118.6C11.9333 118.333 11.6 118.067 11.2 117.8C10.9333 117.667 10.4667 117.533 9.8 117.4C7.26667 115 5.2 112.267 3.6 109.2C2 106 1 102.467 0.6 98.6C0.6 98.2 0.666667 97.8 0.8 97.4C0.933333 96.8667 0.933333 96.4667 0.8 96.2L0.8 87.4C0.8 87.1333 0.866667 86.9333 1 86.8C1.26667 86.5333 1.33333 86.2667 1.2 86L1.8 81.4C1.8 81 1.73333 80.7333 1.6 80.6C1.6 80.3333 1.6 80.0667 1.6 79.8L1.8 79.6C2.06667 79.6 2.2 79.4667 2.2 79.2C2.46667 78.9333 2.53333 78.7333 2.4 78.6C2.26667 78.4667 2.2 78.2667 2.2 78L3.4 74.4C3.53333 74.1333 3.6 73.9333 3.6 73.8C3.73333 73.5333 3.66667 73.2 3.4 72.8C3.53333 72.5333 3.8 72.5333 4.2 72.8C4.33333 72.1333 4.46667 71.4667 4.6 70.8C4.73333 70.1333 4.66667 69.5333 4.4 69H4.6C4.86667 68.7333 5 68.4667 5 68.2C5 67.9333 5.13333 67.8 5.4 67.8C5.53333 65.8 6.06667 64.0667 7 62.6C7.93333 61 8.46667 59.2667 8.6 57.4C9.53333 57 9.86667 56.4 9.6 55.6C9.86667 55.6 10 55.4 10 55C10 54.4667 10.1333 54.1333 10.4 54V53.8V53.4C11.7333 51.6667 12.4667 49.8667 12.6 48C14.7333 45.0667 16.2667 42.1333 17.2 39.2C17.7333 39.0667 18 38.8667 18 38.6C18.1333 38.2 18.2667 37.8 18.4 37.4C19.0667 36.3333 19.7333 35.0667 20.4 33.6C21.0667 32.1333 22 30.8667 23.2 29.8C23.6 28.8667 24.1333 27.9333 24.8 27C25.4667 26.0667 26.1333 25.0667 26.8 24C29.0667 20.8 31.3333 17.6 33.6 14.4C35.8667 11.0667 38.9333 8.13333 42.8 5.6C43.4667 4.93333 44.2 4.46666 45 4.19999C45.8 3.93333 46.7333 3.6 47.8 3.19999C50.8667 1.33333 54 1.53333 57.2 3.8C57.8667 4.33333 58.6667 4.73333 59.6 4.99999C60.5333 5.13333 61.2 5.66666 61.6 6.6C62.1333 6.73333 62.3333 6.93333 62.2 7.19999C62.2 7.33333 62.2667 7.6 62.4 7.99999C62.5333 8.26666 62.7333 8.53333 63 8.79999C63.2667 9.06666 63.2667 9.4 63 9.79999C62.8667 10.0667 62.8667 10.3333 63 10.6C63.2667 10.8667 63.2 11.2667 62.8 11.8C62.6667 12.4667 62.1333 13.2667 61.2 14.2L60.8 17.2L59.4 18.8C59 19.8667 58.6 20.9333 58.2 22C57.8 22.9333 57.2667 23.8 56.6 24.6C55.8 27.8 54.3333 30.6667 52.2 33.2C50.0667 35.7333 48.1333 38.4 46.4 41.2C45.0667 42.6667 43.9333 44.3333 43 46.2C42.2 48.0667 41.2 49.8 40 51.4C39.6 51.6667 39.1333 52 38.6 52.4C38.2 52.8 38 53.3333 38 54C36.2667 55.4667 34.8667 57.0667 33.8 58.8C32.8667 60.5333 31.6 62.2667 30 64C29.7333 64.9333 29.2667 65.6 28.6 66C27.9333 66.2667 27.4667 66.8667 27.2 67.8C26.9333 68.0667 26.6667 68.2667 26.4 68.4C26.1333 68.4 26.0667 68.6667 26.2 69.2C25.4 69.4667 24.7333 70.1333 24.2 71.2C23.8 72.2667 23.2667 73 22.6 73.4C22.4667 73.8 22.1333 74.2 21.6 74.6C21.2 75 20.8667 75.2667 20.6 75.4C19.6667 76.3333 18.6 77.6 17.4 79.2C16.3333 80.6667 14.6667 82.1333 12.4 83.6C12.1333 84 11.8667 84.2 11.6 84.2V85.6C10.9333 88.4 10.4667 91.6 10.2 95.2C10.0667 98.6667 10.4 102.133 11.2 105.6C11.7333 107.6 12.1333 108.667 12.4 108.8C12.6667 108.933 12.8667 108.867 13 108.6C13.2667 108.333 13.4 108.267 13.4 108.4C13.5333 108.533 13.7333 109.467 14 111.2C14 111.333 14.0667 111.4 14.2 111.4H14.6C14.7333 111.533 14.9333 111.6 15.2 111.6C17.7333 112 19.4667 112.133 20.4 112C21.4667 112 22.7333 111.667 24.2 111C26.3333 110.2 28.3333 109.467 30.2 108.8C32.2 108 34.0667 107.067 35.8 106C35.8 106.133 35.9333 106.2 36.2 106.2H36.4V106.4C36.6667 106.4 36.7333 106.267 36.6 106C36.8667 106 37 106 37 106C37 105.867 37.0667 105.8 37.2 105.8H37.6L38.2 105.2C40.4667 104.133 42.5333 102.733 44.4 101C46.4 99.1333 48.5333 97.6667 50.8 96.6C50.8 96.2 50.9333 96 51.2 96C51.4667 95.8667 51.6 95.6 51.6 95.2C51.7333 95.2 51.7333 95.2667 51.6 95.4C51.6 95.5333 51.7333 95.4667 52 95.2C53.3333 94.5333 54.4667 94 55.4 93.6C56.4667 93.0667 56.9333 92.2667 56.8 91.2C57.0667 91.2 57.2 91.2667 57.2 91.4C57.2 91.5333 57.2667 91.6 57.4 91.6C57.9333 90.9333 58.3333 90.4667 58.6 90.2C58.8667 89.9333 59.1333 89.7333 59.4 89.6C59.6667 89.4667 59.9333 89.3333 60.2 89.2C60.6 88.9333 61.1333 88.4667 61.8 87.8C61.4 87.4 61.3333 87.2 61.6 87.2C61.8667 87.0667 62.0667 86.8667 62.2 86.6C62.4667 86.8667 62.4667 87.0667 62.2 87.2C62.0667 87.2 62.0667 87.3333 62.2 87.6C63.2667 86.4 64.2667 85.2667 65.2 84.2C66.2667 83.1333 66.8667 82.8667 67 83.4C67.8 82.7333 68.1333 82.4 68 82.4C68 82.2667 67.8667 82.2 67.6 82.2C67.4667 82.2 67.3333 82.2 67.2 82.2C67.2 82.0667 67.6 81.7333 68.4 81.2C69.0667 81.0667 69.6 81.2 70 81.6C69.8667 82.5333 70.2 83.0667 71 83.2C70.4667 83.4667 70.2667 83.7333 70.4 84C70.6667 84.2667 70.8667 84.5333 71 84.8C71 85.3333 70.9333 85.7333 70.8 86C70.6667 87.3333 70.4667 88.2667 70.2 88.8C70.0667 89.2 69.8667 89.4667 69.6 89.6C69.4667 89.7333 69.2667 89.8667 69 90C68.8667 90 68.8 90.2 68.8 90.6C68.8 90.8667 68.8667 91.0667 69 91.2V91.4C68.8667 91.5333 68.7333 91.4667 68.6 91.2C68.6 90.9333 68.4667 90.7333 68.2 90.6C68.2 90.8667 68.1333 91.1333 68 91.4C68 91.6667 68.1333 91.8667 68.4 92C67.8667 92.4 67.4667 92.6667 67.2 92.8C66.9333 92.9333 66.7333 93 66.6 93C66.6 93 66.5333 93.0667 66.4 93.2C66.2667 93.3333 66.0667 93.6667 65.8 94.2C65.8 94.2 65.8 94.1333 65.8 94V93.8C65.2667 93.6667 65 93.8667 65 94.4C65 94.8 64.8 95.1333 64.4 95.4C64.1333 95.1333 64.0667 94.9333 64.2 94.8C64.4667 94.6667 64.5333 94.4667 64.4 94.2C64.1333 94.0667 63.8667 94.2 63.6 94.6C63.4667 94.8667 63.2667 94.8 63 94.4C62.8667 94.6667 62.7333 95.1333 62.6 95.8C62.4667 96.4667 62.2 96.9333 61.8 97.2C61.5333 97.2 61.4667 97.0667 61.6 96.8C61.8667 96.4 62 96.0667 62 95.8C61.2 96.3333 60.7333 96.8 60.6 97.2C60.2 97.6 60 97.8 60 97.8C60 97.9333 60.1333 98 60.4 98C60.4 98.2667 60.3333 98.6 60.2 99C60.0667 99.2667 59.6667 99.5333 59 99.8C58.7333 101 58.0667 101.6 57 101.6C57 101.6 57.0667 101.467 57.2 101.2V100.8C56.4 100.8 56.1333 101.067 56.4 101.6C56.1333 101.467 55.9333 101.533 55.8 101.8C55.6667 102.067 55.4 102.067 55 101.8C54.7333 102.067 54.7333 102.267 55 102.4C55.4 102.4 55.4667 102.4 55.2 102.4C55.0667 102.533 54.9333 102.533 54.8 102.4C54.8 102.267 54.7333 102.2 54.6 102.2C53.8 102.867 52.9333 103.533 52 104.2C51.0667 104.867 50.3333 105.667 49.8 106.6C49.8 106.867 49.8667 107.067 50 107.2C50.1333 107.333 50.2667 107.533 50.4 107.8ZM15.8 68C18.6 64.5333 21.1333 61.2 23.4 58C25.6667 54.6667 28.0667 51.2667 30.6 47.8C30.6 47.6667 30.6667 47.6 30.8 47.6C31.6 46.9333 32.2 46 32.6 44.8C33.1333 43.6 33.6667 42.6667 34.2 42C36.3333 39.2 38.4 36.4 40.4 33.6C42.5333 30.6667 44.3333 27.6667 45.8 24.6C46.7333 22.8667 47.6 21.2 48.4 19.6C49.2 17.8667 49.8 16.0667 50.2 14.2C51.6667 13.2667 52.2 11.8 51.8 9.79999C50.3333 10.2 49.2 11 48.4 12.2C47.6 13.2667 46.6667 14.2 45.6 15C45.0667 16.2 44.4 17.3333 43.6 18.4C42.8 19.3333 42 20.2667 41.2 21.2C37.7333 24.1333 35.0667 27.4667 33.2 31.2C31.3333 34.9333 29.4667 38.7333 27.6 42.6C27.2 42.7333 26.8667 42.8 26.6 42.8C26.3333 43.8667 25.8667 44.8 25.2 45.6C24.5333 46.2667 24.2 47.0667 24.2 48C23.4 49.0667 22.8 50.0667 22.4 51C22 51.9333 21.4667 52.9333 20.8 54C20.5333 54.6667 20.2 55.3333 19.8 56C19.5333 56.5333 19.2667 57.0667 19 57.6V58.6C18.7333 59.1333 18.4 59.7333 18 60.4C17.6 60.9333 17.4667 61.6667 17.6 62.6C16.9333 63.4 16.4667 64.2667 16.2 65.2C16.0667 66.1333 15.8667 67.0667 15.6 68H15.8ZM45.4 106.2C45.4 106.333 45.3333 106.4 45.2 106.4C45.4667 106.533 45.6 106.533 45.6 106.4C45.7333 106.133 45.8 105.933 45.8 105.8C46.4667 105.933 47 105.733 47.4 105.2C47.8 104.533 48.2 104 48.6 103.6C48.6 103.733 48.7333 103.867 49 104C49.2667 103.733 49.5333 103.467 49.8 103.2C50.2 102.8 50.3333 102.467 50.2 102.2C49.5333 102.467 48.8 102.867 48 103.4C47.2 103.8 46.4667 104.467 45.8 105.4H45.2V105.8C45.2 105.933 45.2667 106 45.4 106C45.1333 105.867 44.8667 105.933 44.6 106.2C44.3333 106.467 44.3333 106.733 44.6 107C44.7333 107 44.8 106.933 44.8 106.8C44.9333 106.533 45.1333 106.333 45.4 106.2ZM59.2 97.4C58.6667 97.6667 58.2667 97.8667 58 98C57.7333 98.1333 57.4667 98.3333 57.2 98.6C57.0667 98.6 57 98.6 57 98.6C57.1333 98.4667 57.0667 98.4 56.8 98.4C56.5333 98.6667 56.2667 98.8667 56 99C55.8667 99.1333 55.8667 99.4667 56 100C56.8 99.7333 57.4 99.4 57.8 99C58.3333 98.6 58.8 98.0667 59.2 97.4ZM67.8 88.8C67.1333 89.2 66.8 89.8 66.8 90.6C67.2 90.7333 67.6 90.6667 68 90.4C68.4 90 68.3333 89.4667 67.8 88.8ZM52.2 102.2C52.2 101.667 52.2667 101.4 52.4 101.4C52.4 101.933 52.4 102.2 52.4 102.2C52.8 102.2 53 102.133 53 102C53.1333 101.867 53.3333 101.667 53.6 101.4C53.2 101.4 53 101.267 53 101C52.6 101.133 52.2667 101.333 52 101.6C51.8667 101.867 51.9333 102.067 52.2 102.2ZM64 92.2C63.4667 92.2 63 92.4 62.6 92.8C62.2 93.0667 62.0667 93.3333 62.2 93.6C62.4667 93.4667 62.6667 93.3333 62.8 93.2C63.0667 93.0667 63.4667 92.7333 64 92.2ZM51.4 101.4C50.7333 101.4 50.4 101.667 50.4 102.2C50.6667 102.2 50.8 102.133 50.8 102C50.9333 101.867 51.1333 101.667 51.4 101.4ZM61 97C61 97.5333 60.8 97.8667 60.4 98C60.4 97.6 60.4667 97.3333 60.6 97.2C60.6 97.0667 60.7333 97 61 97ZM54.6 100C54.7333 100.133 54.6667 100.4 54.4 100.8C54.2667 101.067 54.3333 101.2 54.6 101.2C54.7333 100.933 54.8 100.733 54.8 100.6C54.8 100.333 54.7333 100.133 54.6 100ZM53.6 100.8C53.4667 100.8 53.3333 100.867 53.2 101C53.2 101 53.1333 101 53 101C53.4 101.4 53.6 101.533 53.6 101.4C53.6 101.267 53.6 101.067 53.6 100.8ZM4.4 77.2C4.4 76.6667 4.33333 76.3333 4.2 76.2C4.2 76.3333 4.13333 76.5333 4 76.8C4 76.9333 4.13333 77.0667 4.4 77.2ZM69 91.2V91.4V92.2V91V91.2ZM62 87.6C61.8667 87.2 61.8 87.2667 61.8 87.8L62 87.6ZM45.6 106L45.4 106.2V106H45.6ZM69.2 92.2C69.2 92.3333 69.1333 92.4 69 92.4C69 92.4 69 92.3333 69 92.2H69.2ZM61.5094 96.8C61.776 96.6667 61.976 96.4 62.1094 96C62.1094 95.6 62.0427 95.2667 61.9094 95C62.176 94.3333 62.3094 93.6667 62.3094 93C62.4427 92.3333 62.8427 91.8667 63.5094 91.6C63.9094 91.2 63.976 90.8667 63.7094 90.6C63.576 90.3333 63.776 90.1333 64.3094 90C64.576 89.4667 64.776 88.9333 64.9094 88.4C65.176 87.8667 65.5094 87.4 65.9094 87C66.976 84.4667 68.3094 81.8 69.9094 79C71.6427 76.0667 73.176 73.2667 74.5094 70.6C75.176 69.8 75.776 69 76.3094 68.2C76.8427 67.4 77.176 66.5333 77.3094 65.6H77.7094C77.976 64.2667 78.8427 63.8 80.3094 64.2C81.9094 64.4667 83.4427 64.8667 84.9094 65.4C85.576 65.6667 85.976 66.0667 86.1094 66.6C86.2427 67 86.3094 67.4667 86.3094 68C86.0427 68.1333 85.9094 68.4 85.9094 68.8C86.0427 69.0667 86.0427 69.3333 85.9094 69.6C84.976 71.0667 84.3094 72.6 83.9094 74.2C83.5094 75.8 82.8427 77.3333 81.9094 78.8C81.776 79.0667 81.576 79.2667 81.3094 79.4C81.176 79.5333 81.0427 79.7333 80.9094 80C80.6427 80.5333 80.376 81.3333 80.1094 82.4C79.976 83.3333 79.576 84.3333 78.9094 85.4C77.8427 87.5333 76.9094 89.5333 76.1094 91.4C75.3094 93.2667 74.5094 95.3333 73.7094 97.6C73.3094 99.7333 72.8427 101.533 72.3094 103C71.9094 104.467 72.2427 106.2 73.3094 108.2C76.376 107.4 79.0427 106.467 81.3094 105.4C83.7094 104.2 86.176 102.933 88.7094 101.6L94.1094 97.6L95.7094 96.6L102.109 91.8L107.509 87.6C108.043 87.2 108.709 86.8 109.509 86.4C110.309 85.8667 110.976 85.4 111.509 85C112.843 83.9333 113.909 83.1333 114.709 82.6C115.509 81.9333 116.576 81.1333 117.909 80.2C118.176 79.8 118.443 79.5333 118.709 79.4C119.109 79.1333 119.576 78.8667 120.109 78.6L121.509 77.6C121.776 76.9333 122.376 76.4667 123.309 76.2C124.376 75.9333 125.043 75.3333 125.309 74.4C125.843 74.5333 126.109 74.4 126.109 74C126.776 74.2667 126.976 74.6 126.709 75C126.576 75.4 126.776 75.7333 127.309 76C127.043 76.1333 126.776 76.4667 126.509 77C126.376 77.5333 126.309 77.8667 126.309 78C126.843 78.2667 127.176 78 127.309 77.2C127.443 76.2667 127.709 75.8667 128.109 76C128.109 76.1333 128.043 76.5333 127.909 77.2C127.776 77.7333 127.643 78 127.509 78C128.176 78.2667 128.309 78.6667 127.909 79.2C127.509 79.6 127.443 80 127.709 80.4C127.443 80.6667 127.243 80.8667 127.109 81C126.976 81 126.843 81.2 126.709 81.6C126.443 81.6 126.376 81.4667 126.509 81.2C126.776 80.9333 126.643 80.8 126.109 80.8C125.976 81.0667 125.843 81.3333 125.709 81.6C125.576 81.7333 125.443 82.0667 125.309 82.6C125.043 82.6 124.909 82.5333 124.909 82.4C125.043 82.1333 125.109 81.9333 125.109 81.8C124.443 81.8 124.109 82 124.109 82.4C123.443 82.6667 123.043 83.0667 122.909 83.6C122.776 84.1333 122.509 84.6667 122.109 85.2C121.709 85.2 121.576 85.1333 121.709 85C121.843 84.8667 121.709 84.8 121.309 84.8C121.443 84.9333 121.309 85.3333 120.909 86C120.643 86.5333 120.309 87.0667 119.909 87.6C119.509 88.1333 119.176 88.6 118.909 89C118.776 89.2667 118.843 89.1333 119.109 88.6C118.843 88.4667 118.243 88.7333 117.309 89.4C116.376 90.0667 115.776 90.5333 115.509 90.8L113.109 93.2C112.709 93.4667 111.976 94 110.909 94.8C109.976 95.6 109.376 96.1333 109.109 96.4C109.109 96.4 108.976 96.3333 108.709 96.2C108.709 96.3333 108.643 96.4667 108.509 96.6C108.509 96.6 108.509 96.7333 108.509 97C108.376 96.7333 108.176 96.7333 107.909 97C107.643 97.1333 107.643 97.3333 107.909 97.6H107.309C107.309 97.7333 107.043 98.2 106.509 99C105.976 99.8 105.243 100.467 104.309 101V100.2C104.043 100.067 103.909 100.133 103.909 100.4C103.909 100.533 103.776 100.667 103.509 100.8H104.109C103.976 101.333 103.776 101.667 103.509 101.8C103.243 101.8 102.909 101.867 102.509 102C102.376 102 102.376 101.933 102.509 101.8C102.776 101.667 102.776 101.6 102.509 101.6C102.243 101.867 101.909 102.2 101.509 102.6C101.243 103 100.909 103.333 100.509 103.6C100.243 103.2 99.976 103.133 99.7094 103.4C99.576 103.667 99.376 103.867 99.1094 104C99.1094 104 98.776 104.133 98.1094 104.4C97.7094 104.667 97.3094 104.933 96.9094 105.2C96.6427 105.467 96.176 105.667 95.5094 105.8C95.376 106.067 95.3094 106.333 95.3094 106.6C95.176 106.6 95.1094 106.533 95.1094 106.4C95.1094 106.267 94.976 106.267 94.7094 106.4C94.4427 106.667 94.1094 107 93.7094 107.4C93.3094 107.667 92.776 107.867 92.1094 108C91.576 108.933 90.776 109.6 89.7094 110C88.776 110.4 87.776 110.8 86.7094 111.2C85.1094 112.267 83.5094 113 81.9094 113.4C80.4427 113.667 78.8427 113.933 77.1094 114.2C75.376 114.6 73.5094 114.667 71.5094 114.4C70.176 114.133 68.8427 113.933 67.5094 113.8C66.3094 113.667 65.376 113.4 64.7094 113C63.776 112.333 62.976 111.533 62.3094 110.6C61.776 109.667 61.3094 108.867 60.9094 108.2C60.5094 108.067 60.3094 107.867 60.3094 107.6C60.3094 107.333 60.1094 107 59.7094 106.6C59.7094 106.467 59.776 106.4 59.9094 106.4C59.9094 106.4 59.9094 106.267 59.9094 106C59.6427 106.267 59.4427 106.4 59.3094 106.4C59.0427 105.733 59.176 105.2 59.7094 104.8C60.1094 104.4 60.1094 103.867 59.7094 103.2C59.4427 103.467 59.3094 104 59.3094 104.8C59.0427 104.533 58.9094 104.2 58.9094 103.8C58.9094 103.267 59.176 103 59.7094 103C59.7094 102.2 59.976 101.267 60.5094 100.2C60.2427 100.2 60.0427 100.267 59.9094 100.4C60.0427 99.7333 60.3094 99.2 60.7094 98.8C61.1094 98.4 61.3094 97.8667 61.3094 97.2C61.0427 97.2 60.976 97.3333 61.1094 97.6C61.1094 97.8667 61.0427 98 60.9094 98C60.6427 97.3333 60.9094 96.4667 61.7094 95.4C61.8427 95.4 61.9094 95.2667 61.9094 95C61.9094 95.2667 61.776 95.6 61.5094 96C61.2427 96.2667 61.2427 96.5333 61.5094 96.8ZM94.7094 51C94.4427 51.1333 94.376 51.2667 94.5094 51.4C94.6427 51.4 94.576 51.5333 94.3094 51.8C93.6427 52.3333 93.1094 53 92.7094 53.8C92.4427 54.6 91.8427 54.9333 90.9094 54.8C90.2427 55.0667 89.7094 55.5333 89.3094 56.2C88.6427 56.2 88.2427 56.1333 88.1094 56C87.976 55.8667 87.776 55.6667 87.5094 55.4C86.8427 55.4 86.4427 55.6 86.3094 56C85.1094 55.6 84.1094 55.2 83.3094 54.8C82.6427 54.4 81.8427 54 80.9094 53.6C80.9094 52.4 81.0427 51.2667 81.3094 50.2C81.7094 49 82.7094 48.5333 84.3094 48.8C84.576 48.5333 84.776 48.4 84.9094 48.4C85.0427 48.4 85.176 48.3333 85.3094 48.2C86.9094 48.3333 88.3094 48.6667 89.5094 49.2C90.7094 49.7333 92.176 50.0667 93.9094 50.2C93.6427 50.7333 93.9094 51 94.7094 51ZM121.709 84C121.176 84.1333 120.776 84.4 120.509 84.8C120.243 85.2 120.309 85.6 120.709 86C120.709 85.6 120.909 85.2 121.309 84.8C121.576 84.5333 121.709 84.2667 121.709 84ZM100.309 102.4C100.576 102.4 100.843 102.333 101.109 102.2C101.376 101.933 101.376 101.667 101.109 101.4L100.309 102.4ZM123.709 83C123.576 82.8667 123.643 82.8 123.909 82.8L123.709 83ZM192.291 93.4C192.024 94.0667 191.691 94.5333 191.291 94.8C191.024 94.9333 190.824 95.3333 190.691 96C190.424 96 190.291 96 190.291 96C190.291 95.8667 190.157 95.8 189.891 95.8C189.624 96.4667 189.224 96.9333 188.691 97.2C188.157 97.4667 187.757 98 187.491 98.8L186.691 99.2C186.024 99.8667 185.757 100.2 185.891 100.2C186.024 100.2 186.224 100.133 186.491 100C186.757 99.8667 186.891 99.8 186.891 99.8C187.024 99.8 186.691 100.133 185.891 100.8C185.224 100.667 184.824 100.667 184.691 100.8C184.557 100.933 184.291 101.067 183.891 101.2C183.624 101.867 183.224 102.2 182.691 102.2H182.491C182.757 102.2 182.891 102 182.891 101.6C182.357 101.867 181.691 102.2 180.891 102.6C180.224 103 179.557 103.2 178.891 103.2C178.624 103.467 178.357 103.667 178.091 103.8C177.824 103.8 177.691 104 177.691 104.4C177.557 104.133 177.224 104.067 176.691 104.2C176.291 104.333 175.891 104.467 175.491 104.6C175.224 104.733 175.024 105 174.891 105.4C174.757 105.667 174.557 105.8 174.291 105.8C173.491 105.8 172.891 105.933 172.491 106.2C172.091 106.467 171.691 106.6 171.291 106.6C171.024 106.6 170.757 106.733 170.491 107C170.224 107.267 169.957 107.4 169.691 107.4C168.624 108.067 167.424 108.533 166.091 108.8C164.757 109.067 163.491 109.267 162.291 109.4C161.624 109.667 161.024 109.933 160.491 110.2C160.091 110.333 159.491 110.4 158.691 110.4C156.557 110.533 154.424 110.467 152.291 110.2C150.291 109.8 148.357 109.267 146.491 108.6C142.757 107.533 139.691 106.067 137.291 104.2C136.091 103.4 135.024 102.467 134.091 101.4C133.157 100.333 132.491 99.0667 132.091 97.6C131.024 98.8 130.024 100.2 129.091 101.8C128.157 103.4 127.157 105 126.091 106.6C125.691 106.867 125.357 107.2 125.091 107.6C124.824 107.867 124.691 108.2 124.691 108.6C124.691 108.867 124.624 109.133 124.491 109.4C123.824 110.467 123.157 111.467 122.491 112.4C121.957 113.333 121.691 114.533 121.691 116C120.224 117.2 118.757 118 117.291 118.4C115.824 118 114.691 117.4 113.891 116.6C113.091 115.8 111.891 115.267 110.291 115C109.624 113.933 109.357 112.533 109.491 110.8C109.491 108.933 109.891 107.6 110.691 106.8C110.957 103.867 111.624 101.133 112.691 98.6C113.757 95.9333 114.691 93.1333 115.491 90.2C116.691 86.0667 117.891 82 119.091 78C120.291 74 121.557 70 122.891 66L123.891 64.2C124.157 63.6667 124.291 63.2 124.291 62.8C124.424 62.4 124.624 62.0667 124.891 61.8C126.491 56.3333 128.424 51.2667 130.691 46.6C132.957 41.9333 135.024 37.0667 136.891 32L137.291 31.6C138.624 28.2667 139.824 25.0667 140.891 22C142.091 18.9333 143.357 15.8667 144.691 12.8C145.491 11.0667 146.224 9.53333 146.891 8.19999C147.691 6.73333 148.224 4.99999 148.491 3C149.024 3.26666 149.491 3.39999 149.891 3.39999C150.291 3.26666 150.824 3.19999 151.491 3.19999C151.491 3.33333 151.557 3.39999 151.691 3.39999C151.691 3.39999 151.824 3.39999 152.091 3.39999C152.491 3.39999 152.824 3.39999 153.091 3.39999C153.357 3.26666 153.624 3.19999 153.891 3.19999C154.157 3.19999 154.557 3.33333 155.091 3.59999C155.624 3.86666 156.024 3.93333 156.291 3.8C156.557 3.66666 156.691 3.73332 156.691 4C156.824 4.13333 157.091 4.33333 157.491 4.6C158.157 4.86666 158.691 5.13333 159.091 5.39999C159.624 5.53333 160.024 5.93333 160.291 6.6C160.691 7.8 160.691 9.26667 160.291 11C159.224 11.9333 158.357 13.0667 157.691 14.4C157.024 15.6 156.224 16.7333 155.291 17.8C155.157 18.0667 155.091 18.4667 155.091 19C155.091 19.2667 154.957 19.3333 154.691 19.2C154.557 19.0667 154.424 19.1333 154.291 19.4C153.757 20.7333 153.091 22.1333 152.291 23.6C151.624 25.0667 151.157 26.6667 150.891 28.4C150.624 28.4 150.491 28.4667 150.491 28.6C150.491 28.6 150.357 28.6667 150.091 28.8C150.091 29.8667 149.957 30.6 149.691 31C149.424 31.4 149.291 32 149.291 32.8C148.624 33.3333 148.157 34.0667 147.891 35C147.624 35.9333 147.157 36.7333 146.491 37.4C145.557 40.3333 144.424 43.3333 143.091 46.4C141.891 49.3333 140.757 52.3333 139.691 55.4C138.891 56.3333 138.224 57.5333 137.691 59C137.157 60.3333 136.557 61.5333 135.891 62.6C134.424 67.6667 132.757 72.6667 130.891 77.6C129.024 82.4 127.557 87.3333 126.491 92.4C128.357 89.8667 130.357 87.4667 132.491 85.2C134.757 82.8 136.957 80.4667 139.091 78.2C139.624 77.5333 140.157 76.8667 140.691 76.2C141.224 75.4 141.824 74.7333 142.491 74.2L145.891 71.6C147.491 70.2667 149.224 68.8667 151.091 67.4C152.957 65.9333 154.824 64.7333 156.691 63.8C156.957 63.5333 157.224 63.4 157.491 63.4C157.757 63.4 158.024 63.3333 158.291 63.2C159.091 62.4 159.891 61.9333 160.691 61.8C161.624 61.8 162.491 62.0667 163.291 62.6C164.224 63.1333 165.157 63.5333 166.091 63.8C166.357 64.6 166.757 65.4667 167.291 66.4C167.957 67.2 168.091 68.1333 167.691 69.2C167.557 69.4667 167.291 69.6667 166.891 69.8C166.624 69.9333 166.357 70.1333 166.091 70.4C165.957 70.5333 165.891 70.8 165.891 71.2L163.891 73.2C163.224 73.8667 162.557 74.4 161.891 74.8C161.224 75.2 160.491 75.6667 159.691 76.2C156.757 78.6 153.824 80.9333 150.891 83.2C147.957 85.4667 145.157 87.8 142.491 90.2C142.357 90.2 142.224 90.4 142.091 90.8C141.424 91.0667 140.957 91.4667 140.691 92C140.424 92.5333 140.024 92.9333 139.491 93.2C139.491 93.8667 139.691 94.2667 140.091 94.4C139.957 95.0667 139.891 95.6 139.891 96C139.891 96.4 140.024 96.8 140.291 97.2C140.691 97.6 141.024 98.0667 141.291 98.6C141.557 99 141.824 99.4 142.091 99.8C143.157 101.267 144.691 102.267 146.691 102.8C148.691 103.333 150.624 103.6 152.491 103.6C157.691 103.6 162.157 102.867 165.891 101.4C169.624 99.8 173.424 98.2667 177.291 96.8C177.557 96.8 177.757 96.6667 177.891 96.4C178.024 96 178.224 95.8 178.491 95.8C178.491 95.5333 178.491 95.4667 178.491 95.6C178.624 95.7333 178.757 95.8 178.891 95.8C179.157 95.5333 179.357 95.2667 179.491 95C179.757 94.7333 180.024 94.5333 180.291 94.4C180.957 94.1333 181.424 94 181.691 94C181.957 94 182.157 93.8 182.291 93.4C182.157 93.5333 181.891 93.6667 181.491 93.8C181.224 93.8 181.424 93.4667 182.091 92.8C182.891 92.5333 183.291 92.6 183.291 93C183.291 93.4 183.691 93.4 184.491 93C185.157 91.6667 185.824 90.8667 186.491 90.6C187.291 90.3333 188.157 89.8667 189.091 89.2C189.357 89.4667 189.491 89.7333 189.491 90C189.491 90.1333 189.757 90.2 190.291 90.2C190.557 89.9333 190.691 89.6667 190.691 89.4C190.824 89 191.024 88.8 191.291 88.8C191.424 88.9333 191.424 89 191.291 89C191.157 89 191.091 89.0667 191.091 89.2C191.357 89.4667 191.557 89.5333 191.691 89.4C191.824 89.1333 191.891 89.0667 191.891 89.2C191.891 89.6 191.891 90.0667 191.891 90.6C191.891 91.1333 192.091 91.6 192.491 92C191.824 92.4 191.757 92.8667 192.291 93.4ZM257.594 87.8C257.86 88.2 257.394 88.8667 256.194 89.8C254.994 90.7333 253.794 91.8 252.594 93C252.327 93.1333 251.727 93.6 250.794 94.4C249.86 95.2 249.327 95.7333 249.194 96L247.994 97L244.594 99.6L242.994 100.6L240.194 102.4C237.927 103.867 235.794 105.267 233.794 106.6C231.794 107.933 229.327 109.133 226.394 110.2C226.26 110.2 225.994 110.267 225.594 110.4C225.327 110.533 224.994 110.667 224.594 110.8C224.06 110.933 223.594 111.067 223.194 111.2C222.66 111.2 222.194 111.333 221.794 111.6C221.394 111.733 220.86 111.8 220.194 111.8C220.06 111.8 220.127 111.667 220.394 111.4C219.727 111.533 219.194 111.667 218.794 111.8C218.394 111.8 217.927 112 217.394 112.4C216.994 112.133 216.594 112.133 216.194 112.4C215.927 112.8 215.527 112.867 214.994 112.6C214.727 113 214.327 113.133 213.794 113C213.26 112.867 212.794 113 212.394 113.4C212.127 113.267 212.06 113.133 212.194 113C212.327 113 212.26 112.933 211.994 112.8C211.594 112.933 211.06 112.933 210.394 112.8C209.86 112.8 209.26 113 208.594 113.4C208.194 113.133 207.86 113.067 207.594 113.2C207.46 113.333 207.06 113.267 206.394 113L206.194 113.4C204.194 113 202.727 112.867 201.794 113C201.26 112.867 200.86 112.733 200.594 112.6C200.327 112.467 200.06 112.533 199.794 112.8C198.327 112.533 196.927 112.267 195.594 112C194.394 111.6 193.06 111.067 191.594 110.4C189.994 109.733 188.594 108.8 187.394 107.6C186.194 106.267 185.06 104.867 183.994 103.4C183.46 102.467 183.06 101.533 182.794 100.6C182.527 99.6667 182.26 98.8 181.994 98C181.727 96.9333 181.594 96 181.594 95.2C181.594 94.2667 181.727 93.2667 181.994 92.2C182.26 90.7333 182.727 88.7333 183.394 86.2C183.927 83.6667 184.927 81.4667 186.394 79.6L190.994 74.4L193.994 70.4C195.06 69.6 195.927 68.9333 196.594 68.4C197.26 67.8667 198.06 67.0667 198.994 66C199.66 65.3333 200.46 64.8 201.394 64.4C202.327 63.8667 203.127 63.2667 203.794 62.6C204.994 61.8 205.927 61.0667 206.594 60.4C207.527 59.7333 208.527 59.1333 209.594 58.6C210.66 57.9333 211.66 57.4667 212.594 57.2C212.994 56.9333 213.527 56.8 214.194 56.8C214.86 56.8 215.394 56.6667 215.794 56.4C216.06 56.2667 216.327 56.1333 216.594 56C216.86 55.8667 217.194 55.8 217.594 55.8C218.26 56.8667 219.127 57.8 220.194 58.6C221.394 59.2667 222.327 60.1333 222.994 61.2C223.927 61.4667 224.46 61.9333 224.594 62.6C224.727 63.2667 225.127 63.8667 225.794 64.4C226.06 65.4667 226.06 66.4 225.794 67.2C225.66 68 225.327 68.8667 224.794 69.8C224.527 70.0667 224.394 70.3333 224.394 70.6C224.394 70.8667 224.327 71.1333 224.194 71.4C223.927 72.0667 223.46 72.6667 222.794 73.2C222.26 73.6 221.727 74.1333 221.194 74.8C220.927 75.0667 220.66 75.4667 220.394 76C220.26 76.5333 220.06 77.0667 219.794 77.6C219.26 78.1333 218.594 78.8 217.794 79.6C216.994 80.4 216.26 81.2 215.594 82C214.927 82.9333 214.06 83.6 212.994 84C212.06 84.4 211.26 85 210.594 85.8C210.194 86.0667 209.994 86.4667 209.994 87C208.927 88.0667 207.66 89.0667 206.194 90C204.86 90.8 203.66 91.7333 202.594 92.8C200.46 93.2 198.46 94 196.594 95.2C194.86 96.4 192.794 96.7333 190.394 96.2C190.127 96.3333 190.06 96.4667 190.194 96.6C190.46 96.7333 190.794 96.8 191.194 96.8C190.794 97.4667 190.727 98 190.994 98.4C191.394 98.6667 191.66 99 191.794 99.4C192.86 100.467 194.127 101.467 195.594 102.4C197.06 103.333 198.66 103.933 200.394 104.2C205.327 105.667 209.994 105.733 214.394 104.4C215.86 104.133 217.194 103.867 218.394 103.6C219.727 103.333 221.26 102.867 222.994 102.2C225.127 101.4 227.06 100.533 228.794 99.6L231.394 98.4C231.794 98.1333 231.994 98.0667 231.994 98.2C232.127 98.2 232.127 98.2667 231.994 98.4C231.994 98.4 231.994 98.4667 231.994 98.6C231.994 98.6 232.194 98.4667 232.594 98.2L237.794 95.8C239.26 94.7333 240.46 93.9333 241.394 93.4C242.327 92.7333 243.727 91.6667 245.594 90.2C245.727 90.0667 246.127 89.8 246.794 89.4C247.46 88.8667 248.127 88.3333 248.794 87.8C249.594 87.2667 250.327 86.8 250.994 86.4C251.66 85.8667 252.127 85.5333 252.394 85.4L254.394 83.4C255.994 82.3333 257.327 81.4667 258.394 80.8C259.594 80 260.46 79.4667 260.994 79.2C261.394 79.6 261.66 80.2 261.794 81C261.927 81.6667 262.194 82 262.594 82C261.794 83.2 261.194 84.1333 260.794 84.8C260.527 85.3333 260.26 85.7333 259.994 86C259.86 86.2667 259.594 86.5333 259.194 86.8C258.927 86.9333 258.394 87.2667 257.594 87.8ZM215.194 65.4C214.794 65.6667 214.327 66 213.794 66.4C213.26 66.8 212.794 67.1333 212.394 67.4C211.86 67.4 211.527 67.5333 211.394 67.8C211.127 67.9333 210.86 68.0667 210.594 68.2C210.46 68.3333 210.26 68.4667 209.994 68.6L208.394 69.8C207.727 70.4667 207.06 71 206.394 71.4C205.727 71.6667 205.06 72.0667 204.394 72.6C203.594 73.6667 202.794 74.5333 201.994 75.2C201.327 75.7333 200.594 76.5333 199.794 77.6C198.327 78.5333 197.127 79.6667 196.194 81C194.727 82.4667 193.394 83.9333 192.194 85.4C190.994 86.7333 190.06 88.1333 189.394 89.6C191.927 88.8 194.327 87.5333 196.594 85.8C198.86 84.0667 201.26 82.2667 203.794 80.4C204.594 79.7333 205.394 79.0667 206.194 78.4C206.994 77.7333 207.727 76.9333 208.394 76C209.594 75.3333 210.927 74.2667 212.394 72.8C213.994 71.2 215.327 69.6667 216.394 68.2C216.66 67.5333 216.927 66.9333 217.194 66.4C217.594 65.8667 217.66 65.3333 217.394 64.8C217.127 64.8 216.727 64.8667 216.194 65C215.794 65 215.46 65.1333 215.194 65.4Z" fill="black"/>
</svg>
