<svg width="333" height="333" viewBox="0 0 333 333" fill="none" xmlns="http://www.w3.org/2000/svg">
<path d="M303.701 158.343C303.701 133.879 290.22 127.236 269.929 116.328C257.418 109.603 222.768 104.803 216.858 97.6548C185.832 60.1299 122.245 163.864 120.365 188.428C114.729 262.042 131.61 279.72 216.858 279.72C276.263 279.72 323 245.513 323 186.353C323 125.511 299.119 86.329 255.455 46.3031C208.299 3.07691 130.388 24.4974 72.118 27.6298C20.8777 30.3842 14.2221 111.482 14.2221 144.338C14.2221 201.713 34.8057 241.005 91.9527 265.196C153.182 291.116 203.867 284.278 238.301 223.7C264.839 177.011 289.177 71.3414 235.084 36.4477C123.211 -35.718 64.6923 51.8685 28.16 154.194C1.20398 229.696 -4.22939 274.812 72.118 309.805C157.982 349.16 235.417 294.182 279.042 227.85C299.339 196.987 305.712 120.608 303.701 83.6498C300.998 33.954 215.66 3.50473 178.26 27.6298" stroke="white" stroke-width="20" stroke-linecap="round"/>
<path d="M139.175 119.302C136.694 123.321 138.194 132.813 136.276 137.783C134.888 141.382 135.395 145.688 134.206 149.111" stroke="black" stroke-width="20" stroke-linecap="round"/>
<path d="M198.794 119.302C198.399 129.528 196.863 140.363 193.825 149.111" stroke="black" stroke-width="20" stroke-linecap="round"/>
<path d="M69.619 185.196C72.3899 186.004 74.6621 189.338 77.0196 190.934C81.3908 193.895 86.3284 195.727 91.4471 197.036C105.066 200.518 119.786 205.639 133.758 207.132C149.21 208.784 164.66 208.73 180.18 208.73C190.192 208.73 199.898 206.115 210.007 206.115C229.67 206.115 246.926 191.883 263.381 183.889" stroke="black" stroke-width="20" stroke-linecap="round"/>
</svg>
