<svg width="1299" height="1155" viewBox="0 0 1299 1155" fill="none" xmlns="http://www.w3.org/2000/svg">
<g filter="url(#filter0_f_97_2988)">
<path fill-rule="evenodd" clip-rule="evenodd" d="M725.814 696.267L648.889 580.741L571.963 696.98L497.887 647.061L588.346 537.953L458 498.731L485.779 417.435L609.714 469.493L603.303 334H695.186L688.776 469.493L812.711 417.435L840.489 498.731L710.144 537.953L799.89 647.061L725.814 696.267ZM802.323 468.618L798.749 469.959L801.899 478.353L796.916 480.223L788.326 457.338L799.179 453.265C803.408 451.677 807.204 453.619 808.841 457.98C809.998 461.062 809.544 464.037 807.151 466.133L815.014 473.43L809.473 475.51L802.323 468.618ZM794.934 459.795L797.174 465.763L802.42 463.794C803.895 463.24 804.518 462.108 803.964 460.633L803.423 459.19C802.869 457.715 801.656 457.273 800.18 457.826L794.934 459.795ZM791.918 482.099L790.257 477.673L779.667 481.648L777.808 476.697L786.89 473.288L785.241 468.895L776.159 472.303L774.4 467.615L784.99 463.64L783.329 459.214L767.755 465.059L776.344 487.944L791.918 482.099ZM772.761 489.289L766.892 491.492L757.085 483.801L755.455 488.528L757.843 494.889L752.859 496.759L744.27 473.874L749.253 472.003L753.339 482.888L753.536 482.815L755.12 477.17L757.844 468.779L763.483 466.662L759.31 478.964L772.761 489.289ZM749.037 498.194L733.005 478.102L726.841 480.415L727.889 506.131L732.939 504.236L732.535 498.178L740.175 495.31L743.857 500.138L749.037 498.194ZM737.374 491.536L732.128 493.505L731.392 483.869L731.556 483.808L737.374 491.536ZM719.354 509.335L724.042 507.575L715.453 484.689L710.141 486.683L708.624 499.484L708.559 499.509L698.928 490.892L693.649 492.873L702.239 515.758L706.927 513.999L701.205 498.752L701.303 498.716L704.395 501.67L711.783 508.099L713.202 498.327L713.619 494.355L713.718 494.318L719.354 509.335Z" fill="#44C983" fill-opacity="0.59"/>
</g>
<defs>
<filter id="filter0_f_97_2988" x="0" y="-124" width="1298.49" height="1278.98" filterUnits="userSpaceOnUse" color-interpolation-filters="sRGB">
<feFlood flood-opacity="0" result="BackgroundImageFix"/>
<feBlend mode="normal" in="SourceGraphic" in2="BackgroundImageFix" result="shape"/>
<feGaussianBlur stdDeviation="229" result="effect1_foregroundBlur_97_2988"/>
</filter>
</defs>
</svg>
