<svg width="100" height="92" viewBox="0 0 100 92" fill="none" xmlns="http://www.w3.org/2000/svg">
<g filter="url(#filter0_f_176_1380)">
<path d="M56.0575 28.4191C59.517 22.4271 54.8916 13.5396 50.1638 12.6521" stroke="black" stroke-width="4" stroke-linecap="round"/>
<rect x="19.593" y="32.335" width="53.814" height="47.1513" rx="23.5757" transform="rotate(-13.9634 19.593 32.335)" fill="#F4F4F4" stroke="#F4F4F4" stroke-width="17" stroke-linecap="round" stroke-linejoin="round" stroke-dasharray="1 15"/>
<rect x="25.5608" y="30.8511" width="41.0012" height="34.851" rx="17.4255" transform="rotate(-13.9634 25.5608 30.8511)" fill="white" stroke="white" stroke-width="17" stroke-linecap="round" stroke-linejoin="round" stroke-dasharray="1 15"/>
<rect width="3.07509" height="3.07509" rx="1.53754" transform="matrix(0.318354 -0.947972 -0.947972 -0.318354 51.8139 33.5881)" fill="black"/>
<rect width="3.07509" height="3.07509" rx="1.53754" transform="matrix(0.318354 -0.947972 -0.947972 -0.318354 41.6629 37.3093)" fill="black"/>
<path d="M73.4023 61.2703C78.1797 57.755 85.4215 59.3696 87.6606 57.755" stroke="black" stroke-width="4" stroke-linecap="round"/>
<path d="M51.3311 69.55C58.7034 62.8802 65.8788 72.6181 67.4168 70.312" stroke="black" stroke-width="4" stroke-linecap="round"/>
<path d="M43.5039 38.0429C47.3478 36.5054 48.6291 35.9929 51.4479 34.9678" stroke="black" stroke-width="4" stroke-linecap="round"/>
<path d="M43.1318 39.5088C44.1569 38.74 43.1319 36.9462 41.8506 37.4587" stroke="black" stroke-width="4" stroke-linecap="round"/>
<path d="M12.4038 48.5944C17.3835 49.7217 22.9674 45.6982 29.7986 47.4432" stroke="black" stroke-width="4" stroke-linecap="round"/>
</g>
<defs>
<filter id="filter0_f_176_1380" x="0.403351" y="0.651611" width="99.2574" height="90.3877" filterUnits="userSpaceOnUse" color-interpolation-filters="sRGB">
<feFlood flood-opacity="0" result="BackgroundImageFix"/>
<feBlend mode="normal" in="SourceGraphic" in2="BackgroundImageFix" result="shape"/>
<feGaussianBlur stdDeviation="5" result="effect1_foregroundBlur_176_1380"/>
</filter>
</defs>
</svg>
