<svg width="180" height="148" viewBox="0 0 180 148" fill="none" xmlns="http://www.w3.org/2000/svg">
<path d="M115.314 132.874C127.388 153.708 151.136 136.552 152.979 143.007" stroke="black" stroke-width="7" stroke-linecap="round"/>
<path d="M68.6592 37.2788C64.3219 21.0919 80.7144 3.1989 92.3316 4.08634" stroke="black" stroke-width="7" stroke-linecap="round"/>
<rect width="130.34" height="114.202" rx="57.1012" transform="matrix(-1 -8.74228e-08 -8.74228e-08 1 149.135 22.6389)" fill="#F4F4F4" stroke="#F4F4F4" stroke-width="17" stroke-linecap="round" stroke-linejoin="round" stroke-dasharray="1 15"/>
<rect width="99.3065" height="84.4106" rx="42.2053" transform="matrix(-1 -8.74228e-08 -8.74228e-08 1 124.307 20)" fill="white" stroke="white" stroke-width="17" stroke-linecap="round" stroke-linejoin="round" stroke-dasharray="1 15"/>
<rect x="65.4415" y="40.3284" width="7.44799" height="7.44799" rx="3.72399" transform="rotate(-122.527 65.4415 40.3284)" fill="black"/>
<rect x="91.4761" y="43.1423" width="7.44799" height="7.44799" rx="3.72399" transform="rotate(-122.527 91.4761 43.1423)" fill="black"/>
<path d="M39.5684 122.099C26.2848 116.629 10.2069 124.656 4.00022 122.17" stroke="black" stroke-width="7" stroke-linecap="round"/>
<path d="M79.4782 37.6965C79.3642 40.7977 74.3795 41.2356 73.6297 37.9784" stroke="black" stroke-width="4" stroke-linecap="round"/>
<path d="M175.535 56.6546C164.489 62.2148 149.013 56.021 133.976 64.1151" stroke="black" stroke-width="7" stroke-linecap="round"/>
</svg>
