<svg width="93" height="56" viewBox="0 0 93 56" fill="none" xmlns="http://www.w3.org/2000/svg">
<path d="M45.2403 50C45.2403 47.2898 43.6342 43.263 44.4162 38.5783C45.1982 33.8936 45.2916 32.2584 46.0024 27.4995C46.3337 25.281 48.4012 21.7635 49.9664 19.8168C51.6125 17.7697 54.2878 16.0648 56.2352 14.1645C58.922 11.5426 62.1648 10.8662 65.938 9.74654C72.4987 7.79973 79.048 9.25318 84.7903 11.5657C87.0944 12.4936 87.3256 15.163 86.7032 16.6983C86.0523 18.3039 84.6362 19.4338 82.8544 20.564C81.6625 21.32 79.1206 21.766 77.5536 22.0258C74.6565 22.5062 71.173 22.3831 68.1966 22.3831C62.1783 22.3831 57.8533 19.9716 52.4325 18.5824C47.9806 17.4415 49.0277 15.0334 42.4351 11.5657C35.8426 8.09794 31.4475 7.1243 26.5031 6.51554C21.5588 5.90678 16.418 5.75385 13.8674 6.51551C11.4237 7.24527 8.04624 8.70601 6.72557 11.0459C5.40491 13.3859 5.90127 16.6008 8.09894 18.5824C10.2966 20.564 18.618 21.7364 22.1081 22.0258C24.4368 22.2189 27.3272 21.8925 30.0741 21.2283C32.821 20.564 34.4691 20.1654 36.1173 19.8168" stroke="black" stroke-opacity="0.8" stroke-width="12" stroke-linecap="round"/>
</svg>
