<svg width="340" height="315" viewBox="0 0 340 315" fill="none" xmlns="http://www.w3.org/2000/svg">
<path d="M265.779 304.656C212.348 304.656 249.649 292.249 287.958 281.298C326.267 270.347 301.975 190.642 287.959 124.798C273.944 58.9535 279.39 -22.3587 81.6951 110.323C-116 243.005 149.328 263.96 229.486 263.96C285.345 263.96 329.292 231.795 329.292 176.167C329.292 118.958 306.837 82.1148 265.779 44.4785C221.439 3.833 148.179 23.9749 93.3881 26.9202C45.2069 29.5102 38.9486 105.767 38.9486 136.661C38.9486 190.61 58.3034 227.556 112.039 250.303C169.613 274.676 217.272 268.246 249.649 211.285C274.604 167.383 297.488 68.022 246.625 35.2115C141.431 -32.6458 86.4058 49.7116 52.0545 145.928C26.7078 216.923 21.5988 259.345 93.3881 292.249C174.126 329.254 246.938 277.559 287.958 215.186C307.044 186.167 313.036 114.347 311.146 79.5956C308.604 32.8667 228.36 4.2355 193.194 26.9202" stroke="#00c897" stroke-width="20" stroke-linecap="round"/>
<path d="M154.82 113.119C152.487 116.898 153.898 125.824 152.095 130.498C150.789 133.881 151.266 137.93 150.148 141.149" stroke="white" stroke-width="20" stroke-linecap="round"/>
<path d="M210.879 113.119C210.508 122.735 209.064 132.923 206.208 141.149" stroke="white" stroke-width="20" stroke-linecap="round"/>
<path d="M318.328 299.985C317.957 301.588 316.513 303.286 313.656 304.657" stroke="#00c897" stroke-width="20" stroke-linecap="round"/>
<path d="M89.4167 175.08C92.0222 175.839 94.1588 178.974 96.3755 180.476C100.486 183.259 105.129 184.982 109.942 186.213C122.747 189.487 136.589 194.302 149.726 195.706C164.256 197.259 178.784 197.209 193.377 197.209C202.791 197.209 211.918 194.75 221.423 194.75C239.912 194.75 256.138 181.368 271.611 173.851" stroke="white" stroke-width="20" stroke-linecap="round"/>
</svg>
