<svg width="472" height="76" viewBox="0 0 472 76" fill="none" xmlns="http://www.w3.org/2000/svg">
<path d="M5.99988 37.2827C58.0276 37.2827 109.851 41.4962 161.902 41.4962C205.955 41.4962 249.372 37.4112 293.46 39.9161C313.617 41.0615 333.903 40.4428 354.088 40.4428C366.722 40.4428 380.665 41.9974 393.181 39.9747C408.254 37.5385 424.144 36.2293 439.472 36.2293C445.44 36.2293 453.305 37.4879 459.018 35.7026C460.794 35.1476 462.499 35.546 464.226 35.1759C464.913 35.0287 452.781 26.1274 451.937 25.5783C441.658 18.8875 431.19 11.635 420.218 6.149C416.888 4.48405 419.414 17.3141 419.457 17.6778C421.124 31.7495 422.001 46.1298 424.724 60.0477C425.263 62.8007 425.657 72.6923 430.05 68.2993C437.624 60.7244 445.588 53.6724 453.224 46.178C457.026 42.4469 462.974 37.6814 465.28 33.0691" stroke="#00D959" stroke-width="12" stroke-linecap="round"/>
</svg>
