<svg width="141" height="80" viewBox="0 0 141 80" fill="none" xmlns="http://www.w3.org/2000/svg">
<path d="M67.0648 4C62.6947 11.1015 78.747 12.8796 81.3408 5.09815" stroke="white" stroke-opacity="0.8" stroke-width="8" stroke-linecap="round"/>
<path d="M90.4156 25.7446C96.2087 37.6629 129.695 30.7791 136.338 18.2839" stroke="white" stroke-opacity="0.8" stroke-width="8" stroke-linecap="round"/>
<path d="M103.468 4.35254C103.826 5.60544 107.08 10.6082 113.492 10.0399C117.515 9.6833 121.423 4.54909 121.423 4.54909" stroke="white" stroke-opacity="0.8" stroke-width="8" stroke-linecap="round"/>
<path d="M4.87464 32.2859C3.59693 32.4456 4.02343 37.9384 4.27866 38.7041C5.02042 40.9294 8.19996 41.4105 10.2843 40.8588C11.2249 40.6098 13.4711 36.19 13.5621 37.1454C13.9715 41.4437 17.1273 40.657 21.0577 40.5379C22.9624 40.4801 23.6405 38.9511 25.0003 37.833C25.65 37.2988 26.35 36.8499 26.8799 36.1827C26.9454 36.1002 27.4031 35.1021 27.5676 35.4721C28.4231 37.397 28.8477 38.5963 31.2809 37.9706C32.4602 37.6673 36.4045 36.9125 37.0573 35.7701C37.5027 34.9906 39.1571 36.1872 40.3581 35.5867" stroke="white" stroke-opacity="0.8" stroke-width="8" stroke-linecap="round"/>
<path d="M55.7201 64.0537C54.0198 64.2663 54.5873 71.576 54.927 72.5949C55.9141 75.5562 60.1454 76.1965 62.9191 75.4623C64.1709 75.1309 67.1601 69.2493 67.2812 70.5206C67.826 76.2407 72.0257 75.1937 77.2561 75.0352C79.7909 74.9584 80.6932 72.9236 82.5028 71.4357C83.3675 70.7248 84.299 70.1274 85.0042 69.2394C85.0913 69.1297 85.7005 67.8015 85.9193 68.2938C87.0578 70.8554 87.623 72.4514 90.861 71.6188C92.4304 71.2152 97.6793 70.2107 98.5481 68.6904C99.1408 67.6531 101.342 69.2455 102.941 68.4463" stroke="white" stroke-opacity="0.8" stroke-width="8" stroke-linecap="round"/>
<path d="M6.5249 25.2717C8.49185 23.3726 10.2099 21.7654 12.9431 21.375C14.5603 21.1439 16.2007 21.3364 17.8026 21.1228C18.6421 21.0109 19.2432 20.4024 20.1865 20.3435C24.5772 20.0691 28.9254 19.908 33.3438 19.908C40.5374 19.908 45.8174 22.0666 50.6729 26.9221" stroke="white" stroke-opacity="0.8" stroke-width="8" stroke-linecap="round"/>
<path d="M57.9165 54.7193C60.5341 52.192 62.8204 50.0532 66.4577 49.5336C68.6099 49.2261 70.7929 49.4823 72.9246 49.198C74.0419 49.0491 74.8418 48.2393 76.097 48.1609C81.94 47.7957 87.7266 47.5813 93.6065 47.5813C103.18 47.5813 110.206 50.454 116.668 56.9156" stroke="white" stroke-opacity="0.8" stroke-width="8" stroke-linecap="round"/>
</svg>
