<svg width="135" height="121" viewBox="0 0 135 121" fill="none" xmlns="http://www.w3.org/2000/svg">
<path d="M117.906 89.7937C122.793 83.8562 117.772 79.1353 118.936 74.7886" stroke="#001A23" stroke-width="7" stroke-linecap="round"/>
<rect width="105" height="92" rx="46" transform="matrix(-0.965926 -0.258819 -0.258819 0.965926 125.234 29.21)" fill="#F4F4F4" stroke="#F4F4F4" stroke-width="17" stroke-linecap="round" stroke-linejoin="round" stroke-dasharray="1 15"/>
<rect width="97" height="82" rx="41" transform="matrix(-0.965926 -0.258819 -0.258819 0.965926 126.244 27.3008)" fill="white" stroke="white" stroke-width="17" stroke-linecap="round" stroke-linejoin="round" stroke-dasharray="1 15"/>
<path d="M85.2271 39.4651C79.2272 34.4653 85.2275 34.4646 75.7272 38.4652" stroke="#001A23" stroke-width="3" stroke-linecap="round"/>
<path d="M76.941 37.9312C69.319 64.4991 86.2627 38.7766 84.001 39" stroke="#001A23" stroke-width="3" stroke-linecap="round"/>
<path d="M56.4478 73.2919C66.4478 85.292 76.7652 94.554 103.139 98.5151" stroke="#001A23" stroke-width="7" stroke-linecap="round"/>
<rect x="68.1091" y="40.2847" width="6" height="6" rx="3" transform="rotate(-120 68.1091 40.2847)" fill="#001A23"/>
<rect x="89.1976" y="40.811" width="6" height="6" rx="3" transform="rotate(-120 89.1976 40.811)" fill="#001A23"/>
<path d="M96.007 86.4005C118.406 74.2849 91.7649 108.275 96.0075 111.104" stroke="#001A23" stroke-width="7" stroke-linecap="round"/>
<path d="M80.425 82.2256C102.824 70.1101 79.6306 105.775 83.8733 108.604" stroke="#001A23" stroke-width="7" stroke-linecap="round"/>
<path d="M96.4354 73.7879C95.4349 80.7876 112.435 94.7895 117.936 89.2876" stroke="#001A23" stroke-width="7" stroke-linecap="round"/>
</svg>
