<svg width="416" height="113" viewBox="0 0 416 113" fill="none" xmlns="http://www.w3.org/2000/svg">
<path d="M47 101.4C46.6 101.933 46.4 102.267 46.4 102.4C46.4 102.533 46.3333 102.8 46.2 103.2C44.6 104.267 42.8 105.333 40.8 106.4C38.9333 107.467 37.0667 108.467 35.2 109.4V109.8C34.9333 109.933 34.6667 109.933 34.4 109.8C34.1333 109.8 33.9333 109.867 33.8 110C33.2667 110.267 32.6667 110.533 32 110.8C31.3333 111.2 30.7333 111.6 30.2 112C29.9333 112 29.6 112 29.2 112C28.8 112.133 28.4 112.2 28 112.2C27.3333 112.467 26.4667 112.667 25.4 112.8C24.4667 112.933 23.6667 112.867 23 112.6C21.6667 112.333 20.4667 111.667 19.4 110.6C18.3333 109.533 17.0667 108.667 15.6 108C16.1333 107.733 16.2667 107.4 16 107C15.7333 106.733 15.6667 106.4 15.8 106C15.2667 106.4 15.0667 106.667 15.2 106.8C15.4667 107.067 15.5333 107.333 15.4 107.6C15.1333 107.467 14.8 107.267 14.4 107C14.1333 106.867 13.8667 106.733 13.6 106.6C14.6667 105.533 14.9333 104.867 14.4 104.6C14.1333 104.733 14 104.933 14 105.2C14.1333 105.467 14.0667 105.6 13.8 105.6C13.6667 105.6 13.3333 105.667 12.8 105.8C12.4 106.067 12.0667 106.067 11.8 105.8C11 106.467 10.4 107.2 10 108C9.46667 108.8 8.86667 109.333 8.2 109.6C7.26667 109.867 6.6 109.867 6.2 109.6C5.66667 109.333 5.2 108.933 4.8 108.4C4.4 108 4 107.533 3.6 107C3.2 106.6 2.73333 106.267 2.2 106C0.866666 104.533 0.666666 102.4 1.6 99.6C2.4 96.6667 3.26667 93.9333 4.2 91.4C4.6 91 4.86667 90.6667 5 90.4C5 90 5.13333 89.5333 5.4 89C6.06667 87.5333 6.8 86 7.6 84.4C8.26667 82.8 9.06667 81.2667 10 79.8C11.3333 76.3333 12.8 73 14.4 69.8C16.1333 66.6 17.9333 63.2667 19.8 59.8C21.9333 55.8 23.9333 51.7333 25.8 47.6C27.8 43.3333 29.7333 39.3333 31.6 35.6C33.6 32.2667 35.4 29 37 25.8C38.7333 22.6 40.4667 19.2667 42.2 15.8C42.4667 14.4667 42.8667 13.2667 43.4 12.2C44.0667 11.1333 44.6667 9.93333 45.2 8.59999C45.8667 7.93333 46.3333 7.33333 46.6 6.79999C47 6.26666 47.2667 5.6 47.4 4.8C47.6667 4.4 47.7333 3.93333 47.6 3.4C47.6 2.73333 47.9333 2.33333 48.6 2.2C49.1333 2.73333 49.8 3 50.6 3C51.5333 3 52.4667 3.06667 53.4 3.2C54.3333 3.2 55.1333 3.33333 55.8 3.59999C56.6 3.73332 57.1333 4.26666 57.4 5.2C56.7333 6.13333 56.2667 7.4 56 9C55.7333 10.4667 55.2667 11.9333 54.6 13.4L52.6 18C52.0667 19.2 51.6667 20.3333 51.4 21.4C51.1333 22.3333 50.7333 23.2667 50.2 24.2L48.8 26.4C48.1333 27.0667 47.8 27.9333 47.8 29C47.1333 29.9333 46.4667 30.8 45.8 31.6C45.2667 32.2667 44.8 33.0667 44.4 34C43.6 35.8667 42.8667 37.6667 42.2 39.4C41.5333 41 40.8 42.5333 40 44C39.3333 45.4667 38.4667 47.0667 37.4 48.8C36.4667 50.4 35.6667 51.9333 35 53.4C34.8667 54.0667 34.5333 54.7333 34 55.4C33.4667 56.0667 33 56.8667 32.6 57.8C32.6 58.2 32.5333 58.6667 32.4 59.2C32.2667 59.7333 32.0667 60.2 31.8 60.6C29.9333 64.2 28 67.9333 26 71.8C24 75.5333 22.0667 79.3333 20.2 83.2C21.2667 82.8 22.2667 82.2 23.2 81.4C24.2667 80.6 25.3333 79.6667 26.4 78.6C30.4 75.9333 34.4 73.2667 38.4 70.6C42.4 67.8 46.8 65.5333 51.6 63.8C52.4 63.5333 53.3333 63.3333 54.4 63.2C55.4667 63.0667 56.4 62.8 57.2 62.4C58.1333 62.1333 59.1333 61.9333 60.2 61.8C61.4 61.5333 62.5333 61.6667 63.6 62.2L66.6 64C68.4667 64.8 69.8667 66 70.8 67.6C71.6 69.6 71.7333 71.6667 71.2 73.8C70.6667 75.9333 69.7333 78.0667 68.4 80.2C67.2 82.2 65.7333 84.1333 64 86C62.2667 87.7333 60.6667 89.2667 59.2 90.6C57.4667 92.8667 55.6 94.8667 53.6 96.6C51.6 98.3333 49.6667 99.9333 47.8 101.4H47ZM26.4 102.4C26.5333 102.267 26.6 102.2 26.6 102.2C26.6 102.067 26.6667 101.933 26.8 101.8C26.8 101.667 26.8667 101.533 27 101.4C28.4667 101.133 29.8667 100.933 31.2 100.8C32.5333 100.533 33.6 99.8 34.4 98.6C35.2 98.2 36.1333 97.6667 37.2 97C38.4 96.2 39.4 95.2667 40.2 94.2C40.7333 94.0667 41.2667 93.8667 41.8 93.6C42.3333 93.3333 42.8 92.8 43.2 92C44.6667 91.3333 45.8667 90.3333 46.8 89C47.8667 87.5333 49.0667 86.2667 50.4 85.2C51.0667 84.2667 51.8 83.5333 52.6 83C53.4 82.3333 54.2 81.5333 55 80.6C56.3333 79.1333 57.7333 77.3333 59.2 75.2C60.8 72.9333 61.8 70.8667 62.2 69C61.5333 68.7333 61 68.7333 60.6 69C60.2 69.1333 59.6667 69.1333 59 69C56.3333 70.4667 53.8667 71.7333 51.6 72.8C49.3333 73.7333 46.9333 74.9333 44.4 76.4C41.7333 77.8667 39.0667 79.8667 36.4 82.4C33.8667 84.9333 31.2667 87.1333 28.6 89C28.3333 89.5333 28 89.9333 27.6 90.2C27.3333 90.3333 27.0667 90.6 26.8 91C26.5333 91.6667 26.2 92.3333 25.8 93C25.5333 93.5333 25.2667 94.1333 25 94.8C25.1333 95.3333 25 96.0667 24.6 97C24.3333 97.8 24.0667 98.4 23.8 98.8C24.4667 98.9333 24.4667 99.4667 23.8 100.4C23.2667 101.2 22.8667 102 22.6 102.8C22.8667 103.2 23.1333 103.333 23.4 103.2C23.8 102.933 24.1333 102.8 24.4 102.8C24.5333 102.8 24.8667 102.933 25.4 103.2C25.9333 103.467 26.2 103.267 26.2 102.6C26.4667 102.867 27 102.933 27.8 102.8C28.7333 102.533 29.5333 102.067 30.2 101.4C29.5333 101.4 28.8667 101.6 28.2 102C27.6667 102.4 27.0667 102.533 26.4 102.4ZM149.648 79.8C149.915 80.2 149.448 80.8667 148.248 81.8C147.048 82.7333 145.848 83.8 144.648 85C144.382 85.1333 143.782 85.6 142.848 86.4C141.915 87.2 141.382 87.7333 141.248 88L140.048 89L136.648 91.6L135.048 92.6L132.248 94.4C129.982 95.8667 127.848 97.2667 125.848 98.6C123.848 99.9333 121.382 101.133 118.448 102.2C118.315 102.2 118.048 102.267 117.648 102.4C117.382 102.533 117.048 102.667 116.648 102.8C116.115 102.933 115.648 103.067 115.248 103.2C114.715 103.2 114.248 103.333 113.848 103.6C113.448 103.733 112.915 103.8 112.248 103.8C112.115 103.8 112.182 103.667 112.448 103.4C111.782 103.533 111.248 103.667 110.848 103.8C110.448 103.8 109.982 104 109.448 104.4C109.048 104.133 108.648 104.133 108.248 104.4C107.982 104.8 107.582 104.867 107.048 104.6C106.782 105 106.382 105.133 105.848 105C105.315 104.867 104.848 105 104.448 105.4C104.182 105.267 104.115 105.133 104.248 105C104.382 105 104.315 104.933 104.048 104.8C103.648 104.933 103.115 104.933 102.448 104.8C101.915 104.8 101.315 105 100.648 105.4C100.248 105.133 99.9151 105.067 99.6484 105.2C99.5151 105.333 99.1151 105.267 98.4484 105L98.2484 105.4C96.2484 105 94.7818 104.867 93.8484 105C93.3151 104.867 92.9151 104.733 92.6484 104.6C92.3818 104.467 92.1151 104.533 91.8484 104.8C90.3818 104.533 88.9818 104.267 87.6484 104C86.4484 103.6 85.1151 103.067 83.6484 102.4C82.0484 101.733 80.6484 100.8 79.4484 99.6C78.2484 98.2667 77.1151 96.8667 76.0484 95.4C75.5151 94.4667 75.1151 93.5333 74.8484 92.6C74.5818 91.6667 74.3151 90.8 74.0484 90C73.7818 88.9333 73.6484 88 73.6484 87.2C73.6484 86.2667 73.7818 85.2667 74.0484 84.2C74.3151 82.7333 74.7818 80.7333 75.4484 78.2C75.9818 75.6667 76.9818 73.4667 78.4484 71.6L83.0484 66.4L86.0484 62.4C87.1151 61.6 87.9818 60.9333 88.6484 60.4C89.3151 59.8667 90.1151 59.0667 91.0484 58C91.7151 57.3333 92.5151 56.8 93.4484 56.4C94.3818 55.8667 95.1818 55.2667 95.8484 54.6C97.0484 53.8 97.9818 53.0667 98.6484 52.4C99.5818 51.7333 100.582 51.1333 101.648 50.6C102.715 49.9333 103.715 49.4667 104.648 49.2C105.048 48.9333 105.582 48.8 106.248 48.8C106.915 48.8 107.448 48.6667 107.848 48.4C108.115 48.2667 108.382 48.1333 108.648 48C108.915 47.8667 109.248 47.8 109.648 47.8C110.315 48.8667 111.182 49.8 112.248 50.6C113.448 51.2667 114.382 52.1333 115.048 53.2C115.982 53.4667 116.515 53.9333 116.648 54.6C116.782 55.2667 117.182 55.8667 117.848 56.4C118.115 57.4667 118.115 58.4 117.848 59.2C117.715 60 117.382 60.8667 116.848 61.8C116.582 62.0667 116.448 62.3333 116.448 62.6C116.448 62.8667 116.382 63.1333 116.248 63.4C115.982 64.0667 115.515 64.6667 114.848 65.2C114.315 65.6 113.782 66.1333 113.248 66.8C112.982 67.0667 112.715 67.4667 112.448 68C112.315 68.5333 112.115 69.0667 111.848 69.6C111.315 70.1333 110.648 70.8 109.848 71.6C109.048 72.4 108.315 73.2 107.648 74C106.982 74.9333 106.115 75.6 105.048 76C104.115 76.4 103.315 77 102.648 77.8C102.248 78.0667 102.048 78.4667 102.048 79C100.982 80.0667 99.7151 81.0667 98.2484 82C96.9151 82.8 95.7151 83.7333 94.6484 84.8C92.5151 85.2 90.5151 86 88.6484 87.2C86.9151 88.4 84.8484 88.7333 82.4484 88.2C82.1818 88.3333 82.1151 88.4667 82.2484 88.6C82.5151 88.7333 82.8484 88.8 83.2484 88.8C82.8484 89.4667 82.7818 90 83.0484 90.4C83.4484 90.6667 83.7151 91 83.8484 91.4C84.9151 92.4667 86.1818 93.4667 87.6484 94.4C89.1151 95.3333 90.7151 95.9333 92.4484 96.2C97.3818 97.6667 102.048 97.7333 106.448 96.4C107.915 96.1333 109.248 95.8667 110.448 95.6C111.782 95.3333 113.315 94.8667 115.048 94.2C117.182 93.4 119.115 92.5333 120.848 91.6L123.448 90.4C123.848 90.1333 124.048 90.0667 124.048 90.2C124.182 90.2 124.182 90.2667 124.048 90.4C124.048 90.4 124.048 90.4667 124.048 90.6C124.048 90.6 124.248 90.4667 124.648 90.2L129.848 87.8C131.315 86.7333 132.515 85.9333 133.448 85.4C134.382 84.7333 135.782 83.6667 137.648 82.2C137.782 82.0667 138.182 81.8 138.848 81.4C139.515 80.8667 140.182 80.3333 140.848 79.8C141.648 79.2667 142.382 78.8 143.048 78.4C143.715 77.8667 144.182 77.5333 144.448 77.4L146.448 75.4C148.048 74.3333 149.382 73.4667 150.448 72.8C151.648 72 152.515 71.4667 153.048 71.2C153.448 71.6 153.715 72.2 153.848 73C153.982 73.6667 154.248 74 154.648 74C153.848 75.2 153.248 76.1333 152.848 76.8C152.582 77.3333 152.315 77.7333 152.048 78C151.915 78.2667 151.648 78.5333 151.248 78.8C150.982 78.9333 150.448 79.2667 149.648 79.8ZM107.248 57.4C106.848 57.6667 106.382 58 105.848 58.4C105.315 58.8 104.848 59.1333 104.448 59.4C103.915 59.4 103.582 59.5333 103.448 59.8C103.182 59.9333 102.915 60.0667 102.648 60.2C102.515 60.3333 102.315 60.4667 102.048 60.6L100.448 61.8C99.7818 62.4667 99.1151 63 98.4484 63.4C97.7818 63.6667 97.1151 64.0667 96.4484 64.6C95.6484 65.6667 94.8484 66.5333 94.0484 67.2C93.3818 67.7333 92.6484 68.5333 91.8484 69.6C90.3818 70.5333 89.1818 71.6667 88.2484 73C86.7818 74.4667 85.4484 75.9333 84.2484 77.4C83.0484 78.7333 82.1151 80.1333 81.4484 81.6C83.9818 80.8 86.3818 79.5333 88.6484 77.8C90.9151 76.0667 93.3151 74.2667 95.8484 72.4C96.6484 71.7333 97.4484 71.0667 98.2484 70.4C99.0484 69.7333 99.7818 68.9333 100.448 68C101.648 67.3333 102.982 66.2667 104.448 64.8C106.048 63.2 107.382 61.6667 108.448 60.2C108.715 59.5333 108.982 58.9333 109.248 58.4C109.648 57.8667 109.715 57.3333 109.448 56.8C109.182 56.8 108.782 56.8667 108.248 57C107.848 57 107.515 57.1333 107.248 57.4ZM209.417 82.2C209.417 82.4667 209.284 82.6667 209.017 82.8C208.884 82.9333 208.951 83 209.217 83C208.551 83.9333 207.484 85.2 206.017 86.8C204.684 88.2667 203.817 89.4 203.417 90.2C203.151 90.2 202.617 90.3333 201.817 90.6C202.084 90.2 202.484 89.8 203.017 89.4C203.684 89 204.217 88.6667 204.617 88.4C204.617 88.1333 204.751 87.7333 205.017 87.2C205.284 86.5333 205.551 85.9333 205.817 85.4C205.551 85.5333 205.217 86 204.817 86.8C204.417 87.6 204.084 88.1333 203.817 88.4C203.017 89.2 202.217 89.8 201.417 90.2C200.617 90.4667 199.884 91.1333 199.217 92.2C197.884 92.7333 196.751 93.7333 195.817 95.2C195.017 96.6667 193.884 97.5333 192.417 97.8C192.284 98.2 192.151 98.4667 192.017 98.6C191.884 98.6 191.684 98.7333 191.417 99C191.284 98.7333 191.217 98.5333 191.217 98.4C191.351 98.1333 191.351 98 191.217 98L189.417 99.6C188.751 99.8667 188.151 100.267 187.617 100.8C187.217 101.2 186.684 101.4 186.017 101.4C186.017 101.4 186.084 101.333 186.217 101.2C185.684 101.467 185.351 101.733 185.217 102C185.084 102.133 184.951 102.267 184.817 102.4C184.817 102.533 184.751 102.733 184.617 103C184.484 103.133 184.151 103.267 183.617 103.4C183.351 103.4 183.217 103.333 183.217 103.2C182.684 103.333 182.151 103.6 181.617 104C181.217 104.533 180.684 104.8 180.017 104.8C180.017 104.533 180.151 104.4 180.417 104.4C179.617 104.267 179.084 104.467 178.817 105C178.817 105 178.684 105 178.417 105L173.217 107.8C172.151 108.2 170.951 108.6 169.617 109C168.284 109.4 167.084 109.667 166.017 109.8C164.017 110.733 161.884 110.933 159.617 110.4C157.351 110 155.084 109.267 152.817 108.2C151.217 107.267 149.817 106.533 148.617 106C147.417 105.467 146.484 104.8 145.817 104C145.151 103.333 144.684 102.533 144.417 101.6C144.151 100.533 144.017 99.0667 144.017 97.2C144.017 96.9333 144.084 96.8 144.217 96.8C144.351 96.6667 144.417 96.4667 144.417 96.2C144.284 93.9333 144.551 91.2667 145.217 88.2C145.884 85.1333 146.551 82.2667 147.217 79.6C147.484 78.9333 147.617 78.3333 147.617 77.8C147.617 77.2667 147.817 76.7333 148.217 76.2C148.884 73.4 149.751 70.5333 150.817 67.6C151.884 64.5333 153.017 61.6 154.217 58.8C154.484 58.1333 154.617 57.8 154.617 57.8C154.617 57.6667 154.551 57.6 154.417 57.6L155.217 56.2C156.284 54.0667 157.551 51.4667 159.017 48.4C160.617 45.3333 161.751 42.6 162.417 40.2C161.884 40.6 161.684 40.7333 161.817 40.6C161.951 40.3333 161.684 40.2 161.017 40.2C160.084 40.4667 159.151 40.8 158.217 41.2C157.417 41.4667 156.551 41.6 155.617 41.6C154.551 41.8667 153.617 42.1333 152.817 42.4C152.017 42.6667 151.151 42.8667 150.217 43C148.617 43.2667 147.617 43.4 147.217 43.4C146.817 43.4 146.551 43.4 146.417 43.4C146.417 43.4 146.217 43.4667 145.817 43.6C145.551 43.7333 144.617 44 143.017 44.4C142.217 44.1333 141.284 44.2667 140.217 44.8C139.017 45.3333 137.884 45.5333 136.817 45.4C136.551 45.2667 136.417 45.2 136.417 45.2C136.284 45.0667 136.084 45 135.817 45C134.751 45.4 133.951 45.4667 133.417 45.2C132.751 44.8 132.217 44.2667 131.817 43.6C132.084 42.8 131.951 42.0667 131.417 41.4C130.884 40.7333 130.617 40.0667 130.617 39.4L131.417 40C134.217 39.4667 136.617 38.8667 138.617 38.2C140.617 37.4 142.817 36.6 145.217 35.8C147.617 35 150.484 34.2 153.817 33.4C157.151 32.6 161.551 31.8667 167.017 31.2C169.684 25.7333 172.417 20.7333 175.217 16.2C178.017 11.6667 180.951 7 184.017 2.2V1.2C184.284 0.933329 184.551 0.933329 184.817 1.2C185.217 1.33333 185.551 1.26666 185.817 0.999991C185.684 1.39999 185.751 1.66666 186.017 1.79999C186.417 1.79999 186.617 1.93333 186.617 2.2C187.284 2.33333 188.084 2.6 189.017 3C189.951 3.4 190.817 3.93333 191.617 4.6C192.417 5.26666 193.017 6 193.417 6.79999C193.817 7.46666 193.817 8.19999 193.417 9L191.617 10.4C191.484 10.6667 191.417 10.9333 191.417 11.2C191.017 12.4 190.351 13.5333 189.417 14.6C188.617 15.5333 187.951 16.5333 187.417 17.6C186.751 18.6667 186.217 19.6 185.817 20.4C185.551 21.2 185.084 22.2 184.417 23.4C183.751 24.7333 183.017 25.7333 182.217 26.4C181.417 26.9333 180.884 27.9333 180.617 29.4C182.884 29.1333 185.017 28.9333 187.017 28.8C189.017 28.6667 191.151 28.6 193.417 28.6C195.551 28.0667 197.417 27.8 199.017 27.8C200.617 27.8 201.617 27.8 202.017 27.8C202.684 27.8 203.084 27.8 203.217 27.8C203.484 27.8 203.617 27.8 203.617 27.8C203.751 27.8 203.884 27.8 204.017 27.8C204.151 27.8 204.484 27.7333 205.017 27.6C206.217 27.8667 207.351 27.8 208.417 27.4C209.617 27 210.884 27 212.217 27.4C212.617 27.4 213.017 27.4667 213.417 27.6C213.951 27.7333 214.484 27.7333 215.017 27.6C214.884 27.7333 214.951 27.7333 215.217 27.6C215.484 27.4667 215.751 27.4 216.017 27.4L215.817 27.6C216.617 27.8667 217.217 27.8667 217.617 27.6C217.217 27.3333 216.951 27.2 216.817 27.2C216.817 27.0667 217.351 27.2 218.417 27.6C219.484 27.6 220.817 27.7333 222.417 28C224.017 28.1333 225.351 28.8 226.417 30C226.551 30.1333 226.551 30.4 226.417 30.8C226.417 31.0667 226.484 31.3333 226.617 31.6C226.484 31.7333 226.351 31.8 226.217 31.8C226.084 31.8 226.017 31.9333 226.017 32.2C226.151 32.3333 226.217 32.4667 226.217 32.6C226.351 32.6 226.617 32.6667 227.017 32.8C226.751 33.0667 226.351 33.2 225.817 33.2C225.951 33.7333 226.351 34.2 227.017 34.6C226.751 34.8667 226.417 35 226.017 35C225.751 35 225.551 35.1333 225.417 35.4C225.151 35.4 224.884 35.3333 224.617 35.2C223.684 35.3333 222.817 35.3333 222.017 35.2C221.351 35.0667 220.484 35.2667 219.417 35.8C218.751 35.4 218.351 35.2667 218.217 35.4C218.084 35.5333 217.817 35.5333 217.417 35.4C217.417 35.1333 217.484 35.0667 217.617 35.2C217.751 35.2 217.817 35.0667 217.817 34.8C217.284 34.8 216.951 34.9333 216.817 35.2C216.684 35.3333 216.551 35.4667 216.417 35.6C216.417 35.7333 216.351 35.8 216.217 35.8C216.084 35.6667 215.817 35.4 215.417 35C214.884 35.2667 214.617 35.4 214.617 35.4L214.417 35.6H214.217C213.951 35.6 213.817 35.6 213.817 35.6C213.951 35.4667 213.951 35.3333 213.817 35.2C213.417 35.4667 213.217 35.6667 213.217 35.8C212.951 35.2667 212.417 35.2 211.617 35.6C210.951 35.8667 210.817 35.6667 211.217 35C210.951 35 210.751 35.2667 210.617 35.8C210.617 36.2 210.284 36.2 209.617 35.8C209.884 35.2667 210.017 35.0667 210.017 35.2C210.151 35.2 210.217 35.0667 210.217 34.8C210.084 34.8 209.884 34.8667 209.617 35C209.351 35.1333 209.151 35.4 209.017 35.8C209.017 35.8 209.017 35.6 209.017 35.2C208.484 35.2 208.217 35.4667 208.217 36C208.217 36 208.217 35.8 208.217 35.4C207.817 35.1333 207.551 35.0667 207.417 35.2C207.284 35.3333 207.017 35.4 206.617 35.4C206.351 35.1333 206.351 35.0667 206.617 35.2C206.884 35.2 207.151 35.0667 207.417 34.8C207.151 34.8 206.817 34.8 206.417 34.8C206.017 34.8 205.751 34.9333 205.617 35.2C204.817 34.6667 204.151 34.6667 203.617 35.2C203.751 35.4667 203.951 35.4667 204.217 35.2C204.617 34.9333 204.884 34.9333 205.017 35.2C204.884 35.3333 204.617 35.4667 204.217 35.6C203.817 35.7333 203.417 35.8667 203.017 36C202.751 36 202.551 36 202.417 36C202.284 35.8667 202.351 35.6667 202.617 35.4H201.817V35.2C201.684 35.2 201.617 35.2667 201.617 35.4V35.2C201.484 35.2 201.351 35.1333 201.217 35C201.217 34.8667 201.151 34.9333 201.017 35.2C201.151 35.2 201.217 35.2667 201.217 35.4C201.217 35.4 201.284 35.4 201.417 35.4C200.884 35.6667 200.617 35.9333 200.617 36.2C200.617 36.3333 200.484 36.2 200.217 35.8C200.217 35.2667 199.817 35.0667 199.017 35.2C198.217 35.2 197.484 35.3333 196.817 35.6V35.2C196.417 35.4667 195.884 35.7333 195.217 36C194.684 36.2667 194.151 36.1333 193.617 35.6C193.884 35.4667 194.084 35.4 194.217 35.4C194.351 35.4 194.484 35.3333 194.617 35.2C194.617 34.9333 194.551 34.8 194.417 34.8C194.284 34.8 194.217 34.7333 194.217 34.6C193.951 34.6 193.751 34.6667 193.617 34.8C193.484 34.9333 193.284 35.0667 193.017 35.2C192.884 35.2 192.817 35.0667 192.817 34.8C192.817 34.6667 192.884 34.6 193.017 34.6C192.351 34.6 192.084 34.5333 192.217 34.4C191.951 34.4 191.817 34.6667 191.817 35.2C191.817 35.7333 191.684 36.1333 191.417 36.4C190.751 36.4 190.151 36.4667 189.617 36.6C189.217 36.6 188.551 36.6 187.617 36.6C187.617 36.3333 187.684 36.2667 187.817 36.4C188.084 36.4 188.217 36.2667 188.217 36C188.084 36 188.017 36 188.017 36C188.017 35.8667 187.951 35.8 187.817 35.8H187.617C187.351 35.8 187.084 35.8667 186.817 36C186.551 36 186.284 36 186.017 36C185.751 36.6667 185.351 36.9333 184.817 36.8C184.417 36.5333 184.084 36.5333 183.817 36.8V36.6C183.417 36.6 183.151 36.7333 183.017 37C183.417 37.1333 183.684 37.0667 183.817 36.8C183.951 37.0667 184.017 37.1333 184.017 37C184.151 36.8667 184.217 36.9333 184.217 37.2C184.217 37.4667 184.084 37.6 183.817 37.6C183.684 37.6 183.484 37.7333 183.217 38C182.817 38 182.484 37.9333 182.217 37.8C181.951 37.5333 181.617 37.5333 181.217 37.8C180.551 37.8 179.751 37.8667 178.817 38C178.017 38.1333 177.284 38.2667 176.617 38.4C176.084 38.6667 175.751 39 175.617 39.4C175.484 39.6667 175.284 40.0667 175.017 40.6C174.084 43 172.751 45.8667 171.017 49.2C169.284 52.5333 167.884 55.6667 166.817 58.6C166.417 59.8 166.084 60.6667 165.817 61.2C165.684 61.7333 165.484 62.2 165.217 62.6C165.084 62.8667 164.884 63.2667 164.617 63.8C164.484 64.3333 164.217 65.2667 163.817 66.6C162.351 69 161.217 72 160.417 75.6C159.617 79.0667 158.884 82.6 158.217 86.2C157.951 87.4 157.617 88.6 157.217 89.8C156.817 91 156.551 92.2667 156.417 93.6C156.284 95.6 155.884 97.4667 155.217 99.2C154.684 100.8 154.951 102.533 156.017 104.4C156.284 104.533 156.351 104.533 156.217 104.4C156.084 104.4 156.284 104.4 156.817 104.4C157.884 104.4 159.217 104.267 160.817 104C162.417 103.6 163.817 103.133 165.017 102.6C166.484 102.2 167.951 101.733 169.417 101.2C171.017 100.533 172.484 100 173.817 99.6C174.084 99.3333 174.217 99.2667 174.217 99.4C174.351 99.4 174.417 99.2667 174.417 99C174.817 98.8667 175.217 98.8 175.617 98.8C176.017 98.6667 176.284 98.3333 176.417 97.8C177.217 97.5333 177.817 97.3333 178.217 97.2C178.751 96.9333 179.151 96.6667 179.417 96.4C179.817 96.1333 180.217 95.9333 180.617 95.8C181.017 95.5333 181.617 95.2667 182.417 95V94.2C182.951 94.6 183.751 94.2 184.817 93C184.951 93 185.084 93.0667 185.217 93.2C186.417 92.4 187.751 91.5333 189.217 90.6C190.817 89.6667 192.284 88.7333 193.617 87.8C194.284 87.6667 195.351 87 196.817 85.8C198.284 84.6 199.751 83.2667 201.217 81.8C202.817 80.3333 204.217 79 205.417 77.8C206.617 76.4667 207.351 75.6667 207.617 75.4C207.751 75.5333 207.884 75.6 208.017 75.6C208.151 74.8 208.217 74.3333 208.217 74.2C208.351 74.0667 208.417 74 208.417 74C208.551 74 208.617 74 208.617 74C208.751 73.8667 209.017 73.5333 209.417 73C209.417 72.6 209.484 72.4 209.617 72.4C210.017 72.1333 210.284 71.9333 210.417 71.8C210.551 71.6667 210.751 71.4 211.017 71C211.817 71.1333 212.351 70.6667 212.617 69.6C213.551 69.8667 214.151 70.2 214.417 70.6C214.817 70.8667 215.151 70.8667 215.417 70.6C215.417 70.8667 215.551 71.0667 215.817 71.2C216.084 71.2 216.351 71.2 216.617 71.2C216.617 71.4667 216.551 71.6 216.417 71.6C216.417 71.6 216.417 71.6667 216.417 71.8C216.684 71.9333 216.484 72.1333 215.817 72.4C215.284 72.6667 215.351 72.8667 216.017 73C216.017 73.2667 215.884 73.6667 215.617 74.2C215.751 74.2 215.951 74.4 216.217 74.8C215.951 74.8 214.817 76.3333 212.817 79.4H213.017C212.884 79.5333 212.751 79.6 212.617 79.6C212.084 80.1333 211.817 80.3333 211.817 80.2L210.617 81.2V80.8C210.351 81.0667 210.217 81.3333 210.217 81.6C210.217 81.7333 210.084 81.8667 209.817 82C209.684 82.1333 209.617 82.3333 209.617 82.6V82.4C209.617 82.2667 209.551 82.2 209.417 82.2ZM213.217 78C213.084 78 213.217 77.8 213.617 77.4V77.2L213.217 77.4C212.951 77.8 212.617 78.2 212.217 78.6C211.951 78.8667 211.684 79.1333 211.417 79.4V78.8C210.884 79.6 210.684 80.2667 210.817 80.8L211.217 80.4H211.017L211.217 79.6C211.484 79.6 211.684 79.6667 211.817 79.8C211.817 79.4 212.084 79.0667 212.617 78.8L213.217 77.8V78ZM195.817 94.4C196.217 94 196.551 93.6667 196.817 93.4C197.217 93.1333 197.551 92.7333 197.817 92.2C197.417 92.4667 196.884 92.8 196.217 93.2C195.684 93.6 195.551 94 195.817 94.4ZM200.617 92.6C201.017 91.9333 201.417 91.5333 201.817 91.4C202.351 91.1333 202.884 90.8 203.417 90.4V90.6C202.884 90.8667 202.351 91.2 201.817 91.6C201.417 92 201.017 92.3333 200.617 92.6ZM214.617 32.6C214.351 32.8667 214.017 32.9333 213.617 32.8C213.351 32.5333 213.084 32.5333 212.817 32.8C213.084 32.9333 213.484 33.0667 214.017 33.2C214.551 33.2 214.751 33 214.617 32.6ZM204.817 88.4C204.684 87.7333 204.951 87.1333 205.617 86.6C206.284 86.0667 206.617 85.6667 206.617 85.4C206.884 85.6667 206.684 86.2 206.017 87C205.484 87.6667 205.084 88.1333 204.817 88.4ZM198.617 91C199.151 91.1333 199.484 91.0667 199.617 90.8C199.751 90.5333 199.951 90.2667 200.217 90C200.217 89.4667 200.284 89.1333 200.417 89C200.151 89 200.017 89.2 200.017 89.6C200.017 89.6 200.084 89.7333 200.217 90C199.951 90.1333 199.684 90.3333 199.417 90.6C199.151 90.7333 198.884 90.8667 198.617 91ZM181.217 36.8C181.484 37.0667 181.684 37.1333 181.817 37C181.951 36.8667 182.084 36.8 182.217 36.8C182.217 36.6667 182.284 36.6 182.417 36.6C182.551 36.4667 182.484 36.2667 182.217 36C182.217 36.2667 182.084 36.4667 181.817 36.6C181.551 36.6 181.351 36.6667 181.217 36.8ZM198.617 91.8C198.751 92.0667 198.951 92.1333 199.217 92C199.617 91.7333 199.684 91.4667 199.417 91.2C199.284 91.4667 199.084 91.6 198.817 91.6C198.684 91.4667 198.617 91.5333 198.617 91.8ZM198.417 88.8C198.684 88.9333 198.951 88.8667 199.217 88.6C199.484 88.3333 199.551 88.0667 199.417 87.8C199.151 88.0667 198.951 88.2667 198.817 88.4C198.817 88.5333 198.684 88.6667 198.417 88.8ZM201.617 35.6C201.484 35.6 201.417 35.5333 201.417 35.4H201.617C201.751 35.4 201.817 35.4 201.817 35.4C202.084 35.8 202.084 36 201.817 36C201.684 35.8667 201.617 35.7333 201.617 35.6ZM180.617 37C180.617 36.8667 180.684 36.8 180.817 36.8C180.951 36.8 181.017 36.7333 181.017 36.6C180.484 36.3333 180.351 36.4667 180.617 37ZM197.017 36C196.484 36.1333 196.217 36.2 196.217 36.2C196.351 36.0667 196.551 35.8667 196.817 35.6C196.817 35.8667 196.884 36 197.017 36ZM211.617 80C211.351 79.8667 211.217 79.9333 211.217 80.2C211.351 80.3333 211.351 80.4 211.217 80.4L211.617 80ZM187.617 35.8C187.617 36.0667 187.484 36.2 187.217 36.2C187.484 35.9333 187.617 35.8 187.617 35.8ZM213.217 78.4C213.484 78.1333 213.617 77.9333 213.617 77.8L213.217 78.2V78.4ZM201.017 88.8C201.151 88.9333 201.217 88.8 201.217 88.4C201.217 88.5333 201.151 88.6667 201.017 88.8ZM187.217 36.4C186.951 36.2667 186.951 36.2 187.217 36.2V36.4ZM203.617 90.2C203.484 90.3333 203.417 90.4 203.417 90.4V90.2H203.617ZM213.217 78.4C213.217 78.5333 213.151 78.6 213.017 78.6C213.151 78.6 213.217 78.5333 213.217 78.4ZM209.217 83L209.417 82.8L209.217 83ZM269.573 82.2C269.573 82.4667 269.44 82.6667 269.173 82.8C269.04 82.9333 269.107 83 269.373 83C268.707 83.9333 267.64 85.2 266.173 86.8C264.84 88.2667 263.973 89.4 263.573 90.2C263.307 90.2 262.773 90.3333 261.973 90.6C262.24 90.2 262.64 89.8 263.173 89.4C263.84 89 264.373 88.6667 264.773 88.4C264.773 88.1333 264.907 87.7333 265.173 87.2C265.44 86.5333 265.707 85.9333 265.973 85.4C265.707 85.5333 265.373 86 264.973 86.8C264.573 87.6 264.24 88.1333 263.973 88.4C263.173 89.2 262.373 89.8 261.573 90.2C260.773 90.4667 260.04 91.1333 259.373 92.2C258.04 92.7333 256.907 93.7333 255.973 95.2C255.173 96.6667 254.04 97.5333 252.573 97.8C252.44 98.2 252.307 98.4667 252.173 98.6C252.04 98.6 251.84 98.7333 251.573 99C251.44 98.7333 251.373 98.5333 251.373 98.4C251.507 98.1333 251.507 98 251.373 98L249.573 99.6C248.907 99.8667 248.307 100.267 247.773 100.8C247.373 101.2 246.84 101.4 246.173 101.4C246.173 101.4 246.24 101.333 246.373 101.2C245.84 101.467 245.507 101.733 245.373 102C245.24 102.133 245.107 102.267 244.973 102.4C244.973 102.533 244.907 102.733 244.773 103C244.64 103.133 244.307 103.267 243.773 103.4C243.507 103.4 243.373 103.333 243.373 103.2C242.84 103.333 242.307 103.6 241.773 104C241.373 104.533 240.84 104.8 240.173 104.8C240.173 104.533 240.307 104.4 240.573 104.4C239.773 104.267 239.24 104.467 238.973 105C238.973 105 238.84 105 238.573 105L233.373 107.8C232.307 108.2 231.107 108.6 229.773 109C228.44 109.4 227.24 109.667 226.173 109.8C224.173 110.733 222.04 110.933 219.773 110.4C217.507 110 215.24 109.267 212.973 108.2C211.373 107.267 209.973 106.533 208.773 106C207.573 105.467 206.64 104.8 205.973 104C205.307 103.333 204.84 102.533 204.573 101.6C204.307 100.533 204.173 99.0667 204.173 97.2C204.173 96.9333 204.24 96.8 204.373 96.8C204.507 96.6667 204.573 96.4667 204.573 96.2C204.44 93.9333 204.707 91.2667 205.373 88.2C206.04 85.1333 206.707 82.2667 207.373 79.6C207.64 78.9333 207.773 78.3333 207.773 77.8C207.773 77.2667 207.973 76.7333 208.373 76.2C209.04 73.4 209.907 70.5333 210.973 67.6C212.04 64.5333 213.173 61.6 214.373 58.8C214.64 58.1333 214.773 57.8 214.773 57.8C214.773 57.6667 214.707 57.6 214.573 57.6L215.373 56.2C216.44 54.0667 217.707 51.4667 219.173 48.4C220.773 45.3333 221.907 42.6 222.573 40.2C222.04 40.6 221.84 40.7333 221.973 40.6C222.107 40.3333 221.84 40.2 221.173 40.2C220.24 40.4667 219.307 40.8 218.373 41.2C217.573 41.4667 216.707 41.6 215.773 41.6C214.707 41.8667 213.773 42.1333 212.973 42.4C212.173 42.6667 211.307 42.8667 210.373 43C208.773 43.2667 207.773 43.4 207.373 43.4C206.973 43.4 206.707 43.4 206.573 43.4C206.573 43.4 206.373 43.4667 205.973 43.6C205.707 43.7333 204.773 44 203.173 44.4C202.373 44.1333 201.44 44.2667 200.373 44.8C199.173 45.3333 198.04 45.5333 196.973 45.4C196.707 45.2667 196.573 45.2 196.573 45.2C196.44 45.0667 196.24 45 195.973 45C194.907 45.4 194.107 45.4667 193.573 45.2C192.907 44.8 192.373 44.2667 191.973 43.6C192.24 42.8 192.107 42.0667 191.573 41.4C191.04 40.7333 190.773 40.0667 190.773 39.4L191.573 40C194.373 39.4667 196.773 38.8667 198.773 38.2C200.773 37.4 202.973 36.6 205.373 35.8C207.773 35 210.64 34.2 213.973 33.4C217.307 32.6 221.707 31.8667 227.173 31.2C229.84 25.7333 232.573 20.7333 235.373 16.2C238.173 11.6667 241.107 7 244.173 2.2V1.2C244.44 0.933329 244.707 0.933329 244.973 1.2C245.373 1.33333 245.707 1.26666 245.973 0.999991C245.84 1.39999 245.907 1.66666 246.173 1.79999C246.573 1.79999 246.773 1.93333 246.773 2.2C247.44 2.33333 248.24 2.6 249.173 3C250.107 3.4 250.973 3.93333 251.773 4.6C252.573 5.26666 253.173 6 253.573 6.79999C253.973 7.46666 253.973 8.19999 253.573 9L251.773 10.4C251.64 10.6667 251.573 10.9333 251.573 11.2C251.173 12.4 250.507 13.5333 249.573 14.6C248.773 15.5333 248.107 16.5333 247.573 17.6C246.907 18.6667 246.373 19.6 245.973 20.4C245.707 21.2 245.24 22.2 244.573 23.4C243.907 24.7333 243.173 25.7333 242.373 26.4C241.573 26.9333 241.04 27.9333 240.773 29.4C243.04 29.1333 245.173 28.9333 247.173 28.8C249.173 28.6667 251.307 28.6 253.573 28.6C255.707 28.0667 257.573 27.8 259.173 27.8C260.773 27.8 261.773 27.8 262.173 27.8C262.84 27.8 263.24 27.8 263.373 27.8C263.64 27.8 263.773 27.8 263.773 27.8C263.907 27.8 264.04 27.8 264.173 27.8C264.307 27.8 264.64 27.7333 265.173 27.6C266.373 27.8667 267.507 27.8 268.573 27.4C269.773 27 271.04 27 272.373 27.4C272.773 27.4 273.173 27.4667 273.573 27.6C274.107 27.7333 274.64 27.7333 275.173 27.6C275.04 27.7333 275.107 27.7333 275.373 27.6C275.64 27.4667 275.907 27.4 276.173 27.4L275.973 27.6C276.773 27.8667 277.373 27.8667 277.773 27.6C277.373 27.3333 277.107 27.2 276.973 27.2C276.973 27.0667 277.507 27.2 278.573 27.6C279.64 27.6 280.973 27.7333 282.573 28C284.173 28.1333 285.507 28.8 286.573 30C286.707 30.1333 286.707 30.4 286.573 30.8C286.573 31.0667 286.64 31.3333 286.773 31.6C286.64 31.7333 286.507 31.8 286.373 31.8C286.24 31.8 286.173 31.9333 286.173 32.2C286.307 32.3333 286.373 32.4667 286.373 32.6C286.507 32.6 286.773 32.6667 287.173 32.8C286.907 33.0667 286.507 33.2 285.973 33.2C286.107 33.7333 286.507 34.2 287.173 34.6C286.907 34.8667 286.573 35 286.173 35C285.907 35 285.707 35.1333 285.573 35.4C285.307 35.4 285.04 35.3333 284.773 35.2C283.84 35.3333 282.973 35.3333 282.173 35.2C281.507 35.0667 280.64 35.2667 279.573 35.8C278.907 35.4 278.507 35.2667 278.373 35.4C278.24 35.5333 277.973 35.5333 277.573 35.4C277.573 35.1333 277.64 35.0667 277.773 35.2C277.907 35.2 277.973 35.0667 277.973 34.8C277.44 34.8 277.107 34.9333 276.973 35.2C276.84 35.3333 276.707 35.4667 276.573 35.6C276.573 35.7333 276.507 35.8 276.373 35.8C276.24 35.6667 275.973 35.4 275.573 35C275.04 35.2667 274.773 35.4 274.773 35.4L274.573 35.6H274.373C274.107 35.6 273.973 35.6 273.973 35.6C274.107 35.4667 274.107 35.3333 273.973 35.2C273.573 35.4667 273.373 35.6667 273.373 35.8C273.107 35.2667 272.573 35.2 271.773 35.6C271.107 35.8667 270.973 35.6667 271.373 35C271.107 35 270.907 35.2667 270.773 35.8C270.773 36.2 270.44 36.2 269.773 35.8C270.04 35.2667 270.173 35.0667 270.173 35.2C270.307 35.2 270.373 35.0667 270.373 34.8C270.24 34.8 270.04 34.8667 269.773 35C269.507 35.1333 269.307 35.4 269.173 35.8C269.173 35.8 269.173 35.6 269.173 35.2C268.64 35.2 268.373 35.4667 268.373 36C268.373 36 268.373 35.8 268.373 35.4C267.973 35.1333 267.707 35.0667 267.573 35.2C267.44 35.3333 267.173 35.4 266.773 35.4C266.507 35.1333 266.507 35.0667 266.773 35.2C267.04 35.2 267.307 35.0667 267.573 34.8C267.307 34.8 266.973 34.8 266.573 34.8C266.173 34.8 265.907 34.9333 265.773 35.2C264.973 34.6667 264.307 34.6667 263.773 35.2C263.907 35.4667 264.107 35.4667 264.373 35.2C264.773 34.9333 265.04 34.9333 265.173 35.2C265.04 35.3333 264.773 35.4667 264.373 35.6C263.973 35.7333 263.573 35.8667 263.173 36C262.907 36 262.707 36 262.573 36C262.44 35.8667 262.507 35.6667 262.773 35.4H261.973V35.2C261.84 35.2 261.773 35.2667 261.773 35.4V35.2C261.64 35.2 261.507 35.1333 261.373 35C261.373 34.8667 261.307 34.9333 261.173 35.2C261.307 35.2 261.373 35.2667 261.373 35.4C261.373 35.4 261.44 35.4 261.573 35.4C261.04 35.6667 260.773 35.9333 260.773 36.2C260.773 36.3333 260.64 36.2 260.373 35.8C260.373 35.2667 259.973 35.0667 259.173 35.2C258.373 35.2 257.64 35.3333 256.973 35.6V35.2C256.573 35.4667 256.04 35.7333 255.373 36C254.84 36.2667 254.307 36.1333 253.773 35.6C254.04 35.4667 254.24 35.4 254.373 35.4C254.507 35.4 254.64 35.3333 254.773 35.2C254.773 34.9333 254.707 34.8 254.573 34.8C254.44 34.8 254.373 34.7333 254.373 34.6C254.107 34.6 253.907 34.6667 253.773 34.8C253.64 34.9333 253.44 35.0667 253.173 35.2C253.04 35.2 252.973 35.0667 252.973 34.8C252.973 34.6667 253.04 34.6 253.173 34.6C252.507 34.6 252.24 34.5333 252.373 34.4C252.107 34.4 251.973 34.6667 251.973 35.2C251.973 35.7333 251.84 36.1333 251.573 36.4C250.907 36.4 250.307 36.4667 249.773 36.6C249.373 36.6 248.707 36.6 247.773 36.6C247.773 36.3333 247.84 36.2667 247.973 36.4C248.24 36.4 248.373 36.2667 248.373 36C248.24 36 248.173 36 248.173 36C248.173 35.8667 248.107 35.8 247.973 35.8H247.773C247.507 35.8 247.24 35.8667 246.973 36C246.707 36 246.44 36 246.173 36C245.907 36.6667 245.507 36.9333 244.973 36.8C244.573 36.5333 244.24 36.5333 243.973 36.8V36.6C243.573 36.6 243.307 36.7333 243.173 37C243.573 37.1333 243.84 37.0667 243.973 36.8C244.107 37.0667 244.173 37.1333 244.173 37C244.307 36.8667 244.373 36.9333 244.373 37.2C244.373 37.4667 244.24 37.6 243.973 37.6C243.84 37.6 243.64 37.7333 243.373 38C242.973 38 242.64 37.9333 242.373 37.8C242.107 37.5333 241.773 37.5333 241.373 37.8C240.707 37.8 239.907 37.8667 238.973 38C238.173 38.1333 237.44 38.2667 236.773 38.4C236.24 38.6667 235.907 39 235.773 39.4C235.64 39.6667 235.44 40.0667 235.173 40.6C234.24 43 232.907 45.8667 231.173 49.2C229.44 52.5333 228.04 55.6667 226.973 58.6C226.573 59.8 226.24 60.6667 225.973 61.2C225.84 61.7333 225.64 62.2 225.373 62.6C225.24 62.8667 225.04 63.2667 224.773 63.8C224.64 64.3333 224.373 65.2667 223.973 66.6C222.507 69 221.373 72 220.573 75.6C219.773 79.0667 219.04 82.6 218.373 86.2C218.107 87.4 217.773 88.6 217.373 89.8C216.973 91 216.707 92.2667 216.573 93.6C216.44 95.6 216.04 97.4667 215.373 99.2C214.84 100.8 215.107 102.533 216.173 104.4C216.44 104.533 216.507 104.533 216.373 104.4C216.24 104.4 216.44 104.4 216.973 104.4C218.04 104.4 219.373 104.267 220.973 104C222.573 103.6 223.973 103.133 225.173 102.6C226.64 102.2 228.107 101.733 229.573 101.2C231.173 100.533 232.64 100 233.973 99.6C234.24 99.3333 234.373 99.2667 234.373 99.4C234.507 99.4 234.573 99.2667 234.573 99C234.973 98.8667 235.373 98.8 235.773 98.8C236.173 98.6667 236.44 98.3333 236.573 97.8C237.373 97.5333 237.973 97.3333 238.373 97.2C238.907 96.9333 239.307 96.6667 239.573 96.4C239.973 96.1333 240.373 95.9333 240.773 95.8C241.173 95.5333 241.773 95.2667 242.573 95V94.2C243.107 94.6 243.907 94.2 244.973 93C245.107 93 245.24 93.0667 245.373 93.2C246.573 92.4 247.907 91.5333 249.373 90.6C250.973 89.6667 252.44 88.7333 253.773 87.8C254.44 87.6667 255.507 87 256.973 85.8C258.44 84.6 259.907 83.2667 261.373 81.8C262.973 80.3333 264.373 79 265.573 77.8C266.773 76.4667 267.507 75.6667 267.773 75.4C267.907 75.5333 268.04 75.6 268.173 75.6C268.307 74.8 268.373 74.3333 268.373 74.2C268.507 74.0667 268.573 74 268.573 74C268.707 74 268.773 74 268.773 74C268.907 73.8667 269.173 73.5333 269.573 73C269.573 72.6 269.64 72.4 269.773 72.4C270.173 72.1333 270.44 71.9333 270.573 71.8C270.707 71.6667 270.907 71.4 271.173 71C271.973 71.1333 272.507 70.6667 272.773 69.6C273.707 69.8667 274.307 70.2 274.573 70.6C274.973 70.8667 275.307 70.8667 275.573 70.6C275.573 70.8667 275.707 71.0667 275.973 71.2C276.24 71.2 276.507 71.2 276.773 71.2C276.773 71.4667 276.707 71.6 276.573 71.6C276.573 71.6 276.573 71.6667 276.573 71.8C276.84 71.9333 276.64 72.1333 275.973 72.4C275.44 72.6667 275.507 72.8667 276.173 73C276.173 73.2667 276.04 73.6667 275.773 74.2C275.907 74.2 276.107 74.4 276.373 74.8C276.107 74.8 274.973 76.3333 272.973 79.4H273.173C273.04 79.5333 272.907 79.6 272.773 79.6C272.24 80.1333 271.973 80.3333 271.973 80.2L270.773 81.2V80.8C270.507 81.0667 270.373 81.3333 270.373 81.6C270.373 81.7333 270.24 81.8667 269.973 82C269.84 82.1333 269.773 82.3333 269.773 82.6V82.4C269.773 82.2667 269.707 82.2 269.573 82.2ZM273.373 78C273.24 78 273.373 77.8 273.773 77.4V77.2L273.373 77.4C273.107 77.8 272.773 78.2 272.373 78.6C272.107 78.8667 271.84 79.1333 271.573 79.4V78.8C271.04 79.6 270.84 80.2667 270.973 80.8L271.373 80.4H271.173L271.373 79.6C271.64 79.6 271.84 79.6667 271.973 79.8C271.973 79.4 272.24 79.0667 272.773 78.8L273.373 77.8V78ZM255.973 94.4C256.373 94 256.707 93.6667 256.973 93.4C257.373 93.1333 257.707 92.7333 257.973 92.2C257.573 92.4667 257.04 92.8 256.373 93.2C255.84 93.6 255.707 94 255.973 94.4ZM260.773 92.6C261.173 91.9333 261.573 91.5333 261.973 91.4C262.507 91.1333 263.04 90.8 263.573 90.4V90.6C263.04 90.8667 262.507 91.2 261.973 91.6C261.573 92 261.173 92.3333 260.773 92.6ZM274.773 32.6C274.507 32.8667 274.173 32.9333 273.773 32.8C273.507 32.5333 273.24 32.5333 272.973 32.8C273.24 32.9333 273.64 33.0667 274.173 33.2C274.707 33.2 274.907 33 274.773 32.6ZM264.973 88.4C264.84 87.7333 265.107 87.1333 265.773 86.6C266.44 86.0667 266.773 85.6667 266.773 85.4C267.04 85.6667 266.84 86.2 266.173 87C265.64 87.6667 265.24 88.1333 264.973 88.4ZM258.773 91C259.307 91.1333 259.64 91.0667 259.773 90.8C259.907 90.5333 260.107 90.2667 260.373 90C260.373 89.4667 260.44 89.1333 260.573 89C260.307 89 260.173 89.2 260.173 89.6C260.173 89.6 260.24 89.7333 260.373 90C260.107 90.1333 259.84 90.3333 259.573 90.6C259.307 90.7333 259.04 90.8667 258.773 91ZM241.373 36.8C241.64 37.0667 241.84 37.1333 241.973 37C242.107 36.8667 242.24 36.8 242.373 36.8C242.373 36.6667 242.44 36.6 242.573 36.6C242.707 36.4667 242.64 36.2667 242.373 36C242.373 36.2667 242.24 36.4667 241.973 36.6C241.707 36.6 241.507 36.6667 241.373 36.8ZM258.773 91.8C258.907 92.0667 259.107 92.1333 259.373 92C259.773 91.7333 259.84 91.4667 259.573 91.2C259.44 91.4667 259.24 91.6 258.973 91.6C258.84 91.4667 258.773 91.5333 258.773 91.8ZM258.573 88.8C258.84 88.9333 259.107 88.8667 259.373 88.6C259.64 88.3333 259.707 88.0667 259.573 87.8C259.307 88.0667 259.107 88.2667 258.973 88.4C258.973 88.5333 258.84 88.6667 258.573 88.8ZM261.773 35.6C261.64 35.6 261.573 35.5333 261.573 35.4H261.773C261.907 35.4 261.973 35.4 261.973 35.4C262.24 35.8 262.24 36 261.973 36C261.84 35.8667 261.773 35.7333 261.773 35.6ZM240.773 37C240.773 36.8667 240.84 36.8 240.973 36.8C241.107 36.8 241.173 36.7333 241.173 36.6C240.64 36.3333 240.507 36.4667 240.773 37ZM257.173 36C256.64 36.1333 256.373 36.2 256.373 36.2C256.507 36.0667 256.707 35.8667 256.973 35.6C256.973 35.8667 257.04 36 257.173 36ZM271.773 80C271.507 79.8667 271.373 79.9333 271.373 80.2C271.507 80.3333 271.507 80.4 271.373 80.4L271.773 80ZM247.773 35.8C247.773 36.0667 247.64 36.2 247.373 36.2C247.64 35.9333 247.773 35.8 247.773 35.8ZM273.373 78.4C273.64 78.1333 273.773 77.9333 273.773 77.8L273.373 78.2V78.4ZM261.173 88.8C261.307 88.9333 261.373 88.8 261.373 88.4C261.373 88.5333 261.307 88.6667 261.173 88.8ZM247.373 36.4C247.107 36.2667 247.107 36.2 247.373 36.2V36.4ZM263.773 90.2C263.64 90.3333 263.573 90.4 263.573 90.4V90.2H263.773ZM273.373 78.4C273.373 78.5333 273.307 78.6 273.173 78.6C273.307 78.6 273.373 78.5333 273.373 78.4ZM269.373 83L269.573 82.8L269.373 83ZM337.93 79.8C338.196 80.2 337.73 80.8667 336.53 81.8C335.33 82.7333 334.13 83.8 332.93 85C332.663 85.1333 332.063 85.6 331.13 86.4C330.196 87.2 329.663 87.7333 329.53 88L328.33 89L324.93 91.6L323.33 92.6L320.53 94.4C318.263 95.8667 316.13 97.2667 314.13 98.6C312.13 99.9333 309.663 101.133 306.73 102.2C306.596 102.2 306.33 102.267 305.93 102.4C305.663 102.533 305.33 102.667 304.93 102.8C304.396 102.933 303.93 103.067 303.53 103.2C302.996 103.2 302.53 103.333 302.13 103.6C301.73 103.733 301.196 103.8 300.53 103.8C300.396 103.8 300.463 103.667 300.73 103.4C300.063 103.533 299.53 103.667 299.13 103.8C298.73 103.8 298.263 104 297.73 104.4C297.33 104.133 296.93 104.133 296.53 104.4C296.263 104.8 295.863 104.867 295.33 104.6C295.063 105 294.663 105.133 294.13 105C293.596 104.867 293.13 105 292.73 105.4C292.463 105.267 292.396 105.133 292.53 105C292.663 105 292.596 104.933 292.33 104.8C291.93 104.933 291.396 104.933 290.73 104.8C290.196 104.8 289.596 105 288.93 105.4C288.53 105.133 288.196 105.067 287.93 105.2C287.796 105.333 287.396 105.267 286.73 105L286.53 105.4C284.53 105 283.063 104.867 282.13 105C281.596 104.867 281.196 104.733 280.93 104.6C280.663 104.467 280.396 104.533 280.13 104.8C278.663 104.533 277.263 104.267 275.93 104C274.73 103.6 273.396 103.067 271.93 102.4C270.33 101.733 268.93 100.8 267.73 99.6C266.53 98.2667 265.396 96.8667 264.33 95.4C263.796 94.4667 263.396 93.5333 263.13 92.6C262.863 91.6667 262.596 90.8 262.33 90C262.063 88.9333 261.93 88 261.93 87.2C261.93 86.2667 262.063 85.2667 262.33 84.2C262.596 82.7333 263.063 80.7333 263.73 78.2C264.263 75.6667 265.263 73.4667 266.73 71.6L271.33 66.4L274.33 62.4C275.396 61.6 276.263 60.9333 276.93 60.4C277.596 59.8667 278.396 59.0667 279.33 58C279.996 57.3333 280.796 56.8 281.73 56.4C282.663 55.8667 283.463 55.2667 284.13 54.6C285.33 53.8 286.263 53.0667 286.93 52.4C287.863 51.7333 288.863 51.1333 289.93 50.6C290.996 49.9333 291.996 49.4667 292.93 49.2C293.33 48.9333 293.863 48.8 294.53 48.8C295.196 48.8 295.73 48.6667 296.13 48.4C296.396 48.2667 296.663 48.1333 296.93 48C297.196 47.8667 297.53 47.8 297.93 47.8C298.596 48.8667 299.463 49.8 300.53 50.6C301.73 51.2667 302.663 52.1333 303.33 53.2C304.263 53.4667 304.796 53.9333 304.93 54.6C305.063 55.2667 305.463 55.8667 306.13 56.4C306.396 57.4667 306.396 58.4 306.13 59.2C305.996 60 305.663 60.8667 305.13 61.8C304.863 62.0667 304.73 62.3333 304.73 62.6C304.73 62.8667 304.663 63.1333 304.53 63.4C304.263 64.0667 303.796 64.6667 303.13 65.2C302.596 65.6 302.063 66.1333 301.53 66.8C301.263 67.0667 300.996 67.4667 300.73 68C300.596 68.5333 300.396 69.0667 300.13 69.6C299.596 70.1333 298.93 70.8 298.13 71.6C297.33 72.4 296.596 73.2 295.93 74C295.263 74.9333 294.396 75.6 293.33 76C292.396 76.4 291.596 77 290.93 77.8C290.53 78.0667 290.33 78.4667 290.33 79C289.263 80.0667 287.996 81.0667 286.53 82C285.196 82.8 283.996 83.7333 282.93 84.8C280.796 85.2 278.796 86 276.93 87.2C275.196 88.4 273.13 88.7333 270.73 88.2C270.463 88.3333 270.396 88.4667 270.53 88.6C270.796 88.7333 271.13 88.8 271.53 88.8C271.13 89.4667 271.063 90 271.33 90.4C271.73 90.6667 271.996 91 272.13 91.4C273.196 92.4667 274.463 93.4667 275.93 94.4C277.396 95.3333 278.996 95.9333 280.73 96.2C285.663 97.6667 290.33 97.7333 294.73 96.4C296.196 96.1333 297.53 95.8667 298.73 95.6C300.063 95.3333 301.596 94.8667 303.33 94.2C305.463 93.4 307.396 92.5333 309.13 91.6L311.73 90.4C312.13 90.1333 312.33 90.0667 312.33 90.2C312.463 90.2 312.463 90.2667 312.33 90.4C312.33 90.4 312.33 90.4667 312.33 90.6C312.33 90.6 312.53 90.4667 312.93 90.2L318.13 87.8C319.596 86.7333 320.796 85.9333 321.73 85.4C322.663 84.7333 324.063 83.6667 325.93 82.2C326.063 82.0667 326.463 81.8 327.13 81.4C327.796 80.8667 328.463 80.3333 329.13 79.8C329.93 79.2667 330.663 78.8 331.33 78.4C331.996 77.8667 332.463 77.5333 332.73 77.4L334.73 75.4C336.33 74.3333 337.663 73.4667 338.73 72.8C339.93 72 340.796 71.4667 341.33 71.2C341.73 71.6 341.996 72.2 342.13 73C342.263 73.6667 342.53 74 342.93 74C342.13 75.2 341.53 76.1333 341.13 76.8C340.863 77.3333 340.596 77.7333 340.33 78C340.196 78.2667 339.93 78.5333 339.53 78.8C339.263 78.9333 338.73 79.2667 337.93 79.8ZM295.53 57.4C295.13 57.6667 294.663 58 294.13 58.4C293.596 58.8 293.13 59.1333 292.73 59.4C292.196 59.4 291.863 59.5333 291.73 59.8C291.463 59.9333 291.196 60.0667 290.93 60.2C290.796 60.3333 290.596 60.4667 290.33 60.6L288.73 61.8C288.063 62.4667 287.396 63 286.73 63.4C286.063 63.6667 285.396 64.0667 284.73 64.6C283.93 65.6667 283.13 66.5333 282.33 67.2C281.663 67.7333 280.93 68.5333 280.13 69.6C278.663 70.5333 277.463 71.6667 276.53 73C275.063 74.4667 273.73 75.9333 272.53 77.4C271.33 78.7333 270.396 80.1333 269.73 81.6C272.263 80.8 274.663 79.5333 276.93 77.8C279.196 76.0667 281.596 74.2667 284.13 72.4C284.93 71.7333 285.73 71.0667 286.53 70.4C287.33 69.7333 288.063 68.9333 288.73 68C289.93 67.3333 291.263 66.2667 292.73 64.8C294.33 63.2 295.663 61.6667 296.73 60.2C296.996 59.5333 297.263 58.9333 297.53 58.4C297.93 57.8667 297.996 57.3333 297.73 56.8C297.463 56.8 297.063 56.8667 296.53 57C296.13 57 295.796 57.1333 295.53 57.4ZM377.698 108.6C377.565 108.6 377.565 108.6 377.698 108.6C377.965 108.6 377.965 108.467 377.698 108.2C377.432 107.933 376.898 108.133 376.098 108.8C375.432 109.6 374.965 110.133 374.698 110.4C374.432 110.4 374.298 110.2 374.298 109.8C374.032 110.2 373.498 110.533 372.698 110.8C371.898 111.2 371.165 111.2 370.498 110.8C369.832 111.467 369.365 111.8 369.098 111.8C368.032 111.533 367.298 111.4 366.898 111.4C366.498 111.4 365.765 111.267 364.698 111C364.698 111.267 364.632 111.467 364.498 111.6C364.498 111.733 364.698 111.733 365.098 111.6C365.498 111.467 365.632 111.6 365.498 112C364.698 112.133 363.832 112.067 362.898 111.8C362.098 111.533 361.165 111.267 360.098 111C360.098 110.867 360.098 110.8 360.098 110.8C360.232 110.8 360.298 110.733 360.298 110.6V110.4C355.632 109.867 352.165 107.733 349.898 104C347.765 100.4 346.965 96.0667 347.498 91C348.165 86.2 349.632 82.1333 351.898 78.8C354.298 75.3333 356.432 72.0667 358.298 69C356.832 69 355.032 69.3333 352.898 70C350.765 70.6667 348.565 71.1333 346.298 71.4C345.498 71.5333 345.032 71.7333 344.898 72C344.765 72.1333 344.698 72.2667 344.698 72.4C344.698 72.5333 344.632 72.6 344.498 72.6C344.365 72.6 343.832 72.4667 342.898 72.2C342.632 72.3333 342.298 72.2667 341.898 72C341.632 71.6 341.365 71.4667 341.098 71.6C340.432 71.8667 340.232 71.8 340.498 71.4C340.898 70.8667 340.898 70.2667 340.498 69.6C339.432 69.0667 338.898 68.2 338.898 67C338.898 65.8 339.098 65.2667 339.498 65.4C339.098 63.1333 339.165 61.0667 339.698 59.2C340.365 57.2 341.232 55.4 342.298 53.8C343.498 52.2 344.765 50.8 346.098 49.6C347.565 48.2667 348.898 47.0667 350.098 46C351.298 46 352.498 46.2667 353.698 46.8C354.898 47.2 356.232 47.7333 357.698 48.4C358.232 48.8 358.698 49.2 359.098 49.6C359.498 49.8667 359.765 50.3333 359.898 51L359.098 54.2C358.832 54.3333 358.632 54.5333 358.498 54.8C358.365 55.0667 358.032 55.2667 357.498 55.4C357.498 56.2 357.032 57 356.098 57.8C355.298 58.6 354.498 59.3333 353.698 60C353.032 60.2667 352.565 60.6667 352.298 61.2C352.165 61.7333 351.832 62.2667 351.298 62.8C350.365 63.4667 349.765 64.1333 349.498 64.8C349.232 65.3333 348.765 66 348.098 66.8C350.098 66.9333 351.498 66.9333 352.298 66.8C353.232 66.6667 353.965 66.4667 354.498 66.2C355.032 65.9333 355.632 65.6667 356.298 65.4C356.965 65.1333 358.098 64.8667 359.698 64.6C360.632 64.8667 361.765 64.8 363.098 64.4C363.898 65.3333 364.765 66.2 365.698 67C366.765 67.6667 367.765 68.4 368.698 69.2C368.832 70.5333 368.832 71.6 368.698 72.4C368.565 73.0667 368.298 73.6667 367.898 74.2C367.632 74.7333 367.232 75.2667 366.698 75.8C366.298 76.3333 365.832 77.0667 365.298 78C364.765 78.9333 364.298 79.8 363.898 80.6C363.498 81.4 362.898 82.1333 362.098 82.8C361.965 83.8667 361.565 84.9333 360.898 86C360.232 87.0667 359.632 88.1333 359.098 89.2C358.298 91.8667 357.698 94.5333 357.298 97.2C357.032 99.7333 357.432 101.933 358.498 103.8C359.965 104.2 361.232 104.533 362.298 104.8C363.498 105.067 364.832 105.067 366.298 104.8C366.565 104.667 366.965 104.467 367.498 104.2C368.032 103.933 368.432 103.8 368.698 103.8C368.698 103.933 368.698 103.933 368.698 103.8C368.698 103.533 368.832 103.4 369.098 103.4C370.432 103.4 371.832 102.867 373.298 101.8C374.765 100.733 376.165 99.9333 377.498 99.4C377.898 99.1333 378.298 98.9333 378.698 98.8C379.098 98.5333 379.498 98.3333 379.898 98.2C380.565 98.0667 380.898 97.9333 380.898 97.8C381.032 97.5333 381.365 97.3333 381.898 97.2C382.165 96.8 382.432 96.6 382.698 96.6C382.965 96.4667 383.165 96.2667 383.298 96C383.698 95.7333 384.098 95.4 384.498 95C385.298 94.2 385.765 93.8 385.898 93.8C386.698 93.1333 387.698 92.2667 388.898 91.2C390.232 90 391.432 89.0667 392.498 88.4C393.165 87.8667 394.632 86.7333 396.898 85C399.298 83.1333 401.432 81.1333 403.298 79C403.965 78.3333 404.432 77.8667 404.698 77.6C404.965 77.3333 405.232 77.1333 405.498 77C405.765 76.8667 406.032 76.7333 406.298 76.6C406.698 76.3333 407.232 76 407.898 75.6C408.165 74.9333 408.432 74.2667 408.698 73.6C408.965 72.9333 409.432 72.2667 410.098 71.6C410.632 71.6 411.632 71.4667 413.098 71.2C414.565 70.8 415.365 71 415.498 71.8C415.498 72.3333 415.365 72.6 415.098 72.6C415.498 74.2 414.965 75.6667 413.498 77C412.165 78.3333 411.165 79.5333 410.498 80.6C410.232 80.8667 410.032 81.2 409.898 81.6C409.898 81.8667 409.698 82.1333 409.298 82.4C409.032 82.8 408.698 83.2 408.298 83.6C407.898 84 407.365 84.5333 406.698 85.2C405.765 85.8667 405.098 86.5333 404.698 87.2C404.432 87.7333 403.832 88.2 402.898 88.6C401.965 89.6667 401.165 90.6 400.498 91.4C399.832 92.0667 399.165 92.7333 398.498 93.4C397.965 93.9333 397.365 94.4667 396.698 95C396.032 95.5333 395.232 96.0667 394.298 96.6C394.032 96.8667 393.565 97.3333 392.898 98C392.232 98.5333 391.498 99.1333 390.698 99.8C390.032 100.467 389.365 101.067 388.698 101.6C388.165 102.133 387.765 102.467 387.498 102.6C384.965 104.333 382.898 105.6 381.298 106.4C379.698 107.333 378.965 107.933 379.098 108.2C378.832 108.2 378.632 108.2 378.498 108.2C378.365 108.333 378.098 108.467 377.698 108.6ZM350.498 54.2C350.098 54.8667 349.565 55.4 348.898 55.8C348.232 56.0667 347.632 56.6 347.098 57.4C347.765 56.8667 348.432 56.4 349.098 56C349.765 55.4667 350.232 54.8667 350.498 54.2Z" fill="black"/>
</svg>
