<svg width="185" height="59" viewBox="0 0 185 59" fill="none" xmlns="http://www.w3.org/2000/svg">
<path d="M45.8 42.5C45.9333 42.6333 46.2333 42.7333 46.7 42.8C47.1667 42.8667 47.5 42.9333 47.7 43C47.7 43.1333 47.9333 43.1667 48.4 43.1C48.8667 43.0333 49.3667 42.9667 49.9 42.9C50.5 42.7667 51.0667 42.6333 51.6 42.5C52.1333 42.3 52.5 42.1333 52.7 42C53.4333 41.8667 54.1 41.6333 54.7 41.3C55.3 40.9 55.8333 40.6333 56.3 40.5C56.7667 40.2333 57.1 40 57.3 39.8C57.5 39.6 57.6667 39.4333 57.8 39.3C57.9333 39.1 58.1 38.9 58.3 38.7C58.5667 38.4333 58.9667 38.1 59.5 37.7C59.8333 37.1667 60.3 36.6 60.9 36C61.5667 35.3333 61.9 34.6333 61.9 33.9C62.1 33.5667 62.4333 33.3667 62.9 33.3C63.3667 33.1667 63.8 33.1667 64.2 33.3C64.6667 33.4333 65 33.7 65.2 34.1C65.4667 34.4333 65.5 34.8667 65.3 35.4C64.9667 36.2 64.5667 36.8333 64.1 37.3C63.6333 37.7667 63.1667 38.2667 62.7 38.8C62.6333 38.7333 62.6 38.8 62.6 39C62.2667 39.3333 62.0667 39.6 62 39.8C62 40 62 40.1333 62 40.2L58.4 42.9C58.2667 43.3667 58.1333 43.5667 58 43.5C57.8 43.7667 57.5333 43.9333 57.2 44C56.8667 44.0667 56.6667 44.2 56.6 44.4C56.4667 44.4 56.2667 44.5333 56 44.8C55.7333 45.0667 55.5333 45.1333 55.4 45C54.9333 45.3333 54.4667 45.5333 54 45.6C53.6 45.6 53.3333 45.6667 53.2 45.8C53.0667 45.9333 52.6667 46.1 52 46.3C51.3333 46.5 50.6 46.6667 49.8 46.8C49.0667 46.8667 48.3667 46.9333 47.7 47C47.1 47 46.7667 46.9333 46.7 46.8C46.5667 46.8667 46.5 46.8667 46.5 46.8C46.5 46.6667 46.4667 46.6 46.4 46.6C45.8667 46.7333 45.6333 46.7667 45.7 46.7C45.7667 46.5667 45.5667 46.5 45.1 46.5C44.8333 46.3667 44.6 46.2667 44.4 46.2C44.2667 46.1333 44.2 45.9667 44.2 45.7H43.7C43.2333 45.5 43 45.4 43 45.4C43.0667 45.3333 42.8667 45.0667 42.4 44.6C42.4 44.6667 42.3 44.5 42.1 44.1C41.9 43.6333 41.7667 43.4333 41.7 43.5C41.5667 43.5667 41.5333 43.5667 41.6 43.5C41.6667 43.3667 41.6333 43.3 41.5 43.3C41.4333 43.5667 41.3333 43.7 41.2 43.7C41.0667 43.6333 40.9667 43.5667 40.9 43.5C40.9 43.3667 40.9 43.2667 40.9 43.2C40.9667 43.1333 41 43.0333 41 42.9L40.7 43.5C40.5667 43.5 40.4667 43.5667 40.4 43.7C40.2667 44.2333 40.0333 44.5333 39.7 44.6C39.3667 44.6667 39.2 44.9667 39.2 45.5C39 45.5667 38.8667 45.7667 38.8 46.1C38.8 46.3667 38.6667 46.5 38.4 46.5C38.0667 47.0333 37.8 47.4667 37.6 47.8C37.4 48.0667 37.1667 48.3333 36.9 48.6C36.7 48.8 36.4667 49.0667 36.2 49.4C35.9333 49.6667 35.6 50.0667 35.2 50.6C34.9333 50.6 34.7667 50.7 34.7 50.9C34.6333 51.0333 34.4667 51.1 34.2 51.1C33.8667 51.9 33.3667 52.4333 32.7 52.7C32.0333 52.9667 31.5 53.4333 31.1 54.1C31.0333 54.1667 31 54.1667 31 54.1V54C30.6667 54.3333 30.3667 54.6 30.1 54.8C29.8333 54.9333 29.5333 55.1667 29.2 55.5C28.8667 55.4333 28.5 55.4667 28.1 55.6C27.7667 55.7333 27.3667 55.7667 26.9 55.7C26.7667 55.6333 26.7667 55.5333 26.9 55.4C26.6333 55.4667 26.4333 55.4667 26.3 55.4C26.2333 55.3333 25.9333 55.3667 25.4 55.5C25.3333 55.4333 25.2 55.4 25 55.4C24.8667 55.4 24.8333 55.3333 24.9 55.2C24.7667 55.2 24.6333 55.2 24.5 55.2C24.3667 55.2667 24.2667 55.2333 24.2 55.1C24.2667 55.0333 24.3667 55.0333 24.5 55.1C24.6333 55.1667 24.7333 55.1333 24.8 55C24.8 54.7333 24.6333 54.6 24.3 54.6C24.0333 54.6 23.9 54.4333 23.9 54.1C23.7667 54.2333 23.5667 54.2667 23.3 54.2C23.1 54.1333 22.9333 54.1667 22.8 54.3C22.9333 54.4333 23.0667 54.5 23.2 54.5C23.4 54.5 23.6333 54.5 23.9 54.5C23.9 54.5667 23.8333 54.6 23.7 54.6H22.6C22.6667 54.8 22.8667 54.9333 23.2 55C23.5333 55 23.7667 54.8667 23.9 54.6C23.9667 54.6 23.9667 54.6333 23.9 54.7C23.9 54.7667 23.8667 54.8333 23.8 54.9C23.7333 54.9667 23.7 55 23.7 55C23.7 55.0667 23.8333 55.1 24.1 55.1C23.3667 55.3 22.9333 55.2667 22.8 55C22.7333 54.7333 22.4667 54.5667 22 54.5C21.8667 54.1 21.6667 53.8 21.4 53.6C21.2 53.4 21 53.2 20.8 53C20.9333 53.3333 21.0667 53.6667 21.2 54C21.4 54.3333 21.6333 54.5667 21.9 54.7C21.7 54.7 21.5 54.5667 21.3 54.3C21.1667 54.0333 20.9667 53.9 20.7 53.9C20.6333 53.5667 20.5333 53.3 20.4 53.1C20.2667 52.9 20.2 52.7333 20.2 52.6C20.2 52.5333 20.2667 52.5 20.4 52.5C20.4 52.4333 20.3667 52.3333 20.3 52.2C20.2333 52.0667 20.2 52.1333 20.2 52.4C20 52.2 19.8667 52 19.8 51.8C19.8 51.6 19.7333 51.4333 19.6 51.3C19.7333 51.0333 19.8 50.9333 19.8 51C19.6 50.8667 19.4667 50.6667 19.4 50.4C19.4 50.1333 19.4 49.8667 19.4 49.6C19.4 49.3333 19.3333 49.1 19.2 48.9C19.0667 48.7 19.0333 48.5 19.1 48.3C19.1 48.2333 19.1333 48.1667 19.2 48.1C19.3333 48.0333 19.4 47.9667 19.4 47.9C19.4 47.4333 19.3333 46.9333 19.2 46.4C19.0667 45.8 19.0667 45.2333 19.2 44.7C18.8667 45.0333 18.6 45.3 18.4 45.5C18.2 45.7 18.0333 45.9333 17.9 46.2C17.9667 46.1333 18 46.0333 18 45.9C17.7333 46.3 17.5667 46.6 17.5 46.8C17.3 46.8 17.2 46.8333 17.2 46.9C17.2 46.9 17.1333 46.9 17 46.9C17 47.1667 17 47.3667 17 47.5C17.0667 47.5667 17.1 47.6667 17.1 47.8C17.0333 47.8667 16.9333 47.8667 16.8 47.8C16.7333 47.6667 16.7 47.6667 16.7 47.8C16.2333 48.3333 15.8 48.9 15.4 49.5C15.0667 50.0333 14.6667 50.5333 14.2 51C13.9333 51 13.7333 51.1 13.6 51.3C13.4667 51.5 13.3333 51.7333 13.2 52H13C12.1333 52.9333 11.1333 53.7667 10 54.5C8.93333 55.2333 7.83333 55.8667 6.7 56.4V56.7C6.56667 56.7 6.5 56.6 6.5 56.4C5.63333 56.4 4.66667 56.3667 3.6 56.3C2.6 56.3 1.8 56 1.2 55.4C1.2 55.2667 1.2 55.2 1.2 55.2C1.26667 55.2 1.3 55.1667 1.3 55.1C0.7 54.1 0.433333 52.9667 0.5 51.7C0.5 50.3667 0.666667 49 1 47.6C1.33333 46.2 1.73333 44.8333 2.2 43.5C2.73333 42.1 3.16667 40.8333 3.5 39.7C3.63333 39.5 3.7 39.2667 3.7 39C3.76667 38.7333 3.83333 38.5 3.9 38.3C4.43333 36.7667 4.93333 35.2667 5.4 33.8C5.93333 32.2667 6.53333 30.8333 7.2 29.5C7.13333 29.4333 7.1 29.3667 7.1 29.3C7.16667 29.1667 7.16667 29 7.1 28.8C7.63333 28.9333 8 28.7667 8.2 28.3C9.33333 28.2333 10.2667 28.3 11 28.5C11.8 28.7 12.5667 29.0333 13.3 29.5C13.1 29.9 12.8333 30.1667 12.5 30.3C12.4333 30.8333 12.3667 31.2667 12.3 31.6C12.2333 31.8667 12.2 32.1667 12.2 32.5C12 33.2333 11.7333 34 11.4 34.8C11.0667 35.6 10.8 36.3 10.6 36.9C10.4 37.6333 10.2 38.3667 10 39.1C9.8 39.8333 9.46667 40.5 9 41.1C8.73333 42.4333 8.4 43.7333 8 45C7.66667 46.2 7.26667 47.4333 6.8 48.7C6.73333 48.8333 6.66667 48.9 6.6 48.9C6.53333 48.9 6.43333 48.9667 6.3 49.1C6.16667 49.6333 6.03333 50.1333 5.9 50.6C5.83333 51.0667 5.83333 51.5667 5.9 52.1C6.7 51.5667 7.43333 51 8.1 50.4C8.83333 49.8 9.6 49.1667 10.4 48.5C10.9333 48.1667 11.4333 47.7333 11.9 47.2C12.3667 46.6 12.8667 46.1 13.4 45.7C14.6 44.7667 15.7 43.7 16.7 42.5C17.7667 41.2333 18.8667 40.1 20 39.1C20.0667 38.7667 20.1333 38.5667 20.2 38.5C20.3333 38.3667 20.4 38.0667 20.4 37.6C20.7333 37.6 20.9 37.5667 20.9 37.5C20.9 37.4333 20.9667 37.3333 21.1 37.2C20.9667 37.1333 21 37 21.2 36.8C21.4 36.4 21.6 35.9667 21.8 35.5C22.0667 35.0333 22.3667 34.6667 22.7 34.4C23.4333 34.6667 24.2333 34.8 25.1 34.8C25.9667 34.7333 26.7333 34.7667 27.4 34.9C28 35.6333 28.0667 36.5667 27.6 37.7C27.2 38.8333 26.8333 39.8667 26.5 40.8C26.2333 42.5333 25.7667 44.1667 25.1 45.7C25.2333 45.8333 25.2667 45.9667 25.2 46.1C25.1333 46.2333 25.0667 46.4 25 46.6C25 46.6667 25.0333 46.7 25.1 46.7C25.0333 47.2333 24.9667 47.7333 24.9 48.2C24.9 48.6 24.9 49.1 24.9 49.7C24.9667 49.8333 25 49.8333 25 49.7C25 49.5667 25.0333 49.6 25.1 49.8C25.1 49.9333 25.0667 50.0667 25 50.2C25 50.2667 25.1 50.2667 25.3 50.2C25.3 50.5333 25.3667 50.8333 25.5 51.1C26.7667 50.7667 27.8333 50.2333 28.7 49.5C29.6333 48.7 30.5 47.8667 31.3 47C31.3667 47.2 31.5 47.2333 31.7 47.1C31.9 46.9667 31.9667 46.8 31.9 46.6C32.1 46.6 32.1333 46.6667 32 46.8C32.2 46.7333 32.2333 46.6667 32.1 46.6C32.0333 46.4667 32.0667 46.3333 32.2 46.2C32.2667 46.2 32.2667 46.2667 32.2 46.4C32.1333 46.4667 32.1333 46.5333 32.2 46.6C32.5333 46.4667 32.7667 46.2 32.9 45.8C33.1667 45.7333 33.2333 45.7 33.1 45.7C33.0333 45.6333 33.0667 45.5333 33.2 45.4C33.3333 45.4 33.3333 45.4667 33.2 45.6C33.4667 45.4 33.6 45.2667 33.6 45.2C33.6667 45.1333 33.6667 45.1 33.6 45.1C33.6667 45.0333 33.8333 44.9 34.1 44.7C34.3 44.1667 34.5667 43.8 34.9 43.6C35.2333 43.3333 35.4667 42.9333 35.6 42.4C35.7333 42.4667 35.8 42.4333 35.8 42.3C35.8 42.1 35.8667 42 36 42V42.1C36.7333 41.5667 37.2667 40.8667 37.6 40C37.7333 39.8667 37.8667 39.7667 38 39.7C38.2 39.5667 38.3 39.4 38.3 39.2C38.1 39.0667 38.0667 38.8333 38.2 38.5C38.3333 38.1 38.5333 37.5667 38.8 36.9C38.6667 37.0333 38.6 37.1333 38.6 37.2C38.6667 37.2 38.6667 37.2667 38.6 37.4C38.2667 36.4667 38.2333 35.6667 38.5 35C38.7667 34.2667 39.0667 33.3 39.4 32.1C39.6 31.9 39.8 31.8 40 31.8C40.2667 31.7333 40.4333 31.5333 40.5 31.2C40.6333 31.2 40.6333 31.2667 40.5 31.4C40.7 31.3333 40.7333 31.3 40.6 31.3C40.5333 31.2333 40.5333 31.1333 40.6 31C40.8 31 40.9333 30.9667 41 30.9C41.2 30.7667 41.3333 30.6333 41.4 30.5C41.4667 30.3 41.6333 30.2333 41.9 30.3C41.9667 30.3 41.9 30.3333 41.7 30.4C41.5667 30.4 41.4667 30.4667 41.4 30.6C41.7333 30.6 41.9333 30.5667 42 30.5C42.0667 30.4333 42.0667 30.4333 42 30.5C42 30.5667 42.0667 30.6 42.2 30.6C42.2 30.6 42.2 30.5667 42.2 30.5C42.1333 30.5 42.1 30.4667 42.1 30.4C42.1 30.3333 42.1667 30.3333 42.3 30.4C42.5 30.4667 42.6 30.5667 42.6 30.7C42.6667 30.7 42.7 30.6 42.7 30.4C43.1667 30.7333 43.7 30.9667 44.3 31.1C44.9667 31.2333 45.5667 31.4667 46.1 31.8C46.1 31.9333 45.9667 32 45.7 32C45.4333 32 45.3 32.0333 45.3 32.1C45.3 32.2333 45.3667 32.3667 45.5 32.5C45.7 32.5667 45.8667 32.6667 46 32.8L45.7 33C45.7 33.3333 45.7667 33.5667 45.9 33.7C46.1 33.7667 46.0667 33.9667 45.8 34.3C45.6667 34.4333 45.6 34.4333 45.6 34.3C45.6 34.7 45.4333 35.1667 45.1 35.7C44.8333 36.1667 44.5333 36.6667 44.2 37.2C43.9333 37.6667 43.7 38.1333 43.5 38.6C43.3667 39 43.4333 39.3667 43.7 39.7L45.8 42.5ZM21 52.6C21 52.1333 20.9333 51.8333 20.8 51.7C20.7333 51.5 20.6667 51.2667 20.6 51C20.4 51 20.3 51 20.3 51C20.3 50.8667 20.3333 50.8 20.4 50.8C20.4667 50.7333 20.4333 50.6333 20.3 50.5C20.3 50.7667 20.2667 50.8 20.2 50.6C20.2 50.3333 20.1333 50.2 20 50.2C20.0667 50.5333 20.1333 51 20.2 51.6C20.3333 52.1333 20.6 52.4667 21 52.6ZM42.5 44C42.5667 44.2 42.6333 44.3333 42.7 44.4C42.8333 44.4667 42.9667 44.5333 43.1 44.6C43.3 44.4667 43.2667 44.3667 43 44.3C42.8 44.1667 42.6333 44.0667 42.5 44ZM21.8 53.6C21.7333 53.6667 21.8 53.8 22 54C22.2 54.2 22.3667 54.2333 22.5 54.1C22.3667 54.0333 22.2333 53.9667 22.1 53.9C22.0333 53.7667 21.9333 53.6667 21.8 53.6ZM41 43.8C40.8667 43.8 40.8 43.7667 40.8 43.7C40.8 43.6333 40.7667 43.5667 40.7 43.5H40.9L41 43.8ZM32.9 45.6C33.0333 45.6 33.0333 45.6667 32.9 45.8V45.6ZM17.8 46.5C17.7333 46.5 17.7667 46.4 17.9 46.2C17.9 46.2667 17.8667 46.3333 17.8 46.4C17.8 46.4 17.8 46.4333 17.8 46.5ZM75.4969 0.499998C75.6302 0.63333 75.6635 0.666663 75.5969 0.599997C75.5969 0.533331 75.7635 0.533331 76.0969 0.599997C76.2302 0.599997 76.2969 0.63333 76.2969 0.699996C76.3635 0.699996 76.4635 0.699996 76.5969 0.699996C76.7302 0.766662 76.8635 0.766662 76.9969 0.699996C77.1302 0.63333 77.2635 0.599997 77.3969 0.599997C77.5969 0.599997 77.7635 0.666663 77.8969 0.799994C78.0302 0.93333 78.1969 1.03333 78.3969 1.1H78.6969L78.9969 1.4C79.1302 1.53333 79.2969 1.63333 79.4969 1.69999C79.6969 1.76666 79.8302 1.86667 79.8969 2C80.2302 2.33333 80.4302 2.73333 80.4969 3.2C80.5635 3.66666 80.5302 4.2 80.3969 4.8C80.2635 4.93333 80.1969 5.06667 80.1969 5.2C80.1969 5.26667 80.1635 5.36666 80.0969 5.5C80.0302 5.63333 79.9302 5.73333 79.7969 5.8C79.7302 5.8 79.6635 5.86667 79.5969 6C79.2635 6.4 78.9635 6.83333 78.6969 7.3C78.4302 7.76666 78.1969 8.23333 77.9969 8.7L77.0969 9.7V10.5C76.9635 10.5667 76.8635 10.6 76.7969 10.6C76.7969 10.5333 76.7302 10.5333 76.5969 10.6C76.4635 10.6667 76.3969 10.7667 76.3969 10.9C76.3969 11.0333 76.3635 11.1667 76.2969 11.3C75.8969 12.0333 75.5302 12.8 75.1969 13.6C74.8635 14.4 74.6302 15.2 74.4969 16C74.0302 16.1333 73.7969 16.3667 73.7969 16.7C73.7302 16.7667 73.6969 16.9667 73.6969 17.3C73.5635 17.5667 73.4302 17.8333 73.2969 18.1C73.1635 18.3667 73.0635 18.6667 72.9969 19C72.7969 19.3333 72.5969 19.7 72.3969 20.1C72.2635 20.4333 72.1302 20.8 71.9969 21.2L71.5969 21.9C71.5969 22.0333 71.5635 22.1333 71.4969 22.2C71.4302 22.2667 71.3969 22.3667 71.3969 22.5L67.3969 31.5L66.7969 33L66.2969 33.9L65.7969 34.8C65.7969 34.8667 65.7635 34.9 65.6969 34.9C65.6302 34.8333 65.5969 34.8333 65.5969 34.9C65.3969 36.1667 65.0302 37.3 64.4969 38.3C64.0302 39.3 63.5302 40.3 62.9969 41.3L60.8969 45.7C60.7635 45.9667 60.6302 46.2333 60.4969 46.5C60.3635 46.7 60.2635 46.9667 60.1969 47.3L60.0969 47.7L59.6969 48.3C60.4302 47.5 61.2302 46.7 62.0969 45.9C62.9635 45.1 63.8302 44.3 64.6969 43.5L65.1969 42.8L65.8969 42.2C66.7635 41.5333 67.5635 40.8333 68.2969 40.1C69.0969 39.3667 69.8969 38.7 70.6969 38.1C71.4969 37.4333 72.3302 36.8333 73.1969 36.3C74.0635 35.7 74.9302 35.0667 75.7969 34.4C75.9302 34.3333 76.0635 34.2333 76.1969 34.1C76.3302 33.9667 76.4302 33.9 76.4969 33.9H76.9969C77.3969 33.7667 77.7302 33.6 77.9969 33.4C78.2635 33.1333 78.6302 32.9667 79.0969 32.9C79.4302 32.7667 79.6969 32.7667 79.8969 32.9C80.0969 32.9667 80.3302 33.0667 80.5969 33.2C80.8635 33.3333 81.1302 33.4333 81.3969 33.5C81.6635 33.5667 81.9635 33.5667 82.2969 33.5C82.3635 33.6333 82.3302 33.7667 82.1969 33.9C82.5302 33.8333 82.6969 33.8667 82.6969 34C82.7635 34.1333 82.8635 34.3 82.9969 34.5C83.1302 34.7667 83.1635 35 83.0969 35.2C83.1635 35.4667 83.1302 35.9333 82.9969 36.6C82.8635 37.2 82.7302 37.8333 82.5969 38.5C82.5302 39.1667 82.3635 39.6667 82.0969 40C82.2302 39.9333 82.2635 40 82.1969 40.2C82.1302 40.3333 82.0635 40.4667 81.9969 40.6C81.8635 40.8 81.7969 40.9667 81.7969 41.1C81.7969 41.2333 81.7635 41.4 81.6969 41.6L81.5969 43C81.4635 44.2667 81.3635 45.3667 81.2969 46.3C81.2969 47.1667 81.4302 48.0667 81.6969 49C81.7635 49.2667 81.8635 49.7 81.9969 50.3C82.1969 50.9 82.4302 51.2667 82.6969 51.4C82.8302 51.5333 82.9969 51.5667 83.1969 51.5C83.3969 51.4333 83.6302 51.4 83.8969 51.4C84.0969 51.5333 84.2969 51.6 84.4969 51.6C84.7635 51.6 84.9969 51.6 85.1969 51.6C86.3302 51.4667 87.5635 51.0333 88.8969 50.3C90.2969 49.5 91.3969 48.8333 92.1969 48.3L92.8969 47.7C93.0302 47.5667 93.0969 47.5 93.0969 47.5C93.0969 47.4333 93.1635 47.3667 93.2969 47.3C93.4302 47.1667 93.5302 47.1333 93.5969 47.2C93.7302 47.2 93.8635 47.1667 93.9969 47.1C94.2635 47.1 94.4969 47 94.6969 46.8C94.9635 46.6 95.1969 46.4667 95.3969 46.4C95.5302 46.2667 95.6635 46.1667 95.7969 46.1C95.9302 45.9667 96.1302 45.8 96.3969 45.6C96.6635 45.4 96.9969 45.1333 97.3969 44.8C97.8635 44.4667 98.4635 44 99.1969 43.4C99.1969 43.4667 99.2302 43.4667 99.2969 43.4C99.3635 43.4 99.4635 43.2667 99.5969 43C99.4635 43.1333 99.3635 43.2 99.2969 43.2C99.3635 43.0667 99.3969 42.9667 99.3969 42.9C99.4635 42.7667 99.6635 42.5667 99.9969 42.3C99.9969 42.3 100.03 42.2667 100.097 42.2C100.097 42.2 100.13 42.1333 100.197 42C100.33 41.8667 100.464 41.7333 100.597 41.6C100.73 41.4667 100.964 41.3667 101.297 41.3C101.43 41.0333 101.73 40.8667 102.197 40.8C102.397 40.6 102.497 40.4 102.497 40.2C102.964 40.0667 103.33 40 103.597 40C103.864 40 104.13 39.8 104.397 39.4C104.397 39.2667 104.43 39.2333 104.497 39.3C104.564 39.3667 104.597 39.3333 104.597 39.2C104.597 39.2 104.63 39.1667 104.697 39.1V39C104.83 38.8667 104.93 38.8667 104.997 39C105.064 39.0667 105.13 39.0667 105.197 39C105.197 38.8667 105.13 38.8 104.997 38.8C104.93 38.8 104.93 38.7333 104.997 38.6C105.13 38.6 105.197 38.6 105.197 38.6C105.264 38.5333 105.264 38.4333 105.197 38.3C105.197 38.1 105.264 38.2333 105.397 38.7C106.197 38.4333 106.664 38.5667 106.797 39.1V39.2C106.797 39.5333 106.697 39.8 106.497 40C106.364 40.2 106.23 40.4 106.097 40.6C106.097 40.7333 106.097 40.8 106.097 40.8C106.097 40.9333 105.997 41.1667 105.797 41.5C105.597 41.7667 105.43 41.9333 105.297 42C105.23 42.3333 105.13 42.5333 104.997 42.6C104.864 42.6667 104.73 42.7667 104.597 42.9C104.464 43.0333 104.33 43.2 104.197 43.4C104.13 43.5333 103.93 43.6667 103.597 43.8C103.064 44.2667 102.73 44.6 102.597 44.8C102.464 44.9333 102.33 45.0667 102.197 45.2C102.13 45.2667 101.997 45.4 101.797 45.6C101.597 45.7333 101.23 46.0333 100.697 46.5C100.564 46.3667 100.397 46.4667 100.197 46.8C100.064 47.0667 99.9302 47.2667 99.7969 47.4C99.2635 47.7333 98.8302 48.0333 98.4969 48.3C98.1635 48.5667 97.8302 48.8333 97.4969 49.1C97.2302 49.3667 96.9302 49.6333 96.5969 49.9C96.2635 50.1 95.8635 50.3333 95.3969 50.6C95.2635 50.5333 95.1302 50.6 94.9969 50.8C94.9302 51 94.8302 51.1667 94.6969 51.3C94.4969 51.3 94.3969 51.3 94.3969 51.3V51C94.3302 51.0667 94.2635 51.1 94.1969 51.1C94.1302 51.0333 94.0969 51.0667 94.0969 51.2C94.0302 51.2667 94.0635 51.3333 94.1969 51.4C94.3302 51.4667 94.3635 51.6 94.2969 51.8H94.0969C93.9635 51.6667 93.9302 51.5667 93.9969 51.5C94.0635 51.4333 94.0969 51.3667 94.0969 51.3C93.7635 51.4333 93.5302 51.6 93.3969 51.8C93.3302 51.9333 93.1969 52.0667 92.9969 52.2C93.1302 52.2 93.2302 52.1667 93.2969 52.1C93.4302 51.9667 93.4969 51.9667 93.4969 52.1C93.4969 52.2333 93.4302 52.4 93.2969 52.6C93.1635 52.7333 93.0635 52.8333 92.9969 52.9C92.9302 52.9667 92.7969 53.0333 92.5969 53.1V52.8C92.2635 52.7333 91.9969 52.8667 91.7969 53.2C91.6635 53.5333 91.3969 53.7 90.9969 53.7C90.9302 53.7 90.9302 53.7 90.9969 53.7C91.0635 53.6333 91.0302 53.5333 90.8969 53.4C90.7635 53.4667 90.6302 53.5 90.4969 53.5C90.3635 53.5 90.2302 53.5667 90.0969 53.7C90.1635 53.8333 90.2302 53.8667 90.2969 53.8C90.3635 53.7333 90.3969 53.7667 90.3969 53.9C90.1302 54.1667 89.6969 54.4333 89.0969 54.7C88.5635 54.9 87.9302 55.0667 87.1969 55.2C86.5302 55.4 85.8635 55.5333 85.1969 55.6C84.5969 55.6667 84.1302 55.6333 83.7969 55.5C83.7302 55.5 83.6635 55.4667 83.5969 55.4C83.5969 55.4 83.5302 55.4 83.3969 55.4C83.1302 55.3333 82.8302 55.3 82.4969 55.3C81.6302 55.1667 80.8302 54.9667 80.0969 54.7C79.4302 54.3667 78.7969 54 78.1969 53.6C78.1969 53.6667 78.2635 53.6333 78.3969 53.5C78.4635 53.3667 78.4302 53.2667 78.2969 53.2C78.1635 53.0667 78.0635 53.1 77.9969 53.3C77.6635 53.0333 77.3969 52.6667 77.1969 52.2C76.9969 51.7333 76.7302 51.3333 76.3969 51C76.3969 50.5333 76.2635 50.2667 75.9969 50.2C75.5969 48.6667 75.4635 46.8667 75.5969 44.8C75.7969 42.6667 76.1302 40.6 76.5969 38.6C76.0635 38.7333 75.6635 38.9667 75.3969 39.3C75.1302 39.5667 74.8302 39.8667 74.4969 40.2C74.2302 40.4667 73.9635 40.6333 73.6969 40.7C73.5635 40.8333 73.3969 41 73.1969 41.2C72.9969 41.3333 72.8302 41.5 72.6969 41.7C70.4302 44.0333 68.0635 46.3333 65.5969 48.6C63.1302 50.8667 60.9302 53.3667 58.9969 56.1L57.8969 56.7C57.7635 56.8333 57.6635 56.9333 57.5969 57C57.5302 57.1333 57.4302 57.2333 57.2969 57.3C57.0302 57.3667 56.7635 57.3667 56.4969 57.3C56.2302 57.3 55.9302 57.3333 55.5969 57.4H55.3969C55.1302 57.4 54.9969 57.3667 54.9969 57.3C54.9969 57.3 54.8969 57.3 54.6969 57.3L54.5969 56.9C54.2635 56.7667 53.9302 56.6667 53.5969 56.6C53.2635 56.6 52.9969 56.5333 52.7969 56.4C52.5302 56.0667 52.3969 55.5333 52.3969 54.8V54.4L52.6969 53.6L52.8969 52.8C52.8969 52.7333 52.9302 52.7 52.9969 52.7C52.9969 52.7 52.9969 52.6333 52.9969 52.5L53.1969 52.2C53.5969 50.7333 54.0969 49.2333 54.6969 47.7C55.4969 45.5667 56.3635 43.4667 57.2969 41.4C58.2969 39.3333 59.2635 37.2667 60.1969 35.2C61.4635 32.3333 62.7302 29.5333 63.9969 26.8C65.2635 24 66.4635 21.2 67.5969 18.4C67.8635 18.3333 68.0302 18.2 68.0969 18L68.9969 15.9C69.7302 14.1 70.4635 12.2667 71.1969 10.4C71.9302 8.53333 72.7635 6.73333 73.6969 5C74.1635 4.26666 74.5302 3.53333 74.7969 2.8C75.0635 2.06666 75.2969 1.3 75.4969 0.499998ZM98.1969 47C98.3302 47.0667 98.4969 46.9 98.6969 46.5C98.8969 46.0333 98.9969 45.7333 98.9969 45.6C98.7302 45.7333 98.5302 45.9667 98.3969 46.3C98.3302 46.5667 98.2635 46.8 98.1969 47ZM100.497 45.2C100.83 45.2 101.097 45.1 101.297 44.9C101.164 44.7667 101.097 44.7 101.097 44.7C101.164 44.8333 101.097 44.9 100.897 44.9C100.764 44.9 100.697 44.9333 100.697 45L100.497 45.2ZM78.8969 53.9C79.0302 53.9 79.1635 53.9667 79.2969 54.1C79.4302 54.1667 79.5635 54.2 79.6969 54.2C79.6969 54.0667 79.5969 53.9667 79.3969 53.9C79.1969 53.7667 79.0302 53.7667 78.8969 53.9ZM92.8969 52.8C92.8969 52.7333 92.8969 52.6333 92.8969 52.5C92.9635 52.3667 92.9635 52.3 92.8969 52.3C92.7635 52.3667 92.6969 52.5 92.6969 52.7C92.6969 52.8333 92.7635 52.8667 92.8969 52.8ZM99.2969 43.2C99.2969 43.2667 99.2635 43.3333 99.1969 43.4C99.1969 43.3333 99.1969 43.3 99.1969 43.3C99.2635 43.3 99.2969 43.2667 99.2969 43.2ZM145.221 44.9C144.888 44.8333 144.588 45 144.321 45.4C144.054 45.7333 143.788 46.0667 143.521 46.4C143.521 46.3333 143.554 46.2333 143.621 46.1C143.088 46.5 142.588 46.9333 142.121 47.4C141.654 47.8 141.154 48.2667 140.621 48.8H140.421V48.7C140.288 48.8333 140.121 49 139.921 49.2C139.788 49.4 139.621 49.4333 139.421 49.3C139.088 49.5 138.821 49.7333 138.621 50C138.488 50.2667 138.288 50.4333 138.021 50.5C137.688 50.8333 137.421 51.1 137.221 51.3C137.021 51.4333 136.721 51.6667 136.321 52C136.321 51.9333 136.254 51.9 136.121 51.9C135.921 52.1667 135.488 52.3667 134.821 52.5C134.088 52.9 133.421 53.3333 132.821 53.8C132.288 54.2 131.721 54.4 131.121 54.4C130.521 54.4667 130.088 54.5333 129.821 54.6C129.554 54.6667 129.254 54.6667 128.921 54.6C128.388 54.6 127.721 54.7333 126.921 55C126.121 55.3333 125.454 55.4 124.921 55.2C124.788 54.8667 124.554 54.6333 124.221 54.5C123.888 54.3 123.554 54.1333 123.221 54C122.954 53.8667 122.754 53.5667 122.621 53.1C121.888 52.6333 121.354 51.9667 121.021 51.1C120.688 50.1667 120.488 49.1333 120.421 48C120.421 46.8 120.521 45.5667 120.721 44.3C120.921 43.0333 121.188 41.8 121.521 40.6C120.588 41.3333 119.688 42.2333 118.821 43.3C117.954 44.3 117.088 45.2667 116.221 46.2C115.888 46.8 115.521 47.3 115.121 47.7C114.721 48.1 114.321 48.4667 113.921 48.8C112.788 50.1333 111.721 51.3 110.721 52.3C110.721 52.3667 110.688 52.4333 110.621 52.5C110.621 52.5 110.588 52.5667 110.521 52.7C109.988 53.1 109.388 53.5667 108.721 54.1C108.054 54.6333 107.354 55.0667 106.621 55.4C105.954 55.8 105.221 56.0333 104.421 56.1C103.688 56.1667 102.921 55.9 102.121 55.3C101.654 55.2333 101.321 55.1 101.121 54.9C100.988 54.6333 100.754 54.4 100.421 54.2C99.6878 53.8667 99.2544 53.4667 99.1211 53C98.9211 52.5333 98.7878 51.8333 98.7211 50.9C98.6544 50.4333 98.7211 49.8333 98.9211 49.1C99.0544 48.3667 99.2544 47.7333 99.5211 47.2C99.8544 45.9333 100.354 44.7667 101.021 43.7C101.688 42.5667 102.321 41.5333 102.921 40.6C104.054 39.0667 105.188 37.6667 106.321 36.4C107.521 35.0667 108.754 33.7667 110.021 32.5C110.421 32.3 110.821 32.0333 111.221 31.7C111.688 31.3667 112.188 31.1 112.721 30.9C113.054 31.0333 113.421 30.9667 113.821 30.7C114.221 30.3667 114.554 30.4333 114.821 30.9C116.221 31.0333 117.454 31.3667 118.521 31.9C119.588 32.4333 120.321 33.3 120.721 34.5C121.188 34.1667 121.621 33.8667 122.021 33.6C122.421 33.3333 122.854 33.1333 123.321 33C123.521 32.9333 123.688 32.8 123.821 32.6C123.954 32.4 124.088 32.3 124.221 32.3C124.888 32.1667 125.488 32.3 126.021 32.7C126.621 33.1 127.188 33.4333 127.721 33.7C127.788 33.6333 127.854 33.6333 127.921 33.7C128.054 33.7 128.221 33.6667 128.421 33.6C128.554 33.8 128.654 33.9667 128.721 34.1C128.788 34.1667 128.854 34.3 128.921 34.5C129.054 35.7 128.888 37 128.421 38.4C128.021 39.8 127.554 40.9667 127.021 41.9C126.754 43.4333 126.388 45.1 125.921 46.9C125.454 48.7 125.421 50.2667 125.821 51.6C128.154 51.3333 130.088 50.7667 131.621 49.9C133.221 48.9667 134.821 48.0667 136.421 47.2C137.021 46.7333 137.554 46.3333 138.021 46C138.554 45.6667 139.054 45.2333 139.521 44.7C139.588 44.7 139.654 44.7333 139.721 44.8V44.9C140.054 44.9 140.721 44.5 141.721 43.7C142.721 42.8333 143.721 41.9667 144.721 41.1C145.788 40.1667 146.754 39.3667 147.621 38.7C148.554 38.0333 149.088 37.8 149.221 38C149.354 38.1333 149.521 38.1667 149.721 38.1C149.921 37.9667 150.088 37.9333 150.221 38C150.288 38.1333 150.288 38.2333 150.221 38.3C150.221 38.3667 150.254 38.4333 150.321 38.5V38.3C150.388 38.3 150.388 38.4 150.321 38.6C150.254 38.7333 150.188 38.9 150.121 39.1C150.054 39.2333 149.988 39.3333 149.921 39.4C149.854 39.4667 149.854 39.4 149.921 39.2C149.788 39.3333 149.621 39.5 149.421 39.7C149.288 39.8333 149.154 39.9667 149.021 40.1C148.888 40.4333 148.788 40.6667 148.721 40.8C148.721 40.9333 148.654 41.1667 148.521 41.5C148.321 41.5 148.188 41.4667 148.121 41.4C147.988 41.7333 147.788 41.9667 147.521 42.1C147.321 42.2333 147.154 42.5 147.021 42.9C146.888 42.9 146.754 43.0667 146.621 43.4L145.221 44.9ZM117.921 36.3C117.788 35.4333 117.521 34.7 117.121 34.1C116.788 33.5 116.154 33.4333 115.221 33.9L113.621 35.7C113.488 35.9 113.321 36.0667 113.121 36.2C112.921 36.2667 112.754 36.3667 112.621 36.5C112.488 36.6333 112.354 36.8333 112.221 37.1C112.088 37.3 111.921 37.5333 111.721 37.8L110.321 39.4C109.588 40.3333 108.854 41.4 108.121 42.6C107.454 43.7333 106.854 44.8333 106.321 45.9C106.188 46.2333 106.021 46.5333 105.821 46.8C105.621 47.0667 105.454 47.4667 105.321 48C105.188 47.9333 105.121 47.9667 105.121 48.1C105.121 48.1667 105.088 48.1667 105.021 48.1C104.888 48.8333 104.654 49.4667 104.321 50C103.988 50.4667 103.821 51.1 103.821 51.9C104.354 51.5667 104.921 51.2333 105.521 50.9C106.121 50.5667 106.621 50.2 107.021 49.8C108.954 47.9333 110.788 46 112.521 44C114.321 41.9333 116.088 39.8333 117.821 37.7C118.021 37.5667 118.188 37.4 118.321 37.2C118.454 36.9333 118.621 36.7667 118.821 36.7V36.5C118.688 36.3667 118.388 36.3 117.921 36.3ZM176.185 44.1C176.185 44.2333 176.118 44.3333 175.985 44.4C175.918 44.4667 175.952 44.5 176.085 44.5C175.752 44.9667 175.218 45.6 174.485 46.4C173.818 47.1333 173.385 47.7 173.185 48.1C173.052 48.1 172.785 48.1667 172.385 48.3C172.518 48.1 172.718 47.9 172.985 47.7C173.318 47.5 173.585 47.3333 173.785 47.2C173.785 47.0667 173.852 46.8667 173.985 46.6C174.118 46.2667 174.252 45.9667 174.385 45.7C174.252 45.7667 174.085 46 173.885 46.4C173.685 46.8 173.518 47.0667 173.385 47.2C172.985 47.6 172.585 47.9 172.185 48.1C171.785 48.2333 171.418 48.5667 171.085 49.1C170.418 49.3667 169.852 49.8667 169.385 50.6C168.985 51.3333 168.418 51.7667 167.685 51.9C167.618 52.1 167.552 52.2333 167.485 52.3C167.418 52.3 167.318 52.3667 167.185 52.5C167.118 52.3667 167.085 52.2667 167.085 52.2C167.152 52.0667 167.152 52 167.085 52L166.185 52.8C165.852 52.9333 165.552 53.1333 165.285 53.4C165.085 53.6 164.818 53.7 164.485 53.7C164.485 53.7 164.518 53.6667 164.585 53.6C164.318 53.7333 164.152 53.8667 164.085 54C164.018 54.0667 163.952 54.1333 163.885 54.2C163.885 54.2667 163.852 54.3667 163.785 54.5C163.718 54.5667 163.552 54.6333 163.285 54.7C163.152 54.7 163.085 54.6667 163.085 54.6C162.818 54.6667 162.552 54.8 162.285 55C162.085 55.2667 161.818 55.4 161.485 55.4C161.485 55.2667 161.552 55.2 161.685 55.2C161.285 55.1333 161.018 55.2333 160.885 55.5C160.885 55.5 160.818 55.5 160.685 55.5L158.085 56.9C157.552 57.1 156.952 57.3 156.285 57.5C155.618 57.7 155.018 57.8333 154.485 57.9C153.485 58.3667 152.418 58.4667 151.285 58.2C150.152 58 149.018 57.6333 147.885 57.1C147.085 56.6333 146.385 56.2667 145.785 56C145.185 55.7333 144.718 55.4 144.385 55C144.052 54.6667 143.818 54.2667 143.685 53.8C143.552 53.2667 143.485 52.5333 143.485 51.6C143.485 51.4667 143.518 51.4 143.585 51.4C143.652 51.3333 143.685 51.2333 143.685 51.1C143.618 49.9667 143.752 48.6333 144.085 47.1C144.418 45.5667 144.752 44.1333 145.085 42.8C145.218 42.4667 145.285 42.1667 145.285 41.9C145.285 41.6333 145.385 41.3667 145.585 41.1C145.918 39.7 146.352 38.2667 146.885 36.8C147.418 35.2667 147.985 33.8 148.585 32.4C148.718 32.0667 148.785 31.9 148.785 31.9C148.785 31.8333 148.752 31.8 148.685 31.8L149.085 31.1C149.618 30.0333 150.252 28.7333 150.985 27.2C151.785 25.6667 152.352 24.3 152.685 23.1C152.418 23.3 152.318 23.3667 152.385 23.3C152.452 23.1667 152.318 23.1 151.985 23.1C151.518 23.2333 151.052 23.4 150.585 23.6C150.185 23.7333 149.752 23.8 149.285 23.8C148.752 23.9333 148.285 24.0667 147.885 24.2C147.485 24.3333 147.052 24.4333 146.585 24.5C145.785 24.6333 145.285 24.7 145.085 24.7C144.885 24.7 144.752 24.7 144.685 24.7C144.685 24.7 144.585 24.7333 144.385 24.8C144.252 24.8667 143.785 25 142.985 25.2C142.585 25.0667 142.118 25.1333 141.585 25.4C140.985 25.6667 140.418 25.7667 139.885 25.7C139.752 25.6333 139.685 25.6 139.685 25.6C139.618 25.5333 139.518 25.5 139.385 25.5C138.852 25.7 138.452 25.7333 138.185 25.6C137.852 25.4 137.585 25.1333 137.385 24.8C137.518 24.4 137.452 24.0333 137.185 23.7C136.918 23.3667 136.785 23.0333 136.785 22.7L137.185 23C138.585 22.7333 139.785 22.4333 140.785 22.1C141.785 21.7 142.885 21.3 144.085 20.9C145.285 20.5 146.718 20.1 148.385 19.7C150.052 19.3 152.252 18.9333 154.985 18.6C156.318 15.8667 157.685 13.3667 159.085 11.1C160.485 8.83333 161.952 6.5 163.485 4.1V3.6C163.618 3.46666 163.752 3.46666 163.885 3.6C164.085 3.66667 164.252 3.63333 164.385 3.5C164.318 3.7 164.352 3.83333 164.485 3.9C164.685 3.9 164.785 3.96666 164.785 4.1C165.118 4.16667 165.518 4.3 165.985 4.5C166.452 4.7 166.885 4.96666 167.285 5.3C167.685 5.63333 167.985 6 168.185 6.4C168.385 6.73333 168.385 7.1 168.185 7.5L167.285 8.2C167.218 8.33333 167.185 8.46666 167.185 8.6C166.985 9.2 166.652 9.76666 166.185 10.3C165.785 10.7667 165.452 11.2667 165.185 11.8C164.852 12.3333 164.585 12.8 164.385 13.2C164.252 13.6 164.018 14.1 163.685 14.7C163.352 15.3667 162.985 15.8667 162.585 16.2C162.185 16.4667 161.918 16.9667 161.785 17.7C162.918 17.5667 163.985 17.4667 164.985 17.4C165.985 17.3333 167.052 17.3 168.185 17.3C169.252 17.0333 170.185 16.9 170.985 16.9C171.785 16.9 172.285 16.9 172.485 16.9C172.818 16.9 173.018 16.9 173.085 16.9C173.218 16.9 173.285 16.9 173.285 16.9C173.352 16.9 173.418 16.9 173.485 16.9C173.552 16.9 173.718 16.8667 173.985 16.8C174.585 16.9333 175.152 16.9 175.685 16.7C176.285 16.5 176.918 16.5 177.585 16.7C177.785 16.7 177.985 16.7333 178.185 16.8C178.452 16.8667 178.718 16.8667 178.985 16.8C178.918 16.8667 178.952 16.8667 179.085 16.8C179.218 16.7333 179.352 16.7 179.485 16.7L179.385 16.8C179.785 16.9333 180.085 16.9333 180.285 16.8C180.085 16.6667 179.952 16.6 179.885 16.6C179.885 16.5333 180.152 16.6 180.685 16.8C181.218 16.8 181.885 16.8667 182.685 17C183.485 17.0667 184.152 17.4 184.685 18C184.752 18.0667 184.752 18.2 184.685 18.4C184.685 18.5333 184.718 18.6667 184.785 18.8C184.718 18.8667 184.652 18.9 184.585 18.9C184.518 18.9 184.485 18.9667 184.485 19.1C184.552 19.1667 184.585 19.2333 184.585 19.3C184.652 19.3 184.785 19.3333 184.985 19.4C184.852 19.5333 184.652 19.6 184.385 19.6C184.452 19.8667 184.652 20.1 184.985 20.3C184.852 20.4333 184.685 20.5 184.485 20.5C184.352 20.5 184.252 20.5667 184.185 20.7C184.052 20.7 183.918 20.6667 183.785 20.6C183.318 20.6667 182.885 20.6667 182.485 20.6C182.152 20.5333 181.718 20.6333 181.185 20.9C180.852 20.7 180.652 20.6333 180.585 20.7C180.518 20.7667 180.385 20.7667 180.185 20.7C180.185 20.5667 180.218 20.5333 180.285 20.6C180.352 20.6 180.385 20.5333 180.385 20.4C180.118 20.4 179.952 20.4667 179.885 20.6C179.818 20.6667 179.752 20.7333 179.685 20.8C179.685 20.8667 179.652 20.9 179.585 20.9C179.518 20.8333 179.385 20.7 179.185 20.5C178.918 20.6333 178.785 20.7 178.785 20.7L178.685 20.8H178.585C178.452 20.8 178.385 20.8 178.385 20.8C178.452 20.7333 178.452 20.6667 178.385 20.6C178.185 20.7333 178.085 20.8333 178.085 20.9C177.952 20.6333 177.685 20.6 177.285 20.8C176.952 20.9333 176.885 20.8333 177.085 20.5C176.952 20.5 176.852 20.6333 176.785 20.9C176.785 21.1 176.618 21.1 176.285 20.9C176.418 20.6333 176.485 20.5333 176.485 20.6C176.552 20.6 176.585 20.5333 176.585 20.4C176.518 20.4 176.418 20.4333 176.285 20.5C176.152 20.5667 176.052 20.7 175.985 20.9C175.985 20.9 175.985 20.8 175.985 20.6C175.718 20.6 175.585 20.7333 175.585 21C175.585 21 175.585 20.9 175.585 20.7C175.385 20.5667 175.252 20.5333 175.185 20.6C175.118 20.6667 174.985 20.7 174.785 20.7C174.652 20.5667 174.652 20.5333 174.785 20.6C174.918 20.6 175.052 20.5333 175.185 20.4C175.052 20.4 174.885 20.4 174.685 20.4C174.485 20.4 174.352 20.4667 174.285 20.6C173.885 20.3333 173.552 20.3333 173.285 20.6C173.352 20.7333 173.452 20.7333 173.585 20.6C173.785 20.4667 173.918 20.4667 173.985 20.6C173.918 20.6667 173.785 20.7333 173.585 20.8C173.385 20.8667 173.185 20.9333 172.985 21C172.852 21 172.752 21 172.685 21C172.618 20.9333 172.652 20.8333 172.785 20.7H172.385V20.6C172.318 20.6 172.285 20.6333 172.285 20.7V20.6C172.218 20.6 172.152 20.5667 172.085 20.5C172.085 20.4333 172.052 20.4667 171.985 20.6C172.052 20.6 172.085 20.6333 172.085 20.7C172.085 20.7 172.118 20.7 172.185 20.7C171.918 20.8333 171.785 20.9667 171.785 21.1C171.785 21.1667 171.718 21.1 171.585 20.9C171.585 20.6333 171.385 20.5333 170.985 20.6C170.585 20.6 170.218 20.6667 169.885 20.8V20.6C169.685 20.7333 169.418 20.8667 169.085 21C168.818 21.1333 168.552 21.0667 168.285 20.8C168.418 20.7333 168.518 20.7 168.585 20.7C168.652 20.7 168.718 20.6667 168.785 20.6C168.785 20.4667 168.752 20.4 168.685 20.4C168.618 20.4 168.585 20.3667 168.585 20.3C168.452 20.3 168.352 20.3333 168.285 20.4C168.218 20.4667 168.118 20.5333 167.985 20.6C167.918 20.6 167.885 20.5333 167.885 20.4C167.885 20.3333 167.918 20.3 167.985 20.3C167.652 20.3 167.518 20.2667 167.585 20.2C167.452 20.2 167.385 20.3333 167.385 20.6C167.385 20.8667 167.318 21.0667 167.185 21.2C166.852 21.2 166.552 21.2333 166.285 21.3C166.085 21.3 165.752 21.3 165.285 21.3C165.285 21.1667 165.318 21.1333 165.385 21.2C165.518 21.2 165.585 21.1333 165.585 21C165.518 21 165.485 21 165.485 21C165.485 20.9333 165.452 20.9 165.385 20.9H165.285C165.152 20.9 165.018 20.9333 164.885 21C164.752 21 164.618 21 164.485 21C164.352 21.3333 164.152 21.4667 163.885 21.4C163.685 21.2667 163.518 21.2667 163.385 21.4V21.3C163.185 21.3 163.052 21.3667 162.985 21.5C163.185 21.5667 163.318 21.5333 163.385 21.4C163.452 21.5333 163.485 21.5667 163.485 21.5C163.552 21.4333 163.585 21.4667 163.585 21.6C163.585 21.7333 163.518 21.8 163.385 21.8C163.318 21.8 163.218 21.8667 163.085 22C162.885 22 162.718 21.9667 162.585 21.9C162.452 21.7667 162.285 21.7667 162.085 21.9C161.752 21.9 161.352 21.9333 160.885 22C160.485 22.0667 160.118 22.1333 159.785 22.2C159.518 22.3333 159.352 22.5 159.285 22.7C159.218 22.8333 159.118 23.0333 158.985 23.3C158.518 24.5 157.852 25.9333 156.985 27.6C156.118 29.2667 155.418 30.8333 154.885 32.3C154.685 32.9 154.518 33.3333 154.385 33.6C154.318 33.8667 154.218 34.1 154.085 34.3C154.018 34.4333 153.918 34.6333 153.785 34.9C153.718 35.1667 153.585 35.6333 153.385 36.3C152.652 37.5 152.085 39 151.685 40.8C151.285 42.5333 150.918 44.3 150.585 46.1C150.452 46.7 150.285 47.3 150.085 47.9C149.885 48.5 149.752 49.1333 149.685 49.8C149.618 50.8 149.418 51.7333 149.085 52.6C148.818 53.4 148.952 54.2667 149.485 55.2C149.618 55.2667 149.652 55.2667 149.585 55.2C149.518 55.2 149.618 55.2 149.885 55.2C150.418 55.2 151.085 55.1333 151.885 55C152.685 54.8 153.385 54.5667 153.985 54.3C154.718 54.1 155.452 53.8667 156.185 53.6C156.985 53.2667 157.718 53 158.385 52.8C158.518 52.6667 158.585 52.6333 158.585 52.7C158.652 52.7 158.685 52.6333 158.685 52.5C158.885 52.4333 159.085 52.4 159.285 52.4C159.485 52.3333 159.618 52.1667 159.685 51.9C160.085 51.7667 160.385 51.6667 160.585 51.6C160.852 51.4667 161.052 51.3333 161.185 51.2C161.385 51.0667 161.585 50.9667 161.785 50.9C161.985 50.7667 162.285 50.6333 162.685 50.5V50.1C162.952 50.3 163.352 50.1 163.885 49.5C163.952 49.5 164.018 49.5333 164.085 49.6C164.685 49.2 165.352 48.7667 166.085 48.3C166.885 47.8333 167.618 47.3667 168.285 46.9C168.618 46.8333 169.152 46.5 169.885 45.9C170.618 45.3 171.352 44.6333 172.085 43.9C172.885 43.1667 173.585 42.5 174.185 41.9C174.785 41.2333 175.152 40.8333 175.285 40.7C175.352 40.7667 175.418 40.8 175.485 40.8C175.552 40.4 175.585 40.1667 175.585 40.1C175.652 40.0333 175.685 40 175.685 40C175.752 40 175.785 40 175.785 40C175.852 39.9333 175.985 39.7667 176.185 39.5C176.185 39.3 176.218 39.2 176.285 39.2C176.485 39.0667 176.618 38.9667 176.685 38.9C176.752 38.8333 176.852 38.7 176.985 38.5C177.385 38.5667 177.652 38.3333 177.785 37.8C178.252 37.9333 178.552 38.1 178.685 38.3C178.885 38.4333 179.052 38.4333 179.185 38.3C179.185 38.4333 179.252 38.5333 179.385 38.6C179.518 38.6 179.652 38.6 179.785 38.6C179.785 38.7333 179.752 38.8 179.685 38.8C179.685 38.8 179.685 38.8333 179.685 38.9C179.818 38.9667 179.718 39.0667 179.385 39.2C179.118 39.3333 179.152 39.4333 179.485 39.5C179.485 39.6333 179.418 39.8333 179.285 40.1C179.352 40.1 179.452 40.2 179.585 40.4C179.452 40.4 178.885 41.1667 177.885 42.7H177.985C177.918 42.7667 177.852 42.8 177.785 42.8C177.518 43.0667 177.385 43.1667 177.385 43.1L176.785 43.6V43.4C176.652 43.5333 176.585 43.6667 176.585 43.8C176.585 43.8667 176.518 43.9333 176.385 44C176.318 44.0667 176.285 44.1667 176.285 44.3V44.2C176.285 44.1333 176.252 44.1 176.185 44.1ZM178.085 42C178.018 42 178.085 41.9 178.285 41.7V41.6L178.085 41.7C177.952 41.9 177.785 42.1 177.585 42.3C177.452 42.4333 177.318 42.5667 177.185 42.7V42.4C176.918 42.8 176.818 43.1333 176.885 43.4L177.085 43.2H176.985L177.085 42.8C177.218 42.8 177.318 42.8333 177.385 42.9C177.385 42.7 177.518 42.5333 177.785 42.4L178.085 41.9V42ZM169.385 50.2C169.585 50 169.752 49.8333 169.885 49.7C170.085 49.5667 170.252 49.3667 170.385 49.1C170.185 49.2333 169.918 49.4 169.585 49.6C169.318 49.8 169.252 50 169.385 50.2ZM171.785 49.3C171.985 48.9667 172.185 48.7667 172.385 48.7C172.652 48.5667 172.918 48.4 173.185 48.2V48.3C172.918 48.4333 172.652 48.6 172.385 48.8C172.185 49 171.985 49.1667 171.785 49.3ZM178.785 19.3C178.652 19.4333 178.485 19.4667 178.285 19.4C178.152 19.2667 178.018 19.2667 177.885 19.4C178.018 19.4667 178.218 19.5333 178.485 19.6C178.752 19.6 178.852 19.5 178.785 19.3ZM173.885 47.2C173.818 46.8667 173.952 46.5667 174.285 46.3C174.618 46.0333 174.785 45.8333 174.785 45.7C174.918 45.8333 174.818 46.1 174.485 46.5C174.218 46.8333 174.018 47.0667 173.885 47.2ZM170.785 48.5C171.052 48.5667 171.218 48.5333 171.285 48.4C171.352 48.2667 171.452 48.1333 171.585 48C171.585 47.7333 171.618 47.5667 171.685 47.5C171.552 47.5 171.485 47.6 171.485 47.8C171.485 47.8 171.518 47.8667 171.585 48C171.452 48.0667 171.318 48.1667 171.185 48.3C171.052 48.3667 170.918 48.4333 170.785 48.5ZM162.085 21.4C162.218 21.5333 162.318 21.5667 162.385 21.5C162.452 21.4333 162.518 21.4 162.585 21.4C162.585 21.3333 162.618 21.3 162.685 21.3C162.752 21.2333 162.718 21.1333 162.585 21C162.585 21.1333 162.518 21.2333 162.385 21.3C162.252 21.3 162.152 21.3333 162.085 21.4ZM170.785 48.9C170.852 49.0333 170.952 49.0667 171.085 49C171.285 48.8667 171.318 48.7333 171.185 48.6C171.118 48.7333 171.018 48.8 170.885 48.8C170.818 48.7333 170.785 48.7667 170.785 48.9ZM170.685 47.4C170.818 47.4667 170.952 47.4333 171.085 47.3C171.218 47.1667 171.252 47.0333 171.185 46.9C171.052 47.0333 170.952 47.1333 170.885 47.2C170.885 47.2667 170.818 47.3333 170.685 47.4ZM172.285 20.8C172.218 20.8 172.185 20.7667 172.185 20.7H172.285C172.352 20.7 172.385 20.7 172.385 20.7C172.518 20.9 172.518 21 172.385 21C172.318 20.9333 172.285 20.8667 172.285 20.8ZM161.785 21.5C161.785 21.4333 161.818 21.4 161.885 21.4C161.952 21.4 161.985 21.3667 161.985 21.3C161.718 21.1667 161.652 21.2333 161.785 21.5ZM169.985 21C169.718 21.0667 169.585 21.1 169.585 21.1C169.652 21.0333 169.752 20.9333 169.885 20.8C169.885 20.9333 169.918 21 169.985 21ZM177.285 43C177.152 42.9333 177.085 42.9667 177.085 43.1C177.152 43.1667 177.152 43.2 177.085 43.2L177.285 43ZM165.285 20.9C165.285 21.0333 165.218 21.1 165.085 21.1C165.218 20.9667 165.285 20.9 165.285 20.9ZM178.085 42.2C178.218 42.0667 178.285 41.9667 178.285 41.9L178.085 42.1V42.2ZM171.985 47.4C172.052 47.4667 172.085 47.4 172.085 47.2C172.085 47.2667 172.052 47.3333 171.985 47.4ZM165.085 21.2C164.952 21.1333 164.952 21.1 165.085 21.1V21.2ZM173.285 48.1C173.218 48.1667 173.185 48.2 173.185 48.2V48.1H173.285ZM178.085 42.2C178.085 42.2667 178.052 42.3 177.985 42.3C178.052 42.3 178.085 42.2667 178.085 42.2ZM176.085 44.5L176.185 44.4L176.085 44.5Z" fill="#0C8A37"/>
</svg>
