<svg width="69" height="69" viewBox="0 0 69 69" fill="none" xmlns="http://www.w3.org/2000/svg">
<path d="M62.1156 32.8582C62.1156 27.9341 59.4022 26.597 55.3179 24.4015C52.7997 23.0478 45.8255 22.0818 44.6359 20.643C38.3912 13.09 25.5924 33.9694 25.2139 38.9136C24.0796 53.7305 27.4775 57.2887 44.6359 57.2887C56.5928 57.2887 66 50.4035 66 38.496C66 26.2499 61.1933 18.3633 52.4046 10.307C42.9133 1.60653 27.2314 5.91801 15.503 6.54848C5.18943 7.10289 3.84981 23.4262 3.84981 30.0393C3.84981 41.5876 7.99284 49.4961 19.4953 54.3654C31.8194 59.5825 42.0212 58.206 48.9519 46.0131C54.2935 36.6156 59.1922 15.3467 48.3045 8.32335C25.7869 -6.20202 14.0084 11.4272 6.65521 32.023C1.22955 47.22 0.135937 56.3008 15.503 63.3441C32.7856 71.2654 48.3715 60.1996 57.1522 46.8483C61.2376 40.6364 62.5202 25.263 62.1156 17.8241C61.5715 7.82141 44.3947 1.69264 36.8671 6.54848" stroke="#00D959" stroke-width="6" stroke-linecap="round"/>
<path d="M29 25C28.5006 25.809 28.8027 27.7195 28.4167 28.72C28.1373 29.4442 28.2392 30.311 28 31" stroke="black" stroke-width="7" stroke-linecap="round"/>
<path d="M41 25C40.9206 27.0583 40.6114 29.2392 40 31" stroke="black" stroke-width="7" stroke-linecap="round"/>
<path d="M15 38.2632C15.5577 38.4257 16.0151 39.0968 16.4896 39.4181C17.3694 40.0139 18.3632 40.3827 19.3935 40.6462C22.1346 41.3471 25.0975 42.3778 27.9097 42.6783C31.02 43.0108 34.1298 43 37.2535 43C39.2687 43 41.2223 42.4736 43.2569 42.4736C47.2147 42.4736 50.6879 39.6091 54 38" stroke="black" stroke-width="7" stroke-linecap="round"/>
</svg>
