<svg width="75" height="70" viewBox="0 0 75 70" fill="none" xmlns="http://www.w3.org/2000/svg">
<circle cx="37.999" cy="36" r="29" fill="#287EFF"/>
<path d="M57.7513 66C46.314 66 54.2984 63.3441 62.4988 61C70.6992 58.6559 65.4992 41.5945 62.4991 27.5C59.4991 13.4055 60.6649 -4 18.3467 24.4015C-23.9715 52.803 32.8241 57.2887 49.9826 57.2887C61.9395 57.2887 71.3467 50.4035 71.3467 38.496C71.3467 26.2499 66.54 18.3633 57.7513 10.307C48.26 1.60653 32.5781 5.91806 20.8497 6.54853C10.5361 7.10294 6.40347 22 6.40347 34.5C6.40347 47 13.3395 49.4961 24.842 54.3654C37.1661 59.5825 47.3679 58.206 54.2985 46.0131C59.6402 36.6156 64.5389 15.3467 53.6511 8.32335C31.1335 -6.20202 19.3551 11.4272 12.0019 32.023C6.57626 47.22 5.48264 56.3008 20.8497 63.3441C38.1323 71.2654 53.7181 60.1996 62.4989 46.8483C66.5843 40.6364 67.8669 25.263 67.4623 17.8241C66.9182 7.82141 49.7414 1.69269 42.2138 6.54853" stroke="#287EFF" stroke-width="6" stroke-linecap="round"/>
<path d="M55.5 59.5C53.8607 59.5 52.781 57.8976 59.5 56C66.219 54.1024 60.2089 40.2432 57.7508 28.8333C55.2926 17.4235 56.2479 3.33333 21.5745 26.325C-13.0989 49.3168 33.4366 52.948 47.4953 52.948C57.2922 52.948 65 47.3743 65 37.7349C65 27.8213 61.0616 21.437 53.8607 14.9152C46.0839 7.87196 34.6097 10.4896 25 11C16.5496 11.4488 11.5 19.4872 11.5 36C11.5 52.5128 17.4719 46.6397 26.8964 50.5815C36.9942 54.8049 45.353 53.6906 51.0316 43.8201C55.4083 36.2126 59.422 18.9949 50.5012 13.3094C32.0514 1.55074 22.4007 15.822 16.3759 32.4948C11.9304 44.7971 11.0343 52.1483 23.6253 57.85C37.7858 64.2624 50.5561 55.3045 57.7506 44.4963C61.098 39.4676 62.1489 27.0224 61.8173 21.0005C61.3715 12.903 47.2978 7.9417 41.13 11.8726" stroke="black" stroke-width="6" stroke-linecap="round"/>
<circle cx="38" cy="34" r="26" fill="black"/>
<path d="M33.001 26C32.5016 26.809 32.8036 28.7195 32.4176 29.72C32.1382 30.4442 32.2402 31.311 32.001 32" stroke="#287EFF" stroke-width="7" stroke-linecap="round"/>
<path d="M45.001 26C44.9216 28.0583 44.6123 30.2392 44.001 32" stroke="#287EFF" stroke-width="7" stroke-linecap="round"/>
<path d="M68.999 65C68.9196 65.3431 68.6104 65.7065 67.999 66" stroke="#287EFF" stroke-width="7" stroke-linecap="round"/>
<path d="M19.001 37.2632C19.5587 37.4257 20.016 38.0968 20.4906 38.4181C21.3704 39.0139 22.3642 39.3827 23.3945 39.6462C26.1356 40.3471 29.0985 41.3778 31.9107 41.6783C35.0209 42.0108 38.1307 42 41.2544 42C43.2697 42 45.2233 41.4736 47.2579 41.4736C51.2157 41.4736 54.6889 38.6091 58.001 37" stroke="#287EFF" stroke-width="7" stroke-linecap="round"/>
</svg>
