<svg width="75" height="70" viewBox="0 0 75 70" fill="none" xmlns="http://www.w3.org/2000/svg">
<path d="M57.7516 66C46.3142 66 54.2987 63.3441 62.4991 61C70.6995 58.6559 65.4994 41.5945 62.4994 27.5C59.4993 13.4055 60.6651 -4 18.3469 24.4015C-23.9712 52.803 32.8244 57.2887 49.9828 57.2887C61.9398 57.2887 71.3469 50.4035 71.3469 38.496C71.3469 26.2499 66.5402 18.3633 57.7516 10.307C48.2602 1.60653 32.5784 5.91806 20.8499 6.54853C10.5364 7.10294 9.19674 23.4262 9.19674 30.0393C9.19674 41.5876 13.3398 49.4961 24.8422 54.3654C37.1664 59.5825 47.3681 58.206 54.2988 46.0131C59.6405 36.6156 64.5391 15.3467 53.6514 8.32335C31.1338 -6.20202 19.3553 11.4272 12.0022 32.023C6.57651 47.22 5.48289 56.3008 20.8499 63.3441C38.1325 71.2654 53.7184 60.1996 62.4992 46.8483C66.5846 40.6364 67.8672 25.263 67.4625 17.8241C66.9185 7.82141 49.7417 1.69269 42.214 6.54853" stroke="#6028FF" stroke-width="6" stroke-linecap="round"/>
<path d="M33.9998 25C33.5004 25.809 33.8024 27.7195 33.4164 28.72C33.137 29.4442 33.239 30.311 32.9998 31" stroke="black" stroke-width="7" stroke-linecap="round"/>
<path d="M45.9998 25C45.9203 27.0583 45.6111 29.2392 44.9998 31" stroke="black" stroke-width="7" stroke-linecap="round"/>
<path d="M69 65C68.9206 65.3431 68.6114 65.7065 68 66" stroke="#6028FF" stroke-width="7" stroke-linecap="round"/>
<path d="M19.9998 38.2632C20.5575 38.4257 21.0148 39.0968 21.4893 39.4181C22.3692 40.0139 23.363 40.3827 24.3933 40.6462C27.1344 41.3471 30.0973 42.3778 32.9095 42.6783C36.0197 43.0108 39.1295 43 42.2532 43C44.2684 43 46.222 42.4736 48.2567 42.4736C52.2145 42.4736 55.6876 39.6091 58.9998 38" stroke="black" stroke-width="7" stroke-linecap="round"/>
</svg>
