<svg width="229" height="44" viewBox="0 0 229 44" fill="none" xmlns="http://www.w3.org/2000/svg">
<path d="M28.4895 35.8871C23.5827 35.8871 27.0082 34.7477 30.5263 33.742C34.0445 32.7363 31.8136 25.4166 30.5265 19.3697C29.2394 13.3228 29.7395 5.85548 11.584 18.0404C-6.57146 30.2253 17.7952 32.1498 25.1566 32.1498C30.2864 32.1498 34.3223 29.1959 34.3223 24.0873C34.3223 18.8334 32.2601 15.4499 28.4895 11.9935C24.4175 8.26081 17.6897 10.1106 12.6579 10.381C8.23311 10.6189 6.4601 17.0101 6.4601 22.3729C6.4601 27.7357 9.43584 28.8066 14.3707 30.8956C19.658 33.1339 24.0348 32.5433 27.0082 27.3123C29.2999 23.2805 31.4016 14.1557 26.7305 11.1425C17.0699 4.91076 12.0166 12.4741 8.86197 21.3102C6.53424 27.8301 6.06505 31.726 12.6579 34.7477C20.0725 38.1461 26.7592 33.3986 30.5264 27.6706C32.2791 25.0055 32.8294 18.41 32.6558 15.2185C32.4223 10.9271 25.0531 8.29778 21.8236 10.381" stroke="white" stroke-width="9" stroke-linecap="round"/>
<path d="M27.5249 33.0976C26.8215 33.0976 26.3584 32.4101 29.241 31.596C32.1236 30.7819 29.5451 24.8359 28.4905 19.9409C27.4359 15.0458 27.8457 9.00075 12.97 18.8647C-1.90569 28.7287 18.0591 30.2866 24.0907 30.2866C28.2938 30.2866 31.6006 27.8953 31.6006 23.7598C31.6006 19.5067 29.9109 16.7676 26.8215 13.9696C23.4851 10.9479 18.5624 12.071 14.4396 12.2899C10.8142 12.4825 8.64783 15.9312 8.64783 23.0155C8.64783 30.0999 11.2099 27.5802 15.2532 29.2713C19.5854 31.0833 23.1715 30.6052 25.6078 26.3705C27.4855 23.1067 29.2075 15.7199 25.3802 13.2807C17.4648 8.23598 13.3245 14.3587 10.7397 21.5117C8.83247 26.7897 8.44804 29.9435 13.8499 32.3897C19.925 35.1408 25.4038 31.2976 28.4904 26.6606C29.9265 24.5032 30.3774 19.1639 30.2351 16.5804C30.0439 13.1064 24.0059 10.9779 21.3598 12.6643" stroke="black" stroke-width="6" stroke-linecap="round"/>
<circle cx="20.015" cy="22.1583" r="11.1546" fill="black"/>
<path d="M17.8734 18.7261C17.6591 19.0731 17.7887 19.8928 17.6231 20.322C17.5032 20.6328 17.547 21.0046 17.4443 21.3002" stroke="white" stroke-width="4" stroke-linecap="round"/>
<path d="M23.0218 18.7261C22.9877 19.6091 22.8551 20.5448 22.5928 21.3002" stroke="white" stroke-width="4" stroke-linecap="round"/>
<path d="M40.807 38.9553C40.7729 39.1025 40.6402 39.2584 40.3779 39.3843" stroke="white" stroke-width="2" stroke-linecap="round"/>
<path d="M11.8672 25.8019C12.1065 25.8716 12.3027 26.1595 12.5063 26.2974C12.8837 26.553 13.3101 26.7112 13.7521 26.8242C14.9281 27.1249 16.1993 27.5671 17.4058 27.6961C18.7401 27.8387 20.0743 27.8341 21.4145 27.8341C22.279 27.8341 23.1172 27.6083 23.9901 27.6083C25.6881 27.6083 27.1781 26.3793 28.5991 25.689" stroke="white" stroke-width="4" stroke-linecap="round"/>
<path d="M48.2101 34.21C49.3621 33.214 50.2681 32.398 50.9281 31.762C51.6001 31.114 52.1581 30.442 52.6021 29.746C53.0461 29.05 53.2681 28.354 53.2681 27.658C53.2681 26.938 53.0941 26.374 52.7461 25.966C52.4101 25.558 51.8761 25.354 51.1441 25.354C50.4361 25.354 49.8841 25.582 49.4881 26.038C49.1041 26.482 48.9001 27.082 48.8761 27.838H46.8961C46.9321 26.47 47.3401 25.426 48.1201 24.706C48.9121 23.974 49.9141 23.608 51.1261 23.608C52.4341 23.608 53.4541 23.968 54.1861 24.688C54.9301 25.408 55.3021 26.368 55.3021 27.568C55.3021 28.432 55.0801 29.266 54.6361 30.07C54.2041 30.862 53.6821 31.576 53.0701 32.212C52.4701 32.836 51.7021 33.562 50.7661 34.39L49.9561 35.11H55.6621V36.82H46.9141V35.326L48.2101 34.21ZM57.4648 30.268C57.4648 28.192 57.8128 26.572 58.5088 25.408C59.2168 24.232 60.4288 23.644 62.1448 23.644C63.8608 23.644 65.0668 24.232 65.7628 25.408C66.4708 26.572 66.8248 28.192 66.8248 30.268C66.8248 32.368 66.4708 34.012 65.7628 35.2C65.0668 36.376 63.8608 36.964 62.1448 36.964C60.4288 36.964 59.2168 36.376 58.5088 35.2C57.8128 34.012 57.4648 32.368 57.4648 30.268ZM64.8088 30.268C64.8088 29.296 64.7428 28.474 64.6108 27.802C64.4908 27.13 64.2388 26.584 63.8548 26.164C63.4708 25.732 62.9008 25.516 62.1448 25.516C61.3888 25.516 60.8188 25.732 60.4348 26.164C60.0508 26.584 59.7928 27.13 59.6608 27.802C59.5408 28.474 59.4808 29.296 59.4808 30.268C59.4808 31.276 59.5408 32.122 59.6608 32.806C59.7808 33.49 60.0328 34.042 60.4168 34.462C60.8128 34.882 61.3888 35.092 62.1448 35.092C62.9008 35.092 63.4708 34.882 63.8548 34.462C64.2508 34.042 64.5088 33.49 64.6288 32.806C64.7488 32.122 64.8088 31.276 64.8088 30.268ZM70.13 34.21C71.282 33.214 72.188 32.398 72.848 31.762C73.52 31.114 74.078 30.442 74.522 29.746C74.966 29.05 75.188 28.354 75.188 27.658C75.188 26.938 75.014 26.374 74.666 25.966C74.33 25.558 73.796 25.354 73.064 25.354C72.356 25.354 71.804 25.582 71.408 26.038C71.024 26.482 70.82 27.082 70.796 27.838H68.816C68.852 26.47 69.26 25.426 70.04 24.706C70.832 23.974 71.834 23.608 73.046 23.608C74.354 23.608 75.374 23.968 76.106 24.688C76.85 25.408 77.222 26.368 77.222 27.568C77.222 28.432 77 29.266 76.556 30.07C76.124 30.862 75.602 31.576 74.99 32.212C74.39 32.836 73.622 33.562 72.686 34.39L71.876 35.11H77.582V36.82H68.834V35.326L70.13 34.21ZM79.3487 27.118C79.4207 26.002 79.8467 25.132 80.6267 24.508C81.4187 23.884 82.4267 23.572 83.6507 23.572C84.4907 23.572 85.2167 23.722 85.8287 24.022C86.4407 24.322 86.9027 24.73 87.2147 25.246C87.5267 25.762 87.6827 26.344 87.6827 26.992C87.6827 27.736 87.4847 28.372 87.0887 28.9C86.6927 29.428 86.2187 29.782 85.6667 29.962V30.034C86.3747 30.25 86.9267 30.646 87.3227 31.222C87.7187 31.786 87.9167 32.512 87.9167 33.4C87.9167 34.108 87.7547 34.738 87.4307 35.29C87.1067 35.842 86.6267 36.28 85.9907 36.604C85.3547 36.916 84.5927 37.072 83.7047 37.072C82.4087 37.072 81.3407 36.742 80.5007 36.082C79.6727 35.41 79.2287 34.45 79.1687 33.202H81.1487C81.1967 33.838 81.4427 34.36 81.8867 34.768C82.3307 35.164 82.9307 35.362 83.6867 35.362C84.4187 35.362 84.9827 35.164 85.3787 34.768C85.7747 34.36 85.9727 33.838 85.9727 33.202C85.9727 32.362 85.7027 31.768 85.1627 31.42C84.6347 31.06 83.8187 30.88 82.7147 30.88H82.2467V29.188H82.7327C83.7047 29.176 84.4427 29.014 84.9467 28.702C85.4627 28.39 85.7207 27.898 85.7207 27.226C85.7207 26.65 85.5347 26.194 85.1627 25.858C84.7907 25.51 84.2627 25.336 83.5787 25.336C82.9067 25.336 82.3847 25.51 82.0127 25.858C81.6407 26.194 81.4187 26.614 81.3467 27.118H79.3487ZM101.912 37L97.07 31.402V37H95.018V24.49H97.07V30.196L101.93 24.49H104.504L99.068 30.754L104.594 37H101.912ZM110.531 37.126C109.691 37.126 108.935 36.982 108.263 36.694C107.591 36.394 107.063 35.974 106.679 35.434C106.295 34.894 106.103 34.264 106.103 33.544H108.299C108.347 34.084 108.557 34.528 108.929 34.876C109.313 35.224 109.847 35.398 110.531 35.398C111.239 35.398 111.791 35.23 112.187 34.894C112.583 34.546 112.781 34.102 112.781 33.562C112.781 33.142 112.655 32.8 112.403 32.536C112.163 32.272 111.857 32.068 111.485 31.924C111.125 31.78 110.621 31.624 109.973 31.456C109.157 31.24 108.491 31.024 107.975 30.808C107.471 30.58 107.039 30.232 106.679 29.764C106.319 29.296 106.139 28.672 106.139 27.892C106.139 27.172 106.319 26.542 106.679 26.002C107.039 25.462 107.543 25.048 108.191 24.76C108.839 24.472 109.589 24.328 110.441 24.328C111.653 24.328 112.643 24.634 113.411 25.246C114.191 25.846 114.623 26.674 114.707 27.73H112.439C112.403 27.274 112.187 26.884 111.791 26.56C111.395 26.236 110.873 26.074 110.225 26.074C109.637 26.074 109.157 26.224 108.785 26.524C108.413 26.824 108.227 27.256 108.227 27.82C108.227 28.204 108.341 28.522 108.569 28.774C108.809 29.014 109.109 29.206 109.469 29.35C109.829 29.494 110.321 29.65 110.945 29.818C111.773 30.046 112.445 30.274 112.961 30.502C113.489 30.73 113.933 31.084 114.293 31.564C114.665 32.032 114.851 32.662 114.851 33.454C114.851 34.09 114.677 34.69 114.329 35.254C113.993 35.818 113.495 36.274 112.835 36.622C112.187 36.958 111.419 37.126 110.531 37.126ZM124.094 24.49V33.508C124.094 34.624 123.752 35.506 123.068 36.154C122.396 36.802 121.508 37.126 120.404 37.126C119.3 37.126 118.406 36.802 117.722 36.154C117.05 35.506 116.714 34.624 116.714 33.508H118.784C118.796 34.06 118.934 34.498 119.198 34.822C119.474 35.146 119.876 35.308 120.404 35.308C120.932 35.308 121.334 35.146 121.61 34.822C121.886 34.486 122.024 34.048 122.024 33.508V24.49H124.094ZM140.856 28.216C140.856 28.852 140.706 29.452 140.406 30.016C140.106 30.58 139.626 31.042 138.966 31.402C138.306 31.75 137.46 31.924 136.428 31.924H134.16V37H132.108V24.49H136.428C137.388 24.49 138.198 24.658 138.858 24.994C139.53 25.318 140.028 25.762 140.352 26.326C140.688 26.89 140.856 27.52 140.856 28.216ZM136.428 30.25C137.208 30.25 137.79 30.076 138.174 29.728C138.558 29.368 138.75 28.864 138.75 28.216C138.75 26.848 137.976 26.164 136.428 26.164H134.16V30.25H136.428ZM148.519 37.126C147.355 37.126 146.281 36.856 145.297 36.316C144.325 35.764 143.551 35.002 142.975 34.03C142.411 33.046 142.129 31.942 142.129 30.718C142.129 29.494 142.411 28.396 142.975 27.424C143.551 26.452 144.325 25.696 145.297 25.156C146.281 24.604 147.355 24.328 148.519 24.328C149.695 24.328 150.769 24.604 151.741 25.156C152.725 25.696 153.499 26.452 154.063 27.424C154.627 28.396 154.909 29.494 154.909 30.718C154.909 31.942 154.627 33.046 154.063 34.03C153.499 35.002 152.725 35.764 151.741 36.316C150.769 36.856 149.695 37.126 148.519 37.126ZM148.519 35.344C149.347 35.344 150.085 35.158 150.733 34.786C151.381 34.402 151.885 33.862 152.245 33.166C152.617 32.458 152.803 31.642 152.803 30.718C152.803 29.794 152.617 28.984 152.245 28.288C151.885 27.592 151.381 27.058 150.733 26.686C150.085 26.314 149.347 26.128 148.519 26.128C147.691 26.128 146.953 26.314 146.305 26.686C145.657 27.058 145.147 27.592 144.775 28.288C144.415 28.984 144.235 29.794 144.235 30.718C144.235 31.642 144.415 32.458 144.775 33.166C145.147 33.862 145.657 34.402 146.305 34.786C146.953 35.158 147.691 35.344 148.519 35.344ZM163.426 37L160.546 31.996H158.98V37H156.928V24.49H161.248C162.208 24.49 163.018 24.658 163.678 24.994C164.35 25.33 164.848 25.78 165.172 26.344C165.508 26.908 165.676 27.538 165.676 28.234C165.676 29.05 165.436 29.794 164.956 30.466C164.488 31.126 163.762 31.576 162.778 31.816L165.874 37H163.426ZM158.98 30.358H161.248C162.016 30.358 162.592 30.166 162.976 29.782C163.372 29.398 163.57 28.882 163.57 28.234C163.57 27.586 163.378 27.082 162.994 26.722C162.61 26.35 162.028 26.164 161.248 26.164H158.98V30.358ZM176.383 24.49V26.164H173.053V37H171.001V26.164H167.653V24.49H176.383ZM185.823 24.49V26.164H180.513V29.854H184.653V31.528H180.513V37H178.461V24.49H185.823ZM193.431 37.126C192.267 37.126 191.193 36.856 190.209 36.316C189.237 35.764 188.463 35.002 187.887 34.03C187.323 33.046 187.041 31.942 187.041 30.718C187.041 29.494 187.323 28.396 187.887 27.424C188.463 26.452 189.237 25.696 190.209 25.156C191.193 24.604 192.267 24.328 193.431 24.328C194.607 24.328 195.681 24.604 196.653 25.156C197.637 25.696 198.411 26.452 198.975 27.424C199.539 28.396 199.821 29.494 199.821 30.718C199.821 31.942 199.539 33.046 198.975 34.03C198.411 35.002 197.637 35.764 196.653 36.316C195.681 36.856 194.607 37.126 193.431 37.126ZM193.431 35.344C194.259 35.344 194.997 35.158 195.645 34.786C196.293 34.402 196.797 33.862 197.157 33.166C197.529 32.458 197.715 31.642 197.715 30.718C197.715 29.794 197.529 28.984 197.157 28.288C196.797 27.592 196.293 27.058 195.645 26.686C194.997 26.314 194.259 26.128 193.431 26.128C192.603 26.128 191.865 26.314 191.217 26.686C190.569 27.058 190.059 27.592 189.687 28.288C189.327 28.984 189.147 29.794 189.147 30.718C189.147 31.642 189.327 32.458 189.687 33.166C190.059 33.862 190.569 34.402 191.217 34.786C191.865 35.158 192.603 35.344 193.431 35.344ZM203.892 35.344H208.122V37H201.84V24.49H203.892V35.344ZM211.89 24.49V37H209.838V24.49H211.89ZM220.29 37.126C219.126 37.126 218.052 36.856 217.068 36.316C216.096 35.764 215.322 35.002 214.746 34.03C214.182 33.046 213.9 31.942 213.9 30.718C213.9 29.494 214.182 28.396 214.746 27.424C215.322 26.452 216.096 25.696 217.068 25.156C218.052 24.604 219.126 24.328 220.29 24.328C221.466 24.328 222.54 24.604 223.512 25.156C224.496 25.696 225.27 26.452 225.834 27.424C226.398 28.396 226.68 29.494 226.68 30.718C226.68 31.942 226.398 33.046 225.834 34.03C225.27 35.002 224.496 35.764 223.512 36.316C222.54 36.856 221.466 37.126 220.29 37.126ZM220.29 35.344C221.118 35.344 221.856 35.158 222.504 34.786C223.152 34.402 223.656 33.862 224.016 33.166C224.388 32.458 224.574 31.642 224.574 30.718C224.574 29.794 224.388 28.984 224.016 28.288C223.656 27.592 223.152 27.058 222.504 26.686C221.856 26.314 221.118 26.128 220.29 26.128C219.462 26.128 218.724 26.314 218.076 26.686C217.428 27.058 216.918 27.592 216.546 28.288C216.186 28.984 216.006 29.794 216.006 30.718C216.006 31.642 216.186 32.458 216.546 33.166C216.918 33.862 217.428 34.402 218.076 34.786C218.724 35.158 219.462 35.344 220.29 35.344Z" fill="white"/>
<path d="M52.6961 7.9C54.1761 7.9 55.4694 8.2 56.5761 8.8C57.6961 9.38667 58.5561 10.2133 59.1561 11.28C59.7561 12.3467 60.0561 13.5667 60.0561 14.94C60.0561 16.3 59.7494 17.5133 59.1361 18.58C58.5361 19.6467 57.6761 20.4867 56.5561 21.1C55.4494 21.7 54.1628 22 52.6961 22H47.1161V7.9H52.6961ZM52.3961 18.54C53.5428 18.54 54.4428 18.2267 55.0961 17.6C55.7494 16.9733 56.0761 16.0867 56.0761 14.94C56.0761 13.78 55.7494 12.8867 55.0961 12.26C54.4428 11.62 53.5428 11.3 52.3961 11.3H51.0361V18.54H52.3961ZM68.9631 22L66.1631 16.8H65.7431V22H61.8231V7.9H68.0031C69.1365 7.9 70.0965 8.1 70.8831 8.5C71.6698 8.88667 72.2631 9.42667 72.6631 10.12C73.0631 10.8 73.2631 11.5667 73.2631 12.42C73.2631 13.38 72.9965 14.2267 72.4631 14.96C71.9431 15.68 71.1765 16.1933 70.1631 16.5L73.3431 22H68.9631ZM65.7431 14.12H67.6831C68.2165 14.12 68.6165 13.9933 68.8831 13.74C69.1498 13.4867 69.2831 13.12 69.2831 12.64C69.2831 12.1867 69.1431 11.8333 68.8631 11.58C68.5965 11.3133 68.2031 11.18 67.6831 11.18H65.7431V14.12ZM83.9658 19.7H78.9658L78.2058 22H74.0858L79.2258 7.9H83.7458L88.8658 22H84.7258L83.9658 19.7ZM82.9858 16.7L81.4658 12.14L79.9658 16.7H82.9858ZM110.003 7.9L106.543 22H101.723L99.7834 13.36L97.8034 22H92.9834L89.5634 7.9H93.8034L95.4434 17.54L97.6634 7.9H101.963L104.123 17.46L105.763 7.9H110.003ZM113.567 22.16C112.874 22.16 112.314 21.9733 111.887 21.6C111.474 21.2133 111.267 20.7267 111.267 20.14C111.267 19.5533 111.474 19.0667 111.887 18.68C112.314 18.2933 112.874 18.1 113.567 18.1C114.247 18.1 114.794 18.2933 115.207 18.68C115.634 19.0667 115.847 19.5533 115.847 20.14C115.847 20.7133 115.634 21.1933 115.207 21.58C114.794 21.9667 114.247 22.16 113.567 22.16ZM130.431 19.7H125.431L124.671 22H120.551L125.691 7.9H130.211L135.331 22H131.191L130.431 19.7ZM129.451 16.7L127.931 12.14L126.431 16.7H129.451ZM149.668 22H145.748L140.528 14.12V22H136.608V7.9H140.528L145.748 15.88V7.9H149.668V22ZM164.721 7.9L159.761 17.52V22H155.821V17.52L150.861 7.9H155.341L157.821 13.34L160.301 7.9H164.721ZM176.545 7.9V11.02H172.785V22H168.865V11.02H165.145V7.9H176.545ZM190.615 7.9V22H186.695V16.34H181.915V22H177.995V7.9H181.915V13.2H186.695V7.9H190.615ZM196.778 7.9V22H192.858V7.9H196.778ZM212.071 22H208.151L202.931 14.12V22H199.011V7.9H202.931L208.151 15.88V7.9H212.071V22ZM223.304 12.54C223.077 12.1667 222.764 11.88 222.364 11.68C221.977 11.48 221.517 11.38 220.984 11.38C219.997 11.38 219.217 11.7 218.644 12.34C218.084 12.98 217.804 13.84 217.804 14.92C217.804 16.1333 218.104 17.06 218.704 17.7C219.317 18.3267 220.204 18.64 221.364 18.64C222.737 18.64 223.717 18.02 224.304 16.78H220.364V13.96H227.684V17.76C227.377 18.5067 226.924 19.2067 226.324 19.86C225.737 20.5133 224.99 21.0533 224.084 21.48C223.177 21.8933 222.144 22.1 220.984 22.1C219.57 22.1 218.317 21.8 217.224 21.2C216.144 20.5867 215.304 19.74 214.704 18.66C214.117 17.5667 213.824 16.32 213.824 14.92C213.824 13.5333 214.117 12.3 214.704 11.22C215.304 10.1267 216.144 9.28 217.224 8.68C218.304 8.06667 219.55 7.76 220.964 7.76C222.737 7.76 224.204 8.18667 225.364 9.04C226.524 9.89333 227.244 11.06 227.524 12.54H223.304Z" fill="#287EFF"/>
</svg>
