<svg width="78" height="75" viewBox="0 0 78 75" fill="none" xmlns="http://www.w3.org/2000/svg">
<path d="M36.7558 47.8352C36.7153 48.2689 36.6687 48.7051 36.6164 49.1432C34.3364 50.0779 32.4684 50.2188 32.0347 48.0323C31.6865 46.2763 31.7947 44.2641 31.3945 42.5505C30.7846 39.9388 30.3639 37.1408 29.907 34.4376C29.5173 32.1312 29.4632 29.6733 28.7198 27.5619C28.2728 26.2923 29.0368 27.6482 29.2661 27.9634C30.6882 29.9189 29.3606 33.6753 31.4656 35.3963C33.1106 36.7412 38.3478 32.1616 38.4277 32.3435C38.8287 33.2552 38.1554 35.5579 37.989 36.853C37.5174 40.5229 37.0974 44.1698 36.7558 47.8352Z" fill="#D9D9D9"/>
<path d="M63.565 42.1667C61.5726 40.5379 59.3381 39.3778 57.0686 38.1176C50.9464 34.7182 45.23 30.8289 39.6785 26.6497C34.3038 22.6035 29.2327 18.1544 24.0257 13.8974C22.5983 12.7303 23.0895 16.2778 23.0384 17.2823C22.7536 22.8869 23.7009 28.7092 24.3062 33.9154C25.0411 40.2367 27.6658 45.4871 28.8843 51.542C29.563 54.9148 30.1203 58.3214 31.164 61.4745C31.6445 62.9262 31.855 64.5322 32.2355 66.0468C32.2533 66.1177 32.521 68.8575 32.666 68.6527C34.4112 66.1884 34.4406 60.6484 35.0321 57.9657C35.7784 54.5809 36.448 51.1371 36.7558 47.8352C37.0974 44.1698 37.5174 40.5229 37.989 36.853C38.1554 35.5579 38.8287 33.2552 38.4277 32.3435C38.3478 32.1616 33.1106 36.7412 31.4656 35.3963C29.3606 33.6753 30.6882 29.9189 29.2661 27.9634C29.0368 27.6482 28.2728 26.2923 28.7198 27.5619C29.4632 29.6733 29.5173 32.1312 29.907 34.4376C30.3639 37.1408 30.7846 39.9388 31.3945 42.5505C31.7947 44.2641 31.6865 46.2763 32.0347 48.0323C33.0637 53.2207 42.1694 45.3038 45.6924 44.7739C47.496 44.5027 48.944 43.464 50.5722 43.0838C51.7776 42.8024 52.8406 43.2589 54.1229 42.561C54.788 42.199 55.5297 41.6819 56.0645 41.7142" stroke="black" stroke-width="12" stroke-linecap="round"/>
<path d="M18.8642 3.39014C18.7169 3.53745 18.1638 3.85492 18.6437 3.99204C19.0298 4.10234 19.1667 3.69533 18.7116 3.69533" stroke="black" stroke-width="6" stroke-linecap="round"/>
<path d="M63.0292 52.9431C63.8856 52.9431 64.6715 52.7576 65.2953 52.1338" stroke="black" stroke-width="6" stroke-linecap="round"/>
<path d="M74.5215 50.0295V50.1914" stroke="black" stroke-width="6" stroke-linecap="round"/>
</svg>
