<svg width="80" height="68" viewBox="0 0 80 68" fill="none" xmlns="http://www.w3.org/2000/svg">
<path d="M67 57.8093C67.8564 57.8093 68.6423 57.6238 69.2661 57" stroke="#6028FF" stroke-width="6" stroke-linecap="round"/>
<path d="M77 62V62.1619" stroke="#6028FF" stroke-width="6" stroke-linecap="round"/>
<path d="M56.7687 49.1319C44.2372 40.7324 32.3695 33.7074 25.4173 26.7552C22.7104 24.0483 19.7138 19.9099 16.3126 18.1283C15.2554 17.5745 14.6628 16.6204 13.7113 16.0047C13.333 15.76 14.7988 25.3005 14.9323 25.9323C16.5597 33.6292 18.0183 41.667 20.5066 49.1319C21.2618 51.3975 25.9355 44.4323 26.0809 44.2478C31.7077 37.1094 37.8322 30.1888 42.9099 22.6408C43.9143 21.1478 48.2223 16.4826 44.2372 16.4826C37.3656 16.4826 30.5547 16.0689 23.6919 16.0048C20.2753 15.9728 15.416 15.4365 12.2779 16.4826" stroke="#6028FF" stroke-width="12" stroke-linecap="round"/>
</svg>
