<svg width="34" height="25" viewBox="0 0 34 25" fill="none" xmlns="http://www.w3.org/2000/svg">
<path d="M14 6C13.5006 6.53931 13.8027 7.81301 13.4167 8.48C13.1373 8.96282 13.2392 9.54068 13 10" stroke="#287EFF" stroke-width="12" stroke-linecap="round"/>
<path d="M14 6C13.5006 6.53931 13.8027 7.81301 13.4167 8.48C13.1373 8.96282 13.2392 9.54068 13 10" stroke="black" stroke-width="3" stroke-linecap="round"/>
<path d="M28.001 19.0002C25.0348 18.5009 18.0294 18.8029 14.361 18.4169C11.7054 18.1375 8.52726 18.2395 6.00098 18.0002" stroke="#287EFF" stroke-width="12" stroke-linecap="round"/>
<path d="M28 19C25.0338 18.5006 18.0284 18.8027 14.36 18.4167C11.7045 18.1373 8.52629 18.2392 6 18" stroke="black" stroke-width="3" stroke-linecap="round"/>
<path d="M22 6C21.9206 7.37222 21.6114 8.82617 21 10" stroke="#287EFF" stroke-width="12" stroke-linecap="round"/>
<path d="M22 6C21.9206 7.37222 21.6114 8.82617 21 10" stroke="black" stroke-width="3" stroke-linecap="round"/>
</svg>
