<svg width="221" height="295" viewBox="0 0 221 295" fill="none" xmlns="http://www.w3.org/2000/svg">
<path d="M76.5383 164.492C82.8063 149.636 86.947 141.634 91.3857 131.799C98.2498 116.589 104.25 101.035 111.384 85.9534C116.759 74.5919 121.569 62.4601 124.845 50.2917C126.499 44.147 128.065 38.604 130.476 32.7552C131.803 29.5382 133.938 26.4299 135.094 23.2003C136.039 20.56 137.577 18.0533 138.54 15.3647C139.022 14.0176 139.268 10.0886 141.324 10.023C150.064 9.74419 161.167 17.1657 168.398 21.3408C179.384 27.6835 190.764 33.1753 201.709 39.4947C204.842 41.3035 207.628 42.9739 211.059 44.0538C215.384 45.4152 216.402 46.5408 213.271 50.1835C201.029 64.4234 192.745 82.2065 183.364 98.4557C181.612 101.489 179.559 103.997 177.137 106.543C172.933 110.962 170.336 117.286 167.298 122.548C162.314 131.179 155.119 138.039 150.137 146.668C147.41 151.391 143.201 156.245 139.727 160.547C133.552 168.196 119.001 190.944 114.09 199.451M98.4915 220.468C96.1808 222.925 93.2964 228.102 91.5412 230.312" stroke="#287EFF" stroke-width="10" stroke-linecap="round"/>
<path d="M73.8189 224.203C75.6311 225.064 72.0016 223.154 76.4168 225.703" stroke="#287EFF" stroke-width="10" stroke-linecap="round"/>
<path d="M42.4714 245.86C40.1764 251.326 37.7044 252.783 35.3485 258.197C33.765 261.835 31.2856 265.39 30.5286 269.319C30.1443 271.313 38.9118 275.018 40.7022 276.052C43.2483 277.522 53.5936 285.127 56.8186 284.263C59.3662 283.58 63.892 272.011 65.1109 269.9" stroke="#287EFF" stroke-width="10" stroke-linecap="round"/>
<path d="M159.871 8.73506C170.563 14.9083 181.932 20.6148 192.381 26.6477C198.485 30.1715 204.229 33.4883 210.379 37.0387" stroke="#287EFF" stroke-width="10" stroke-linecap="round"/>
</svg>
