<svg width="163" height="166" viewBox="0 0 163 166" fill="none" xmlns="http://www.w3.org/2000/svg">
<path d="M63.1459 9.42985C66.9137 4.18847 77.9246 9.80484 79.0023 14.881C79.268 16.1322 78.3228 19.3766 77.9267 20.635C77.4368 22.1913 77.2055 23.332 75.9162 24.6957C74.8643 25.8083 73.9136 26.3735 72.5889 27.1461C70.9728 28.0888 72.7024 27.5747 73.9205 29.0988C76.2466 32.0096 70.584 39.2592 68.9687 41.9346C68.2245 43.1671 66.5943 45.9303 65.1134 46.5089C64.3605 46.803 60.1459 48.6802 61.588 49.5128C67.7828 53.0893 56.2681 65.6245 51.099 65.3142" stroke="white" stroke-width="10" stroke-linecap="round"/>
<path d="M54.0324 12.9106C53.2967 14.1848 52.0555 14.8793 51.1192 16.1162C49.2022 18.6485 47.7237 21.5217 45.8239 24.0786C41.6958 29.6343 38.5046 35.9272 35.5662 42.1083C33.8412 45.7368 32.1836 49.4246 30.883 53.217C30.2695 55.0057 29.3834 57.9634 29.9042 59.9073C30.4792 62.0531 30.3353 64.6979 31.2991 66.693C32.0326 68.2113 32.8705 69.608 33.5819 71.0467" stroke="white" stroke-width="10" stroke-linecap="round"/>
<path d="M88.0398 77.2879C90.2858 73.0115 82.8173 69.6037 79.8855 67.911C76.3139 65.8489 72.7928 70.7265 71.2665 73.3702C70.2198 75.1832 69.0419 77.176 69.0327 79.2437C69.0225 81.5436 69.6818 83.7744 70.1214 85.9978C70.5948 88.3916 72.1594 92.1827 74.3877 93.4691" stroke="white" stroke-width="10" stroke-linecap="round"/>
<path d="M111.005 40.7944C116.634 44.0444 117.281 51.9236 116.379 59.4858C115.477 67.048 111.41 75.0922 109.593 79.2393C107.776 83.3864 103.84 85.2724 102.166 87.3786C100.009 90.093 98.8873 94.9577 96.3916 97.0207" stroke="white" stroke-width="10" stroke-linecap="round"/>
<path d="M61.1387 125.165C61.7315 126.063 62.3037 127.214 62.2392 128.29" stroke="white" stroke-width="10" stroke-linecap="round"/>
<path d="M98.2295 99.4678C99.8098 101.451 100.083 103.776 100.408 106.236C101.497 114.467 101.002 122.61 100.861 130.888C100.746 137.629 100.831 144.59 101.649 151.285C102.021 154.326 102.342 157.909 104.065 160.518" stroke="white" stroke-width="10" stroke-linecap="round"/>
</svg>
