<svg width="189" height="76" viewBox="0 0 189 76" fill="none" xmlns="http://www.w3.org/2000/svg">
<path d="M40.5897 69.0228C31.6097 55.2668 16.3104 31.8998 7.4998 16.2606C7.04102 13.9563 4.17827 10.0767 7.83127 10.0767C21.979 10.0767 36.4963 11.1813 50.5436 9.33671C56.1796 8.59662 62.3123 8.17392 67.9695 8.17392C73.2839 8.17392 80.1817 8.13243 85.3954 6.74686C89.5426 5.64472 94.2258 6.27118 98.4648 6.27118C102.073 6.27118 107.222 5.09387 110.161 7.64538C114.079 11.0471 114.775 15.0192 117.88 19.1147C120.056 21.9859 122.806 24.3055 125.03 27.2013C127.834 30.8525 129.422 35.6244 131.896 39.5691C135.365 45.1012 139.021 50.1338 142.598 55.2668C146.518 60.8933 148.277 67.9049 156.614 65.9961C165.32 64.0029 173.616 66.2075 182.185 66.2075" stroke="#00D959" stroke-width="12" stroke-linecap="round"/>
<path d="M42.4841 69.6909C50.7337 69.6909 58.7982 69.5359 67.0005 67.9891C72.8168 66.8923 80.4141 69.0525 85.9794 66.21C90.8826 63.7058 98.6856 68.052 103.733 65.5139C106.853 63.9447 123.08 65.5139 126.338 65.5139C139.782 65.5139 138.97 65.5138 152.382 65.5139" stroke="#00D959" stroke-width="12" stroke-linecap="round"/>
</svg>
