<svg width="347" height="277" viewBox="0 0 347 277" fill="none" xmlns="http://www.w3.org/2000/svg">
<path d="M268.666 58C268.454 61.8102 267.63 65.8473 266 69.1066" stroke="#00c897" stroke-width="8" stroke-linecap="round"/>
<path d="M319.862 80.3328C317.773 83.5266 315.041 86.6108 312 88.6186" stroke="#00c897" stroke-width="8" stroke-linecap="round"/>
<path d="M342.418 132.575C338.683 133.356 334.57 133.605 331 132.875" stroke="#00c897" stroke-width="8" stroke-linecap="round"/>
<path d="M162.778 145.808C163.272 146.113 163.535 146.897 163.906 147.338C164.596 148.156 165.455 148.778 166.378 149.305C168.833 150.708 171.414 152.495 174.044 153.519C176.952 154.652 179.951 155.444 182.961 156.25C184.903 156.771 186.925 156.753 188.885 157.278C192.699 158.3 196.806 156.356 200.425 155.616" stroke="#00c897" stroke-width="8" stroke-linecap="round"/>
<path d="M164.139 127.095C164.215 127.24 164.034 127.553 164.016 127.743C163.983 128.094 164.082 128.381 164.239 128.635C164.657 129.312 164.984 130.143 165.602 130.686C166.284 131.287 167.122 131.764 167.958 132.247C168.498 132.558 169.258 132.67 169.803 132.985C170.863 133.596 173.086 133.098 174.699 133.029" stroke="#00c897" stroke-width="8" stroke-linecap="round"/>
<path d="M209.703 141.664C209.476 141.722 209.14 142.043 208.896 142.186C208.443 142.45 208.017 142.595 207.608 142.684C206.519 142.923 205.267 143.319 204.267 143.352C203.161 143.388 202.151 143.25 201.133 143.117C200.476 143.031 199.986 142.681 199.323 142.594C198.033 142.426 197.699 140.826 197.068 139.869" stroke="#00c897" stroke-width="8" stroke-linecap="round"/>
<path d="M92.5191 97.8865C89.3262 95.8865 79.792 81.588 76.8516 84.8623C72.999 89.1524 75.1816 106.046 75.4776 112.242C76.1877 127.105 81.1897 180.98 89.3261 194.255C99.603 200.025 175.258 222.954 187.099 222.792C195.04 222.683 204.166 224.188 211.981 222.373C218.385 220.887 225.765 220.608 232.39 220.029C237.274 219.603 247.065 217.563 249.774 212.872" stroke="black" stroke-width="8" stroke-linecap="round"/>
<path d="M263.519 169.143C265.568 169.564 269.993 167.665 271.731 167.344C275.896 166.576 279.443 164.861 282.153 163.151C284.937 161.394 285.142 158.204 287.038 156.07C288.35 154.593 290.087 153.255 290.924 151.601C291.905 149.664 292.262 147.55 293.344 145.637C296.054 140.846 297.026 135.519 299.346 130.625C299.777 129.715 300.556 126.789 298.668 125.768" stroke="#00c897" stroke-width="8" stroke-linecap="round"/>
<path d="M62.4802 42.0001C63.1858 52.0737 67.1024 64.6304 73.3623 75.4727C79.6221 86.3151 85.5284 98.0845 90.3146 102.911" stroke="#00c897" stroke-width="8" stroke-linecap="round"/>
<path d="M99.523 54.0104C108.766 64.6789 120.947 72.3865 132.207 80.7659C140.937 87.2617 149.318 92.9567 159.16 97.5318C175.587 105.168 192.737 112.915 210.201 117.911C222.496 121.428 235.04 123.073 247.578 125.253C250.701 125.796 252.153 124.967 252.642 127.958C254.668 140.347 256.745 152.995 260.553 164.996C264.19 176.46 268.547 188.767 275.16 198.782" stroke="#00c897" stroke-width="8" stroke-linecap="round"/>
<path d="M97.3054 52.73C91.7286 62.3893 92.2508 76.9709 92.7727 87.8955C93.4828 102.759 93.3265 120.268 101.463 133.543C107.924 144.085 117.382 150.586 128.942 154.993C134.828 157.237 140.428 160.471 146.485 162.165C148.173 162.637 157.098 163.048 157.486 164.355C161.439 177.656 165.717 195.928 178.817 203.282C189.094 209.052 200.843 211.936 212.683 211.774C220.625 211.665 229.751 213.169 237.566 211.355C243.969 209.869 251.35 209.59 257.975 209.011C262.858 208.584 272.65 206.545 275.358 201.853" stroke="#00c897" stroke-width="8" stroke-linecap="round"/>
<path d="M100.755 132.37C99.9308 134.324 103.488 140.78 104.076 142.977C105.487 148.242 108.704 153.569 111.923 157.959C115.23 162.469 121.293 165.239 125.329 169.057C128.122 171.7 130.644 174.705 133.78 176.959C137.45 179.597 141.466 181.679 145.091 184.413C154.168 191.257 164.285 196.587 173.564 203.077C175.289 204.283 180.844 207.485 182.808 206.189" stroke="#00c897" stroke-width="8" stroke-linecap="round"/>
</svg>
