<svg width="52" height="43" viewBox="0 0 52 43" fill="none" xmlns="http://www.w3.org/2000/svg">
<path d="M2.3602 39.888C2.27162 37.4963 1.76926 35.5714 2.12703 33.226C2.43095 31.2336 3.46873 28.9197 4.90842 27.48C7.48438 24.904 10.369 23.0997 14.052 23.0997C17.7171 23.0997 21.1208 23.5142 24.6613 24.4321C25.2856 24.594 26.6349 24.605 27.0096 25.1983C28.0208 26.7993 28.5953 28.4946 29.3413 30.2281C30.569 33.0806 32.3679 37.1325 30.8403 40.1878" stroke="#287EFF" stroke-width="4" stroke-linecap="round"/>
<path d="M13.246 23.111C10.1817 22.7505 7.2569 22.0433 6.45861 18.6324C5.67919 15.3021 5.83826 11.3128 6.75372 8.04331C7.3918 5.76443 10.0721 4.27039 12.083 3.35634C13.2544 2.82386 14.9999 2.52453 16.3012 2.48838C17.6683 2.45041 18.9683 3.16994 20.2765 3.51257C21.5403 3.84358 22.4191 4.76283 23.4185 5.54359C24.1526 6.11709 24.7477 6.68949 25.3453 7.40102C25.9611 8.13412 26.045 9.21718 26.3348 10.109C27.1434 12.5971 27.3027 14.6254 25.6752 16.775C25.0527 17.5971 24.1315 18.8273 23.2536 19.4309C22.6736 19.8297 22.2841 20.5352 21.6826 20.8891C21.1873 21.1804 20.6151 21.3435 20.0508 21.5487C19.2957 21.8233 18.6066 21.3925 17.7768 21.3925" stroke="#287EFF" stroke-width="4" stroke-linecap="round"/>
<path d="M31.0566 4.67579C31.7935 3.91661 32.5224 3.09005 33.4782 2.58402C34.6085 1.98565 36.2375 2.01985 37.4708 2.01985C38.6834 2.01985 39.8777 1.88935 41.0208 2.29759C42.1442 2.6988 43.0625 3.38058 44.1454 3.85991C45.1202 4.29138 45.0635 4.74357 45.5168 5.6913C45.9943 6.68971 46.2555 7.44571 46.3587 8.5816C46.4045 9.08571 46.4985 9.66598 46.5236 10.1439C46.5788 11.1917 45.8524 13.6805 45.5168 14.6501C44.4876 17.6233 42.887 18.7855 39.7709 19.7088C38.6629 20.0371 37.2206 19.9865 36.0561 19.9865C35.3309 19.9865 33.935 20.2751 33.5564 19.5178" stroke="#00D959" stroke-width="4" stroke-linecap="round"/>
<path d="M44.0239 25.4547C44.748 25.4973 45.1479 26.3376 45.5515 26.8608C46.1498 27.6363 46.4381 28.596 47.1139 29.3258C47.8369 30.1067 48.2498 31.4657 48.5894 32.4504C48.6844 32.7261 48.8627 33.0004 48.9886 33.2663C49.1343 33.5738 49.0591 34.113 49.2577 34.3513C49.7294 34.9173 49.2844 37.1239 49.1883 37.7971C49.0912 38.4765 49.114 39.6265 48.3984 39.9843" stroke="#00D959" stroke-width="4" stroke-linecap="round"/>
</svg>
