<svg width="260" height="167" viewBox="0 0 260 167" fill="none" xmlns="http://www.w3.org/2000/svg">
<path d="M155.366 47.5C155.126 47.7574 154.676 47.9176 154 47.866" stroke="#00D959" stroke-width="12" stroke-linecap="round"/>
<path d="M176.151 59.5C175.91 59.7574 175.461 59.9176 174.785 59.866" stroke="#00D959" stroke-width="12" stroke-linecap="round"/>
<path d="M139.431 53.234C139.83 53.6567 139.88 54.4814 140.125 55.0037C140.58 55.9723 141.249 56.7958 142.004 57.5439C144.012 59.5342 146.042 61.9283 148.317 63.5981C150.834 65.4449 153.526 66.9863 156.224 68.5443C157.965 69.5494 159.923 70.0558 161.68 71.0706C165.099 73.0446 169.57 72.23 173.257 72.4513" stroke="#00D959" stroke-width="12" stroke-linecap="round"/>
<path d="M45.0949 64C37.5949 79 7.00438 67.6942 6.09509 72C4.90369 77.6417 15.2406 91.1806 18.5949 96.3984C26.6414 108.915 57.911 153.072 71.5949 160.5C83.3796 160.358 160.364 142.388 170.537 136.327C177.36 132.262 186.016 129.002 191.876 123.523C196.679 119.034 202.931 115.102 208.379 111.289C212.395 108.478 219.855 101.815 219.855 96.3984" stroke="black" stroke-width="12" stroke-linecap="round"/>
<path d="M27.5607 19.7801C40.9 24.3975 55.3025 24.9822 69.244 26.6087C80.0518 27.8696 90.1574 28.6111 100.969 27.652C119.013 26.0513 137.738 24.1857 155.361 19.7801C167.767 16.6786 179.453 11.8316 191.401 7.45057C194.377 6.3593 195.22 4.91557 197.139 7.26088C205.089 16.9774 213.211 26.8919 222.509 35.3817C231.391 43.491 241.318 51.9702 252.053 57.3377" stroke="#00D959" stroke-width="12" stroke-linecap="round"/>
<path d="M25 19.78C25 30.9336 32.743 43.3006 38.6573 52.5007C46.7038 65.0174 55.323 80.2588 69.0069 87.6872C79.8734 93.5862 91.3149 94.4873 103.53 92.5242C109.749 91.5247 116.216 91.5256 122.308 89.9634C124.006 89.5281 131.941 85.4219 132.931 86.3594C143.004 95.9029 155.845 109.587 170.868 109.406C182.652 109.264 194.269 105.888 204.442 99.8271C211.265 95.7622 219.921 92.5019 225.781 87.0233C230.584 82.534 236.836 78.6022 242.284 74.7887C246.3 71.9776 253.76 65.3154 253.76 59.8984" stroke="#00D959" stroke-width="12" stroke-linecap="round"/>
<path d="M67.8076 87.0256C68.0707 89.1299 74.379 92.9427 75.9871 94.5507C79.8412 98.4049 85.2905 101.41 90.2739 103.603C95.3922 105.855 102.029 105.222 107.433 106.511C111.173 107.403 114.86 108.744 118.702 109.128C123.2 109.578 127.719 109.373 132.225 109.928C143.507 111.317 154.935 110.874 166.216 111.855C168.312 112.037 174.724 112.033 175.777 109.928" stroke="#00D959" stroke-width="12" stroke-linecap="round"/>
</svg>
