<svg width="290" height="211" viewBox="0 0 290 211" fill="none" xmlns="http://www.w3.org/2000/svg">
<path d="M56.1387 191.518C67.6101 188.129 79.7057 186.914 91.0643 183.351C98.3128 181.077 104.774 178.963 112.529 178.221C119.271 177.575 126.106 176.527 132.844 176.046C135.218 175.876 137.504 175.929 139.78 176.579C145.185 178.123 153.651 181.046 153.651 187.824" stroke="black" stroke-width="12" stroke-linecap="round"/>
<path d="M39.0002 204.805C67.2007 204.805 95.4065 203.304 123.641 203.304C133.65 203.304 143.757 204.054 153.828 204.054" stroke="black" stroke-width="12" stroke-linecap="round"/>
<path d="M251.24 191.518C239.769 188.129 227.673 186.914 216.315 183.351C209.066 181.077 202.606 178.963 194.851 178.221C188.108 177.575 181.273 176.527 174.535 176.046C172.162 175.876 169.875 175.929 167.599 176.579C162.194 178.123 153.728 181.046 153.728 187.824" stroke="black" stroke-width="12" stroke-linecap="round"/>
<path d="M268.379 204.805C240.178 204.805 211.973 203.304 183.738 203.304C173.73 203.304 163.622 204.054 153.551 204.054" stroke="black" stroke-width="12" stroke-linecap="round"/>
<path d="M164 122.998C164.033 123.641 164.18 124.286 164.311 124.893C164.452 125.546 164.559 126.218 164.705 126.864C164.806 127.305 164.798 127.772 164.882 128.212C164.927 128.451 165 128.75 165 128.998" stroke="#6028FF" stroke-width="12" stroke-linecap="round"/>
<path d="M202.965 76.1244C202.965 65.3263 204.695 54.9996 208.545 44.8936C210.006 41.0566 206.614 43.0045 204.515 41.0963C202.071 38.8748 202.268 34.7247 202.268 31.7968C202.268 30.0633 201.192 23.6541 203.352 22.4199C204.896 21.5379 209.474 20.682 210.095 22.7299C210.515 24.116 213.417 28.7777 213.427 28.697C214.058 23.3313 216.788 21.6495 221.215 19.5525C225.598 17.4765 243.323 6.48949 245.859 13.0816C246.625 15.0735 246.256 17.7684 246.208 19.8625C246.193 20.5036 244.932 22.0804 245.316 21.5674C246.862 19.5064 250.009 18.4663 252.33 17.6926C258.898 15.5031 265.757 14.2372 272.634 13.5079C276.633 13.0837 271.562 21.205 274.803 21.0249C279.566 20.7603 274.544 27.023 273.137 27.9608C271.786 28.8615 265.234 29.9017 265.775 31.7968C266.261 33.4964 267.562 34.9221 268.526 36.3691" stroke="#6028FF" stroke-width="12" stroke-linecap="round"/>
<path d="M267.829 52.4106C265.45 59.7851 263.268 67.1783 261.552 74.7294" stroke="#6028FF" stroke-width="12" stroke-linecap="round"/>
<path d="M223.889 48.2258C224.231 51.303 233.26 52.8141 235.746 52.0231C239.132 50.9455 245.715 48.3067 246.905 44.7385" stroke="#6028FF" stroke-width="12" stroke-linecap="round"/>
<path d="M93.846 71.1244C93.846 60.3263 92.1163 49.9996 88.2664 39.8936C86.8046 36.0566 90.1972 38.0045 92.2961 36.0963C94.7398 33.8748 94.5435 29.7247 94.5435 26.7968C94.5435 25.0633 95.6186 18.6541 93.4586 17.4199C91.9151 16.5379 87.337 15.682 86.7164 17.7299C86.2964 19.116 83.3936 23.7777 83.3841 23.697C82.7529 18.3313 80.0228 16.6495 75.5958 14.5525C71.2131 12.4765 53.4876 1.48949 50.9522 8.08164C50.1861 10.0735 50.5548 12.7684 50.6035 14.8625C50.6184 15.5036 51.8794 17.0804 51.4947 16.5674C49.9489 14.5064 46.8022 13.4663 44.4813 12.6926C37.9127 10.5031 31.0535 9.23715 24.1774 8.50787C20.1781 8.08369 25.2494 16.205 22.0075 16.0249C17.2448 15.7603 22.267 22.023 23.6737 22.9608C25.0247 23.8615 31.5773 24.9017 31.0358 26.7968C30.5502 28.4964 29.2494 29.9221 28.2847 31.3691" stroke="#6028FF" stroke-width="12" stroke-linecap="round"/>
<path d="M28.9821 47.4106C31.361 54.7851 33.5431 62.1783 35.2593 69.7294" stroke="#6028FF" stroke-width="12" stroke-linecap="round"/>
<path d="M72.9224 43.2258C72.5805 46.303 63.5514 47.8141 61.0655 47.0231C57.6789 45.9455 51.0956 43.3067 49.9061 39.7385" stroke="#6028FF" stroke-width="12" stroke-linecap="round"/>
<rect x="285" y="84" width="285" height="54" transform="rotate(180 285 84)" fill="url(#paint0_linear_441_92)"/>
<path d="M68.7407 161.913C66.3777 153.596 63.5651 145.373 60.9489 137.63C58.1346 129.302 55.3832 120.688 52.5669 112.448C50.6456 106.826 49.0522 100.754 47.1958 95.1261C46.1866 92.0663 44.8651 88.2634 44.0001 85.0352" stroke="#6028FF" stroke-opacity="0.05" stroke-width="2" stroke-linecap="round"/>
<path d="M97 158C96.8704 152.962 96.2818 147.91 95.7586 143.158C95.1958 138.046 94.7677 132.783 94.1801 127.72C93.7792 124.267 93.8115 120.609 93.4751 117.161C93.2922 115.287 93 112.947 93 111" stroke="#6028FF" stroke-opacity="0.2" stroke-width="2" stroke-linecap="round"/>
<path d="M92.5043 103.729C92.7329 103.045 92.5606 102.138 92.425 101.299C92.2791 100.397 92.2616 99.5408 92.0907 98.6326C91.9741 98.0131 92.2509 97.5773 92.1904 96.9895C92.1575 96.67 92.0604 96.2404 92.1927 96" stroke="#6028FF" stroke-opacity="0.2" stroke-width="2" stroke-linecap="round"/>
<path d="M239 166.876C240.041 163.493 241.527 160.218 242.896 157.131C244.369 153.81 245.739 150.351 247.226 147.07C248.241 144.831 248.875 142.342 249.826 140.091C250.343 138.867 251.051 137.356 251.405 136.035" stroke="#6028FF" stroke-opacity="0.2" stroke-width="2" stroke-linecap="round"/>
<path d="M202 158C202.13 151.676 202.718 145.334 203.241 139.368C203.804 132.951 204.232 126.344 204.82 119.989C205.221 115.654 205.188 111.062 205.525 106.734C205.708 104.382 206 101.445 206 99" stroke="#6028FF" stroke-opacity="0.5" stroke-width="2" stroke-linecap="round"/>
<path d="M262 176.855C264.563 172.676 267.53 168.714 270.294 164.972C273.268 160.947 276.198 156.727 279.169 152.756C281.196 150.047 282.947 146.95 284.916 144.214C285.986 142.726 287.377 140.901 288.324 139.261" stroke="#6028FF" stroke-width="2" stroke-linecap="round"/>
<path d="M43.3237 176.855C40.7612 172.676 37.7942 168.714 35.0298 164.972C32.0561 160.947 29.1255 156.727 26.1543 152.756C24.1274 150.047 22.3764 146.95 20.4082 144.214C19.3382 142.726 17.9472 140.901 17 139.261" stroke="#6028FF" stroke-opacity="0.5" stroke-width="2" stroke-linecap="round"/>
<path d="M140 122.998C140.033 123.641 140.18 124.286 140.311 124.893C140.451 125.546 140.558 126.218 140.705 126.864C140.805 127.305 140.797 127.772 140.881 128.212C140.927 128.451 141 128.75 141 128.998" stroke="#6028FF" stroke-width="12" stroke-linecap="round"/>
<path d="M157.973 77C158.616 76.9676 159.261 76.8205 159.868 76.6897C160.52 76.5489 161.192 76.4419 161.839 76.295C162.28 76.1948 162.746 76.2029 163.187 76.1188C163.426 76.0731 163.725 76 163.973 76" stroke="#6028FF" stroke-width="6" stroke-linecap="round"/>
<path d="M130 80.5C130.643 80.4676 131.288 80.3205 131.895 80.1897C132.547 80.0489 133.219 79.9419 133.865 79.795C134.306 79.6948 134.773 79.7029 135.213 79.6188C135.453 79.5731 135.751 79.5 136 79.5" stroke="#6028FF" stroke-width="6" stroke-linecap="round"/>
<circle cx="159" cy="146" r="8" stroke="#6028FF" stroke-width="6"/>
<defs>
<linearGradient id="paint0_linear_441_92" x1="427.5" y1="84" x2="427.5" y2="138" gradientUnits="userSpaceOnUse">
<stop offset="0.137052" stop-color="white"/>
<stop offset="1" stop-color="white" stop-opacity="0"/>
</linearGradient>
</defs>
</svg>
