<svg width="192" height="182" viewBox="0 0 192 182" fill="none" xmlns="http://www.w3.org/2000/svg">
<g filter="url(#filter0_f_415_409)">
<path d="M28.2632 67.1741C36.3366 69.9687 45.0535 70.3226 53.4915 71.307C60.0327 72.0702 66.1491 72.5189 72.6925 71.9385C83.6134 70.9697 94.9468 69.8405 105.613 67.1741C113.121 65.2969 120.194 62.3634 127.426 59.7118C129.227 59.0513 129.737 58.1775 130.898 59.597C135.71 65.4778 140.626 71.4784 146.253 76.6168C151.629 81.5248 157.637 86.6568 164.134 89.9054" stroke="black" stroke-opacity="0.4" stroke-width="12" stroke-linecap="round"/>
<path d="M26.7131 67.1742C26.7131 73.9248 31.3995 81.4097 34.9791 86.978C39.8491 94.5536 45.0657 103.778 53.3478 108.274C59.9246 111.844 66.8494 112.39 74.2422 111.202C78.0062 110.597 81.9205 110.597 85.6078 109.652C86.6354 109.388 91.4379 106.903 92.0369 107.471C98.1338 113.247 105.905 121.529 114.998 121.419C122.13 121.333 129.161 119.29 135.318 115.622C139.448 113.161 144.686 111.188 148.234 107.872C151.14 105.155 154.924 102.776 158.222 100.467C160.652 98.7661 165.167 94.7339 165.167 91.4553" stroke="black" stroke-opacity="0.4" stroke-width="12" stroke-linecap="round"/>
<path d="M52.6221 107.874C52.7813 109.147 56.5993 111.455 57.5726 112.428C59.9053 114.761 63.2034 116.58 66.2195 117.907C69.3173 119.27 73.334 118.887 76.6046 119.667C78.8681 120.207 81.1 121.019 83.4253 121.251C86.1478 121.523 88.8825 121.399 91.6102 121.735C98.4385 122.576 105.355 122.308 112.182 122.901C113.451 123.012 117.332 123.009 117.969 121.735" stroke="black" stroke-opacity="0.4" stroke-width="12" stroke-linecap="round"/>
</g>
<defs>
<filter id="filter0_f_415_409" x="4.71313" y="36.8342" width="182.454" height="108.111" filterUnits="userSpaceOnUse" color-interpolation-filters="sRGB">
<feFlood flood-opacity="0" result="BackgroundImageFix"/>
<feBlend mode="normal" in="SourceGraphic" in2="BackgroundImageFix" result="shape"/>
<feGaussianBlur stdDeviation="8" result="effect1_foregroundBlur_415_409"/>
</filter>
</defs>
</svg>
