<svg width="267" height="135" viewBox="0 0 267 135" fill="none" xmlns="http://www.w3.org/2000/svg">
<path d="M4 55.0008C7.81015 55.2125 11.8473 56.0367 15.1066 57.6664" stroke="black" stroke-width="8" stroke-linecap="round"/>
<path d="M16.3328 36.0008C19.5266 38.0892 22.6108 40.8216 24.6186 43.8626" stroke="black" stroke-width="8" stroke-linecap="round"/>
<path d="M78.9409 131.001C88.3963 131.001 97.6394 130.823 107.041 129.05C113.707 127.793 122.415 130.269 128.793 127.011C134.413 124.141 143.357 129.122 149.142 126.213C152.718 124.415 171.317 126.213 175.05 126.213C190.459 126.213 189.529 126.213 204.901 126.213" stroke="black" stroke-width="8" stroke-linecap="round"/>
<path d="M209 4C209.13 4.64312 209.718 5.2881 210.241 5.89474C210.804 6.54731 211.232 7.21921 211.82 7.8655C212.221 8.30639 212.188 8.77331 212.525 9.21345C212.708 9.45272 213 9.7514 213 10" stroke="#00c897" stroke-width="8" stroke-linecap="round"/>
<path d="M184 30C189.252 29.8704 194.519 29.2818 199.474 28.7586C204.803 28.1958 210.29 27.7677 215.568 27.1801C219.169 26.7792 222.982 26.8115 226.577 26.4751C228.531 26.2922 230.97 26 233 26" stroke="#00c897" stroke-width="8" stroke-linecap="round"/>
<path d="M181 7C181.13 7.64312 181.718 8.2881 182.241 8.89474C182.804 9.54731 183.232 10.2192 183.82 10.8655C184.221 11.3064 184.188 11.7733 184.525 12.2135C184.708 12.4527 185 12.7514 185 13" stroke="#00c897" stroke-width="8" stroke-linecap="round"/>
<path d="M185.016 78.1118C181.208 83.1427 183.173 83.6317 177.5 86.5" stroke="#00c897" stroke-width="8" stroke-linecap="round"/>
<path d="M156.5 59.5C158.288 56.4024 156.641 59.6542 159 57C161.353 54.3534 161.344 53.6073 163.917 51.1825" stroke="#00c897" stroke-width="8" stroke-linecap="round"/>
<path d="M250.11 79.1018C243.849 78.3192 236.423 75.27 231.102 71.7912C229.344 70.6414 228.084 69.6701 225.758 68.7055C223.431 67.741 224.96 67.8666 223.038 66.7567C221.116 65.6469 218.563 67.3295 218.639 65.4982C218.714 63.6669 227.054 60.1473 225.899 58.9546C223.767 56.7538 217.505 52.0048 217.026 48.8687C216.617 46.1836 221.085 49.5151 222.781 47.0651C223.61 45.8684 219.279 41.5013 220.606 41.0036C220.955 40.8729 223.846 42.4876 224.007 42.3265C224.251 42.0828 223.498 37.995 224.129 38.2317C224.677 38.4374 226.493 37.1662 227.059 37.0402C229.455 36.5078 232.617 41.407 233.467 43.1077" stroke="#00c897" stroke-width="8" stroke-linecap="round"/>
<path d="M237.909 62.2333C238.36 65.3928 240.231 56.1361 240.231 52.9445" stroke="#00c897" stroke-width="8" stroke-linecap="round"/>
<path d="M242.369 44.2688C245.946 44.2688 248.932 44.8858 252.411 45.6019C255.879 46.316 259.495 46.3491 262.882 47.3651" stroke="#00c897" stroke-width="8" stroke-linecap="round"/>
<path d="M230.117 19.0621C230.214 19.2353 230.166 19.5042 230.205 19.6948C230.277 20.0481 230.431 20.3755 230.618 20.6868C231.116 21.5151 231.589 22.4749 232.199 23.226C232.872 24.0567 233.627 24.8064 234.383 25.562C234.87 26.0494 235.467 26.3978 235.959 26.89C236.916 27.8473 238.432 28.0119 239.613 28.4335" stroke="#00c897" stroke-width="8" stroke-linecap="round"/>
<path d="M76.7698 130.235C66.4773 114.468 48.9419 87.6862 38.8435 69.7611C38.3177 67.12 35.0365 62.6734 39.2234 62.6734C55.439 62.6734 72.0781 63.9395 88.1786 61.8253C94.6384 60.977 101.667 60.4925 108.151 60.4925C114.243 60.4925 122.149 60.445 128.124 58.8569C132.878 57.5936 138.245 58.3117 143.104 58.3117C147.239 58.3117 153.141 56.9623 156.51 59.8867C161.001 63.7857 161.798 68.3383 165.356 73.0324C167.851 76.3232 171.003 78.9819 173.552 82.301C176.765 86.4858 178.586 91.9551 181.421 96.4765C185.398 102.817 189.588 108.585 193.687 114.468C198.181 120.917 200.197 128.954 209.752 126.766C219.731 124.481 229.24 127.008 239.06 127.008" stroke="black" stroke-width="8" stroke-linecap="round"/>
</svg>
