<svg width="34" height="43" viewBox="0 0 34 43" fill="none" xmlns="http://www.w3.org/2000/svg">
<path d="M2.3602 39.8879C2.27162 37.4963 1.76926 35.5713 2.12703 33.2259C2.43095 31.2336 3.46873 28.9196 4.90842 27.4799C7.48438 24.904 10.369 23.0997 14.052 23.0997C17.7171 23.0997 21.1208 23.5142 24.6613 24.4321C25.2856 24.5939 26.6349 24.6049 27.0096 25.1982C28.0208 26.7992 28.5953 28.4945 29.3413 30.228C30.569 33.0805 32.3679 37.1324 30.8403 40.1877" stroke="#287EFF" stroke-width="4" stroke-linecap="round"/>
<path d="M13.246 23.111C10.1817 22.7505 7.2569 22.0433 6.45861 18.6324C5.67919 15.3021 5.83826 11.3128 6.75372 8.04331C7.3918 5.76443 10.0721 4.27039 12.083 3.35634C13.2544 2.82386 14.9999 2.52453 16.3012 2.48838C17.6683 2.45041 18.9683 3.16994 20.2765 3.51257C21.5403 3.84358 22.4191 4.76283 23.4185 5.54359C24.1526 6.11709 24.7477 6.68949 25.3453 7.40102C25.9611 8.13412 26.045 9.21718 26.3348 10.109C27.1434 12.5971 27.3027 14.6254 25.6752 16.775C25.0527 17.5971 24.1315 18.8273 23.2536 19.4309C22.6736 19.8297 22.2841 20.5352 21.6826 20.8891C21.1873 21.1804 20.6151 21.3435 20.0508 21.5487C19.2957 21.8233 18.6066 21.3925 17.7768 21.3925" stroke="#287EFF" stroke-width="4" stroke-linecap="round"/>
</svg>
