<svg width="269" height="139" viewBox="0 0 269 139" fill="none" xmlns="http://www.w3.org/2000/svg">
<path d="M4 57.0008C7.81015 57.2125 11.8473 58.0367 15.1066 59.6664" stroke="black" stroke-width="8" stroke-linecap="round"/>
<path d="M16.3328 38.0008C19.5266 40.0892 22.6108 42.8216 24.6186 45.8626" stroke="black" stroke-width="8" stroke-linecap="round"/>
<path d="M78.9409 133.001C88.3963 133.001 97.6394 132.823 107.041 131.05C113.707 129.793 122.415 132.269 128.793 129.011C134.413 126.141 143.357 131.122 149.142 128.213C152.718 126.415 171.317 128.213 175.05 128.213C190.459 128.213 189.529 128.213 204.901 128.213" stroke="black" stroke-width="12" stroke-linecap="round"/>
<path d="M209 6C209.13 6.64312 209.718 7.2881 210.241 7.89474C210.804 8.54731 211.232 9.21921 211.82 9.8655C212.221 10.3064 212.188 10.7733 212.525 11.2135C212.708 11.4527 213 11.7514 213 12" stroke="#6028FF" stroke-width="12" stroke-linecap="round"/>
<path d="M184 32C189.252 31.8704 194.519 31.2818 199.474 30.7586C204.803 30.1958 210.29 29.7677 215.568 29.1801C219.169 28.7792 222.982 28.8115 226.577 28.4751C228.531 28.2922 230.97 28 233 28" stroke="#6028FF" stroke-width="12" stroke-linecap="round"/>
<path d="M181 9C181.13 9.64312 181.718 10.2881 182.241 10.8947C182.804 11.5473 183.232 12.2192 183.82 12.8655C184.221 13.3064 184.188 13.7733 184.525 14.2135C184.708 14.4527 185 14.7514 185 15" stroke="#6028FF" stroke-width="12" stroke-linecap="round"/>
<path d="M185.016 80.1118C181.208 85.1427 183.173 85.6317 177.5 88.5" stroke="#6028FF" stroke-width="12" stroke-linecap="round"/>
<path d="M156.5 61.5C158.288 58.4023 156.641 61.6541 159 59C161.353 56.3534 161.344 55.6073 163.917 53.1825" stroke="#6028FF" stroke-width="12" stroke-linecap="round"/>
<path d="M250.11 81.1018C243.849 80.3192 236.423 77.27 231.102 73.7912C229.344 72.6414 228.084 71.6701 225.758 70.7055C223.431 69.741 224.96 69.8666 223.038 68.7567C221.116 67.6469 218.563 69.3295 218.639 67.4982C218.714 65.6669 227.054 62.1473 225.899 60.9546C223.767 58.7538 217.505 54.0048 217.026 50.8687C216.617 48.1836 221.085 51.5151 222.781 49.0651C223.61 47.8684 219.279 43.5013 220.606 43.0036C220.955 42.8729 223.846 44.4876 224.007 44.3265C224.251 44.0828 223.498 39.995 224.129 40.2317C224.677 40.4374 226.493 39.1662 227.059 39.0402C229.455 38.5078 232.617 43.407 233.467 45.1077" stroke="#6028FF" stroke-width="12" stroke-linecap="round"/>
<path d="M237.909 64.2333C238.36 67.3928 240.231 58.1361 240.231 54.9445" stroke="#6028FF" stroke-width="4" stroke-linecap="round"/>
<path d="M242.369 46.2688C245.946 46.2688 248.932 46.8858 252.411 47.6019C255.879 48.316 259.495 48.3491 262.882 49.3651" stroke="#6028FF" stroke-width="12" stroke-linecap="round"/>
<path d="M230.117 21.0621C230.214 21.2353 230.166 21.5042 230.205 21.6948C230.277 22.0481 230.431 22.3755 230.618 22.6868C231.116 23.5151 231.589 24.4749 232.199 25.226C232.872 26.0567 233.627 26.8064 234.383 27.562C234.87 28.0494 235.467 28.3978 235.959 28.89C236.916 29.8473 238.432 30.0119 239.613 30.4335" stroke="#6028FF" stroke-width="12" stroke-linecap="round"/>
<path d="M76.7698 132.235C66.4773 116.468 48.9419 89.6862 38.8435 71.7611C38.3177 69.12 35.0365 64.6733 39.2234 64.6733C55.439 64.6733 72.0781 65.9395 88.1786 63.8252C94.6384 62.977 101.667 62.4925 108.151 62.4925C114.243 62.4925 122.149 62.4449 128.124 60.8569C132.878 59.5936 138.245 60.3117 143.104 60.3117C147.239 60.3117 153.141 58.9623 156.51 61.8867C161.001 65.7857 161.798 70.3383 165.356 75.0324C167.851 78.3232 171.003 80.9819 173.552 84.3009C176.765 88.4858 178.586 93.9551 181.421 98.4764C185.398 104.817 189.588 110.585 193.687 116.468C198.181 122.917 200.197 130.954 209.752 128.766C219.731 126.481 229.24 129.008 239.06 129.008" stroke="black" stroke-width="12" stroke-linecap="round"/>
</svg>
