<svg width="177" height="158" viewBox="0 0 177 158" fill="none" xmlns="http://www.w3.org/2000/svg">
<g filter="url(#filter0_f_415_410)">
<path d="M57.3711 14.3441C61.1038 22.029 67.0174 28.443 72.2878 35.1056C76.3735 40.2706 80.3811 44.9128 85.4185 49.1293C93.8258 56.1665 102.638 63.382 112.065 69.0384C118.702 73.0205 125.778 75.9473 132.766 79.1858C134.507 79.9925 135.485 79.7354 135.303 81.5603C134.547 89.121 133.78 96.8401 134.126 104.453C134.456 111.724 135.076 119.602 137.373 126.493" stroke="black" stroke-opacity="0.8" stroke-width="12" stroke-linecap="round"/>
<path d="M56.2751 13.2482C51.5018 18.0216 49.5228 26.628 48.1167 33.0964C46.2035 41.8968 43.3694 52.1084 46.0466 61.1438C48.1725 68.3189 52.6835 73.6011 58.7511 77.9884C61.8404 80.2222 64.6078 82.9904 67.8838 84.9292C68.7967 85.4695 73.9499 87.1081 73.9722 87.9329C74.1991 96.3283 73.8379 107.68 80.3447 114.032C85.449 119.015 91.8654 122.541 98.813 124.301C103.473 125.482 108.572 127.791 113.425 127.954C117.402 128.088 121.76 129.081 125.724 129.781C128.645 130.296 134.689 130.638 137.008 128.319" stroke="black" stroke-opacity="0.8" stroke-width="12" stroke-linecap="round"/>
<path d="M45.8164 60.3474C45.0284 61.3605 46.0965 65.6921 46.0965 67.0685C46.0965 70.3674 47.1425 73.9856 48.3368 77.0567C49.5635 80.211 52.6745 82.7804 54.4355 85.6447C55.6543 87.6271 56.6585 89.7792 58.1383 91.5878C59.8709 93.7054 61.8923 95.5516 63.5836 97.7177C67.8177 103.14 72.8977 107.841 77.3058 113.089C78.125 114.064 80.8711 116.807 82.2221 116.356" stroke="black" stroke-opacity="0.8" stroke-width="12" stroke-linecap="round"/>
</g>
<defs>
<filter id="filter0_f_415_410" x="33.9509" y="2.24817" width="114.424" height="138.909" filterUnits="userSpaceOnUse" color-interpolation-filters="sRGB">
<feFlood flood-opacity="0" result="BackgroundImageFix"/>
<feBlend mode="normal" in="SourceGraphic" in2="BackgroundImageFix" result="shape"/>
<feGaussianBlur stdDeviation="2.5" result="effect1_foregroundBlur_415_410"/>
</filter>
</defs>
</svg>
