<svg width="170" height="31" viewBox="0 0 170 31" fill="none" xmlns="http://www.w3.org/2000/svg">
<path d="M17.924 18.666H10.466V24.606H7.43V7.27H17.924C19.31 7.27 20.476 8.37 20.476 9.822V16.114C20.476 17.566 19.31 18.666 17.924 18.666ZM17.44 15.542V10.394C17.44 10.174 17.264 9.998 17.044 9.998H10.466V15.938H17.044C17.264 15.938 17.44 15.762 17.44 15.542ZM33.2357 24.606H25.5357C24.1497 24.606 22.9837 23.506 22.9837 22.054V7.27H26.0197V21.482C26.0197 21.702 26.1957 21.878 26.4157 21.878H33.2357V24.606ZM50.8671 24.606H47.5671L46.0931 20.536H38.9431L37.4691 24.606H34.1911L40.8791 7.27H44.1791L50.8671 24.606ZM45.1251 17.808L43.8051 14.156C43.5191 13.386 42.8591 11.67 42.5291 10.636C42.1771 11.67 41.5391 13.386 41.2531 14.156L39.9331 17.808H45.1251ZM58.7178 24.606H55.6378V18.006L48.9938 7.27H52.4918L57.1778 15.036L61.8418 7.27H65.3618L58.7178 18.006V24.606ZM78.92 24.606H69.02C67.634 24.606 66.468 23.506 66.468 22.054V9.822C66.468 8.37 67.634 7.27 69.02 7.27H78.92C80.306 7.27 81.472 8.37 81.472 9.822V12.924H78.436V10.394C78.436 10.174 78.26 9.998 78.04 9.998H69.9C69.68 9.998 69.504 10.174 69.504 10.394V21.482C69.504 21.702 69.68 21.878 69.9 21.878H78.04C78.26 21.878 78.436 21.702 78.436 21.482V17.192H74.036V14.464H81.472V22.054C81.472 23.506 80.306 24.606 78.92 24.606ZM98.1448 24.606H94.7128L91.1268 17.588H87.1008V24.606H84.0648V7.27H94.5588C95.9448 7.27 97.1108 8.37 97.1108 9.822V15.036C97.1108 16.488 95.9448 17.588 94.5588 17.588H94.4928L98.1448 24.606ZM94.0748 14.464V10.394C94.0748 10.174 93.8988 9.998 93.6788 9.998H87.1008V14.86H93.6788C93.8988 14.86 94.0748 14.684 94.0748 14.464ZM112.068 24.606H102.168C100.782 24.606 99.6164 23.506 99.6164 22.054V9.822C99.6164 8.37 100.782 7.27 102.168 7.27H112.068C113.454 7.27 114.62 8.37 114.62 9.822V22.054C114.62 23.506 113.454 24.606 112.068 24.606ZM111.584 21.482V10.394C111.584 10.174 111.408 9.998 111.188 9.998H103.048C102.828 9.998 102.652 10.174 102.652 10.394V21.482C102.652 21.702 102.828 21.878 103.048 21.878H111.188C111.408 21.878 111.584 21.702 111.584 21.482ZM129.664 24.606H119.764C118.378 24.606 117.212 23.506 117.212 22.054V7.27H120.248V21.482C120.248 21.702 120.424 21.878 120.644 21.878H128.784C129.004 21.878 129.18 21.702 129.18 21.482V7.27H132.216V22.054C132.216 23.506 131.05 24.606 129.664 24.606ZM149.482 24.606H145.192L137.91 10.526C137.91 12.176 137.976 14.706 137.976 16.356V24.606H134.94V7.27H139.23L146.446 20.712V7.27H149.482V24.606ZM163.738 24.606H152.342V7.27H163.738C165.784 7.27 167.346 8.832 167.346 10.878V20.998C167.346 23.044 165.784 24.606 163.738 24.606ZM164.31 21.042V10.834C164.31 10.372 163.936 9.998 163.474 9.998H155.378V21.878H163.474C163.936 21.878 164.31 21.504 164.31 21.042Z" fill="black"/>
<path d="M74.1133 23.5L78.5228 29H2V2H148V29H86.184" stroke="black" stroke-width="3"/>
</svg>
