<svg width="76" height="38" viewBox="0 0 76 38" fill="none" xmlns="http://www.w3.org/2000/svg">
<line x1="7" y1="27.0419" x2="7" y2="11.6254" stroke="black" stroke-width="4" stroke-linecap="square"/>
<line x1="22" y1="36" x2="22" y2="2" stroke="black" stroke-width="4" stroke-linecap="square"/>
<line x1="17" y1="24.42" x2="17" y2="15" stroke="black" stroke-width="4" stroke-linecap="square"/>
<line x1="32" y1="20" x2="32" y2="20" stroke="black" stroke-width="4" stroke-linecap="square"/>
<line x1="37" y1="22" x2="37" y2="18" stroke="black" stroke-width="4" stroke-linecap="square"/>
<line x1="2" y1="22" x2="2" y2="18" stroke="black" stroke-width="4" stroke-linecap="square"/>
<line x1="12" y1="34" x2="12" y2="10" stroke="black" stroke-width="4" stroke-linecap="square"/>
<line x1="27" y1="34" x2="27" y2="10" stroke="black" stroke-width="4" stroke-linecap="square"/>
<path d="M49.24 17.504C49.24 19.954 47.504 21.06 45.348 21.06H43.5V24.504L41.708 25.134C41.316 25.274 41.12 25.148 41.12 24.756V13.948H45.488C47.644 13.948 49.24 15.054 49.24 17.504ZM43.5 16.02V18.988H44.774C45.866 18.988 46.804 18.736 46.804 17.504C46.804 16.272 45.866 16.02 44.774 16.02H43.5ZM53.2467 15.656H50.6987V13.22H53.2467V15.656ZM53.1487 24.518L51.3847 25.134C51.0067 25.26 50.7967 25.148 50.7967 24.756V16.944H53.1487V24.518ZM64.3147 21.438C64.1047 23.79 62.1727 25.176 59.6667 25.176C57.0067 25.176 54.9767 23.622 54.9767 20.962V17.882C54.9767 15.222 57.0067 13.668 59.6667 13.668C62.1727 13.668 64.1047 15.054 64.3147 17.406L61.9067 17.588C61.7527 16.37 60.9967 15.768 59.6667 15.768C58.1407 15.768 57.3567 16.566 57.3567 18.19V20.654C57.3567 22.278 58.1407 23.076 59.6667 23.076C60.9967 23.076 61.7527 22.474 61.9067 21.256L64.3147 21.438ZM68.5605 24.504L66.7685 25.134C66.3765 25.274 66.1805 25.148 66.1805 24.756V13.948H68.5605V18.4L72.2565 13.948H75.1405L70.6465 19.254L75.2805 24.896H72.3545L68.5605 20.206V24.504Z" fill="black"/>
</svg>
