<svg width="75" height="70" viewBox="0 0 75 70" fill="none" xmlns="http://www.w3.org/2000/svg">
<circle cx="38" cy="36" r="29" fill="black"/>
<path d="M57.7523 66C46.315 66 54.2994 63.3441 62.4998 61C70.7002 58.6559 65.5002 41.5945 62.5001 27.5C59.5 13.4055 60.6659 -4 18.3477 24.4015C-23.9705 52.803 32.8251 57.2887 49.9835 57.2887C61.9405 57.2887 71.3477 50.4035 71.3477 38.496C71.3477 26.2499 66.541 18.3633 57.7523 10.307C48.2609 1.60653 32.5791 5.91806 20.8507 6.54853C10.5371 7.10294 6.40444 22 6.40444 34.5C6.40444 47 13.3405 49.4961 24.8429 54.3654C37.1671 59.5825 47.3689 58.206 54.2995 46.0131C59.6412 36.6156 64.5399 15.3467 53.6521 8.32335C31.1345 -6.20202 19.356 11.4272 12.0029 32.023C6.57724 47.22 5.48362 56.3008 20.8507 63.3441C38.1332 71.2654 53.7191 60.1996 62.4999 46.8483C66.5853 40.6364 67.8679 25.263 67.4633 17.8241C66.9192 7.82141 49.7424 1.69269 42.2148 6.54853" stroke="black" stroke-width="6" stroke-linecap="round"/>
<path d="M55.5 59.5C53.8607 59.5 52.781 57.8976 59.5 56C66.219 54.1024 60.2089 40.2432 57.7508 28.8333C55.2926 17.4235 56.2479 3.33333 21.5745 26.325C-13.0989 49.3168 33.4366 52.948 47.4953 52.948C57.2922 52.948 65 47.3743 65 37.7349C65 27.8213 61.0616 21.437 53.8607 14.9152C46.0839 7.87196 34.6097 10.4896 25 11C16.5496 11.4488 11.5 19.4872 11.5 36C11.5 52.5128 17.4719 46.6397 26.8964 50.5815C36.9942 54.8049 45.353 53.6906 51.0316 43.8201C55.4083 36.2126 59.422 18.9949 50.5012 13.3094C32.0514 1.55074 22.4007 15.822 16.3759 32.4948C11.9304 44.7971 11.0343 52.1483 23.6253 57.85C37.7858 64.2624 50.5561 55.3045 57.7506 44.4963C61.098 39.4676 62.1489 27.0224 61.8173 21.0005C61.3715 12.903 47.2978 7.9417 41.13 11.8726" stroke="white" stroke-width="6" stroke-linecap="round"/>
<circle cx="38" cy="34" r="26" fill="white"/>
<path d="M33 26C32.5006 26.809 32.8027 28.7195 32.4167 29.72C32.1373 30.4442 32.2392 31.311 32 32" stroke="black" stroke-width="7" stroke-linecap="round"/>
<path d="M45 26C44.9206 28.0583 44.6114 30.2392 44 32" stroke="black" stroke-width="7" stroke-linecap="round"/>
<path d="M68.998 65C68.9186 65.3431 68.6094 65.7065 67.998 66" stroke="black" stroke-width="7" stroke-linecap="round"/>
<path d="M19 37.2632C19.5577 37.4257 20.0151 38.0968 20.4896 38.4181C21.3694 39.0139 22.3632 39.3827 23.3935 39.6462C26.1346 40.3471 29.0975 41.3778 31.9097 41.6783C35.02 42.0108 38.1298 42 41.2535 42C43.2687 42 45.2223 41.4736 47.2569 41.4736C51.2147 41.4736 54.6879 38.6091 58 37" stroke="black" stroke-width="7" stroke-linecap="round"/>
</svg>
