<svg width="32" height="32" viewBox="0 0 32 32" fill="none" xmlns="http://www.w3.org/2000/svg">
<g clip-path="url(#clip0_273_54)">
<path d="M28.2736 15.2703C28.2736 13.0818 27.0676 12.4876 25.2524 11.5118C24.1332 10.9102 21.0335 10.4808 20.5048 9.84133C17.7294 6.48447 12.0411 15.7642 11.8729 17.9616C11.3687 24.5469 12.8789 26.1283 20.5048 26.1283C25.819 26.1283 30 23.0682 30 17.776C30 12.3333 27.8637 8.82815 23.9576 5.24756C19.7392 1.38068 12.7695 3.29689 7.55688 3.5771C2.97308 3.82351 2.3777 11.0783 2.3777 14.0175C2.3777 19.1501 4.21904 22.6649 9.33123 24.8291C14.8086 27.1478 19.3428 26.536 22.423 21.1169C24.7971 16.9403 26.9743 7.48741 22.1353 4.36593C12.1275 -2.08979 6.8926 5.74542 3.62454 14.8991C1.21314 21.6533 0.727084 25.6893 7.55688 28.8196C15.238 32.3402 22.1651 27.4221 26.0677 21.4881C27.8834 18.7273 28.4534 11.8947 28.2736 8.58848C28.0318 4.14285 20.3977 1.41895 17.052 3.5771" stroke="#287eff" stroke-width="3" stroke-linecap="round"/>
<path d="M13.5556 11.7778C13.3337 12.1374 13.4679 12.9865 13.2963 13.4312C13.1721 13.753 13.2175 14.1383 13.1111 14.4445" stroke="black" stroke-width="3" stroke-linecap="round"/>
<path d="M18.8889 11.7778C18.8536 12.6926 18.7162 13.6619 18.4445 14.4445" stroke="black" stroke-width="3" stroke-linecap="round"/>
<path d="M7.33331 17.6726C7.58118 17.7449 7.78445 18.0431 7.99535 18.1859C8.38638 18.4507 8.82809 18.6147 9.28599 18.7317C10.5042 19.0432 11.8211 19.5013 13.071 19.6349C14.4533 19.7827 15.8354 19.7779 17.2237 19.7779C18.1194 19.7779 18.9877 19.544 19.892 19.544C21.651 19.544 23.1946 18.2708 24.6666 17.5557" stroke="black" stroke-width="3" stroke-linecap="round"/>
</g>
<defs>
<clipPath id="clip0_273_54">
<rect width="31.88" height="32" fill="white"/>
</clipPath>
</defs>
</svg>
